<svg width="214" height="40" viewBox="0 0 214 40" fill="none" xmlns="http://www.w3.org/2000/svg">
<path d="M212.017 37.8318C212.017 35.5289 210.716 34.6974 208.58 34.6974H192.356C184.74 34.6974 182.046 29.8354 181.706 26.4769H204.214C210.778 26.4769 212.729 21.5831 212.729 18.4484C212.729 15.0899 210.623 10.42 204.214 10.42H192.047C180.963 10.42 177.34 18.1926 177.34 24.5258C177.34 31.4667 181.489 38.6317 192.016 38.6317H212.017V37.8318ZM192.387 14.3543H203.657C207.558 14.3543 208.487 16.8492 208.487 18.4804C208.487 19.9198 207.62 22.6066 203.657 22.6066H181.706C181.984 19.7599 184.244 14.3543 192.387 14.3543ZM146.472 36.8404C145.326 38.4716 144.521 39.0474 143.5 39.0474C142.075 39.0474 141.549 38.2478 140.528 36.8404C138.082 33.3859 121.796 10.42 121.796 10.42H124.304C127.028 10.42 127.802 11.4115 128.917 13.0428C129.412 13.7465 143.562 34.3774 143.562 34.3774C143.562 34.3774 157.711 13.7785 158.268 12.9469C159.321 11.4115 160.126 10.42 162.85 10.42H165.048C165.048 10.42 148.484 34.0257 146.472 36.8404ZM39.7183 38.6317C38.0154 38.6317 36.9318 37.768 36.6223 35.8808L36.065 32.8101C35.136 34.5693 31.7303 38.6317 24.3307 38.6317H15.8164C4.23694 38.6317 0.955078 30.5071 0.955078 24.5258C0.955078 17.7767 4.88713 10.42 15.8164 10.42H24.3307C32.6282 10.42 37.2105 15.4098 38.3252 21.4871C39.2538 26.5729 41.4211 38.6317 41.4211 38.6317H39.7183ZM23.3709 14.3543H16.095C7.92132 14.3543 5.13481 19.7279 5.13481 24.5258C5.13481 29.3237 7.92132 34.6974 16.095 34.6974H23.3709C31.9161 34.6974 34.3929 29.0997 34.3929 24.5258C34.3929 20.4316 32.1638 14.3543 23.3709 14.3543ZM170.591 7.1894C171.798 7.1894 172.727 6.42174 172.727 4.9504V4.0228C172.727 2.55145 171.767 1.78378 170.591 1.78378C169.414 1.78378 168.454 2.51946 168.454 4.0228V4.9504C168.423 6.42174 169.383 7.1894 170.591 7.1894ZM168.485 10.42H169.476C171.426 10.42 172.665 11.3156 172.665 14.0664V38.6317H171.612C169.476 38.6317 168.454 37.448 168.454 35.0812C168.485 34.7293 168.485 10.42 168.485 10.42ZM47.8302 14.0984C49.6259 12.3391 52.8458 10.42 57.9234 10.42H66.4376C78.017 10.42 81.2991 18.5444 81.2991 24.5258C81.2991 31.2748 77.3668 38.6317 66.4376 38.6317H57.9234C49.6259 38.6317 43.6503 33.098 43.6503 24.5258V0.952148H44.9508C46.8084 0.952148 47.8302 1.94371 47.8302 3.73492V14.0984ZM58.8523 34.6974H66.1281C74.3019 34.6974 77.0884 29.3237 77.0884 24.5258C77.0884 19.7279 74.3019 14.3543 66.1281 14.3543H58.8523C50.307 14.3543 47.8302 19.9518 47.8302 24.5258C47.8302 28.6199 50.0283 34.6974 58.8523 34.6974ZM89.6894 14.0984C91.4851 12.3391 94.705 10.42 99.7828 10.42H108.297C119.876 10.42 123.158 18.5444 123.158 24.5258C123.158 31.2748 119.226 38.6317 108.297 38.6317H99.7828C91.4851 38.6317 85.5097 33.098 85.5097 24.5258V0.952148H86.81C88.6678 0.952148 89.6894 1.94371 89.6894 3.73492V14.0984ZM100.711 34.6974H107.987C116.161 34.6974 118.948 29.3237 118.948 24.5258C118.948 19.7279 116.161 14.3543 107.987 14.3543H100.711C92.1664 14.3543 89.6894 19.9518 89.6894 24.5258C89.6894 28.6199 91.9185 34.6974 100.711 34.6974Z" fill="#C4D4CF"/>
</svg>
