<svg width="44" height="44" viewBox="0 0 44 44" fill="none" xmlns="http://www.w3.org/2000/svg">
<path d="M22.3841 34.174C29.1099 34.174 34.5622 28.7236 34.5622 22.0001C34.5622 15.2766 29.1099 9.82617 22.3841 9.82617C15.6584 9.82617 10.2061 15.2766 10.2061 22.0001C10.2061 28.7236 15.6584 34.174 22.3841 34.174Z" stroke="#E6570B" stroke-width="2" stroke-miterlimit="10" stroke-linecap="round" stroke-linejoin="round"/>
<path d="M22.3848 9.82585V5.47803" stroke="#E6570B" stroke-width="2" stroke-miterlimit="10" stroke-linecap="round" stroke-linejoin="round"/>
<path d="M16.2957 11.4784L14.1211 7.65234" stroke="#E6570B" stroke-width="2" stroke-miterlimit="10" stroke-linecap="round" stroke-linejoin="round"/>
<path d="M10.2067 22H5.85742" stroke="#E6570B" stroke-width="2" stroke-miterlimit="10" stroke-linecap="round" stroke-linejoin="round"/>
<path d="M16.2957 32.5215L14.1211 36.3476" stroke="#E6570B" stroke-width="2" stroke-miterlimit="10" stroke-linecap="round" stroke-linejoin="round"/>
<path d="M28.4736 32.5215L30.6483 36.3476" stroke="#E6570B" stroke-width="2" stroke-miterlimit="10" stroke-linecap="round" stroke-linejoin="round"/>
<path d="M34.5625 22H38.9118" stroke="#E6570B" stroke-width="2" stroke-miterlimit="10" stroke-linecap="round" stroke-linejoin="round"/>
<path d="M28.4736 11.4784L30.6483 7.65234" stroke="#E6570B" stroke-width="2" stroke-miterlimit="10" stroke-linecap="round" stroke-linejoin="round"/>
<path d="M24.9944 28.087C26.4356 28.087 27.6039 26.9191 27.6039 25.4783C27.6039 24.0376 26.4356 22.8696 24.9944 22.8696C23.5531 22.8696 22.3848 24.0376 22.3848 25.4783C22.3848 26.9191 23.5531 28.087 24.9944 28.087Z" stroke="#E6570B" stroke-width="2" stroke-miterlimit="10" stroke-linecap="round" stroke-linejoin="round"/>
<path d="M22.3843 5.47826C23.3451 5.47826 24.124 4.69963 24.124 3.73913C24.124 2.77864 23.3451 2 22.3843 2C21.4234 2 20.6445 2.77864 20.6445 3.73913C20.6445 4.69963 21.4234 5.47826 22.3843 5.47826Z" stroke="#E6570B" stroke-width="2" stroke-miterlimit="10" stroke-linecap="round" stroke-linejoin="round"/>
<path d="M11.8596 15.9132L8.11914 13.7393" stroke="#E6570B" stroke-width="2" stroke-miterlimit="10" stroke-linecap="round" stroke-linejoin="round"/>
<path d="M7.59679 11.3912C8.37966 11.913 8.72762 12.9565 8.2057 13.7391C7.77077 14.6086 6.63994 14.8695 5.85706 14.3477C5.07418 13.826 4.72625 12.7825 5.24817 11.9999C5.6831 11.1304 6.72692 10.8695 7.59679 11.3912Z" stroke="#E6570B" stroke-width="2" stroke-miterlimit="10" stroke-linecap="round" stroke-linejoin="round"/>
<path d="M11.9465 28.0869L8.20605 30.2608" stroke="#E6570B" stroke-width="2" stroke-miterlimit="10" stroke-linecap="round" stroke-linejoin="round"/>
<path d="M5.85706 29.6524C6.63994 29.1306 7.77077 29.4785 8.2057 30.2611C8.64063 31.1306 8.37966 32.1741 7.59678 32.6089C6.81391 33.1306 5.6831 32.7828 5.24817 32.0002C4.72625 31.1306 5.07418 30.0872 5.85706 29.6524Z" stroke="#E6570B" stroke-width="2" stroke-miterlimit="10" stroke-linecap="round" stroke-linejoin="round"/>
<path d="M22.3848 34.1738V38.5217" stroke="#E6570B" stroke-width="2" stroke-miterlimit="10" stroke-linecap="round" stroke-linejoin="round"/>
<path d="M22.3843 42.0002C23.3451 42.0002 24.124 41.2216 24.124 40.2611C24.124 39.3006 23.3451 38.522 22.3843 38.522C21.4234 38.522 20.6445 39.3006 20.6445 40.2611C20.6445 41.2216 21.4234 42.0002 22.3843 42.0002Z" stroke="#E6570B" stroke-width="2" stroke-miterlimit="10" stroke-linecap="round" stroke-linejoin="round"/>
<path d="M32.8232 28.0869L36.5637 30.2608" stroke="#E6570B" stroke-width="2" stroke-miterlimit="10" stroke-linecap="round" stroke-linejoin="round"/>
<path d="M37.1725 32.6085C36.3896 32.0867 36.0417 31.0433 36.5636 30.2607C36.9985 29.3911 38.1293 29.1302 38.9122 29.652C39.6951 30.1737 40.043 31.2172 39.5211 31.9998C39.0862 32.8694 38.0424 33.1302 37.1725 32.6085Z" stroke="#E6570B" stroke-width="2" stroke-miterlimit="10" stroke-linecap="round" stroke-linejoin="round"/>
<path d="M32.8232 15.9132L36.5637 13.7393" stroke="#E6570B" stroke-width="2" stroke-miterlimit="10" stroke-linecap="round" stroke-linejoin="round"/>
<path d="M38.9117 14.3477C38.1288 14.8694 36.998 14.5216 36.563 13.739C36.1281 12.8694 36.3891 11.8259 37.1719 11.3911C37.9548 10.8694 39.0856 11.2172 39.5206 11.9999C40.0425 12.8694 39.7815 13.9129 38.9117 14.3477Z" stroke="#E6570B" stroke-width="2" stroke-miterlimit="10" stroke-linecap="round" stroke-linejoin="round"/>
<path d="M29.3435 20.2611C29.8239 20.2611 30.2134 19.8718 30.2134 19.3915C30.2134 18.9113 29.8239 18.522 29.3435 18.522C28.8631 18.522 28.4736 18.9113 28.4736 19.3915C28.4736 19.8718 28.8631 20.2611 29.3435 20.2611Z" fill="#E6570B"/>
<path d="M19.8699 15.913C20.3503 15.913 20.7397 15.5236 20.7397 15.0434C20.7397 14.5631 20.3503 14.1738 19.8699 14.1738C19.3895 14.1738 19 14.5631 19 15.0434C19 15.5236 19.3895 15.913 19.8699 15.913Z" fill="#E6570B"/>
<path d="M17.1648 27.2176C17.6452 27.2176 18.0346 26.8283 18.0346 26.3481C18.0346 25.8678 17.6452 25.4785 17.1648 25.4785C16.6844 25.4785 16.2949 25.8678 16.2949 26.3481C16.2949 26.8283 16.6844 27.2176 17.1648 27.2176Z" fill="#E6570B"/>
</svg>
