<svg width="264" height="159" viewBox="0 0 264 159" fill="none" xmlns="http://www.w3.org/2000/svg">
<rect width="264" height="159" rx="15" fill="#FFDD99"/>
<g clip-path="url(#clip0_159_10157)">
<path d="M46 24C33.8505 24 24 33.8505 24 46C24 57.0293 32.1253 66.1373 42.711 67.7287V51.83H37.2678V46.0477H42.711V42.1995C42.711 35.8287 45.8148 33.0328 51.1095 33.0328C53.645 33.0328 54.987 33.2217 55.6213 33.306V38.3532H52.0097C49.762 38.3532 48.9773 40.4853 48.9773 42.887V46.0477H55.5645L54.6717 51.83H48.9773V67.7745C59.7152 66.3188 68 57.1375 68 46C68 33.8505 58.1495 24 46 24Z" fill="#E6570B"/>
</g>
<path d="M32.712 86.49V88.164H27.402V91.854H31.542V93.528H27.402V99H25.35V86.49H32.712ZM33.9297 93.996C33.9297 93 34.1337 92.118 34.5417 91.35C34.9617 90.582 35.5257 89.988 36.2337 89.568C36.9537 89.136 37.7457 88.92 38.6097 88.92C39.3897 88.92 40.0677 89.076 40.6437 89.388C41.2317 89.688 41.6997 90.066 42.0477 90.522V89.082H44.1177V99H42.0477V97.524C41.6997 97.992 41.2257 98.382 40.6257 98.694C40.0257 99.006 39.3417 99.162 38.5737 99.162C37.7217 99.162 36.9417 98.946 36.2337 98.514C35.5257 98.07 34.9617 97.458 34.5417 96.678C34.1337 95.886 33.9297 94.992 33.9297 93.996ZM42.0477 94.032C42.0477 93.348 41.9037 92.754 41.6157 92.25C41.3397 91.746 40.9737 91.362 40.5177 91.098C40.0617 90.834 39.5697 90.702 39.0417 90.702C38.5137 90.702 38.0217 90.834 37.5657 91.098C37.1097 91.35 36.7377 91.728 36.4497 92.232C36.1737 92.724 36.0357 93.312 36.0357 93.996C36.0357 94.68 36.1737 95.28 36.4497 95.796C36.7377 96.312 37.1097 96.708 37.5657 96.984C38.0337 97.248 38.5257 97.38 39.0417 97.38C39.5697 97.38 40.0617 97.248 40.5177 96.984C40.9737 96.72 41.3397 96.336 41.6157 95.832C41.9037 95.316 42.0477 94.716 42.0477 94.032ZM46.1289 94.032C46.1289 93.012 46.3329 92.118 46.7409 91.35C47.1609 90.57 47.7369 89.97 48.4689 89.55C49.2009 89.13 50.0409 88.92 50.9889 88.92C52.1889 88.92 53.1789 89.208 53.9589 89.784C54.7509 90.348 55.2849 91.158 55.5609 92.214H53.3469C53.1669 91.722 52.8789 91.338 52.4829 91.062C52.0869 90.786 51.5889 90.648 50.9889 90.648C50.1489 90.648 49.4769 90.948 48.9729 91.548C48.4809 92.136 48.2349 92.964 48.2349 94.032C48.2349 95.1 48.4809 95.934 48.9729 96.534C49.4769 97.134 50.1489 97.434 50.9889 97.434C52.1769 97.434 52.9629 96.912 53.3469 95.868H55.5609C55.2729 96.876 54.7329 97.68 53.9409 98.28C53.1489 98.868 52.1649 99.162 50.9889 99.162C50.0409 99.162 49.2009 98.952 48.4689 98.532C47.7369 98.1 47.1609 97.5 46.7409 96.732C46.3329 95.952 46.1289 95.052 46.1289 94.032ZM66.6959 93.798C66.6959 94.17 66.6719 94.506 66.6239 94.806H59.0459C59.1059 95.598 59.3999 96.234 59.9279 96.714C60.4559 97.194 61.1039 97.434 61.8719 97.434C62.9759 97.434 63.7559 96.972 64.2119 96.048H66.4259C66.1259 96.96 65.5799 97.71 64.7879 98.298C64.0079 98.874 63.0359 99.162 61.8719 99.162C60.9239 99.162 60.0719 98.952 59.3159 98.532C58.5719 98.1 57.9839 97.5 57.5519 96.732C57.1319 95.952 56.9219 95.052 56.9219 94.032C56.9219 93.012 57.1259 92.118 57.5339 91.35C57.9539 90.57 58.5359 89.97 59.2799 89.55C60.0359 89.13 60.8999 88.92 61.8719 88.92C62.8079 88.92 63.6419 89.124 64.3739 89.532C65.1059 89.94 65.6759 90.516 66.0839 91.26C66.4919 91.992 66.6959 92.838 66.6959 93.798ZM64.5539 93.15C64.5419 92.394 64.2719 91.788 63.7439 91.332C63.2159 90.876 62.5619 90.648 61.7819 90.648C61.0739 90.648 60.4679 90.876 59.9639 91.332C59.4599 91.776 59.1599 92.382 59.0639 93.15H64.5539ZM70.7672 90.558C71.1152 90.078 71.5892 89.688 72.1892 89.388C72.8012 89.076 73.4792 88.92 74.2232 88.92C75.0992 88.92 75.8912 89.13 76.5992 89.55C77.3072 89.97 77.8652 90.57 78.2732 91.35C78.6812 92.118 78.8852 93 78.8852 93.996C78.8852 94.992 78.6812 95.886 78.2732 96.678C77.8652 97.458 77.3012 98.07 76.5812 98.514C75.8732 98.946 75.0872 99.162 74.2232 99.162C73.4552 99.162 72.7712 99.012 72.1712 98.712C71.5832 98.412 71.1152 98.028 70.7672 97.56V99H68.7152V85.68H70.7672V90.558ZM76.7972 93.996C76.7972 93.312 76.6532 92.724 76.3652 92.232C76.0892 91.728 75.7172 91.35 75.2492 91.098C74.7932 90.834 74.3012 90.702 73.7732 90.702C73.2572 90.702 72.7652 90.834 72.2972 91.098C71.8412 91.362 71.4692 91.746 71.1812 92.25C70.9052 92.754 70.7672 93.348 70.7672 94.032C70.7672 94.716 70.9052 95.316 71.1812 95.832C71.4692 96.336 71.8412 96.72 72.2972 96.984C72.7652 97.248 73.2572 97.38 73.7732 97.38C74.3012 97.38 74.7932 97.248 75.2492 96.984C75.7172 96.708 76.0892 96.312 76.3652 95.796C76.6532 95.28 76.7972 94.68 76.7972 93.996ZM85.2165 99.162C84.2805 99.162 83.4345 98.952 82.6785 98.532C81.9225 98.1 81.3285 97.5 80.8965 96.732C80.4645 95.952 80.2485 95.052 80.2485 94.032C80.2485 93.024 80.4705 92.13 80.9145 91.35C81.3585 90.57 81.9645 89.97 82.7325 89.55C83.5005 89.13 84.3585 88.92 85.3065 88.92C86.2545 88.92 87.1125 89.13 87.8805 89.55C88.6485 89.97 89.2545 90.57 89.6985 91.35C90.1425 92.13 90.3645 93.024 90.3645 94.032C90.3645 95.04 90.1365 95.934 89.6805 96.714C89.2245 97.494 88.6005 98.1 87.8085 98.532C87.0285 98.952 86.1645 99.162 85.2165 99.162ZM85.2165 97.38C85.7445 97.38 86.2365 97.254 86.6925 97.002C87.1605 96.75 87.5385 96.372 87.8265 95.868C88.1145 95.364 88.2585 94.752 88.2585 94.032C88.2585 93.312 88.1205 92.706 87.8445 92.214C87.5685 91.71 87.2025 91.332 86.7465 91.08C86.2905 90.828 85.7985 90.702 85.2705 90.702C84.7425 90.702 84.2505 90.828 83.7945 91.08C83.3505 91.332 82.9965 91.71 82.7325 92.214C82.4685 92.706 82.3365 93.312 82.3365 94.032C82.3365 95.1 82.6065 95.928 83.1465 96.516C83.6985 97.092 84.3885 97.38 85.2165 97.38ZM96.695 99.162C95.759 99.162 94.913 98.952 94.157 98.532C93.401 98.1 92.807 97.5 92.375 96.732C91.943 95.952 91.727 95.052 91.727 94.032C91.727 93.024 91.949 92.13 92.393 91.35C92.837 90.57 93.443 89.97 94.211 89.55C94.979 89.13 95.837 88.92 96.785 88.92C97.733 88.92 98.591 89.13 99.359 89.55C100.127 89.97 100.733 90.57 101.177 91.35C101.621 92.13 101.843 93.024 101.843 94.032C101.843 95.04 101.615 95.934 101.159 96.714C100.703 97.494 100.079 98.1 99.287 98.532C98.507 98.952 97.643 99.162 96.695 99.162ZM96.695 97.38C97.223 97.38 97.715 97.254 98.171 97.002C98.639 96.75 99.017 96.372 99.305 95.868C99.593 95.364 99.737 94.752 99.737 94.032C99.737 93.312 99.599 92.706 99.323 92.214C99.047 91.71 98.681 91.332 98.225 91.08C97.769 90.828 97.277 90.702 96.749 90.702C96.221 90.702 95.729 90.828 95.273 91.08C94.829 91.332 94.475 91.71 94.211 92.214C93.947 92.706 93.815 93.312 93.815 94.032C93.815 95.1 94.085 95.928 94.625 96.516C95.177 97.092 95.867 97.38 96.695 97.38ZM107.795 94.05L112.367 99H109.595L105.923 94.734V99H103.871V85.68H105.923V93.42L109.523 89.082H112.367L107.795 94.05Z" fill="#30423C"/>
<defs>
<clipPath id="clip0_159_10157">
<rect width="44" height="44" fill="white" transform="translate(24 24)"/>
</clipPath>
</defs>
</svg>
