<svg width="264" height="159" viewBox="0 0 264 159" fill="none" xmlns="http://www.w3.org/2000/svg">
<rect width="264" height="159" rx="15" fill="#30423C"/>
<g clip-path="url(#clip0_197_16690)">
<path d="M46 24C33.8505 24 24 33.8505 24 46C24 57.0293 32.1253 66.1373 42.711 67.7287V51.83H37.2678V46.0477H42.711V42.1995C42.711 35.8287 45.8148 33.0328 51.1095 33.0328C53.645 33.0328 54.987 33.2217 55.6213 33.306V38.3532H52.0097C49.762 38.3532 48.9773 40.4853 48.9773 42.887V46.0477H55.5645L54.6717 51.83H48.9773V67.7745C59.7152 66.3188 68 57.1375 68 46C68 33.8505 58.1495 24 46 24Z" fill="white"/>
</g>
<path d="M33 86.436V88.47H27.762V91.692H31.776V93.69H27.762V99H25.242V86.436H33ZM34.1389 93.978C34.1389 92.97 34.3369 92.076 34.7329 91.296C35.1409 90.516 35.6869 89.916 36.3709 89.496C37.0669 89.076 37.8409 88.866 38.6929 88.866C39.4369 88.866 40.0849 89.016 40.6369 89.316C41.2009 89.616 41.6509 89.994 41.9869 90.45V89.028H44.5249V99H41.9869V97.542C41.6629 98.01 41.2129 98.4 40.6369 98.712C40.0729 99.012 39.4189 99.162 38.6749 99.162C37.8349 99.162 37.0669 98.946 36.3709 98.514C35.6869 98.082 35.1409 97.476 34.7329 96.696C34.3369 95.904 34.1389 94.998 34.1389 93.978ZM41.9869 94.014C41.9869 93.402 41.8669 92.88 41.6269 92.448C41.3869 92.004 41.0629 91.668 40.6549 91.44C40.2469 91.2 39.8089 91.08 39.3409 91.08C38.8729 91.08 38.4409 91.194 38.0449 91.422C37.6489 91.65 37.3249 91.986 37.0729 92.43C36.8329 92.862 36.7129 93.378 36.7129 93.978C36.7129 94.578 36.8329 95.106 37.0729 95.562C37.3249 96.006 37.6489 96.348 38.0449 96.588C38.4529 96.828 38.8849 96.948 39.3409 96.948C39.8089 96.948 40.2469 96.834 40.6549 96.606C41.0629 96.366 41.3869 96.03 41.6269 95.598C41.8669 95.154 41.9869 94.626 41.9869 94.014ZM46.3381 94.014C46.3381 92.982 46.5481 92.082 46.9681 91.314C47.3881 90.534 47.9701 89.934 48.7141 89.514C49.4581 89.082 50.3101 88.866 51.2701 88.866C52.5061 88.866 53.5261 89.178 54.3301 89.802C55.1461 90.414 55.6921 91.278 55.9681 92.394H53.2501C53.1061 91.962 52.8601 91.626 52.5121 91.386C52.1761 91.134 51.7561 91.008 51.2521 91.008C50.5321 91.008 49.9621 91.272 49.5421 91.8C49.1221 92.316 48.9121 93.054 48.9121 94.014C48.9121 94.962 49.1221 95.7 49.5421 96.228C49.9621 96.744 50.5321 97.002 51.2521 97.002C52.2721 97.002 52.9381 96.546 53.2501 95.634H55.9681C55.6921 96.714 55.1461 97.572 54.3301 98.208C53.5141 98.844 52.4941 99.162 51.2701 99.162C50.3101 99.162 49.4581 98.952 48.7141 98.532C47.9701 98.1 47.3881 97.5 46.9681 96.732C46.5481 95.952 46.3381 95.046 46.3381 94.014ZM67.0843 93.798C67.0843 94.158 67.0603 94.482 67.0123 94.77H59.7223C59.7823 95.49 60.0343 96.054 60.4783 96.462C60.9223 96.87 61.4683 97.074 62.1163 97.074C63.0523 97.074 63.7183 96.672 64.1143 95.868H66.8323C66.5443 96.828 65.9923 97.62 65.1763 98.244C64.3603 98.856 63.3583 99.162 62.1703 99.162C61.2103 99.162 60.3463 98.952 59.5783 98.532C58.8223 98.1 58.2283 97.494 57.7963 96.714C57.3763 95.934 57.1663 95.034 57.1663 94.014C57.1663 92.982 57.3763 92.076 57.7963 91.296C58.2163 90.516 58.8043 89.916 59.5603 89.496C60.3163 89.076 61.1863 88.866 62.1703 88.866C63.1183 88.866 63.9643 89.07 64.7083 89.478C65.4643 89.886 66.0463 90.468 66.4543 91.224C66.8743 91.968 67.0843 92.826 67.0843 93.798ZM64.4743 93.078C64.4623 92.43 64.2283 91.914 63.7723 91.53C63.3163 91.134 62.7583 90.936 62.0983 90.936C61.4743 90.936 60.9463 91.128 60.5143 91.512C60.0943 91.884 59.8363 92.406 59.7403 93.078H64.4743ZM71.4436 90.486C71.7676 90.006 72.2116 89.616 72.7756 89.316C73.3516 89.016 74.0056 88.866 74.7376 88.866C75.5896 88.866 76.3576 89.076 77.0416 89.496C77.7376 89.916 78.2836 90.516 78.6796 91.296C79.0876 92.064 79.2916 92.958 79.2916 93.978C79.2916 94.998 79.0876 95.904 78.6796 96.696C78.2836 97.476 77.7376 98.082 77.0416 98.514C76.3576 98.946 75.5896 99.162 74.7376 99.162C73.9936 99.162 73.3396 99.018 72.7756 98.73C72.2236 98.43 71.7796 98.046 71.4436 97.578V99H68.9236V85.68H71.4436V90.486ZM76.7176 93.978C76.7176 93.378 76.5916 92.862 76.3396 92.43C76.0996 91.986 75.7756 91.65 75.3676 91.422C74.9716 91.194 74.5396 91.08 74.0716 91.08C73.6156 91.08 73.1836 91.2 72.7756 91.44C72.3796 91.668 72.0556 92.004 71.8036 92.448C71.5636 92.892 71.4436 93.414 71.4436 94.014C71.4436 94.614 71.5636 95.136 71.8036 95.58C72.0556 96.024 72.3796 96.366 72.7756 96.606C73.1836 96.834 73.6156 96.948 74.0716 96.948C74.5396 96.948 74.9716 96.828 75.3676 96.588C75.7756 96.348 76.0996 96.006 76.3396 95.562C76.5916 95.118 76.7176 94.59 76.7176 93.978ZM85.5509 99.162C84.5909 99.162 83.7269 98.952 82.9589 98.532C82.1909 98.1 81.5849 97.494 81.1409 96.714C80.7089 95.934 80.4929 95.034 80.4929 94.014C80.4929 92.994 80.7149 92.094 81.1589 91.314C81.6149 90.534 82.2329 89.934 83.0129 89.514C83.7929 89.082 84.6629 88.866 85.6229 88.866C86.5829 88.866 87.4529 89.082 88.2329 89.514C89.0129 89.934 89.6249 90.534 90.0689 91.314C90.5249 92.094 90.7529 92.994 90.7529 94.014C90.7529 95.034 90.5189 95.934 90.0509 96.714C89.5949 97.494 88.9709 98.1 88.1789 98.532C87.3989 98.952 86.5229 99.162 85.5509 99.162ZM85.5509 96.966C86.0069 96.966 86.4329 96.858 86.8289 96.642C87.2369 96.414 87.5609 96.078 87.8009 95.634C88.0409 95.19 88.1609 94.65 88.1609 94.014C88.1609 93.066 87.9089 92.34 87.4049 91.836C86.9129 91.32 86.3069 91.062 85.5869 91.062C84.8669 91.062 84.2609 91.32 83.7689 91.836C83.2889 92.34 83.0489 93.066 83.0489 94.014C83.0489 94.962 83.2829 95.694 83.7509 96.21C84.2309 96.714 84.8309 96.966 85.5509 96.966ZM97.0294 99.162C96.0694 99.162 95.2054 98.952 94.4374 98.532C93.6694 98.1 93.0634 97.494 92.6194 96.714C92.1874 95.934 91.9714 95.034 91.9714 94.014C91.9714 92.994 92.1934 92.094 92.6374 91.314C93.0934 90.534 93.7114 89.934 94.4914 89.514C95.2714 89.082 96.1414 88.866 97.1014 88.866C98.0614 88.866 98.9314 89.082 99.7114 89.514C100.491 89.934 101.103 90.534 101.547 91.314C102.003 92.094 102.231 92.994 102.231 94.014C102.231 95.034 101.997 95.934 101.529 96.714C101.073 97.494 100.449 98.1 99.6574 98.532C98.8774 98.952 98.0014 99.162 97.0294 99.162ZM97.0294 96.966C97.4854 96.966 97.9114 96.858 98.3074 96.642C98.7154 96.414 99.0394 96.078 99.2794 95.634C99.5194 95.19 99.6394 94.65 99.6394 94.014C99.6394 93.066 99.3874 92.34 98.8834 91.836C98.3914 91.32 97.7854 91.062 97.0654 91.062C96.3454 91.062 95.7394 91.32 95.2474 91.836C94.7674 92.34 94.5274 93.066 94.5274 94.014C94.5274 94.962 94.7614 95.694 95.2294 96.21C95.7094 96.714 96.3094 96.966 97.0294 96.966ZM109.984 99L106.6 94.752V99H104.08V85.68H106.6V93.258L109.948 89.028H113.224L108.832 94.032L113.26 99H109.984Z" fill="white"/>
<defs>
<clipPath id="clip0_197_16690">
<rect width="44" height="44" fill="white" transform="translate(24 24)"/>
</clipPath>
</defs>
</svg>
