<svg width="21" height="19" viewBox="0 0 21 19" fill="none" xmlns="http://www.w3.org/2000/svg">
<path d="M9.15 17.8L7.425 16.225C5.65833 14.6084 4.06267 13.004 2.638 11.412C1.21267 9.82069 0.5 8.06669 0.5 6.15002C0.5 4.58336 1.025 3.27502 2.075 2.22502C3.125 1.17502 4.43333 0.650024 6 0.650024C6.88333 0.650024 7.71667 0.837358 8.5 1.21202C9.28333 1.58736 9.95 2.10002 10.5 2.75002C11.05 2.10002 11.7167 1.58736 12.5 1.21202C13.2833 0.837358 14.1167 0.650024 15 0.650024C16.5667 0.650024 17.875 1.17502 18.925 2.22502C19.975 3.27502 20.5 4.58336 20.5 6.15002C20.5 8.06669 19.7917 9.82502 18.375 11.425C16.9583 13.025 15.35 14.6334 13.55 16.25L11.85 17.8C11.4667 18.15 11.0167 18.325 10.5 18.325C9.98333 18.325 9.53333 18.15 9.15 17.8Z" fill="white"/>
</svg>
