<svg width="217" height="60" viewBox="0 0 217 60" fill="none" xmlns="http://www.w3.org/2000/svg">
<path fill-rule="evenodd" clip-rule="evenodd" d="M85.7931 28.656V37.1831C84.3977 37.6482 83.0024 37.8033 81.607 37.8033C75.8706 37.8033 72.3047 34.5474 72.3047 29.2761C72.3047 24.0048 75.8706 20.749 81.7621 20.749C83.6225 20.749 85.638 20.904 87.3435 21.6792L87.9636 21.9893L89.2039 18.7335L88.5838 18.4234C86.5683 17.6482 84.2427 17.1831 82.0721 17.1831C72.3047 17.1831 67.8086 23.3847 67.8086 29.2761C67.6535 32.5319 69.0489 35.6327 71.3745 37.8033C73.7001 40.1288 76.9559 41.3692 81.1419 41.3692C83.9326 41.3692 86.8783 40.904 89.514 39.8188H89.8241V28.656H85.7931Z" fill="#63766F"/>
<path d="M101.452 17.6479H97.2656V41.2138H101.452V17.6479Z" fill="#63766F"/>
<path fill-rule="evenodd" clip-rule="evenodd" d="M113.543 37.4929V17.6479H109.357V41.2138H124.396V37.4929H113.543Z" fill="#63766F"/>
<path fill-rule="evenodd" clip-rule="evenodd" d="M133.699 37.4929V30.3611H144.087V26.9503H133.699V21.0588H144.862V17.6479H129.668V41.2138H145.327V37.4929H133.699Z" fill="#63766F"/>
<path fill-rule="evenodd" clip-rule="evenodd" d="M160.83 22.2991C161.14 22.9193 163.156 28.8107 163.776 30.5162H157.419C157.419 30.5162 160.52 22.9193 160.83 22.2991ZM163.001 17.6479H158.815L149.822 41.2138H154.008L156.644 34.2371H165.016L167.652 41.2138H172.148L163.001 17.6479Z" fill="#63766F"/>
<path fill-rule="evenodd" clip-rule="evenodd" d="M196.024 20.4389C193.543 18.4234 189.668 17.1831 184.861 17.1831H177.109V20.749H184.861C188.427 20.749 191.218 21.6792 192.923 23.0746C194.319 24.625 195.094 26.6405 195.094 28.656C195.249 30.9816 194.319 33.4622 192.613 35.1676C190.753 36.873 187.807 37.8033 184.241 37.8033H181.295V26.9505H177.109V41.0591H177.419C179.59 41.3692 181.605 41.3692 183.776 41.3692C188.892 41.3692 193.078 39.8188 195.869 37.4932C198.35 35.1676 199.59 31.9118 199.435 28.656C199.435 25.5552 198.195 22.6095 196.024 20.4389Z" fill="#63766F"/>
<path fill-rule="evenodd" clip-rule="evenodd" d="M54.475 5.3999H54.1649C22.8471 8.34564 18.9711 29.1208 29.2037 35.9425C27.3432 43.5394 29.2037 43.5394 29.2037 43.5394C29.3587 41.2139 29.8238 39.0433 30.444 36.7177C34.32 21.679 44.2424 8.81075 54.1649 5.55494C54.475 5.70998 54.475 5.70998 54.475 5.3999Z" fill="#63766F"/>
<path fill-rule="evenodd" clip-rule="evenodd" d="M52.4597 10.6714V10.3613L52.1496 10.6714C49.824 15.6326 48.7388 22.7644 47.0333 28.0357C44.7078 34.2373 40.6768 38.5784 34.4752 37.9582V53.152C34.4752 53.152 17.8861 45.8652 17.8861 34.0823V12.0668L31.3744 10.8264C31.6845 10.8264 31.6845 10.8264 31.6845 10.5164H16.8008V33.9272C16.8008 47.2606 34.4752 54.5474 34.4752 54.5474C34.4752 54.5474 52.4597 46.9505 52.4597 34.0823V10.6714Z" fill="#63766F"/>
</svg>
