<svg width="44" height="44" viewBox="0 0 44 44" fill="none" xmlns="http://www.w3.org/2000/svg">
<path d="M10.0928 32.9535C12.0412 32.9535 13.9356 33.2042 15.7758 33.7057C17.616 34.2055 19.4381 35.0362 21.2423 36.1977V12.6473C19.6546 11.3256 17.8866 10.3339 15.9381 9.67225C13.9897 9.0122 12.0412 8.68217 10.0928 8.68217C8.79381 8.68217 7.70268 8.75186 6.81938 8.89124C5.93464 9.03222 4.89691 9.323 3.70619 9.76357C3.2732 9.92377 2.96649 10.1545 2.78608 10.4557C2.60567 10.7552 2.51546 11.0853 2.51546 11.4457V32.4729C2.51546 33.0336 2.69588 33.4437 3.0567 33.7033C3.41753 33.9644 3.81443 33.9948 4.24742 33.7946C4.89691 33.5543 5.70876 33.354 6.68299 33.1938C7.65722 33.0336 8.79381 32.9535 10.0928 32.9535ZM22.7577 36.1977C24.5619 35.0362 26.384 34.2055 28.2242 33.7057C30.0644 33.2042 31.9588 32.9535 33.9072 32.9535C35.2062 32.9535 36.3428 33.0336 37.317 33.1938C38.2912 33.354 39.1031 33.5543 39.7526 33.7946C40.1856 33.9948 40.5825 33.9644 40.9433 33.7033C41.3041 33.4437 41.4845 33.0336 41.4845 32.4729V11.4457C41.4845 11.0853 41.3943 10.7649 41.2139 10.4845C41.0335 10.2041 40.7268 9.96382 40.2938 9.76357C39.1031 9.323 38.0661 9.03222 37.1828 8.89124C36.298 8.75186 35.2062 8.68217 33.9072 8.68217C31.9588 8.68217 30.0103 9.0122 28.0619 9.67225C26.1134 10.3339 24.3454 11.3256 22.7577 12.6473V36.1977ZM22 38C21.7113 38 21.4501 37.9599 21.2163 37.8798C20.981 37.7997 20.7552 37.6996 20.5387 37.5795C18.9149 36.6182 17.2285 35.8869 15.4792 35.3854C13.7285 34.8856 11.933 34.6357 10.0928 34.6357C9.08247 34.6357 8.09021 34.7053 7.11598 34.8447C6.14175 34.9857 5.18557 35.2364 4.24742 35.5969C3.45361 35.9173 2.71392 35.7875 2.02835 35.2076C1.34278 34.626 1 33.8346 1 32.8333V11.3256C1 10.6848 1.15371 10.0936 1.46113 9.55209C1.76711 9.0122 2.19072 8.64212 2.73196 8.44186C3.8866 7.92119 5.0867 7.55031 6.33227 7.32923C7.57639 7.10974 8.8299 7 10.0928 7C12.2216 7 14.2964 7.35085 16.317 8.05256C18.3376 8.75266 20.232 9.76357 22 11.0853C23.768 9.76357 25.6624 8.75266 27.683 8.05256C29.7036 7.35085 31.7783 7 33.9072 7C35.1701 7 36.4243 7.10974 37.6699 7.32923C38.914 7.55031 40.1134 7.92119 41.268 8.44186C41.8093 8.64212 42.2336 9.0122 42.541 9.55209C42.847 10.0936 43 10.6848 43 11.3256V32.8333C43 33.8346 42.6211 34.6052 41.8634 35.1451C41.1057 35.6866 40.2938 35.7972 39.4278 35.4767C38.5258 35.1563 37.6151 34.936 36.6957 34.8159C35.7748 34.6957 34.8454 34.6357 33.9072 34.6357C32.067 34.6357 30.2723 34.8856 28.523 35.3854C26.7723 35.8869 25.085 36.6182 23.4613 37.5795C23.2448 37.6996 23.0197 37.7997 22.7859 37.8798C22.5506 37.9599 22.2887 38 22 38Z" fill="#E6570B" stroke="#E6570B" stroke-width="0.5"/>
</svg>
