<svg width="847" height="566" viewBox="0 0 847 566" fill="none" xmlns="http://www.w3.org/2000/svg">
<mask id="mask0_98_3008" style="mask-type:luminance" maskUnits="userSpaceOnUse" x="-1" y="0" width="871" height="566">
<path d="M-0.000671387 0.838593H869.641V565.202H-0.000671387V0.838593Z" fill="white"/>
</mask>
<g mask="url(#mask0_98_3008)">
<path d="M201.604 429.778C196.56 390.753 174.101 356.553 156.165 334.733C136.75 311.115 118.248 296.491 118.074 296.343L116.748 297.951C117.487 298.523 189.972 356.235 199.516 430.032L201.604 429.778Z" fill="#C5B9DA"/>
<path d="M137.967 315.898L137.989 315.051C138.402 303.708 136.011 288.005 135.989 287.835L133.88 288.132C133.902 288.28 136.141 303.009 135.88 314.099C126.945 315.051 112.509 309.126 112.357 309.062L111.53 310.967C112.183 311.242 127.64 317.591 137.098 316.025L137.967 315.898Z" fill="#C5B9DA"/>
<path d="M150.751 330.374L150.968 329.569C155.404 312.956 149.794 293.951 149.555 293.147L147.512 293.719C147.577 293.909 153.012 312.364 149.12 328.236C130.445 327.326 121.661 322.353 121.575 322.31L120.487 324.088C120.857 324.3 130.01 329.527 149.903 330.353L150.751 330.374Z" fill="#C5B9DA"/>
<path d="M165.361 348.236L165.579 347.495C170.144 331.432 165.1 316.046 164.883 315.411L162.861 316.046C162.905 316.194 167.775 331.009 163.731 346.204C147.555 346.521 138.902 342.458 138.815 342.416L137.881 344.278C138.25 344.468 147.381 348.743 164.579 348.257L165.361 348.236Z" fill="#C5B9DA"/>
<path d="M176.95 360.785C180.08 353.399 179.906 341.209 179.906 340.638L177.776 340.68C177.776 340.828 177.972 354.987 174.254 361.526C163.47 362.5 152.535 357.018 152.426 356.955L151.447 358.796C151.926 359.05 163.449 364.806 175.015 363.537L175.536 363.473L175.797 363.05C176.232 362.352 176.602 361.59 176.95 360.785Z" fill="#C5B9DA"/>
<path d="M177.428 344.003C179.319 344.765 181.493 343.876 182.276 342.035C183.059 340.193 182.146 338.077 180.254 337.315C178.363 336.553 176.188 337.442 175.406 339.283C174.623 341.125 175.536 343.241 177.428 344.003Z" fill="#6B5A96"/>
<path d="M150.49 361.293C152.382 362.055 154.556 361.166 155.339 359.325C156.121 357.484 155.208 355.368 153.317 354.606C151.425 353.844 149.251 354.733 148.468 356.574C147.685 358.415 148.577 360.531 150.49 361.293Z" fill="#6B5A96"/>
<path d="M136.227 346.437C138.119 347.198 140.293 346.31 141.076 344.468C141.859 342.627 140.946 340.511 139.054 339.749C137.162 338.987 134.988 339.876 134.205 341.717C133.423 343.579 134.336 345.696 136.227 346.437Z" fill="#6B5A96"/>
<path d="M161.273 318.056C163.165 318.818 165.339 317.929 166.122 316.088C166.905 314.247 165.991 312.131 164.1 311.369C162.208 310.607 160.034 311.496 159.251 313.337C158.468 315.178 159.382 317.295 161.273 318.056Z" fill="#6B5A96"/>
<path d="M147.62 297.507C149.512 298.269 151.686 297.38 152.469 295.539C153.251 293.697 152.338 291.581 150.446 290.819C148.555 290.057 146.381 290.946 145.598 292.787C144.815 294.629 145.707 296.745 147.62 297.507Z" fill="#6B5A96"/>
<path d="M120.009 326.882C121.9 327.643 124.074 326.755 124.857 324.913C125.64 323.072 124.727 320.956 122.835 320.194C120.944 319.432 118.769 320.321 117.987 322.162C117.204 324.003 118.117 326.12 120.009 326.882Z" fill="#6B5A96"/>
<path d="M109.791 313.062C111.682 313.824 113.857 312.935 114.639 311.094C115.422 309.252 114.509 307.136 112.617 306.374C110.726 305.612 108.551 306.501 107.769 308.342C106.986 310.184 107.877 312.3 109.791 313.062Z" fill="#6B5A96"/>
<path d="M115.987 300.491C117.879 301.253 120.053 300.364 120.836 298.523C121.618 296.681 120.705 294.565 118.814 293.803C116.922 293.041 114.748 293.93 113.965 295.771C113.182 297.634 114.096 299.729 115.987 300.491Z" fill="#6B5A96"/>
<path d="M133.206 291.75C135.097 292.512 137.272 291.623 138.054 289.782C138.837 287.941 137.924 285.825 136.032 285.063C134.141 284.301 131.967 285.19 131.184 287.031C130.423 288.872 131.314 290.989 133.206 291.75Z" fill="#6B5A96"/>
<path d="M274.654 551.086C274.654 551.086 258.609 563.933 242.978 564.356C227.346 564.779 237.39 555.975 228.998 551.743C220.606 547.51 203.778 554.811 203.105 547.277C202.409 539.743 201.8 533.309 190.125 536.568C178.45 539.827 162.536 540.357 166.688 531.595C170.841 522.854 166.884 520.019 148.252 525.923C129.62 531.828 110.053 541.563 112.51 529.86C114.966 518.156 122.858 510.728 102.117 512.527C81.3982 514.326 73.5062 511.532 77.5283 501.543C81.5722 491.554 74.2237 494.009 66.5926 487.279C58.9615 480.549 81.5069 482.94 75.6151 474.665C69.7233 466.391 56.8743 469.078 51.6565 456.105C46.4169 443.132 77.4196 435.026 91.6382 442.751C105.857 450.476 86.203 428.254 98.6606 425.376C111.118 422.498 117.814 433.058 129.098 442.73C140.403 452.402 129.055 436.995 142.077 432.952C155.122 428.91 157.557 448.888 169.036 456.253C180.516 463.618 170.21 443.703 181.124 443.894C192.038 444.084 194.212 466.073 200.822 469.946C207.453 473.819 208.475 458.116 215.932 466.179C223.389 474.242 227.933 498.326 232.194 502.03C236.455 505.733 233.89 493.776 241.064 493.628C248.239 493.48 252.261 514.199 255.131 516.759C258.001 519.32 257.827 511.384 264.762 515.151C271.676 518.939 274.654 551.086 274.654 551.086Z" fill="#AA9ECA"/>
<path d="M305.961 574.218C289.829 559.933 272.567 547.213 254.696 535.256L247.956 530.833C245.717 529.352 243.477 527.87 241.173 526.473L227.432 518.029L213.453 510.008C211.148 508.633 208.757 507.405 206.365 506.135L199.234 502.347L192.103 498.58L184.842 495.067L177.58 491.554C175.145 490.411 172.775 489.141 170.275 488.104C160.383 483.829 150.621 479.3 140.512 475.575C120.532 467.47 99.8559 461.269 79.0932 455.491C99.769 461.565 120.336 468.062 140.164 476.422C150.208 480.274 159.883 484.93 169.688 489.353C172.145 490.411 174.493 491.723 176.906 492.887L184.146 496.485L191.342 500.104L198.386 503.956L205.43 507.828C207.778 509.119 210.148 510.389 212.431 511.786L226.237 519.976L239.781 528.569C242.064 529.986 244.26 531.489 246.456 532.992L253.087 537.478L256.391 539.743L259.653 542.071L266.153 546.748C270.48 549.859 274.676 553.16 278.937 556.356C287.285 562.938 295.612 569.689 303.352 576.821L305.961 574.218Z" fill="#806DAA"/>
<path d="M210.823 543.975C213.866 542.452 216.975 541.055 220.128 539.764C223.258 538.452 226.454 537.267 229.716 536.272C232.955 535.235 236.238 534.367 239.608 533.902C242.956 533.436 246.369 533.224 249.63 533.944L250.587 534.156L250.109 533.309C248.913 531.15 247.739 528.971 246.717 526.727C245.695 524.484 244.76 522.198 243.934 519.892C243.13 517.564 242.456 515.193 241.891 512.802C241.347 510.41 240.912 507.955 240.803 505.5C240.76 507.977 241.086 510.432 241.521 512.886C241.956 515.32 242.608 517.733 243.347 520.103C244.13 522.452 244.956 524.801 246 527.066C247 529.352 248.152 531.553 249.348 533.754L249.848 533.119C246.413 532.314 242.869 532.526 239.477 533.055C236.064 533.563 232.738 534.473 229.476 535.552C226.237 536.653 223.041 537.923 219.932 539.341C216.823 540.737 213.779 542.261 210.823 543.975Z" fill="#806DAA"/>
<path d="M175.645 529.965C178.733 527.849 181.95 525.944 185.233 524.166C188.516 522.368 191.864 520.717 195.321 519.235C198.756 517.775 202.278 516.505 205.887 515.468C209.496 514.495 213.192 513.86 216.91 513.542L217.671 513.479L217.258 512.865C215.562 510.241 213.953 507.511 212.888 504.548C211.779 501.628 210.909 498.601 210.388 495.49C209.844 492.4 209.561 489.268 209.518 486.115C209.475 482.961 209.627 479.808 210.127 476.697C209.496 479.787 209.192 482.961 209.105 486.115C209.04 489.289 209.257 492.443 209.735 495.596C210.17 498.749 211.018 501.839 212.127 504.823C213.192 507.849 214.801 510.643 216.519 513.352L216.866 512.654C213.062 512.929 209.322 513.648 205.67 514.664C202.039 515.743 198.474 517.034 195.039 518.558C188.168 521.69 181.646 525.5 175.645 529.965Z" fill="#806DAA"/>
<path d="M124.032 524.823C128.989 521.5 134.12 518.431 139.295 515.447C144.469 512.484 149.774 509.691 155.187 507.151C160.579 504.59 166.123 502.305 171.863 500.612C177.559 498.982 183.581 497.67 189.451 498.622L190.19 498.749L189.908 498.072C188.582 494.749 187.473 491.342 186.603 487.871C185.755 484.401 185.038 480.887 184.494 477.332C183.472 470.242 182.864 463.068 182.864 455.893C182.733 459.491 182.777 463.068 182.951 466.666C183.103 470.263 183.451 473.84 183.907 477.417C184.364 480.993 185.016 484.528 185.82 488.041C186.668 491.554 187.777 495.003 189.082 498.368L189.56 497.797C186.516 497.268 183.429 497.374 180.429 497.776C177.407 498.178 174.45 498.897 171.558 499.765C165.775 501.501 160.21 503.85 154.796 506.453C149.382 509.035 144.143 511.976 138.99 515.024C133.903 518.093 128.902 521.352 124.032 524.823Z" fill="#806DAA"/>
<path d="M86.3551 502.643C91.1599 499.278 96.2473 496.337 101.422 493.585C106.618 490.834 111.988 488.464 117.488 486.39C120.249 485.374 123.032 484.464 125.88 483.681C128.707 482.898 131.576 482.263 134.49 481.755C137.381 481.29 140.316 480.951 143.251 480.803C146.186 480.697 149.121 480.782 152.035 481.099L152.73 481.163L152.47 480.528C150.1 474.941 147.947 469.248 146.099 463.47C145.165 460.571 144.317 457.671 143.491 454.751C142.686 451.83 141.925 448.888 141.295 445.904C141.816 448.888 142.469 451.872 143.186 454.814C143.882 457.777 144.686 460.719 145.556 463.618C146.426 466.539 147.36 469.438 148.382 472.316C149.382 475.194 150.535 478.03 151.687 480.845L152.122 480.295C149.165 479.956 146.165 479.85 143.186 479.935C140.208 480.083 137.251 480.379 134.316 480.866C131.381 481.395 128.489 482.051 125.641 482.856C122.793 483.681 119.988 484.612 117.206 485.649C111.662 487.744 106.335 490.305 101.161 493.141C96.0081 495.956 91.0511 499.13 86.3551 502.643Z" fill="#806DAA"/>
<path d="M81.42 482.263C87.3118 479.364 93.2472 476.549 99.2694 473.967C102.27 472.676 105.313 471.449 108.401 470.348C111.488 469.269 114.64 468.274 117.836 467.808L118.554 467.703L118.141 467.11C116.597 464.973 115.075 462.814 113.749 460.549C112.401 458.285 111.118 455.978 109.923 453.629C107.553 448.931 105.487 444.063 103.813 439.069C104.466 441.629 105.313 444.127 106.227 446.603C107.14 449.079 108.205 451.513 109.314 453.904C110.423 456.317 111.662 458.666 113.031 460.93C114.358 463.237 115.858 465.438 117.401 467.618L117.706 466.92C114.358 467.364 111.205 468.422 108.096 469.523C104.987 470.644 101.944 471.893 98.9433 473.247C92.9645 476.02 87.1162 479.004 81.42 482.263Z" fill="#806DAA"/>
<path d="M224.324 543.362C224.324 543.362 241.847 535.912 249.391 538.304C256.914 540.695 268.262 548.949 266.654 551.192C265.045 553.436 250.13 558.726 243.912 558.79C237.694 558.853 248.478 553.097 243.543 550.282C238.608 547.468 227.411 549.584 223.976 547.637C220.541 545.69 224.324 543.362 224.324 543.362Z" fill="#AA9ECA"/>
<path d="M236.411 530.304C236.411 530.304 223.54 519.257 213.105 519.363C202.669 519.49 183.667 526.876 182.863 530.664C182.059 534.452 196.103 528.59 201.952 531.426C207.8 534.262 202.952 539.15 208.322 539.679C213.692 540.208 216.757 535.426 223.867 533.436C230.998 531.468 236.411 530.304 236.411 530.304Z" fill="#AA9ECA"/>
<path d="M204.365 511.342C204.474 511.342 196.212 501.564 183.494 503.13C170.797 504.717 152.643 511.638 145.143 517.754C137.664 523.87 163.188 516.95 170.058 516.569C176.928 516.188 170.927 524.696 177.645 523.214C184.363 521.733 195.082 511.447 204.365 511.342Z" fill="#AA9ECA"/>
<path d="M173.732 496.273C173.732 496.273 162.775 483.512 148.687 485.544C134.62 487.575 108.748 494.728 103.705 501.86C98.6606 508.993 115.184 503.046 121.793 504.675C128.402 506.305 120.445 515.786 131.098 511.49C141.751 507.172 160.275 495.49 173.732 496.273Z" fill="#AA9ECA"/>
<path d="M133.968 477.501C133.968 477.501 121.358 471.089 105.835 476.02C90.3118 480.972 83.8547 486.644 87.7246 488.951C91.5728 491.258 94.7904 489.861 104.726 485.67C114.662 481.48 133.968 477.501 133.968 477.501Z" fill="#AA9ECA"/>
<path d="M108.9 466.518C108.9 466.518 94.7035 461.354 81.4197 460.655C68.136 459.978 71.6363 472.359 80.2892 472.655C88.9422 472.972 102.9 465.65 108.9 466.518Z" fill="#AA9ECA"/>
<path d="M109.792 462.814C110.618 464.063 87.8549 453.396 76.2669 452.571C64.7007 451.746 65.9616 444.169 77.3757 444.211C88.768 444.233 104.639 455.047 109.792 462.814Z" fill="#AA9ECA"/>
<path d="M106.726 433.312C106.726 433.312 111.726 452.148 122.575 461.967C133.424 471.787 144.773 474.56 145.012 473.84C134.946 465.354 130.967 460.592 128.706 451.83C126.445 443.09 118.77 432.995 112.313 430.519C105.856 428.021 106.726 433.312 106.726 433.312Z" fill="#AA9ECA"/>
<path d="M146.339 446.857C146.339 446.857 149.36 466.327 156.426 475.491C163.492 484.655 180.602 491.512 181.429 490.178C182.276 488.824 176.58 476.443 176.776 469.861C176.972 463.28 175.428 462.306 168.427 463.915C161.427 465.502 161.188 461.1 157.079 453.206C153.013 445.27 144.099 436.55 146.339 446.857Z" fill="#AA9ECA"/>
<path d="M209.148 504.696C209.148 504.696 196.082 499.363 191.364 488.125C186.646 476.909 183.342 460.719 187.494 460.19C191.625 459.661 192.625 472.126 198.169 475.385C203.713 478.665 205.279 477.819 205.887 484.528C206.496 491.3 209.148 504.696 209.148 504.696Z" fill="#AA9ECA"/>
<path d="M240.194 523.764C240.542 523.891 221.888 518.156 217.584 505.606C213.279 493.078 210.17 483.66 214.214 480.507C218.258 477.353 224.215 488.358 225.824 496.04C227.432 503.702 235.759 522.05 240.194 523.764Z" fill="#AA9ECA"/>
<path d="M270.697 544.081C270.589 543.785 255.934 535.785 257.434 526.96C258.935 518.135 263.979 521.585 265.501 526.833C267.001 532.082 270.697 544.081 270.697 544.081Z" fill="#AA9ECA"/>
<path d="M250.108 495.046C241.672 498.58 212.431 493.564 203.93 482.898C196.712 473.861 203.191 455.386 187.798 452.169C173.166 449.121 166.514 435.831 162.318 424.614C158.339 414.011 137.337 420.784 131.315 411.81C126.01 403.895 130.684 392.213 116.596 390.287C99.6382 387.959 98.8555 364.637 77.0927 363.706C109.052 353.315 142.251 357.865 165.709 371.854C182.515 381.885 208.669 383.092 221.671 396.805C231.128 406.773 236.824 424.466 249.26 432.423C267.348 444.042 263.305 489.522 250.108 495.046Z" fill="#C5B9DA"/>
<path d="M250.108 495.046C242.237 497.945 217.627 489.797 209.082 479.554C201.734 470.771 202.625 454.899 187.798 452.19C172.166 449.333 174.101 430.815 170.514 420.932C166.513 409.906 138.12 420.149 131.315 411.831C125.792 405.08 136.815 386.372 121.227 385.039C103.291 383.515 97.4204 364.574 77.0708 363.727C111.987 352.659 145.446 363.875 168.84 380.489C183.689 391.028 208.017 384.34 221.649 396.827C233.498 407.683 231.845 429.736 244.803 438.138C260.978 448.613 262.5 490.496 250.108 495.046Z" fill="#C5B9DA"/>
<path d="M92.1592 363.029C92.3549 362.69 92.768 362.478 93.0941 362.563C113.27 368.912 132.293 376.34 150.925 385.208C159.948 389.716 168.622 394.668 177.167 399.811C179.276 401.123 181.384 402.435 183.515 403.747C186.059 405.334 187.298 406.139 189.776 407.789C194.016 410.414 198.06 413.292 202.256 416.022C207.256 419.366 209.713 421.122 214.453 424.805C216.779 426.709 217.931 427.683 220.192 429.672C222.388 431.725 223.475 432.762 225.606 434.9C232.585 442.095 238.607 450.264 243.216 459.343C247.825 468.422 250.978 478.475 251.738 489.226C251.978 493.141 251.934 497.141 251.412 501.204C250.238 501.056 248.999 501.12 247.803 501.331C248.282 497.607 248.39 493.882 248.195 490.221C247.564 479.851 244.651 470.031 240.259 461.1C235.868 452.169 230.084 444.063 223.301 436.91C221.236 434.794 220.192 433.757 218.04 431.704C215.844 429.715 214.713 428.741 212.452 426.836C207.8 423.133 205.387 421.355 200.473 418.011C196.321 415.26 192.32 412.361 188.124 409.694C185.667 408.022 184.428 407.197 181.928 405.609C179.819 404.297 177.732 402.964 175.645 401.631C167.188 396.446 158.622 391.43 149.686 386.859C131.228 377.864 112.378 370.309 92.3549 363.833C92.0723 363.748 91.9635 363.388 92.1592 363.029Z" fill="#806DAA"/>
<path d="M247.934 476.888C247.629 476.464 247.477 476.274 247.195 475.851C238.846 467.428 224.367 468.359 211.539 472.422C211.257 472.507 211.018 472.401 211.018 472.168C211.018 471.936 211.235 471.66 211.496 471.576C224.367 467.449 238.477 466.518 247.325 474.242C250.76 451.534 254.369 444.698 254.565 444.402C254.739 444.148 255.065 444.042 255.304 444.169C255.543 444.275 255.587 444.571 255.413 444.825C255.369 444.889 251.652 452.063 248.151 475.47C248.064 476.041 248.021 476.316 247.934 476.888Z" fill="#806DAA"/>
<path d="M231.846 444.698C231.498 444.508 231.346 444.402 230.998 444.211C219.779 437.735 198.56 447.132 198.365 447.238C198.082 447.365 197.843 447.28 197.778 447.068C197.734 446.836 197.908 446.561 198.191 446.434C199.039 446.031 219.04 437.079 230.824 442.899C230.672 430.9 228.911 419.26 225.78 408.403C225.715 408.17 225.867 407.874 226.171 407.747C226.454 407.62 226.737 407.726 226.802 407.98C230.019 419.26 231.824 431.259 231.846 443.682C231.846 444.084 231.846 444.275 231.846 444.698Z" fill="#806DAA"/>
<path d="M210.909 424.233C210.561 424.064 210.409 423.979 210.061 423.831C199.169 418.646 178.885 428.72 178.689 428.826C178.428 428.974 178.167 428.91 178.102 428.677C178.037 428.466 178.211 428.17 178.472 428.021C179.276 427.598 198.386 418.011 209.844 422.561C209.474 407.853 205.452 391.303 205.409 391.134C205.343 390.88 205.517 390.605 205.8 390.478C206.083 390.372 206.365 390.478 206.431 390.71C206.474 390.88 210.648 408.255 210.887 423.238C210.909 423.662 210.909 423.852 210.909 424.233Z" fill="#806DAA"/>
<path d="M188.776 408.742C188.342 408.657 188.124 408.615 187.689 408.53C174.971 405.99 155.926 414.075 155.752 414.159C155.491 414.286 155.252 414.181 155.208 413.948C155.165 413.715 155.36 413.419 155.643 413.313C155.817 413.228 174.101 405.398 187.102 407.387C181.798 393.292 178.623 384.277 178.602 384.171C178.536 383.938 178.71 383.642 178.971 383.515C179.254 383.388 179.536 383.473 179.602 383.705C179.623 383.79 182.928 393.165 188.428 407.789C188.559 408.17 188.624 408.361 188.776 408.742Z" fill="#806DAA"/>
<path d="M160.47 391.726C160.1 391.641 159.904 391.599 159.513 391.515C148.099 388.933 133.163 399.366 133.011 399.472C132.772 399.641 132.467 399.641 132.38 399.43C132.272 399.239 132.38 398.922 132.641 398.752C132.793 398.647 147.316 388.425 159.057 390.372C156.904 380.975 153.317 368.404 153.273 368.277C153.208 368.044 153.382 367.748 153.643 367.621C153.926 367.494 154.208 367.579 154.274 367.812C154.317 367.939 158.078 381.335 160.231 390.795C160.339 391.176 160.383 391.366 160.47 391.726Z" fill="#806DAA"/>
<path d="M133.424 378.372C133.011 378.287 132.793 378.245 132.38 378.139C123.662 376.277 110.965 383.197 110.835 383.261C110.574 383.409 110.291 383.346 110.226 383.134C110.161 382.901 110.313 382.605 110.574 382.457C111.074 382.16 122.814 375.727 131.815 376.997C128.51 367.6 123.945 362.034 123.901 361.992C123.749 361.801 123.836 361.484 124.075 361.293C124.314 361.103 124.64 361.082 124.793 361.272C124.836 361.336 129.771 367.346 133.119 377.399C133.228 377.801 133.293 377.991 133.424 378.372Z" fill="#806DAA"/>
<path d="M295.634 433.27C295.634 433.27 274.893 434.18 262.109 425.397C249.347 416.614 262.805 415.429 258.696 407.154C254.587 398.858 236.629 394.901 240.716 388.467C244.803 382.033 248.26 376.531 236.911 372.319C225.563 368.129 212.496 359.24 221.193 354.669C229.889 350.098 228.476 345.505 209.931 339.368C191.386 333.231 169.71 329.591 178.885 321.654C188.059 313.718 198.952 312.385 181.254 301.718C163.557 291.073 158.97 284.216 168.34 278.587C177.732 272.957 170.319 270.629 168.362 260.788C166.405 250.947 182.972 266.016 183.363 255.963C183.755 245.911 171.797 240.556 175.602 227.139C179.406 213.7 209.213 225.297 215.844 239.773C222.475 254.249 220.41 225.001 232.172 229.953C243.912 234.927 242.76 247.265 245.847 261.593C248.934 275.92 249.347 256.958 262.261 261.339C275.176 265.719 264.827 283.137 269.479 295.729C274.132 308.321 278.132 286.375 286.764 292.893C295.373 299.412 283.568 318.289 286.503 325.252C289.416 332.215 299.917 320.236 300.917 331.051C301.917 341.865 290.72 363.791 291.851 369.23C292.981 374.669 298.286 363.621 304.135 367.685C309.983 371.748 300.439 390.689 301.156 394.414C301.874 398.139 306.635 391.684 309.853 398.731C313.048 405.779 295.634 433.27 295.634 433.27Z" fill="#AA9ECA"/>
<path d="M306.461 470.052C302.33 449.206 296.351 428.953 289.438 408.953L286.785 401.483C285.894 398.985 285.024 396.488 284.046 394.054L278.241 379.282L272.001 364.701C271.001 362.246 269.849 359.875 268.718 357.484L265.349 350.31L261.957 343.135L258.305 336.088L254.652 329.04C253.413 326.712 252.282 324.3 250.934 322.014C245.651 312.829 240.629 303.496 234.824 294.608C223.823 276.471 211.083 259.413 198.038 242.673C210.844 259.603 223.323 276.809 234.02 295.073C239.672 304.025 244.564 313.401 249.695 322.649C251.021 324.935 252.087 327.347 253.304 329.696L256.826 336.786L260.348 343.876L263.609 351.071L266.87 358.288C267.958 360.701 269.066 363.071 270.045 365.526L276.045 380.15L281.589 394.943C282.546 397.398 283.372 399.895 284.22 402.393L286.764 409.863L288.025 413.609L289.199 417.376L291.525 424.91C293.068 429.926 294.416 435.005 295.851 440.063C298.482 450.201 300.982 460.465 302.787 470.687L306.461 470.052Z" fill="#806DAA"/>
<path d="M248.934 390.308C252.304 390.88 255.652 391.557 258.978 392.361C262.305 393.144 265.588 394.054 268.805 395.155C272.023 396.213 275.197 397.44 278.176 399.028C281.132 400.615 284.002 402.435 286.176 404.911L286.807 405.631L286.937 404.678C287.307 402.245 287.72 399.832 288.285 397.44C288.829 395.049 289.503 392.679 290.264 390.33C291.046 388.002 291.959 385.695 293.003 383.451C294.047 381.208 295.199 379.007 296.634 376.975C295.068 378.922 293.807 381.102 292.655 383.303C291.503 385.504 290.546 387.811 289.677 390.139C288.85 392.488 288.068 394.858 287.503 397.271C286.894 399.684 286.459 402.118 286.068 404.572L286.85 404.361C284.589 401.715 281.632 399.832 278.589 398.245C275.545 396.657 272.306 395.451 269.044 394.414C265.762 393.398 262.435 392.552 259.087 391.874C255.717 391.24 252.347 390.668 248.934 390.308Z" fill="#806DAA"/>
<path d="M229.388 358.584C233.15 358.69 236.911 359.05 240.65 359.537C244.39 360.002 248.086 360.658 251.76 361.484C255.412 362.33 259.021 363.367 262.522 364.637C266.022 365.949 269.37 367.6 272.544 369.526L273.197 369.907L273.262 369.166C273.523 366.055 273.914 362.944 274.892 359.96C275.805 356.976 276.979 354.034 278.458 351.262C279.914 348.468 281.632 345.802 283.524 343.262C285.415 340.723 287.48 338.289 289.807 336.067C287.393 338.183 285.198 340.532 283.197 343.008C281.197 345.506 279.414 348.172 277.871 350.966C276.284 353.738 275.044 356.701 274.11 359.748C273.088 362.775 272.653 365.971 272.37 369.145L273.066 368.806C269.848 366.796 266.413 365.209 262.87 363.875C259.304 362.627 255.651 361.569 251.955 360.785C244.498 359.262 236.954 358.5 229.388 358.584Z" fill="#806DAA"/>
<path d="M191.255 324.342C197.278 324.575 203.278 325.125 209.257 325.76C215.236 326.416 221.193 327.263 227.085 328.384C232.976 329.485 238.825 330.882 244.456 332.871C250.021 334.903 255.652 337.358 259.74 341.527L260.261 342.056L260.457 341.357C261.435 337.929 262.653 334.543 264.11 331.263C265.566 327.982 267.153 324.744 268.914 321.612C272.458 315.348 276.371 309.253 280.807 303.496C278.502 306.29 276.328 309.189 274.241 312.173C272.154 315.136 270.219 318.205 268.392 321.337C266.566 324.469 264.914 327.686 263.392 330.966C261.914 334.268 260.674 337.675 259.653 341.146L260.37 340.976C258.261 338.776 255.739 337.061 253.065 335.622C250.391 334.183 247.608 333.04 244.76 332.046C239.064 330.056 233.15 328.702 227.237 327.622C221.301 326.543 215.301 325.824 209.322 325.273C203.3 324.702 197.278 324.406 191.255 324.342Z" fill="#806DAA"/>
<path d="M174.754 284.597C180.667 284.703 186.559 285.317 192.408 286.142C198.256 286.968 204.017 288.216 209.692 289.761C212.518 290.565 215.323 291.454 218.084 292.47C220.823 293.507 223.519 294.671 226.15 295.962C228.759 297.274 231.302 298.713 233.737 300.3C236.151 301.93 238.455 303.729 240.586 305.676L241.108 306.142L241.281 305.486C242.825 299.623 244.608 293.825 246.695 288.11C247.739 285.253 248.847 282.417 249.978 279.603C251.13 276.788 252.348 273.994 253.674 271.243C252.261 273.952 250.934 276.703 249.695 279.476C248.434 282.248 247.26 285.063 246.173 287.92C245.086 290.756 244.043 293.634 243.086 296.533C242.108 299.412 241.281 302.353 240.477 305.295L241.173 305.105C238.999 303.115 236.694 301.274 234.237 299.602C231.781 297.973 229.215 296.491 226.563 295.158C223.889 293.867 221.171 292.724 218.388 291.687C215.605 290.671 212.779 289.782 209.909 288.999C204.191 287.454 198.343 286.375 192.473 285.634C186.603 284.894 180.667 284.534 174.754 284.597Z" fill="#806DAA"/>
<path d="M183.342 265.402C189.842 266.524 196.321 267.709 202.735 269.19C205.952 269.91 209.126 270.693 212.279 271.624C215.41 272.555 218.54 273.613 221.388 275.095L222.041 275.433L222.062 274.714C222.149 272.111 222.258 269.487 222.584 266.883C222.888 264.28 223.28 261.698 223.78 259.117C224.78 253.974 226.128 248.873 227.867 243.9C226.824 246.313 225.954 248.831 225.15 251.328C224.367 253.847 223.715 256.408 223.128 258.99C222.541 261.571 222.084 264.175 221.758 266.778C221.41 269.402 221.258 272.026 221.149 274.672L221.823 274.291C218.866 272.682 215.692 271.688 212.518 270.778C209.344 269.867 206.126 269.084 202.887 268.428C196.43 267.159 189.907 266.122 183.342 265.402Z" fill="#806DAA"/>
<path d="M260.109 397.694C260.109 397.694 278.741 401.948 283.285 408.255C287.829 414.562 291.83 427.789 289.155 428.656C286.481 429.503 271.284 425.059 266.284 421.461C261.262 417.863 273.437 419.577 271.219 414.435C269.001 409.292 258.74 404.467 257.196 400.911C255.631 397.356 260.109 397.694 260.109 397.694Z" fill="#AA9ECA"/>
<path d="M277.828 394.308C277.828 394.308 274.328 377.949 265.914 371.96C257.5 365.97 237.738 360.807 234.759 363.367C231.781 365.928 246.63 369.441 249.565 375.113C252.5 380.785 245.608 381.885 249.565 385.441C253.522 388.996 258.935 386.964 265.849 389.525C272.762 392.086 277.828 394.308 277.828 394.308Z" fill="#AA9ECA"/>
<path d="M263.849 360.426C263.936 360.489 263.349 347.833 252.195 341.675C241.064 335.516 222.258 330.479 212.496 331.008C202.735 331.538 227.432 340.892 233.172 344.595C238.89 348.299 228.867 351.622 235.151 354.331C241.434 357.061 256.348 355.092 263.849 360.426Z" fill="#AA9ECA"/>
<path d="M248.63 330.479C248.63 330.479 247.717 313.866 235.194 307.284C222.671 300.703 197.582 291.327 189.146 294.1C180.711 296.851 197.604 301.74 201.887 306.903C206.17 312.067 193.973 315.009 205.148 317.781C216.301 320.554 238.303 322.014 248.63 330.479Z" fill="#AA9ECA"/>
<path d="M228.346 292.258C228.346 292.258 222.193 279.751 206.735 274.65C191.277 269.55 182.603 270.333 184.277 274.439C185.929 278.544 189.364 279.306 199.908 281.74C210.453 284.174 228.346 292.258 228.346 292.258Z" fill="#AA9ECA"/>
<path d="M215.04 268.852C215.04 268.852 206.865 256.429 196.647 248.133C186.429 239.837 181.602 251.773 188.342 257.085C195.082 262.355 210.779 264.64 215.04 268.852Z" fill="#AA9ECA"/>
<path d="M218.04 266.397C217.931 267.878 206.278 246.059 197.516 238.652C188.755 231.244 194.451 225.911 203.56 232.599C212.648 239.265 218.692 257.17 218.04 266.397Z" fill="#AA9ECA"/>
<path d="M233.759 240.979C233.759 240.979 226.171 258.968 228.802 273.169C231.454 287.348 238.803 296.195 239.455 295.75C236.629 283.095 236.368 276.957 239.955 268.619C243.542 260.302 243.607 247.752 239.955 241.995C236.302 236.26 233.759 240.979 233.759 240.979Z" fill="#AA9ECA"/>
<path d="M257.131 274.968C257.131 274.968 247.565 292.322 247.586 303.771C247.608 315.221 257.066 330.712 258.566 330.12C260.066 329.527 263.153 316.3 267.349 311.157C271.567 306.015 270.915 304.321 264.327 301.528C257.74 298.713 260.261 295.052 261.849 286.333C263.436 277.592 261.675 265.402 257.131 274.968Z" fill="#AA9ECA"/>
<path d="M271.762 357.907C271.762 357.907 264.609 346.013 267.718 334.268C270.849 322.522 278.176 307.665 281.806 309.655C285.437 311.644 278.567 322.204 280.98 328.046C283.393 333.887 285.176 334.141 281.524 339.876C277.915 345.632 271.762 357.907 271.762 357.907Z" fill="#AA9ECA"/>
<path d="M284.872 391.282C285.067 391.599 273.675 376.108 277.936 363.558C282.198 351.008 285.524 341.675 290.698 341.484C295.873 341.315 293.873 353.611 290.437 360.701C287.002 367.769 282.372 387.303 284.872 391.282Z" fill="#AA9ECA"/>
<path d="M296.786 425.334C296.873 425.037 290.089 410.075 296.699 403.895C303.33 397.715 305.244 403.408 303.243 408.488C301.221 413.588 296.786 425.334 296.786 425.334Z" fill="#AA9ECA"/>
<path d="M609.792 470.094C650.121 431.937 670.362 379.007 680.233 341.315C690.929 300.512 692.125 268.28 692.125 267.942L689.168 267.857C689.125 269.127 683.972 395.895 607.726 468.041L609.792 470.094Z" fill="#C5B9DA"/>
<path d="M686.494 305.845L687.472 305.168C700.778 296.11 716.714 280.364 716.866 280.216L714.757 278.206C714.605 278.354 699.669 293.126 686.798 302.12C678.232 293.253 672.906 272.661 672.862 272.449L669.993 273.148C670.232 274.079 675.928 296.131 685.624 305.041L686.494 305.845Z" fill="#C5B9DA"/>
<path d="M680.667 331.813L681.776 331.368C704.452 322.247 721.453 300.237 722.171 299.306L719.801 297.592C719.627 297.803 703.126 319.157 681.754 328.257C667.144 307.284 665.47 293.634 665.449 293.486L662.513 293.782C662.579 294.375 664.275 308.66 680.015 330.839L680.667 331.813Z" fill="#C5B9DA"/>
<path d="M672.515 362.563L673.536 362.182C695.69 353.675 709.018 335.326 709.583 334.543L707.17 332.892C707.039 333.083 694.19 350.733 673.471 359.114C659.557 341.887 656.948 329.146 656.926 329.019L654.035 329.548C654.143 330.12 656.904 343.558 671.862 361.759L672.515 362.563Z" fill="#C5B9DA"/>
<path d="M667.927 385.61C678.993 382.795 692.755 372.425 693.386 371.938L691.56 369.674C691.386 369.801 675.384 381.864 664.818 383.303C654.687 372.468 651.773 356.045 651.752 355.875L648.838 356.341C648.969 357.061 652.013 374.351 663.166 385.801L663.666 386.308L664.383 386.245C665.514 386.139 666.709 385.927 667.927 385.61Z" fill="#C5B9DA"/>
<path d="M687.471 372.065C688.189 374.753 691.015 376.362 693.777 375.663C696.538 374.965 698.191 372.214 697.473 369.526C696.756 366.838 693.929 365.23 691.168 365.928C688.406 366.626 686.754 369.378 687.471 372.065Z" fill="#6B5A96"/>
<path d="M645.164 357.42C645.881 360.108 648.708 361.717 651.469 361.018C654.23 360.32 655.883 357.569 655.165 354.881C654.448 352.193 651.621 350.585 648.86 351.283C646.077 351.981 644.425 354.733 645.164 357.42Z" fill="#6B5A96"/>
<path d="M650.164 329.569C650.881 332.257 653.708 333.866 656.469 333.167C659.23 332.469 660.883 329.718 660.165 327.03C659.448 324.342 656.621 322.734 653.86 323.432C651.099 324.13 649.446 326.882 650.164 329.569Z" fill="#6B5A96"/>
<path d="M703.56 332.871C704.278 335.559 707.104 337.167 709.866 336.469C712.627 335.77 714.279 333.019 713.562 330.331C712.844 327.644 710.018 326.035 707.257 326.733C704.495 327.432 702.843 330.183 703.56 332.871Z" fill="#6B5A96"/>
<path d="M715.561 300.872C716.279 303.56 719.105 305.168 721.867 304.47C724.628 303.771 726.28 301.02 725.563 298.332C724.845 295.644 722.019 294.036 719.258 294.734C716.496 295.433 714.844 298.184 715.561 300.872Z" fill="#6B5A96"/>
<path d="M658.926 295.623C659.643 298.311 662.47 299.919 665.231 299.221C667.992 298.523 669.645 295.771 668.927 293.084C668.21 290.396 665.383 288.788 662.622 289.486C659.86 290.184 658.208 292.936 658.926 295.623Z" fill="#6B5A96"/>
<path d="M666.122 273C666.839 275.687 669.666 277.296 672.427 276.597C675.189 275.899 676.841 273.148 676.123 270.46C675.406 267.772 672.579 266.164 669.818 266.862C667.035 267.561 665.383 270.312 666.122 273Z" fill="#6B5A96"/>
<path d="M685.668 269.169C686.385 271.857 689.212 273.465 691.973 272.767C694.734 272.068 696.387 269.317 695.669 266.629C694.952 263.942 692.125 262.333 689.364 263.032C686.581 263.73 684.928 266.481 685.668 269.169Z" fill="#6B5A96"/>
<path d="M710.083 280.491C710.8 283.179 713.627 284.788 716.388 284.089C719.149 283.391 720.802 280.64 720.084 277.952C719.367 275.264 716.54 273.656 713.779 274.354C711.018 275.052 709.365 277.804 710.083 280.491Z" fill="#6B5A96"/>
<path d="M646.447 533.838C656.84 534.367 685.886 517.881 690.647 503.321C694.669 490.982 680.363 473.798 695.408 464.507C709.735 455.682 711.453 439.026 711.409 425.503C711.366 412.699 736.433 411.895 739.216 400.086C741.673 389.652 731.998 379.007 746.195 371.6C763.284 362.669 754.739 337.59 777.48 328.278C739.325 329.421 705.866 346.923 686.581 370.732C672.754 387.811 645.447 399.07 637.142 418.583C631.12 432.783 632.163 453.756 622.141 466.962C607.596 486.2 630.207 532.992 646.447 533.838Z" fill="#C5B9DA"/>
<path d="M646.447 533.838C655.991 533.923 678.841 515.871 683.82 501.712C688.103 489.564 680.754 473.036 695.408 464.507C710.866 455.513 701.365 436.571 701.213 424.699C701.017 411.472 735.324 411.493 739.216 400.086C742.368 390.795 723.128 375.113 739.151 367.769C757.587 359.304 756.217 336.955 777.502 328.278C735.933 329.823 704.909 354.5 686.711 381.081C675.167 397.948 646.643 400.128 637.164 418.583C628.945 434.624 639.577 457.46 629.185 471.322C616.227 488.633 631.467 533.711 646.447 533.838Z" fill="#C5B9DA"/>
<path d="M761.196 333.315C760.848 333.019 760.304 332.956 760 333.188C741.107 347.622 723.888 362.775 707.648 379.303C699.864 387.536 692.646 396.107 685.646 404.826C683.928 407.027 682.211 409.228 680.493 411.429C678.428 414.075 677.428 415.408 675.471 418.117C672.036 422.54 668.883 427.133 665.535 431.619C661.557 437.079 659.665 439.873 656.1 445.608C654.382 448.529 653.556 449.989 651.947 452.973C650.425 455.978 649.708 457.502 648.295 460.592C643.773 470.898 640.664 481.882 639.424 493.289C638.185 504.696 638.881 516.569 642.381 528.294C643.686 532.547 645.36 536.78 647.534 540.886C648.708 540.272 650.056 539.87 651.425 539.637C649.403 535.849 647.816 531.934 646.534 527.976C643.012 516.717 642.185 505.162 643.251 494.009C644.338 482.835 647.229 472.02 651.534 461.819C652.882 458.772 653.578 457.269 655.034 454.285C656.578 451.344 657.382 449.883 659.013 446.984C662.47 441.27 664.318 438.476 668.188 433.037C671.492 428.529 674.58 423.916 677.971 419.493C679.906 416.784 680.884 415.429 682.906 412.784C684.624 410.583 686.298 408.382 687.972 406.181C694.864 397.44 701.952 388.848 709.626 380.594C725.628 364.002 742.629 348.786 761.283 334.268C761.565 334.035 761.544 333.612 761.196 333.315Z" fill="#806DAA"/>
<path d="M641.468 513.712C641.62 513.162 641.685 512.887 641.837 512.336C647.316 500.21 663.078 495.66 678.362 495.088C678.688 495.067 678.906 494.877 678.819 494.623C678.732 494.369 678.406 494.157 678.058 494.178C662.709 494.707 647.338 499.088 641.054 510.686C628.271 487.871 621.683 481.967 621.357 481.734C621.074 481.544 620.683 481.544 620.487 481.755C620.292 481.967 620.357 482.305 620.64 482.496C620.727 482.559 627.532 488.76 640.685 512.294C640.989 512.844 641.141 513.141 641.468 513.712Z" fill="#806DAA"/>
<path d="M645.598 473.353C645.881 473.015 646.011 472.845 646.294 472.507C655.621 461.354 681.949 463.259 682.21 463.28C682.558 463.301 682.797 463.131 682.754 462.878C682.71 462.624 682.406 462.391 682.058 462.37C680.993 462.285 656.143 460.38 645.946 471.068C641.272 458.264 638.489 445.227 637.424 432.466C637.402 432.191 637.098 431.937 636.75 431.916C636.402 431.894 636.141 432.106 636.163 432.402C637.293 445.608 640.185 459.047 645.163 472.274C645.337 472.697 645.424 472.93 645.598 473.353Z" fill="#806DAA"/>
<path d="M659.622 443.64C659.926 443.344 660.056 443.174 660.361 442.878C669.84 433.206 695.451 436.19 695.712 436.233C696.06 436.275 696.299 436.106 696.277 435.852C696.255 435.598 695.951 435.344 695.603 435.302C694.581 435.153 670.405 432.275 660.078 441.46C654.534 425.693 652.164 406.562 652.143 406.371C652.121 406.096 651.795 405.842 651.447 405.821C651.099 405.8 650.838 406.033 650.882 406.308C650.903 406.498 653.447 426.561 659.252 442.582C659.382 443.005 659.469 443.217 659.622 443.64Z" fill="#806DAA"/>
<path d="M676.905 418.731C677.318 418.477 677.535 418.35 677.97 418.096C690.471 410.541 713.952 411.895 714.191 411.895C714.517 411.916 714.734 411.726 714.691 411.472C714.626 411.218 714.299 410.985 713.973 410.943C713.756 410.921 691.189 409.567 678.166 416.636C678.144 399.62 677.861 388.827 677.861 388.721C677.84 388.446 677.535 388.192 677.187 388.15C676.84 388.129 676.579 388.319 676.579 388.594C676.579 388.7 676.861 399.917 676.905 417.546C676.905 418.032 676.905 418.265 676.905 418.731Z" fill="#806DAA"/>
<path d="M700.147 389.864C700.516 389.631 700.69 389.504 701.06 389.271C712.148 382.182 732.236 387.578 732.432 387.621C732.78 387.726 733.063 387.599 733.106 387.346C733.128 387.092 732.889 386.816 732.563 386.711C732.367 386.647 712.822 381.335 701.103 387.875C699.603 377.081 698.364 362.352 698.364 362.203C698.342 361.928 698.038 361.674 697.69 361.653C697.342 361.632 697.059 361.822 697.081 362.098C697.103 362.246 698.473 377.928 699.994 388.806C700.06 389.229 700.081 389.441 700.147 389.864Z" fill="#806DAA"/>
<path d="M723.518 365.335C723.931 365.081 724.127 364.954 724.54 364.701C733.041 359.389 749.325 361.907 749.499 361.949C749.847 362.013 750.107 361.843 750.086 361.568C750.064 361.293 749.781 361.039 749.455 360.976C748.803 360.87 733.736 358.478 724.692 363.283C724.409 352.045 727.04 344.384 727.062 344.299C727.149 344.045 726.931 343.749 726.605 343.622C726.257 343.516 725.91 343.622 725.823 343.876C725.801 343.96 722.975 352.235 723.475 364.193C723.496 364.658 723.496 364.891 723.518 365.335Z" fill="#806DAA"/>
<path d="M644.665 592.186C648.839 598.027 670.797 606.64 681.168 602.916C689.951 599.762 693.582 584.609 705.366 588.736C716.584 592.672 726.846 586.408 734.542 580.546C741.825 575.001 753.109 588.207 761.045 584.609C768.067 581.435 769.958 571.615 780.329 576.08C792.808 581.456 803.418 566.007 818.571 574.303C801.439 554.155 777.024 543.616 755.087 543.468C739.369 543.362 721.15 533.457 706.431 537.394C695.734 540.272 684.212 549.88 672.341 550.176C655.079 550.6 638.142 583.043 644.665 592.186Z" fill="#C5B9DA"/>
<path d="M644.665 592.186C648.731 597.371 668.906 601.942 679.125 598.535C687.908 595.593 694.169 584.503 705.366 588.736C717.171 593.201 723.889 579.911 730.586 574.683C738.064 568.864 752.848 587.445 761.045 584.609C767.698 582.302 768.35 565.118 779.459 570.62C792.243 576.948 804.418 566.536 818.55 574.303C799.722 552.483 772.241 546.367 749.218 547.996C734.608 549.033 721.041 534.537 706.41 537.394C693.691 539.87 685.277 555.488 672.863 555.848C657.427 556.335 638.273 584.038 644.665 592.186Z" fill="#C5B9DA"/>
<path d="M808.658 567.657C808.679 567.34 808.484 567.022 808.223 566.959C791.83 562.98 775.742 560.208 759.305 558.557C751.239 557.901 743.239 557.711 735.238 557.668C733.238 557.689 731.238 557.71 729.238 557.732C726.846 557.753 725.65 557.795 723.259 557.901C719.258 557.943 715.28 558.24 711.258 558.345C706.431 558.557 704.018 558.748 699.191 559.277C696.8 559.615 695.582 559.785 693.213 560.208C690.843 560.695 689.647 560.949 687.299 561.52C679.451 563.53 671.863 566.599 664.797 570.832C657.753 575.086 651.274 580.588 646.1 587.551C644.23 590.09 642.534 592.821 641.143 595.783C641.991 596.164 642.817 596.715 643.534 597.35C644.817 594.619 646.361 592.059 648.078 589.667C652.992 582.916 659.231 577.456 666.058 573.223C672.907 568.991 680.32 565.88 687.995 563.806C690.321 563.213 691.473 562.938 693.8 562.43C696.148 561.986 697.322 561.795 699.691 561.435C704.453 560.843 706.844 560.631 711.606 560.377C715.606 560.229 719.585 559.89 723.563 559.827C725.933 559.7 727.129 559.658 729.52 559.615C731.52 559.594 733.499 559.552 735.477 559.509C743.434 559.467 751.413 559.594 759.436 560.165C775.807 561.647 791.83 564.271 808.179 568.102C808.418 568.186 808.636 567.975 808.658 567.657Z" fill="#806DAA"/>
<path d="M654.013 580.8C654.405 580.63 654.579 580.567 654.97 580.398C664.253 578.133 673.667 584.694 680.581 592.694C680.733 592.863 680.929 592.884 681.038 592.736C681.146 592.588 681.124 592.313 680.972 592.143C674.037 584.059 664.906 577.646 655.579 579.255C663.079 562.494 663.601 556.377 663.601 556.102C663.601 555.869 663.427 555.658 663.21 555.637C662.992 555.615 662.84 555.806 662.84 556.039C662.84 556.102 662.253 562.472 654.492 579.742C654.296 580.165 654.187 580.377 654.013 580.8Z" fill="#806DAA"/>
<path d="M678.821 565.626C679.147 565.626 679.299 565.626 679.604 565.647C689.996 565.88 700.279 580.927 700.366 581.075C700.497 581.265 700.714 581.329 700.845 581.202C700.975 581.075 700.975 580.8 700.845 580.609C700.431 579.996 690.778 565.731 680.299 564.843C685.582 556.779 691.822 549.647 698.649 543.573C698.801 543.446 698.823 543.171 698.67 542.981C698.54 542.79 698.301 542.727 698.149 542.875C691.105 549.182 684.669 556.568 679.277 564.948C679.082 565.202 678.995 565.329 678.821 565.626Z" fill="#806DAA"/>
<path d="M701.845 560.356C702.149 560.377 702.301 560.398 702.605 560.419C712.215 561.372 721.585 576.504 721.672 576.673C721.803 576.885 721.998 576.948 722.129 576.821C722.259 576.694 722.281 576.419 722.151 576.228C721.781 575.615 712.998 561.287 703.279 559.679C709.889 549.88 719.781 540.335 719.89 540.23C720.042 540.081 720.042 539.806 719.911 539.616C719.759 539.425 719.542 539.383 719.39 539.51C719.281 539.616 708.954 549.647 702.301 559.7C702.105 559.975 702.018 560.102 701.845 560.356Z" fill="#806DAA"/>
<path d="M723.519 558.959C723.846 559.086 724.02 559.128 724.346 559.255C734.042 562.747 743.434 576.038 743.521 576.165C743.652 576.355 743.847 576.398 743.978 576.25C744.108 576.101 744.086 575.826 743.956 575.636C743.869 575.509 734.912 562.705 725.237 558.726C734.934 551.362 740.978 546.557 741.043 546.515C741.195 546.388 741.217 546.113 741.086 545.923C740.956 545.732 740.717 545.669 740.564 545.796C740.499 545.838 734.216 550.832 724.172 558.472C723.911 558.663 723.78 558.769 723.519 558.959Z" fill="#806DAA"/>
<path d="M750.044 559.065C750.348 559.171 750.479 559.213 750.783 559.298C759.632 562.24 765.219 575.424 765.263 575.551C765.35 575.784 765.545 575.89 765.719 575.784C765.871 575.699 765.937 575.445 765.828 575.213C765.784 575.086 760.371 562.218 751.587 558.705C757.11 553.224 764.98 546.198 765.067 546.134C765.219 546.007 765.241 545.732 765.089 545.52C764.958 545.309 764.719 545.267 764.567 545.394C764.48 545.478 756.131 552.97 750.587 558.494C750.348 558.748 750.24 558.853 750.044 559.065Z" fill="#806DAA"/>
<path d="M774.111 561.118C774.437 561.224 774.589 561.287 774.916 561.393C781.612 563.7 787.221 573.604 787.265 573.689C787.373 573.901 787.591 573.964 787.743 573.837C787.895 573.71 787.917 573.456 787.808 573.244C787.591 572.842 782.438 563.679 775.807 560.843C782.09 555.848 787.612 553.965 787.656 553.943C787.83 553.88 787.917 553.626 787.83 553.414C787.743 553.182 787.525 553.033 787.351 553.097C787.286 553.118 781.351 555.171 774.742 560.589C774.503 560.8 774.372 560.906 774.111 561.118Z" fill="#806DAA"/>
<path d="M647.622 569.541C647.622 569.541 663.927 576.419 676.907 573.16C689.864 569.901 679.472 564.991 685.342 559.573C691.212 554.155 706.822 556.293 705.561 549.944C704.3 543.573 703.235 538.156 713.627 538.156C724.02 538.156 737.238 534.918 731.716 528.674C726.172 522.431 728.737 519.193 745.5 519.765C762.262 520.336 780.72 523.828 775.872 514.77C771.024 505.712 762.719 501.416 780.198 498.115C797.7 494.834 803.505 490.707 797.743 483.427C792.004 476.147 798.635 476.464 803.287 469.184C807.94 461.883 789.982 469.036 792.786 460.888C795.613 452.719 806.831 451.978 807.983 440.106C809.136 428.233 781.655 428.699 771.828 438.328C762.001 447.957 772.785 425.143 761.827 425.651C750.87 426.138 747.935 436.381 740.999 446.92C734.064 457.481 739.651 442.18 727.933 441.862C716.214 441.545 719.063 458.539 711.431 467.237C703.779 475.935 707.431 457.185 698.496 459.851C689.56 462.518 693.126 481.12 688.625 485.819C684.125 490.517 679.45 477.84 675.276 486.2C671.102 494.559 673.232 515.405 670.624 519.426C668.015 523.447 667.232 513.035 661.275 514.558C655.34 516.082 657.057 534.071 655.318 536.822C653.579 539.595 651.796 533.013 647.013 537.711C642.273 542.409 647.622 569.541 647.622 569.541Z" fill="#AA9ECA"/>
<path d="M627.489 595.784C637.295 580.313 648.404 565.88 660.188 551.933L664.645 546.748C666.123 545.013 667.602 543.277 669.167 541.605L678.407 531.511L687.951 521.691C689.517 520.04 691.191 518.474 692.843 516.887L697.778 512.146L702.735 507.405L707.844 502.834L712.953 498.263C714.671 496.76 716.323 495.173 718.128 493.755C725.215 487.956 732.151 481.988 739.565 476.592C754.022 465.333 769.545 455.449 785.221 445.926C769.676 455.682 754.348 465.756 740.065 477.205C732.738 482.687 725.911 488.76 718.911 494.623C717.15 496.062 715.519 497.67 713.823 499.194L708.779 503.829L703.735 508.464L698.865 513.268L694.017 518.072C692.408 519.68 690.756 521.246 689.212 522.939L679.842 532.865L670.776 543.045C669.254 544.716 667.797 546.473 666.362 548.23L661.993 553.457L659.818 556.081L657.71 558.748L653.492 564.081C650.687 567.636 648.035 571.319 645.295 574.938C640.012 582.281 634.816 589.752 630.185 597.392L627.489 595.784Z" fill="#806DAA"/>
<path d="M698.409 548.991C695.539 548.441 692.648 548.018 689.735 547.658C686.843 547.298 683.908 547.066 680.995 546.981C678.081 546.875 675.168 546.917 672.276 547.298C669.428 547.679 666.537 548.314 664.037 549.647L663.297 550.05L663.471 549.245C663.95 547.192 664.363 545.14 664.645 543.044C664.95 540.97 665.145 538.875 665.276 536.78C665.363 534.685 665.363 532.569 665.232 530.473C665.102 528.378 664.863 526.262 664.363 524.209C665.015 526.241 665.341 528.336 665.58 530.431C665.819 532.547 665.863 534.664 665.841 536.78C665.776 538.896 665.645 541.034 665.341 543.129C665.08 545.245 664.667 547.319 664.211 549.393L663.645 548.991C666.276 547.531 669.233 546.896 672.168 546.558C675.103 546.198 678.06 546.177 680.995 546.304C683.93 546.452 686.865 546.769 689.756 547.214C692.691 547.722 695.583 548.272 698.409 548.991Z" fill="#806DAA"/>
<path d="M723.954 529.373C720.91 528.336 717.78 527.532 714.649 526.812C711.518 526.093 708.344 525.5 705.17 525.077C701.974 524.675 698.778 524.442 695.56 524.421C692.343 524.442 689.168 524.78 686.016 525.373L685.386 525.5L685.559 524.886C686.32 522.326 686.973 519.722 687.125 517.035C687.32 514.368 687.299 511.68 686.973 509.014C686.668 506.347 686.146 503.702 685.407 501.099C684.69 498.496 683.798 495.935 682.624 493.48C683.907 495.871 684.907 498.411 685.755 500.993C686.581 503.575 687.168 506.241 687.538 508.929C687.951 511.617 687.994 514.347 687.821 517.077C687.69 519.807 687.038 522.474 686.277 525.098L685.82 524.611C689.016 523.955 692.277 523.701 695.517 523.68C698.756 523.722 701.996 523.976 705.213 524.442C711.649 525.458 717.932 527.087 723.954 529.373Z" fill="#806DAA"/>
<path d="M765.153 513.246C760.262 511.659 755.305 510.305 750.304 509.056C745.325 507.807 740.282 506.728 735.216 505.882C730.15 505.035 725.041 504.421 719.91 504.337C714.823 504.316 709.562 504.612 704.974 506.749L704.387 507.024L704.452 506.39C704.735 503.342 704.822 500.294 704.692 497.226C704.561 494.178 704.3 491.11 703.865 488.083C702.974 482.009 701.756 475.978 699.995 470.073C700.974 472.994 701.8 475.957 702.539 478.962C703.278 481.946 703.865 484.972 704.365 488.02C704.844 491.067 705.17 494.136 705.365 497.205C705.518 500.294 705.452 503.384 705.192 506.453L704.67 506.093C707.04 504.972 709.605 504.337 712.17 503.977C714.758 503.617 717.345 503.511 719.932 503.575C725.106 503.681 730.259 504.316 735.346 505.204C740.434 506.093 745.456 507.3 750.435 508.612C755.413 509.987 760.305 511.532 765.153 513.246Z" fill="#806DAA"/>
<path d="M790.765 486.327C786.003 484.655 781.09 483.406 776.155 482.348C771.219 481.269 766.219 480.57 761.197 480.126C758.675 479.935 756.153 479.829 753.631 479.829C751.109 479.851 748.587 479.978 746.087 480.232C743.587 480.507 741.108 480.909 738.651 481.459C736.216 482.052 733.825 482.792 731.499 483.723L730.933 483.935L730.999 483.364C731.586 478.221 731.977 473.036 732.086 467.851C732.151 465.269 732.151 462.666 732.107 460.063C732.064 457.46 731.955 454.878 731.759 452.275C732.064 454.857 732.238 457.439 732.368 460.042C732.499 462.645 732.564 465.227 732.564 467.83C732.564 470.433 732.499 473.036 732.346 475.639C732.238 478.242 731.977 480.824 731.694 483.427L731.194 483.067C733.542 482.115 735.977 481.332 738.456 480.718C740.934 480.147 743.456 479.702 745.978 479.427C748.522 479.194 751.066 479.068 753.609 479.068C756.153 479.089 758.697 479.216 761.219 479.427C766.284 479.872 771.285 480.739 776.22 481.882C781.199 483.067 786.047 484.528 790.765 486.327Z" fill="#806DAA"/>
<path d="M789.873 468.444C784.329 467.407 778.763 466.454 773.176 465.735C770.393 465.354 767.588 465.057 764.784 464.867C761.979 464.698 759.153 464.613 756.414 464.952L755.783 465.036L755.979 464.465C756.74 462.349 757.457 460.232 758.001 458.052C758.566 455.894 759.066 453.693 759.457 451.492C760.262 447.069 760.784 442.603 760.936 438.116C761.023 440.36 760.936 442.624 760.784 444.868C760.631 447.111 760.349 449.354 760.023 451.598C759.696 453.841 759.24 456.042 758.675 458.243C758.153 460.444 757.435 462.602 756.696 464.74L756.283 464.253C759.153 463.851 762.001 463.999 764.827 464.19C767.654 464.401 770.48 464.719 773.263 465.142C778.85 465.967 784.394 467.068 789.873 468.444Z" fill="#806DAA"/>
<path d="M687.169 551.594C687.169 551.594 670.929 549.499 665.319 553.203C659.71 556.906 652.383 566.303 654.253 567.784C656.123 569.266 669.668 570.197 674.798 568.8C679.929 567.403 669.668 565.181 673.037 561.711C676.407 558.24 686.147 557.436 688.495 555.044C690.843 552.653 687.169 551.594 687.169 551.594Z" fill="#AA9ECA"/>
<path d="M674.037 543.637C674.037 543.637 681.929 531.574 690.538 529.288C699.148 526.981 716.584 528.696 718.149 531.616C719.737 534.558 706.757 532.971 702.626 536.632C698.496 540.314 703.692 543.214 699.409 544.886C695.126 546.558 691.43 543.32 685.103 543.341C678.776 543.362 674.037 543.637 674.037 543.637Z" fill="#AA9ECA"/>
<path d="M695.8 520.675C695.713 520.696 700.127 510.749 710.975 509.12C721.802 507.49 738.434 509.014 746.065 512.315C753.718 515.638 731.021 515.807 725.281 517.077C719.541 518.347 726.542 523.976 720.65 524.294C714.78 524.611 703.453 518.601 695.8 520.675Z" fill="#AA9ECA"/>
<path d="M717.323 501.204C717.323 501.204 723.237 488.189 735.325 486.623C747.391 485.057 770.415 484.972 776.285 489.691C782.177 494.39 767.132 493.31 762.088 496.167C757.044 499.025 765.893 504.993 756.088 503.913C746.282 502.813 728.237 497.48 717.323 501.204Z" fill="#AA9ECA"/>
<path d="M745.478 476.613C745.478 476.613 754.305 468.422 768.263 468.909C782.221 469.396 788.917 472.592 786.308 475.385C783.699 478.179 780.72 477.777 771.524 476.591C762.328 475.406 745.478 476.613 745.478 476.613Z" fill="#AA9ECA"/>
<path d="M763.437 461.819C763.437 461.819 773.872 454.285 784.634 450.666C795.396 447.047 795.526 458.031 788.482 460.274C781.438 462.518 768.176 459.703 763.437 461.819Z" fill="#AA9ECA"/>
<path d="M761.806 458.962C761.436 460.19 777.568 446.158 786.895 442.815C796.222 439.471 793.33 433.545 783.96 436.191C774.589 438.836 764.154 451.386 761.806 458.962Z" fill="#AA9ECA"/>
<path d="M757.153 433.989C757.153 433.989 757.61 450.624 751.066 461.206C744.522 471.766 735.869 476.676 735.499 476.126C741.717 466.835 743.826 461.989 743.565 454.264C743.304 446.539 747.152 436.487 751.87 432.952C756.588 429.439 757.153 433.989 757.153 433.989Z" fill="#AA9ECA"/>
<path d="M727.868 454.264C727.868 454.264 730.108 470.983 726.52 480.126C722.933 489.289 710.541 498.876 709.519 497.966C708.497 497.056 710.171 485.544 708.41 480.189C706.649 474.835 707.692 473.671 713.823 473.375C719.976 473.078 719.085 469.396 720.541 461.946C721.976 454.497 727.194 445.27 727.868 454.264Z" fill="#AA9ECA"/>
<path d="M690.255 516.294C690.255 516.294 699.691 508.887 700.865 498.58C702.017 488.252 700.8 474.2 697.277 474.708C693.733 475.216 695.951 485.713 692.19 489.67C688.428 493.628 686.928 493.31 688.059 498.982C689.167 504.654 690.255 516.294 690.255 516.294Z" fill="#AA9ECA"/>
<path d="M669.341 539.129C669.08 539.32 683.038 530.304 683.538 519.003C684.038 507.702 684.299 499.236 680.212 497.564C676.124 495.893 673.885 506.326 674.428 513.014C674.972 519.701 672.58 536.695 669.341 539.129Z" fill="#AA9ECA"/>
<path d="M649.186 562.875C649.208 562.621 659.318 552.653 655.948 545.753C652.578 538.833 649.251 542.833 649.273 547.51C649.295 552.145 649.186 562.875 649.186 562.875Z" fill="#AA9ECA"/>
<path d="M280.837 554.89C197.272 473.551 197.272 341.675 280.837 260.337C364.401 178.999 499.887 178.999 583.451 260.337C667.016 341.675 667.016 473.551 583.451 554.89C499.887 636.228 364.401 636.228 280.837 554.89Z" fill="#EBE7F3"/>
<mask id="mask1_98_3008" style="mask-type:luminance" maskUnits="userSpaceOnUse" x="218" y="199" width="429" height="417">
<path d="M280.837 554.89C197.272 473.551 197.272 341.675 280.837 260.337C364.401 178.999 499.887 178.999 583.451 260.337C667.016 341.675 667.016 473.551 583.451 554.89C499.887 636.228 364.401 636.228 280.837 554.89Z" fill="white"/>
</mask>
<g mask="url(#mask1_98_3008)">
<path d="M303.722 237.72C303.722 237.72 338.312 266.037 357.966 257.614C377.619 249.191 387.838 256.154 396.882 259.18C405.926 262.206 420.862 257.614 431.081 261.825C441.299 266.037 458.605 287.856 447.973 290.904C437.364 293.973 434.994 279.031 413.775 281.338C392.556 283.624 378.793 281.021 381.924 291.327C385.077 301.634 401.578 298.946 412.97 302.396C424.363 305.845 423.189 319.623 419.645 325.739C416.101 331.855 416.884 337.992 421.602 342.966C426.319 347.939 433.798 346.415 443.212 354.055C452.648 361.717 451.474 391.557 442.429 390.795C433.385 390.033 424.341 372.425 412.949 374.732C401.556 377.018 401.165 397.694 387.012 393.864C372.858 390.033 376.402 393.483 364.597 400.361C352.813 407.239 348.878 395.007 336.681 407.239C324.484 419.493 333.92 434.413 334.724 448.19C335.529 461.967 315.462 458.518 306.809 437.1C298.156 415.662 289.112 411.472 269.458 412.614C249.804 413.757 229.759 393.483 220.323 371.282C210.931 349.061 230.607 244.598 303.722 237.72Z" fill="#D5CBE4"/>
<path d="M398.644 198.102C398.644 198.102 398.948 211.88 409.253 218.187C419.58 224.493 427.864 220.472 434.625 228.811C441.387 237.128 450.235 237.424 452.888 246.609C455.54 255.794 471.172 259.244 478.542 244.598C485.912 229.953 480.02 205.277 462.041 198.102C444.061 190.928 398.644 198.102 398.644 198.102Z" fill="#D5CBE4"/>
<path d="M505.37 210.166C505.37 210.166 521.872 233.128 517.154 249.191C512.436 265.254 505.87 285.93 518.002 293.973C530.133 302.015 525.416 312.914 532.481 326.12C539.547 339.326 553.701 330.712 562.549 332.426C571.398 334.141 570.811 347.918 582.008 353.95C593.204 359.981 598.509 363.431 592.617 374.901C586.725 386.372 581.421 395.557 589.073 395.557C596.748 395.557 644.491 381.779 639.773 341.019C635.099 300.279 597.357 219.35 505.37 210.166Z" fill="#D5CBE4"/>
<path d="M645.861 370.584C645.861 370.584 632.294 396.403 609.292 402.16C586.29 407.895 590.421 419.958 591.595 429.143C592.769 438.328 588.051 440.042 582.16 445.799C576.268 451.534 570.963 461.269 573.311 467.026C575.659 472.782 589.812 477.374 590.421 489.416C591.008 501.48 602.814 522.706 621.663 515.236C640.556 507.786 661.688 406.435 645.861 370.584Z" fill="#D5CBE4"/>
<path d="M524.828 442.624C521.915 438.328 520.697 421.376 500.065 423.112C479.433 424.826 466.454 400.149 447.582 409.906C428.711 419.662 419.276 417.948 398.643 425.122C378.011 432.296 365.032 456.444 388.034 490.855C411.036 525.267 406.318 535.616 424.602 553.393C442.886 571.192 475.324 567.742 465.28 535.024C455.257 502.305 480.02 483.11 489.456 485.819C498.891 488.528 512.458 487.385 517.762 479.914C523.067 472.443 533.09 471.872 533.09 462.687C533.09 453.502 530.937 451.619 524.828 442.624Z" fill="#D5CBE4"/>
<path d="M360.313 515.151C356.357 501.141 346.943 488.358 355.204 487.977C363.466 487.596 369.749 489.882 375.837 510.178C381.924 530.452 385.859 540.018 394.121 546.917C402.382 553.795 409.84 568.356 394.121 567.192C378.402 566.028 365.836 534.664 360.313 515.151Z" fill="#D5CBE4"/>
<path d="M226.281 465.396C226.281 465.396 237.282 478.411 247.109 474.2C256.936 469.988 274.633 474.581 276.198 483.004C277.764 491.427 290.352 486.834 298.222 498.305C306.092 509.776 301.374 514.791 298.222 527.595C295.07 540.399 287.612 557.245 267.958 550.727C248.283 544.23 209.366 494.093 226.281 465.396Z" fill="#D5CBE4"/>
</g>
</g>
<mask id="mask2_98_3008" style="mask-type:luminance" maskUnits="userSpaceOnUse" x="39" y="1" width="808" height="564">
<path d="M39 1H847V565H39V1Z" fill="white"/>
</mask>
<g mask="url(#mask2_98_3008)">
<path d="M152.499 412.107C152.499 412.107 148.306 420.085 148.243 425.524C148.179 430.963 147.078 441.651 144.495 447.026C142.568 451.047 141.192 454.158 139.032 452.592C136.872 451.026 136.83 444.423 137.274 443.894C137.719 443.365 129.122 460.676 127.385 461.904C126.538 462.497 123.997 465.481 122.769 461.036C122.769 461.036 118.301 465.248 116.883 462.941C115.464 460.634 117.391 457.819 117.391 457.819C117.391 457.819 113.918 460.507 112.881 457.311C111.843 454.116 114.045 449.65 114.045 449.65C114.045 449.65 111.017 451.809 109.937 448.846C108.857 445.883 116.205 423.894 120.122 417.165C124.04 410.456 127.957 406.625 127.957 406.625L133.124 398.858L152.499 412.107Z" fill="#9E6741"/>
<path d="M129.989 444.465C129.819 444.465 129.671 444.55 129.608 444.698L122.386 460.825C122.302 461.036 122.386 461.29 122.598 461.375C122.81 461.46 123.064 461.375 123.149 461.163L130.37 445.037C130.455 444.825 130.37 444.571 130.158 444.487C130.095 444.487 130.052 444.465 129.989 444.465Z" fill="#30423C"/>
<path d="M125.29 442.899C125.141 442.899 124.993 442.963 124.908 443.111L116.988 457.608C116.882 457.798 116.946 458.052 117.158 458.158C117.348 458.285 117.602 458.2 117.708 457.989L125.628 443.492C125.734 443.301 125.671 443.047 125.459 442.941C125.417 442.92 125.353 442.92 125.29 442.899Z" fill="#30423C"/>
<path d="M120.104 439.386C119.956 439.386 119.807 439.45 119.744 439.577L113.687 449.396C113.56 449.587 113.624 449.841 113.814 449.968C114.026 450.074 114.259 450.031 114.386 449.82L120.443 440C120.57 439.809 120.506 439.555 120.316 439.428C120.231 439.407 120.167 439.386 120.104 439.386Z" fill="#30423C"/>
<path d="M136.154 446.603L136.429 446.074C136.429 446.031 137.128 445.227 138.356 440.952C138.42 440.677 138.272 440.381 137.997 440.296C137.721 440.211 137.425 440.381 137.34 440.656C136.175 444.74 136.154 446.603 136.154 446.603Z" fill="#30423C"/>
<path d="M133.104 398.858C133.104 398.858 172.066 343.22 178.376 335.432C182.802 329.971 186.444 328.617 186.444 328.617L194.257 338.035L202.516 366.774C202.516 366.774 162.685 397.821 152.5 412.106L133.104 398.858Z" fill="#9E6741"/>
<path d="M239.551 423.746C239.551 423.746 209.377 561.711 177.402 760.308L261.531 758.742L303.14 514.728L326.347 757.958H405.605C405.605 757.958 397.665 514.728 360.439 423.768H239.551V423.746Z" fill="#E9C5AE"/>
<path d="M176.958 760.688H177.403L261.849 759.101L261.891 758.805L303.034 517.606L325.988 758.339H405.966L405.945 757.958C405.86 755.525 397.581 513.627 360.757 423.641L360.651 423.408H239.191L239.128 423.704C238.831 425.08 208.593 563.954 176.979 760.265L176.958 760.688ZM261.213 758.36L177.847 759.927C208.742 568.229 238.281 431.429 239.848 424.127H360.185C396.162 512.463 404.801 746.467 405.204 757.556H326.687L303.246 511.85L302.78 514.643L261.213 758.36Z" fill="#30423C"/>
<path d="M239.551 423.746H360.44C363.912 432.212 367.11 442.01 370.074 452.783C324.569 433.503 239.784 423.789 239.551 423.746Z" fill="#E3AA8A"/>
<path d="M303.161 515.087C303.372 515.087 303.542 514.918 303.521 514.707L299.137 423.746C299.137 423.556 298.968 423.408 298.777 423.408H298.756C298.544 423.408 298.396 423.577 298.417 423.789L302.801 514.749C302.801 514.939 302.97 515.087 303.161 515.087Z" fill="#30423C"/>
<path d="M300.725 477.142C300.788 477.142 300.873 477.12 300.936 477.078C301.106 476.951 301.127 476.739 301.021 476.57L294.033 467.089L292.064 423.725C292.064 423.535 291.894 423.387 291.704 423.387C291.704 423.387 291.704 423.387 291.682 423.387C291.471 423.387 291.322 423.556 291.343 423.768L293.313 467.237C293.313 467.301 293.334 467.385 293.376 467.428L300.428 476.993C300.513 477.099 300.619 477.142 300.725 477.142Z" fill="#30423C"/>
<path d="M247.767 757.916L248.084 758.107L260.323 757.916L303.118 514.707C303.118 514.707 286.496 576.546 275.421 628.185C268.815 659.231 247.767 757.916 247.767 757.916Z" fill="#E3AA8A"/>
<path d="M185.237 328.278L250.985 297.719L237.349 364.172L196.777 371.79L185.237 328.278Z" fill="white"/>
<path d="M343.413 302.099C352.518 324.215 370.665 374.605 370.242 423.746H229.745L236.416 339.326C235.865 334.839 246.474 297.803 250.984 297.719L325.986 290.269C333.63 290.396 340.512 295.031 343.413 302.099Z" fill="white"/>
<path d="M312.859 291.539L262.675 296.406C265.364 306.205 272.225 321.929 288.889 320.956C312.859 319.559 310.742 303.814 312.859 291.539Z" fill="#EADFDA"/>
<path d="M370.244 423.746C371.006 426.138 363.277 430.921 363.277 430.921L360.46 423.746H370.244Z" fill="#30423C"/>
<path d="M229.746 423.746C228.983 426.138 237.941 431.217 237.941 431.217L239.529 423.746H229.746Z" fill="#30423C"/>
<path d="M444.502 239.837C444.502 239.837 448.632 231.816 448.653 226.398C448.674 220.959 449.69 210.25 452.231 204.854C454.137 200.833 455.471 197.7 457.652 199.245C459.812 200.79 459.918 207.414 459.473 207.943C459.028 208.472 467.477 191.097 469.214 189.849C470.039 189.256 472.58 186.23 473.83 190.674C473.83 190.674 478.255 186.42 479.695 188.706C481.135 190.992 479.229 193.827 479.229 193.827C479.229 193.827 482.681 191.119 483.74 194.314C484.798 197.51 482.639 201.997 482.639 201.997C482.639 201.997 485.645 199.817 486.747 202.78C487.848 205.742 480.691 227.795 476.837 234.546C472.983 241.297 469.087 245.149 469.087 245.149L463.983 252.958L444.502 239.837Z" fill="#9E6741"/>
<path d="M466.736 207.287C466.906 207.287 467.054 207.203 467.118 207.033L474.212 190.843C474.296 190.632 474.212 190.378 474 190.293C473.788 190.209 473.534 190.293 473.449 190.505L466.355 206.695C466.27 206.906 466.355 207.16 466.567 207.245C466.63 207.266 466.673 207.266 466.736 207.287Z" fill="#30423C"/>
<path d="M471.437 208.79C471.585 208.79 471.733 208.726 471.818 208.578L479.611 194.018C479.717 193.827 479.653 193.573 479.441 193.468C479.251 193.341 478.997 193.425 478.891 193.637L471.098 208.197C470.992 208.388 471.055 208.642 471.267 208.748C471.31 208.79 471.373 208.79 471.437 208.79Z" fill="#30423C"/>
<path d="M476.666 212.282C476.814 212.282 476.962 212.218 477.026 212.07L482.997 202.187C483.124 201.997 483.061 201.743 482.849 201.616C482.637 201.51 482.404 201.552 482.277 201.764L476.306 211.647C476.178 211.837 476.242 212.091 476.454 212.218C476.517 212.261 476.602 212.282 476.666 212.282Z" fill="#30423C"/>
<path d="M460.553 205.192L460.277 205.742C460.277 205.785 459.579 206.61 458.393 210.885C458.329 211.16 458.477 211.457 458.774 211.52C459.049 211.605 459.346 211.435 459.43 211.16C460.553 207.076 460.553 205.192 460.553 205.192Z" fill="#30423C"/>
<path d="M394.87 285.592L332.446 291.539L359.063 347.876C359.063 347.876 415.515 327.961 414.054 326.945L403.361 314.289L394.87 285.592Z" fill="white"/>
<path d="M359.062 347.854L356.182 340.913L414.054 326.924L406.007 330.649C390.719 336.68 359.062 347.854 359.062 347.854Z" fill="#E6E5E5"/>
<path d="M300.471 272.238C301.34 280.576 302.165 290.671 303.203 292.936C303.203 292.936 305.998 308.766 291.154 308.766C271.843 308.766 274.744 291.92 274.744 291.92C275.824 288.174 278.132 281.931 280.313 270.947L300.471 272.238Z" fill="#9E6741"/>
<path d="M300.387 272.217C300.43 272.428 300.451 272.598 300.578 273.042C301.128 278.079 302.208 286.311 303.225 292.914C285.056 285.655 280.821 275.73 280.059 272.217C280.144 271.772 280.25 271.412 280.334 270.947L281.436 270.989L300.387 272.217Z" fill="#30423C"/>
<path d="M294.183 238.906C312.161 242.461 304.432 259.646 304.432 259.646C304.432 259.646 303.119 271.942 297.741 277.127C297.317 277.55 296.873 277.931 296.449 278.269C292.087 281.804 285.883 280.957 282.601 276.428C282.262 275.963 281.944 275.476 281.627 274.947C277.773 268.492 279.7 256.302 279.7 256.302C279.7 256.302 276.65 237.847 294.183 238.906Z" fill="#9E6741"/>
<path d="M304.452 259.37C304.452 259.37 305.998 258.884 306.337 259.519C306.697 260.154 306.845 262.651 305.554 264.217C304.262 265.783 302.97 266.799 302.97 266.799L304.452 259.37Z" fill="#9E6741"/>
<path d="M279.805 256.238C279.805 256.238 278.407 255.434 277.92 255.984C277.433 256.535 276.776 258.947 277.708 260.746C278.64 262.566 279.551 263.37 279.551 263.37L279.805 256.238Z" fill="#9E6741"/>
<path d="M287.958 259.413C287.894 260.323 287.492 261.021 287.068 260.979C286.666 260.937 286.391 260.196 286.454 259.286C286.518 258.376 286.92 257.678 287.344 257.72C287.746 257.741 288.021 258.503 287.958 259.413Z" fill="#30423C"/>
<path d="M297.994 260.746C297.931 261.593 297.549 262.249 297.168 262.206C296.787 262.185 296.533 261.466 296.597 260.619C296.66 259.773 297.041 259.116 297.422 259.159C297.804 259.201 298.058 259.9 297.994 260.746Z" fill="#30423C"/>
<path d="M290.329 257.064C290.371 257.064 290.393 257.064 290.435 257.042C290.562 257 290.626 256.831 290.562 256.704C290.075 255.603 289.44 254.99 288.635 254.841C288.508 254.82 288.402 254.82 288.296 254.82C287.11 254.82 286.094 255.836 286.051 255.878C285.945 255.984 285.945 256.154 286.051 256.238C286.157 256.344 286.327 256.344 286.411 256.238C286.433 256.238 287.322 255.328 288.275 255.328C288.36 255.328 288.444 255.328 288.529 255.349C289.143 255.455 289.673 255.984 290.075 256.894C290.138 257 290.223 257.064 290.329 257.064Z" fill="#30423C"/>
<path d="M289.228 269.211C290.138 269.211 290.943 268.767 291.007 268.746C291.134 268.682 291.176 268.513 291.112 268.386C291.049 268.238 290.879 268.217 290.752 268.28C290.731 268.28 289.418 268.979 288.465 268.513C287.915 268.217 287.555 267.582 287.428 266.566C287.406 266.418 287.258 266.354 287.131 266.333C286.983 266.354 286.877 266.481 286.898 266.63C287.046 267.815 287.491 268.598 288.211 268.979C288.55 269.169 288.889 269.211 289.228 269.211Z" fill="#30423C"/>
<path d="M299.624 258.291C299.666 258.291 299.687 258.291 299.73 258.27C299.857 258.207 299.92 258.058 299.857 257.931C299.37 256.852 298.735 256.217 297.93 256.09C297.803 256.069 297.697 256.048 297.57 256.048C296.384 256.048 295.367 257.064 295.325 257.106C295.219 257.212 295.219 257.381 295.325 257.466C295.431 257.572 295.6 257.572 295.685 257.466C295.706 257.466 296.596 256.577 297.549 256.577C297.633 256.577 297.718 256.577 297.824 256.598C298.438 256.725 298.967 257.233 299.37 258.143C299.433 258.249 299.518 258.291 299.624 258.291Z" fill="#30423C"/>
<path d="M297.952 267.476C298.883 267.243 299.476 266.566 299.286 265.973C299.074 265.381 298.163 265.106 297.232 265.339C296.3 265.571 295.707 266.249 295.897 266.841C296.088 267.434 296.999 267.709 297.952 267.476Z" fill="#B57B54"/>
<path d="M285.437 265.762C285.013 266.227 284.06 266.122 283.298 265.529C282.536 264.936 282.26 264.09 282.663 263.624C283.086 263.159 284.039 263.265 284.802 263.857C285.564 264.45 285.861 265.296 285.437 265.762Z" fill="#B57B54"/>
<path d="M294.183 238.906C309.683 241.974 306.062 255.159 304.771 258.736L304.241 259.582C304.241 259.582 300.218 253.826 302.357 248.789C302.865 247.582 300.112 250.82 294.966 249.403C289.821 247.985 286.475 245.424 286.475 245.424C286.475 245.424 284.866 255.011 279.678 256.281C279.678 256.302 276.65 237.847 294.183 238.906Z" fill="#30423C"/>
<path d="M235.295 353.505L234.363 365.251L196.778 371.79L235.295 353.505Z" fill="#E6E5E5"/>
<path d="M464.006 252.916C464.006 252.916 425.51 308.871 419.263 316.723C414.88 322.204 411.259 323.601 411.259 323.601L403.361 314.247L394.869 285.592C394.869 285.592 434.424 254.206 444.504 239.837L464.006 252.916Z" fill="#9E6741"/>
<path d="M587.352 411.683C587.352 411.683 608.739 450.793 630.612 546.769C640.459 589.942 649.204 660.713 658.225 716.669L610.56 730.002L578.797 596.524L538.988 494.305L520.756 575.043L493.864 715.251H451.175C451.175 715.251 447.66 659.02 451.175 581.117C451.175 581.117 458.523 449.841 477.517 411.683H587.352Z" fill="#E9BD9A"/>
<path d="M631.755 552.018L577.314 592.651L570.114 574.154L631.755 552.018Z" fill="#9D4F5B"/>
<path d="M452.234 565.329L453.653 547.298C453.653 547.235 453.674 547.171 453.674 547.108L510.042 548.822L523.191 564.292L520.756 575.043L516.31 598.238L452.213 565.435C452.234 565.414 452.234 565.372 452.234 565.329Z" fill="#9D4F5B"/>
<path d="M596.457 397.271C597.156 399.43 595.694 408.339 587.351 411.662C581.316 414.075 584.81 402.393 584.81 402.393L596.457 397.271Z" fill="#30423C"/>
<path d="M477.539 411.683H587.353C587.353 411.683 620.555 451.132 642.429 547.108C642.81 548.801 631.757 552.018 631.757 552.018L561.307 577.329L538.989 494.326L530.561 579.445L440.271 563.34C443.066 526.156 462.843 441.143 477.539 411.683Z" fill="#4B3C7C"/>
<g opacity="0.49">
<path d="M467.396 438.01C470.869 427.323 474.32 418.117 477.539 411.683H577.315C559.783 414.075 495.241 423.662 467.396 438.01Z" fill="#30423C"/>
</g>
<path d="M646.346 330.141L576.955 297.189L589.364 357.547L626.187 369.737L646.346 330.141Z" fill="#E9BD9A"/>
<path d="M591.714 352.955L621.804 368.277L582.884 355.6L591.714 352.955Z" fill="#CE926A"/>
<path d="M481.074 396.805L477.517 411.683H587.352C587.352 411.683 583.794 405.842 585.319 397.313L481.074 396.805Z" fill="#DD9AAA"/>
<path d="M481.075 396.805L585.319 397.292C584.218 403.493 585.785 408.234 586.717 410.371C584.98 411.048 582.926 411.556 580.237 411.662H571.09C543.964 410.9 496.003 404.403 479.783 402.139L481.075 396.805Z" fill="#9D4F5B"/>
<path d="M400.673 243.731L446.284 292.089L502.99 291.581L478.808 342.754C478.808 342.754 425.363 326.839 424.156 325.76C403.298 307.221 383.5 256.513 383.5 256.513L400.673 243.731Z" fill="#E9BD9A"/>
<path d="M480.121 335.728L430.614 328.046L478.787 342.733L480.121 335.728Z" fill="#CE926A"/>
<path d="M494.86 290.629C486.602 310.734 467.375 352.976 467.756 397.61C467.756 397.61 528.634 400.319 548.772 402.837C587.988 407.726 596.458 397.292 596.458 397.292L592.287 358.521C587.374 307.221 581.085 297.274 576.977 297.189L508.836 290.417C501.89 290.544 494.86 290.629 494.86 290.629Z" fill="white"/>
<path d="M541.847 319.496C515.887 319.496 517.771 291.306 517.771 291.306L567.024 296.195C566.643 306.12 554.933 319.496 541.847 319.496Z" fill="#E9BD9A"/>
<path d="M467.797 397.61C467.098 399.768 478.745 406.604 478.745 406.604L480.757 398.223L467.797 397.61Z" fill="#30423C"/>
<path d="M401.182 244.598C401.182 244.598 397.434 237.318 397.412 232.387C397.391 227.456 396.481 217.721 394.173 212.832C392.458 209.171 391.229 206.335 389.26 207.753C387.291 209.171 387.185 215.16 387.608 215.647C388.011 216.134 380.345 200.346 378.757 199.203C377.995 198.653 375.708 195.923 374.565 199.944C374.565 199.944 370.541 196.092 369.229 198.166C367.916 200.24 369.652 202.822 369.652 202.822C369.652 202.822 366.518 200.346 365.544 203.266C364.591 206.166 366.56 210.25 366.56 210.25C366.56 210.25 363.829 208.282 362.834 210.949C361.838 213.636 368.339 233.657 371.833 239.794C375.348 245.932 378.863 249.424 378.863 249.424L383.501 256.513L401.182 244.598Z" fill="#E9BD9A"/>
<path d="M380.981 215.033C380.832 215.033 380.684 214.948 380.621 214.8L374.183 200.092C374.098 199.901 374.183 199.669 374.373 199.584C374.564 199.52 374.797 199.584 374.861 199.774L381.298 214.483C381.383 214.673 381.298 214.906 381.108 214.991C381.086 215.012 381.023 215.033 380.981 215.033Z" fill="#30423C"/>
<path d="M376.703 216.409C376.576 216.409 376.428 216.345 376.364 216.218L369.291 202.991C369.185 202.801 369.27 202.589 369.439 202.483C369.609 202.377 369.842 202.441 369.948 202.631L377.021 215.858C377.127 216.049 377.042 216.261 376.872 216.366C376.83 216.388 376.767 216.409 376.703 216.409Z" fill="#30423C"/>
<path d="M371.959 219.583C371.832 219.583 371.705 219.52 371.621 219.393L366.199 210.42C366.093 210.25 366.157 210.017 366.326 209.912C366.517 209.806 366.75 209.848 366.835 210.039L372.256 219.012C372.362 219.181 372.298 219.414 372.129 219.52C372.086 219.562 372.023 219.562 371.959 219.583Z" fill="#30423C"/>
<path d="M386.591 213.128L386.824 213.615C386.824 213.658 387.459 214.398 388.539 218.292C388.581 218.546 388.454 218.821 388.2 218.885C387.946 218.948 387.692 218.8 387.607 218.546C386.591 214.843 386.591 213.128 386.591 213.128Z" fill="#30423C"/>
<path d="M608.485 410.562C608.485 410.562 604.08 417.461 599.803 419.958C595.547 422.455 587.585 428.127 584.515 432.593C582.206 435.915 580.364 438.413 582.588 439.407C584.79 440.402 590.041 437.46 590.253 436.868C590.465 436.275 580.661 450.835 580.491 452.782C580.407 453.714 579.2 457.057 583.244 456.042C583.244 456.042 581.931 461.459 584.388 461.544C586.844 461.629 588.199 458.856 588.199 458.856C588.199 458.856 587.648 462.814 590.634 462.179C593.62 461.544 596.161 457.798 596.161 457.798C596.161 457.798 595.822 461.163 598.638 460.676C601.455 460.19 615.515 444.508 619.072 438.391C622.608 432.275 623.879 427.471 623.879 427.471L627.69 419.916L608.485 410.562Z" fill="#E9BD9A"/>
<path d="M593.049 442.878C593.134 443.005 593.134 443.174 593.028 443.301L583.541 456.253C583.414 456.423 583.181 456.465 583.012 456.338C582.842 456.211 582.8 455.978 582.927 455.809L592.414 442.857C592.541 442.688 592.774 442.645 592.943 442.772C593.007 442.815 593.028 442.836 593.049 442.878Z" fill="#30423C"/>
<path d="M596.393 445.883C596.457 445.989 596.478 446.158 596.393 446.285L588.516 459.047C588.41 459.216 588.177 459.28 588.007 459.174C587.817 459.068 587.774 458.835 587.88 458.666L595.758 445.904C595.864 445.735 596.097 445.672 596.266 445.777C596.33 445.799 596.372 445.841 596.393 445.883Z" fill="#30423C"/>
<path d="M601.518 448.402C601.582 448.508 601.603 448.656 601.518 448.783L596.478 457.989C596.394 458.179 596.161 458.243 595.97 458.137C595.801 458.031 595.716 457.819 595.822 457.629L600.862 448.423C600.947 448.232 601.18 448.169 601.37 448.275C601.455 448.296 601.497 448.338 601.518 448.402Z" fill="#30423C"/>
<path d="M588.601 438.984L588.898 438.518C588.919 438.497 589.258 437.587 592.095 434.688C592.286 434.519 592.582 434.497 592.773 434.688C592.964 434.878 592.964 435.175 592.773 435.365C590.062 438.137 588.601 438.984 588.601 438.984Z" fill="#30423C"/>
<path d="M537.059 238.779C537.059 238.779 547.922 237.001 559.547 251.667C572.104 267.476 592.263 277.423 592.263 277.423C592.263 277.423 579.621 287.264 571.808 289.042L566.874 286.184L566.895 290.036C566.895 290.036 555.672 297.867 532.782 292.809C516.562 289.211 523.677 271.095 523.677 271.095C523.677 271.095 509.278 242.44 537.059 238.779Z" fill="#30423C"/>
<path d="M532.001 274.037C531.217 281.613 530.455 290.798 529.523 292.83C529.523 292.83 526.982 307.2 540.471 307.2C558.004 307.2 555.378 291.899 555.378 291.899C554.383 288.491 552.308 282.819 550.317 272.83L532.001 274.037Z" fill="#E9BD9A"/>
<path d="M532.084 274.016C532.042 274.206 532.021 274.354 531.915 274.777C531.428 279.349 530.433 286.84 529.501 292.83C546.017 286.227 549.85 277.211 550.549 274.016C550.464 273.592 550.379 273.296 550.295 272.873L549.299 272.915L532.084 274.016Z" fill="#30423C"/>
<path d="M537.74 243.752C521.414 246.99 528.444 262.587 528.444 262.587C528.444 262.587 529.63 273.74 534.521 278.46C534.923 278.841 535.305 279.179 535.707 279.497C539.667 282.693 545.299 281.931 548.285 277.825C548.581 277.402 548.878 276.957 549.174 276.471C552.668 270.608 550.91 259.519 550.91 259.519C550.91 259.519 553.642 242.778 537.74 243.752Z" fill="#E9BD9A"/>
<path d="M550.781 259.497C550.781 259.497 552.052 258.778 552.496 259.265C552.941 259.751 553.534 261.952 552.687 263.603C551.84 265.254 551.014 265.995 551.014 265.995L550.781 259.497Z" fill="#E9BD9A"/>
<path d="M542.396 261.593C542.46 262.418 542.82 263.053 543.201 263.032C543.582 263.011 543.815 262.312 543.751 261.487C543.688 260.661 543.328 260.027 542.947 260.048C542.587 260.069 542.332 260.767 542.396 261.593Z" fill="#30423C"/>
<path d="M534.264 262.249C534.328 263.011 534.667 263.603 535.006 263.582C535.366 263.561 535.599 262.905 535.535 262.143C535.472 261.381 535.133 260.788 534.794 260.81C534.433 260.831 534.2 261.487 534.264 262.249Z" fill="#30423C"/>
<path d="M541.21 260.238C541.295 260.238 541.4 260.175 541.422 260.09C541.782 259.265 542.269 258.778 542.819 258.693C543.815 258.503 544.746 259.497 544.768 259.497C544.852 259.582 545.001 259.582 545.106 259.497C545.191 259.413 545.191 259.265 545.106 259.159C545.064 259.116 544.153 258.185 543.073 258.185C542.968 258.185 542.862 258.185 542.756 258.206C542.036 258.333 541.443 258.905 540.998 259.9C540.956 260.027 540.998 260.153 541.125 260.217C541.146 260.238 541.189 260.238 541.21 260.238Z" fill="#30423C"/>
<path d="M532.783 261.381C532.868 261.381 532.952 261.339 532.995 261.233C533.376 260.408 533.842 259.942 534.392 259.836C535.366 259.688 536.319 260.619 536.319 260.64C536.404 260.725 536.552 260.725 536.658 260.64C536.743 260.556 536.743 260.408 536.658 260.302C536.616 260.259 535.705 259.349 534.625 259.349C534.519 259.349 534.413 259.371 534.308 259.392C533.588 259.519 532.995 260.09 532.55 261.064C532.486 261.169 532.55 261.318 532.677 261.381C532.719 261.36 532.74 261.381 532.783 261.381Z" fill="#30423C"/>
<path d="M532.994 269.952C532.147 269.741 531.597 269.127 531.787 268.577C531.978 268.047 532.804 267.772 533.651 268.005C534.498 268.217 535.048 268.831 534.858 269.381C534.688 269.91 533.841 270.185 532.994 269.952Z" fill="#FCD6BE"/>
<path d="M545.106 266.249C545.487 266.672 546.355 266.587 547.054 266.037C547.753 265.508 548.007 264.725 547.626 264.302C547.244 263.878 546.376 263.963 545.677 264.513C545 265.064 544.725 265.825 545.106 266.249Z" fill="#FCD6BE"/>
<path d="M538.394 269.317L541.803 269C541.803 269 542.121 270.354 540.829 270.968C539.559 271.603 538.394 269.317 538.394 269.317Z" fill="white"/>
<path d="M526.916 258.439C526.916 258.439 539.727 254.524 544.936 253L546.08 248.62C546.08 248.62 546.715 258.926 550.781 259.497C550.781 259.497 555.503 251.053 549.362 244.387C545.296 239.943 523.677 237.763 526.916 258.439Z" fill="#30423C"/>
<path d="M539.008 494.665C539.198 494.665 539.347 494.517 539.347 494.326V411.704C539.347 411.514 539.198 411.366 539.008 411.366C538.817 411.366 538.669 411.514 538.669 411.704V494.326C538.647 494.496 538.817 494.665 539.008 494.665Z" fill="#30423C"/>
<path d="M539.008 456.042C539.029 456.042 539.071 456.042 539.093 456.021L545.255 454.518C545.424 454.476 545.53 454.349 545.53 454.179L545.446 411.683C545.446 411.493 545.297 411.345 545.107 411.345C544.916 411.345 544.768 411.493 544.768 411.683L544.853 453.904L538.966 455.365C538.775 455.407 538.669 455.597 538.711 455.788C538.69 455.936 538.838 456.042 539.008 456.042Z" fill="#30423C"/>
<path d="M451.578 574.726L440.312 563.319L452.213 565.456L451.578 574.726Z" fill="#30423C"/>
<path d="M642.427 547.108C642.427 547.108 639.441 559.425 633.85 562.113L631.754 552.018L642.427 547.108Z" fill="#30423C"/>
<path d="M532.317 562.303C532.486 562.303 532.635 562.176 532.656 562.007C532.698 561.816 532.55 561.647 532.359 561.605L441.984 548.039C441.794 547.976 441.603 548.145 441.582 548.335C441.54 548.526 441.688 548.695 441.879 548.737L532.253 562.303C532.275 562.303 532.296 562.303 532.317 562.303Z" fill="#30423C"/>
<path d="M557.558 563.679C557.6 563.679 557.643 563.679 557.664 563.658L639.484 534.643C639.675 534.579 639.759 534.389 639.696 534.198C639.632 534.008 639.399 533.923 639.251 533.986L557.452 563.001C557.262 563.065 557.177 563.255 557.24 563.446C557.283 563.594 557.41 563.679 557.558 563.679Z" fill="#30423C"/>
<path d="M539.01 473.375L561.328 577.308L539.01 494.305V473.375Z" fill="#30423C"/>
<path d="M608.484 410.562L627.669 419.895C627.669 419.895 683.211 348.934 670.21 341.294C657.208 333.633 646.345 330.141 646.345 330.141L621.782 368.277L608.484 410.562Z" fill="#E9BD9A"/>
</g>
<path opacity="0.65" d="M815.07 324.977V319.221H820.984V324.977H826.897V330.733H820.984V336.49H815.07V330.733H809.157V324.977H815.07Z" fill="#D5CBE4"/>
<path opacity="0.65" d="M120.836 169.066V163.31H126.75V169.066H132.663V174.823H126.75V180.579H120.836V174.823H114.922V169.066H120.836Z" fill="#D5CBE4"/>
<path opacity="0.65" d="M52.5691 226.292C52.5691 227.816 53.8301 229.065 55.4173 229.065C56.9828 229.065 58.2656 227.837 58.2656 226.292C58.2656 224.768 57.0045 223.52 55.4173 223.52C53.8519 223.541 52.5691 224.768 52.5691 226.292Z" fill="#D5CBE4"/>
<path opacity="0.65" d="M779.067 170.802C779.067 172.325 780.328 173.574 781.915 173.574C783.481 173.574 784.764 172.347 784.764 170.802C784.764 169.278 783.503 168.029 781.915 168.029C780.35 168.029 779.067 169.278 779.067 170.802Z" fill="#D5CBE4"/>
<path opacity="0.65" d="M318.896 189.235C318.896 190.759 320.157 192.008 321.744 192.008C323.31 192.008 324.593 190.78 324.593 189.235C324.593 187.711 323.332 186.463 321.744 186.463C320.179 186.484 318.896 187.711 318.896 189.235Z" fill="#D5CBE4"/>
<path opacity="0.65" d="M215.887 435.915C215.887 437.439 217.17 438.688 218.736 438.688C220.301 438.688 221.584 437.439 221.584 435.915C221.584 434.392 220.323 433.143 218.736 433.143C217.149 433.164 215.887 434.392 215.887 435.915Z" fill="#D5CBE4"/>
<path opacity="0.65" d="M49.7204 521.796C49.7204 523.32 51.0033 524.569 52.5687 524.569C54.1342 524.569 55.417 523.341 55.417 521.796C55.417 520.273 54.156 519.024 52.5687 519.024C51.0033 519.045 49.7204 520.273 49.7204 521.796Z" fill="#D5CBE4"/>
<path opacity="0.65" d="M703.06 316.046C703.06 317.57 704.321 318.818 705.909 318.818C707.474 318.818 708.757 317.57 708.757 316.046C708.757 314.522 707.496 313.274 705.909 313.274C704.321 313.274 703.06 314.522 703.06 316.046Z" fill="#D5CBE4"/>
<path opacity="0.65" d="M641.381 225.255V219.88H646.903V225.255H652.447V230.652H646.903V236.048H641.381V230.652H635.837V225.255H641.381Z" fill="#D5CBE4"/>
<path opacity="0.65" d="M823.484 510.559C823.484 512.082 824.745 513.331 826.332 513.331C827.898 513.331 829.181 512.104 829.181 510.559C829.181 509.035 827.92 507.786 826.332 507.786C824.745 507.807 823.484 509.035 823.484 510.559Z" fill="#D5CBE4"/>
<path opacity="0.65" d="M539.263 198.632C539.263 200.155 540.524 201.404 542.112 201.404C543.677 201.404 544.96 200.177 544.96 198.632C544.96 197.108 543.699 195.859 542.112 195.859C540.546 195.859 539.263 197.108 539.263 198.632Z" fill="#D5CBE4"/>
<path d="M210.822 166.167C216.431 158.527 227.367 156.749 235.215 162.188C242.107 166.971 244.347 175.775 241.02 183.013L251.217 190.103L249.695 183.859C249.26 182.061 250.412 180.241 252.26 179.817C254.108 179.394 255.978 180.516 256.413 182.315L260.174 197.848C260.392 198.78 260.196 199.774 259.631 200.557C259.044 201.34 258.152 201.848 257.174 201.954L240.846 203.541C240.738 203.563 240.607 203.563 240.498 203.563C238.759 203.563 237.259 202.272 237.063 200.536C236.868 198.695 238.259 197.044 240.151 196.875L247.999 196.113L236.998 188.473C233.694 191.478 229.389 193.066 225.019 193.066C221.497 193.066 217.953 192.05 214.888 189.912C207.061 184.452 205.235 173.807 210.822 166.167ZM218.91 184.452C223.671 187.753 230.302 186.674 233.694 182.039C237.085 177.405 235.976 170.95 231.215 167.648C226.454 164.347 219.823 165.426 216.431 170.061C213.04 174.696 214.148 181.151 218.91 184.452Z" fill="#E9C1C8"/>
<path d="M690.69 197.743C691.386 196.092 693.342 195.288 695.038 195.986L700.691 198.251L702.952 192.939C700.191 191.14 698.038 188.6 696.734 185.553C694.995 181.489 694.995 177.003 696.712 172.939C700.278 164.537 710.213 160.516 718.845 163.987C720.54 164.664 722.084 165.595 723.475 166.759L723.497 166.781C728.998 171.437 730.824 178.971 728.041 185.531C727.171 187.584 725.91 189.425 724.302 190.97C721.062 194.081 716.779 195.732 712.409 195.732C711.322 195.732 710.235 195.626 709.148 195.415L706.887 200.727L712.54 202.991C714.235 203.668 715.062 205.573 714.344 207.224C713.822 208.472 712.561 209.234 711.257 209.234C710.822 209.234 710.409 209.15 709.974 208.98L704.322 206.716L701.626 213.065C701.104 214.314 699.843 215.075 698.538 215.075C698.104 215.075 697.69 214.991 697.256 214.821C695.56 214.144 694.734 212.24 695.451 210.589L698.147 204.24L692.494 201.975C690.799 201.298 689.972 199.393 690.69 197.743ZM708.452 188.473C712.279 190.018 716.649 189.171 719.584 186.357C720.562 185.426 721.323 184.304 721.845 183.055C723.541 179.077 722.432 174.505 719.084 171.69C718.258 170.992 717.301 170.421 716.279 170.019C711.039 167.923 705.039 170.357 702.865 175.436C701.821 177.913 701.821 180.621 702.865 183.076C703.952 185.553 705.93 187.457 708.452 188.473Z" fill="#E9C1C8"/>
<path d="M285.654 147.162C291.437 141.004 296.916 149.596 296.916 149.596C296.916 149.596 304.243 142.422 308.461 149.681C312.678 156.94 295.133 165.045 295.133 165.045C295.133 165.045 279.871 153.342 285.654 147.162Z" fill="#CD5C5E"/>
<path d="M751.217 262.693C753.044 252.789 764.305 258.122 764.305 258.122C764.305 258.122 767.023 246.207 776.133 250.99C785.242 255.752 772.676 275.01 772.676 275.01C772.676 275.01 749.391 272.598 751.217 262.693Z" fill="#CD5C5E"/>
<path d="M780.111 393.419C779.285 387.747 786.35 388.679 786.35 388.679C786.35 388.679 785.633 381.758 791.438 382.753C797.243 383.748 793.982 396.34 793.982 396.34C793.982 396.34 780.937 399.091 780.111 393.419Z" fill="#CD5C5E"/>
<path d="M580.136 174.463C581.137 174.442 582.006 174.992 582.441 175.796L586.985 175.69C587.072 173.934 587.441 172.241 588.115 170.675L584.115 168.707C583.376 169.299 582.311 169.447 581.397 169.003C580.158 168.389 579.636 166.908 580.267 165.701C580.897 164.495 582.419 163.987 583.658 164.601C584.528 165.024 585.028 165.871 585.05 166.738L589.137 168.728C590.137 167.098 591.464 165.659 593.007 164.495L590.55 160.813C589.616 160.918 588.681 160.537 588.137 159.712C587.376 158.569 587.702 157.045 588.876 156.305C590.05 155.564 591.616 155.882 592.377 157.024C592.92 157.829 592.898 158.844 592.42 159.627L594.877 163.31C596.66 162.358 598.66 161.744 600.79 161.532L600.682 157.13C599.834 156.749 599.225 155.924 599.203 154.971C599.16 153.617 600.269 152.474 601.66 152.453C603.052 152.411 604.226 153.49 604.247 154.845C604.269 155.818 603.704 156.665 602.878 157.088L602.986 161.511C605.139 161.617 607.161 162.146 608.987 163.035L611.313 159.162C610.857 158.421 610.813 157.469 611.313 156.665C612.031 155.501 613.574 155.098 614.77 155.797C615.966 156.495 616.379 157.998 615.661 159.162C615.14 160.03 614.139 160.474 613.161 160.347L610.878 164.135C612.465 165.215 613.835 166.569 614.9 168.135L618.879 165.934C618.814 165.024 619.27 164.093 620.14 163.606C621.357 162.929 622.901 163.352 623.597 164.537C624.293 165.722 623.858 167.225 622.64 167.902C621.792 168.368 620.77 168.304 620.01 167.818L615.987 170.04C616.727 171.564 617.183 173.214 617.357 174.95L621.988 174.844C622.379 174.019 623.227 173.426 624.206 173.405C625.597 173.362 626.771 174.442 626.793 175.796C626.836 177.151 625.727 178.294 624.336 178.315C623.336 178.336 622.466 177.786 622.031 176.981L617.401 177.087C617.314 178.823 616.901 180.495 616.248 182.039L620.379 184.05C621.118 183.457 622.184 183.309 623.097 183.754C624.336 184.367 624.858 185.849 624.227 187.055C623.597 188.261 622.075 188.769 620.836 188.156C619.966 187.732 619.466 186.886 619.444 186.018L615.248 183.965C614.248 185.574 612.944 186.992 611.4 188.134L613.944 191.944C614.879 191.838 615.813 192.219 616.357 193.044C617.118 194.187 616.792 195.711 615.618 196.452C614.444 197.192 612.878 196.875 612.118 195.732C611.574 194.928 611.596 193.912 612.074 193.129L609.53 189.32C607.769 190.272 605.791 190.886 603.704 191.076L603.812 195.605C604.66 195.986 605.269 196.811 605.291 197.764C605.334 199.118 604.226 200.261 602.834 200.282C601.443 200.325 600.269 199.245 600.247 197.891C600.225 196.917 600.79 196.071 601.617 195.647L601.508 191.119C599.377 191.034 597.355 190.505 595.551 189.658L593.181 193.595C593.638 194.335 593.681 195.288 593.181 196.092C592.464 197.256 590.92 197.658 589.724 196.96C588.528 196.261 588.115 194.759 588.833 193.595C589.355 192.727 590.355 192.283 591.333 192.41L593.638 188.579C592.051 187.521 590.659 186.187 589.572 184.621L585.593 186.822C585.659 187.732 585.202 188.664 584.332 189.15C583.115 189.828 581.571 189.404 580.876 188.219C580.18 187.034 580.615 185.531 581.832 184.854C582.68 184.389 583.702 184.452 584.463 184.939L588.463 182.738C587.724 181.214 587.224 179.563 587.05 177.828L582.484 177.934C582.093 178.759 581.245 179.352 580.267 179.373C578.875 179.415 577.701 178.336 577.68 176.981C577.636 175.627 578.723 174.505 580.136 174.463Z" fill="#E6570B"/>
<path d="M599.072 176.473C599.029 174.802 600.377 173.384 602.116 173.341C603.834 173.299 605.29 174.611 605.334 176.304C605.377 177.976 604.029 179.394 602.29 179.436C600.551 179.479 599.137 178.145 599.072 176.473Z" fill="#FDE9DF"/>
<path d="M599.811 167.437C599.768 166.294 600.703 165.341 601.877 165.32C603.051 165.278 604.03 166.188 604.051 167.331C604.095 168.474 603.16 169.426 601.986 169.447C600.833 169.468 599.855 168.579 599.811 167.437Z" fill="#FDE9DF"/>
<path d="M600.355 185.404C600.312 184.262 601.247 183.309 602.421 183.288C603.595 183.246 604.573 184.156 604.595 185.299C604.639 186.441 603.704 187.394 602.53 187.415C601.356 187.436 600.377 186.526 600.355 185.404Z" fill="#FDE9DF"/>
<path d="M611.378 174.04C612.552 173.997 613.531 174.907 613.552 176.05C613.596 177.193 612.661 178.145 611.487 178.166C610.313 178.209 609.334 177.299 609.312 176.156C609.269 175.013 610.204 174.061 611.378 174.04Z" fill="#FDE9DF"/>
<path d="M592.92 174.548C594.094 174.505 595.073 175.415 595.094 176.558C595.138 177.701 594.203 178.653 593.029 178.674C591.855 178.717 590.876 177.807 590.854 176.664C590.833 175.542 591.746 174.59 592.92 174.548Z" fill="#FDE9DF"/>
<path d="M610.508 180.791C611.378 181.553 611.465 182.865 610.682 183.711C609.899 184.558 608.551 184.642 607.682 183.881C606.812 183.119 606.725 181.807 607.508 180.96C608.291 180.092 609.639 180.029 610.508 180.791Z" fill="#FDE9DF"/>
<path d="M596.724 168.833C597.594 169.595 597.681 170.907 596.898 171.754C596.115 172.6 594.767 172.685 593.898 171.923C593.028 171.161 592.941 169.849 593.724 169.003C594.506 168.156 595.854 168.093 596.724 168.833Z" fill="#FDE9DF"/>
<path d="M597.246 184.198C596.42 185.002 595.072 185.023 594.246 184.219C593.419 183.415 593.398 182.103 594.224 181.299C595.05 180.494 596.398 180.473 597.224 181.277C598.05 182.082 598.05 183.394 597.246 184.198Z" fill="#FDE9DF"/>
<path d="M610.204 171.415C609.377 172.22 608.029 172.241 607.203 171.437C606.377 170.632 606.355 169.32 607.181 168.516C608.008 167.712 609.356 167.691 610.182 168.495C611.008 169.299 611.03 170.611 610.204 171.415Z" fill="#FDE9DF"/>
<path d="M61.0258 405.927C60.1997 400.255 67.2655 401.186 67.2655 401.186C67.2655 401.186 66.5481 394.266 72.3529 395.261C78.1578 396.255 74.8966 408.847 74.8966 408.847C74.8966 408.847 61.8737 411.599 61.0258 405.927Z" fill="#CD5C5E"/>
</svg>
