<svg width="847" height="553" viewBox="0 0 847 553" fill="none" xmlns="http://www.w3.org/2000/svg">
<mask id="mask0_147_9" style="mask-type:luminance" maskUnits="userSpaceOnUse" x="0" y="-12" width="847" height="565">
<path d="M-0.000671387 -12H847V552.364H-0.000671387V-12Z" fill="white"/>
</mask>
<g mask="url(#mask0_147_9)">
<path d="M196.357 416.94C191.445 377.915 169.571 343.715 152.102 321.895C133.192 298.277 115.172 283.653 115.003 283.505L113.711 285.113C114.431 285.685 185.029 343.397 194.325 417.194L196.357 416.94Z" fill="#F2A200"/>
<path d="M134.377 303.06L134.399 302.213C134.801 290.87 132.472 275.166 132.451 274.997L130.397 275.293C130.418 275.442 132.599 290.171 132.345 301.261C123.642 302.213 109.582 296.287 109.433 296.224L108.629 298.129C109.264 298.404 124.319 304.753 133.53 303.187L134.377 303.06Z" fill="#F2A200"/>
<path d="M146.828 317.536L147.04 316.732C151.36 300.119 145.897 281.114 145.664 280.31L143.673 280.881C143.737 281.071 149.03 299.526 145.24 315.398C127.051 314.488 118.496 309.515 118.411 309.473L117.353 311.25C117.713 311.462 126.627 316.689 146.002 317.515L146.828 317.536Z" fill="#F2A200"/>
<path d="M161.057 335.398L161.269 334.657C165.716 318.594 160.803 303.208 160.591 302.573L158.622 303.208C158.664 303.356 163.408 318.171 159.469 333.366C143.715 333.683 135.287 329.62 135.202 329.578L134.292 331.44C134.652 331.631 143.545 335.906 160.295 335.419L161.057 335.398Z" fill="#F2A200"/>
<path d="M172.345 347.947C175.394 340.561 175.225 328.371 175.225 327.8L173.15 327.842C173.15 327.99 173.34 342.149 169.719 348.688C159.217 349.662 148.566 344.18 148.46 344.117L147.507 345.958C147.973 346.212 159.195 351.968 170.46 350.699L170.969 350.635L171.223 350.212C171.646 349.513 172.006 348.752 172.345 347.947Z" fill="#F2A200"/>
<path d="M172.809 331.164C174.652 331.926 176.769 331.037 177.532 329.196C178.294 327.354 177.404 325.238 175.562 324.476C173.72 323.714 171.602 324.603 170.84 326.444C170.077 328.286 170.967 330.402 172.809 331.164Z" fill="#F2A200"/>
<path d="M146.575 348.455C148.417 349.217 150.535 348.328 151.297 346.487C152.059 344.645 151.17 342.529 149.328 341.767C147.485 341.005 145.368 341.894 144.605 343.735C143.843 345.577 144.711 347.693 146.575 348.455Z" fill="#F2A200"/>
<path d="M132.682 333.598C134.525 334.36 136.642 333.471 137.405 331.63C138.167 329.789 137.278 327.673 135.435 326.911C133.593 326.149 131.475 327.038 130.713 328.879C129.95 330.741 130.84 332.858 132.682 333.598Z" fill="#F2A200"/>
<path d="M157.077 305.217C158.919 305.979 161.037 305.09 161.799 303.249C162.561 301.408 161.672 299.292 159.83 298.53C157.987 297.768 155.87 298.657 155.107 300.498C154.345 302.339 155.234 304.456 157.077 305.217Z" fill="#F2A200"/>
<path d="M143.778 284.669C145.62 285.431 147.738 284.542 148.5 282.7C149.263 280.859 148.373 278.743 146.531 277.981C144.688 277.219 142.571 278.108 141.808 279.949C141.046 281.79 141.914 283.907 143.778 284.669Z" fill="#F2A200"/>
<path d="M116.885 314.043C118.728 314.805 120.845 313.916 121.608 312.074C122.37 310.233 121.481 308.117 119.638 307.355C117.796 306.593 115.678 307.482 114.916 309.323C114.154 311.164 115.043 313.281 116.885 314.043Z" fill="#F2A200"/>
<path d="M106.934 300.223C108.776 300.985 110.894 300.096 111.657 298.255C112.419 296.414 111.529 294.298 109.687 293.536C107.845 292.774 105.727 293.663 104.965 295.504C104.202 297.345 105.071 299.461 106.934 300.223Z" fill="#F2A200"/>
<path d="M112.969 287.652C114.812 288.414 116.929 287.525 117.692 285.684C118.454 283.843 117.565 281.726 115.722 280.964C113.88 280.203 111.762 281.091 111 282.933C110.237 284.795 111.127 286.89 112.969 287.652Z" fill="#F2A200"/>
<path d="M129.739 278.912C131.581 279.674 133.699 278.785 134.461 276.944C135.224 275.102 134.334 272.986 132.492 272.224C130.649 271.462 128.532 272.351 127.769 274.192C127.028 276.034 127.896 278.15 129.739 278.912Z" fill="#F2A200"/>
<path d="M267.506 538.248C267.506 538.248 251.879 551.094 236.654 551.517C221.429 551.94 231.212 543.137 223.038 538.904C214.865 534.671 198.475 541.973 197.819 534.438C197.141 526.904 196.548 520.47 185.177 523.73C173.806 526.989 158.306 527.518 162.351 518.756C166.395 510.016 162.541 507.18 144.394 513.085C126.247 518.989 107.19 528.724 109.583 517.021C111.975 505.318 119.662 497.889 99.4609 499.688C79.2811 501.487 71.5946 498.693 75.5119 488.704C79.4505 478.715 72.2933 481.17 64.8609 474.44C57.4285 467.71 79.387 470.102 73.6485 461.827C67.9101 453.552 55.3957 456.24 50.3137 443.267C45.2105 430.293 75.4061 422.188 89.2545 429.912C103.103 437.637 83.9608 415.416 96.0941 412.537C108.227 409.659 114.749 420.22 125.739 429.891C136.75 439.563 125.697 424.156 138.381 420.114C151.086 416.072 153.457 436.05 164.638 443.415C175.818 450.779 165.781 430.865 176.411 431.055C187.041 431.246 189.158 453.234 195.595 457.107C202.054 460.98 203.049 445.277 210.312 453.34C217.575 461.404 222.001 485.487 226.151 489.191C230.301 492.895 227.803 480.937 234.79 480.789C241.778 480.641 245.696 501.36 248.491 503.921C251.286 506.482 251.116 498.545 257.871 502.312C264.605 506.101 267.506 538.248 267.506 538.248Z" fill="#C4D4CF"/>
<path d="M297.998 561.379C282.286 547.094 265.473 534.374 248.067 522.417L241.503 517.994C239.322 516.513 237.141 515.031 234.896 513.634L221.514 505.19L207.898 497.169C205.654 495.794 203.325 494.566 200.995 493.296L194.05 489.508L187.104 485.741L180.032 482.228L172.96 478.715C170.588 477.572 168.28 476.302 165.845 475.265C156.21 470.99 146.703 466.461 136.856 462.736C117.396 454.631 97.2589 448.43 77.0367 442.652C97.1742 448.726 117.206 455.223 136.517 463.583C146.3 467.435 155.723 472.091 165.273 476.514C167.666 477.572 169.953 478.884 172.303 480.048L179.354 483.646L186.363 487.265L193.224 491.116L200.085 494.989C202.372 496.28 204.68 497.55 206.903 498.947L220.349 507.137L233.541 515.729C235.765 517.147 237.903 518.65 240.042 520.153L246.5 524.639L249.719 526.904L252.895 529.232L259.227 533.909C263.44 537.02 267.527 540.321 271.677 543.517C279.809 550.099 287.919 556.85 295.457 563.982L297.998 561.379Z" fill="#30423C"/>
<path d="M205.335 531.136C208.3 529.612 211.328 528.216 214.398 526.925C217.447 525.612 220.56 524.427 223.736 523.433C226.892 522.396 230.089 521.528 233.371 521.062C236.632 520.597 239.956 520.385 243.133 521.105L244.064 521.316L243.599 520.47C242.434 518.311 241.291 516.131 240.295 513.888C239.3 511.645 238.39 509.359 237.585 507.052C236.801 504.724 236.145 502.354 235.594 499.962C235.065 497.571 234.642 495.116 234.536 492.661C234.493 495.137 234.811 497.592 235.234 500.047C235.658 502.481 236.293 504.894 237.013 507.264C237.775 509.613 238.58 511.962 239.597 514.227C240.571 516.512 241.693 518.713 242.857 520.914L243.344 520.279C239.999 519.475 236.547 519.687 233.244 520.216C229.92 520.724 226.68 521.634 223.503 522.713C220.348 523.814 217.236 525.083 214.208 526.501C211.18 527.898 208.215 529.422 205.335 531.136Z" fill="#30423C"/>
<path d="M171.075 517.126C174.081 515.009 177.215 513.105 180.413 511.327C183.61 509.528 186.871 507.877 190.238 506.396C193.584 504.936 197.014 503.666 200.529 502.629C204.044 501.655 207.644 501.02 211.265 500.703L212.006 500.639L211.604 500.026C209.952 497.401 208.385 494.671 207.347 491.708C206.267 488.788 205.42 485.762 204.912 482.651C204.383 479.561 204.108 476.428 204.065 473.275C204.023 470.122 204.171 466.968 204.658 463.857C204.044 466.947 203.748 470.122 203.663 473.275C203.599 476.45 203.811 479.603 204.277 482.756C204.7 485.91 205.526 488.999 206.606 491.984C207.644 495.01 209.211 497.803 210.884 500.512L211.222 499.814C207.517 500.089 203.875 500.809 200.317 501.825C196.781 502.904 193.308 504.195 189.963 505.719C183.271 508.851 176.919 512.66 171.075 517.126Z" fill="#30423C"/>
<path d="M120.805 511.984C125.633 508.661 130.63 505.593 135.669 502.608C140.709 499.646 145.876 496.852 151.148 494.312C156.4 491.752 161.799 489.466 167.39 487.773C172.938 486.143 178.803 484.831 184.52 485.784L185.24 485.911L184.965 485.233C183.673 481.911 182.593 478.503 181.746 475.033C180.921 471.562 180.222 468.049 179.692 464.493C178.697 457.403 178.104 450.229 178.104 443.055C177.977 446.652 178.02 450.229 178.189 453.827C178.337 457.425 178.676 461.001 179.121 464.578C179.565 468.154 180.201 471.689 180.984 475.202C181.81 478.715 182.89 482.165 184.16 485.53L184.626 484.958C181.662 484.429 178.655 484.535 175.733 484.937C172.789 485.339 169.91 486.059 167.093 486.926C161.461 488.662 156.04 491.011 150.767 493.614C145.495 496.196 140.392 499.138 135.373 502.185C130.418 505.254 125.548 508.513 120.805 511.984Z" fill="#30423C"/>
<path d="M84.1105 489.804C88.7901 486.439 93.7451 483.498 98.7848 480.747C103.846 477.995 109.076 475.625 114.433 473.551C117.122 472.535 119.833 471.625 122.607 470.842C125.359 470.059 128.155 469.424 130.992 468.916C133.808 468.451 136.667 468.112 139.525 467.964C142.384 467.858 145.243 467.943 148.08 468.26L148.758 468.324L148.504 467.689C146.196 462.102 144.099 456.409 142.299 450.631C141.389 447.732 140.563 444.832 139.758 441.912C138.975 438.991 138.234 436.049 137.62 433.065C138.128 436.049 138.763 439.034 139.462 441.975C140.14 444.938 140.923 447.88 141.77 450.779C142.617 453.7 143.528 456.599 144.523 459.477C145.497 462.356 146.619 465.191 147.741 468.006L148.165 467.456C145.285 467.117 142.363 467.011 139.462 467.096C136.561 467.244 133.681 467.541 130.823 468.027C127.964 468.556 125.148 469.212 122.374 470.017C119.6 470.842 116.868 471.773 114.158 472.81C108.758 474.905 103.57 477.466 98.5307 480.302C93.5122 483.117 88.6843 486.291 84.1105 489.804Z" fill="#30423C"/>
<path d="M79.3038 469.424C85.0422 466.525 90.823 463.71 96.6885 461.128C99.6106 459.837 102.575 458.609 105.582 457.509C108.589 456.43 111.659 455.435 114.772 454.969L115.471 454.864L115.068 454.271C113.565 452.133 112.083 449.975 110.791 447.71C109.478 445.446 108.229 443.139 107.064 440.79C104.756 436.092 102.745 431.224 101.114 426.229C101.749 428.79 102.575 431.288 103.464 433.764C104.354 436.24 105.391 438.674 106.471 441.065C107.551 443.478 108.758 445.827 110.092 448.091C111.384 450.398 112.845 452.599 114.348 454.779L114.645 454.081C111.384 454.525 108.314 455.583 105.285 456.684C102.257 457.805 99.293 459.054 96.3708 460.408C90.5477 463.181 84.8516 466.165 79.3038 469.424Z" fill="#30423C"/>
<path d="M218.485 530.523C218.485 530.523 235.553 523.074 242.9 525.465C250.227 527.857 261.28 536.111 259.713 538.354C258.146 540.597 243.62 545.888 237.564 545.952C231.508 546.015 242.011 540.259 237.204 537.444C232.397 534.629 221.492 536.746 218.147 534.798C214.801 532.851 218.485 530.523 218.485 530.523Z" fill="#C4D4CF"/>
<path d="M230.26 517.466C230.26 517.466 217.724 506.418 207.56 506.524C197.396 506.651 178.889 514.037 178.106 517.825C177.322 521.614 191.001 515.751 196.697 518.587C202.393 521.423 197.671 526.312 202.902 526.841C208.132 527.37 211.118 522.587 218.042 520.598C224.987 518.63 230.26 517.466 230.26 517.466Z" fill="#C4D4CF"/>
<path d="M199.046 498.503C199.152 498.503 191.105 488.726 178.718 490.292C166.352 491.879 148.67 498.8 141.365 504.916C134.081 511.032 158.94 504.112 165.632 503.731C172.323 503.35 166.479 511.857 173.022 510.376C179.565 508.895 190.004 498.609 199.046 498.503Z" fill="#C4D4CF"/>
<path d="M169.213 483.434C169.213 483.434 158.541 470.673 144.819 472.705C131.119 474.736 105.921 481.889 101.008 489.021C96.0955 496.154 112.189 490.207 118.626 491.836C125.063 493.466 117.313 502.947 127.689 498.651C138.064 494.333 156.106 482.651 169.213 483.434Z" fill="#C4D4CF"/>
<path d="M130.482 464.663C130.482 464.663 118.201 458.25 103.082 463.181C87.963 468.134 81.674 473.805 85.4432 476.112C89.1911 478.419 92.325 477.022 102.002 472.832C111.679 468.641 130.482 464.663 130.482 464.663Z" fill="#C4D4CF"/>
<path d="M106.066 453.679C106.066 453.679 92.2391 448.515 79.3012 447.817C66.3633 447.14 69.7725 459.52 78.2001 459.816C86.6278 460.134 100.222 452.811 106.066 453.679Z" fill="#C4D4CF"/>
<path d="M106.936 449.975C107.74 451.223 85.5701 440.557 74.2838 439.732C63.0187 438.906 64.2468 431.33 75.3637 431.372C86.4594 431.393 101.917 442.208 106.936 449.975Z" fill="#C4D4CF"/>
<path d="M103.949 420.474C103.949 420.474 108.819 439.309 119.386 449.129C129.952 458.949 141.005 461.721 141.238 461.002C131.434 452.515 127.559 447.754 125.357 438.992C123.155 430.251 115.68 420.157 109.391 417.68C103.102 415.183 103.949 420.474 103.949 420.474Z" fill="#C4D4CF"/>
<path d="M142.531 434.019C142.531 434.019 145.474 453.489 152.356 462.653C159.238 471.816 175.902 478.673 176.707 477.34C177.533 475.985 171.985 463.605 172.176 457.023C172.366 450.441 170.863 449.468 164.044 451.076C157.226 452.663 156.993 448.261 152.991 440.368C149.031 432.431 140.35 423.712 142.531 434.019Z" fill="#C4D4CF"/>
<path d="M203.705 491.858C203.705 491.858 190.979 486.525 186.384 475.287C181.789 464.07 178.57 447.88 182.615 447.351C186.638 446.822 187.612 459.287 193.012 462.547C198.411 465.827 199.936 464.98 200.529 471.689C201.122 478.461 203.705 491.858 203.705 491.858Z" fill="#C4D4CF"/>
<path d="M233.945 510.926C234.283 511.053 216.115 505.318 211.923 492.768C207.73 480.239 204.702 470.821 208.64 467.668C212.579 464.515 218.381 475.52 219.948 483.202C221.515 490.863 229.625 509.212 233.945 510.926Z" fill="#C4D4CF"/>
<path d="M263.652 531.243C263.546 530.946 249.273 522.947 250.735 514.122C252.196 505.296 257.109 508.746 258.591 513.995C260.052 519.243 263.652 531.243 263.652 531.243Z" fill="#C4D4CF"/>
<path d="M243.597 482.206C235.381 485.741 206.901 480.725 198.622 470.059C191.592 461.022 197.902 442.546 182.91 439.329C168.659 436.282 162.179 422.991 158.093 411.775C154.218 401.172 133.763 407.944 127.897 398.971C122.73 391.056 127.283 379.374 113.562 377.448C97.0451 375.12 96.2828 351.798 75.0866 350.866C106.214 340.475 138.548 345.025 161.396 359.014C177.764 369.046 203.238 370.252 215.9 383.966C225.112 393.934 230.659 411.627 242.772 419.584C260.389 431.203 256.451 476.683 243.597 482.206Z" fill="#FFDD99"/>
<path d="M243.598 482.207C235.933 485.106 211.962 476.958 203.641 466.715C196.483 457.932 197.352 442.06 182.91 439.351C167.685 436.494 169.57 417.976 166.076 408.093C162.18 397.067 134.525 407.31 127.898 398.992C122.519 392.241 133.255 373.533 118.072 372.2C100.603 370.676 94.8858 351.735 75.0659 350.888C109.073 339.82 141.661 351.036 164.446 367.649C178.908 378.189 202.603 371.501 215.88 383.988C227.42 394.844 225.811 416.897 238.431 425.299C254.185 435.774 255.668 477.657 243.598 482.207Z" fill="#FFDD99"/>
<path d="M89.7617 350.189C89.9523 349.851 90.3547 349.639 90.6723 349.724C110.323 356.073 128.851 363.501 146.998 372.369C155.785 376.876 164.234 381.829 172.556 386.971C174.61 388.283 176.664 389.596 178.739 390.908C181.217 392.495 182.424 393.299 184.838 394.95C188.967 397.574 192.905 400.452 196.992 403.182C201.862 406.526 204.255 408.283 208.871 411.965C211.137 413.87 212.259 414.843 214.461 416.833C216.6 418.886 217.659 419.923 219.734 422.06C226.531 429.256 232.397 437.425 236.886 446.504C241.375 455.583 244.445 465.636 245.186 476.387C245.419 480.302 245.377 484.302 244.869 488.365C243.725 488.217 242.518 488.28 241.354 488.492C241.82 484.767 241.925 481.042 241.735 477.381C241.121 467.011 238.283 457.191 234.006 448.26C229.729 439.33 224.096 431.224 217.49 424.071C215.478 421.954 214.461 420.917 212.365 418.865C210.226 416.875 209.125 415.902 206.923 413.997C202.392 410.293 200.041 408.516 195.256 405.172C191.211 402.421 187.315 399.521 183.228 396.855C180.836 395.183 179.629 394.357 177.193 392.77C175.139 391.458 173.107 390.125 171.074 388.791C162.837 383.606 154.494 378.591 145.791 374.019C127.813 365.025 109.455 357.47 89.9523 350.994C89.6771 350.909 89.5712 350.549 89.7617 350.189Z" fill="#F2A200"/>
<path d="M241.48 464.048C241.183 463.624 241.035 463.434 240.76 463.011C232.629 454.588 218.526 455.519 206.033 459.582C205.758 459.667 205.525 459.561 205.525 459.328C205.525 459.096 205.737 458.82 205.991 458.736C218.526 454.609 232.269 453.678 240.887 461.402C244.233 438.694 247.748 431.858 247.938 431.562C248.108 431.308 248.425 431.202 248.658 431.329C248.891 431.435 248.934 431.731 248.764 431.985C248.722 432.049 245.101 439.223 241.692 462.63C241.607 463.201 241.565 463.476 241.48 464.048Z" fill="#F2A200"/>
<path d="M225.811 431.859C225.472 431.668 225.324 431.562 224.985 431.372C214.058 424.896 193.392 434.292 193.201 434.398C192.926 434.525 192.693 434.441 192.629 434.229C192.587 433.996 192.756 433.721 193.032 433.594C193.857 433.192 213.338 424.24 224.815 430.06C224.667 418.06 222.952 406.42 219.903 395.563C219.839 395.331 219.987 395.034 220.284 394.907C220.559 394.78 220.834 394.886 220.898 395.14C224.032 406.42 225.789 418.42 225.811 430.843C225.811 431.245 225.811 431.435 225.811 431.859Z" fill="#F2A200"/>
<path d="M205.42 411.393C205.081 411.224 204.933 411.139 204.594 410.991C193.985 405.806 174.229 415.88 174.039 415.986C173.784 416.134 173.53 416.07 173.467 415.838C173.403 415.626 173.573 415.33 173.827 415.182C174.61 414.758 193.223 405.171 204.382 409.721C204.022 395.013 200.105 378.463 200.063 378.294C199.999 378.04 200.169 377.765 200.444 377.638C200.719 377.532 200.994 377.638 201.058 377.871C201.1 378.04 205.166 395.415 205.399 410.399C205.42 410.822 205.42 411.012 205.42 411.393Z" fill="#F2A200"/>
<path d="M183.863 395.902C183.44 395.817 183.228 395.775 182.805 395.69C170.417 393.151 151.868 401.235 151.698 401.32C151.444 401.447 151.211 401.341 151.169 401.108C151.127 400.875 151.317 400.579 151.593 400.473C151.762 400.389 169.57 392.558 182.233 394.547C177.066 380.453 173.975 371.437 173.953 371.331C173.89 371.098 174.059 370.802 174.313 370.675C174.589 370.548 174.864 370.633 174.927 370.866C174.949 370.95 178.167 380.326 183.524 394.95C183.652 395.331 183.715 395.521 183.863 395.902Z" fill="#F2A200"/>
<path d="M156.293 378.887C155.933 378.802 155.742 378.76 155.361 378.675C144.244 376.093 129.697 386.527 129.549 386.633C129.316 386.802 129.02 386.802 128.935 386.59C128.829 386.4 128.935 386.082 129.189 385.913C129.337 385.807 143.482 375.585 154.917 377.532C152.82 368.136 149.326 355.565 149.284 355.438C149.22 355.205 149.39 354.909 149.644 354.782C149.919 354.655 150.195 354.739 150.258 354.972C150.3 355.099 153.964 368.496 156.06 377.956C156.166 378.336 156.208 378.527 156.293 378.887Z" fill="#F2A200"/>
<path d="M129.951 365.533C129.549 365.448 129.337 365.406 128.935 365.3C120.444 363.437 108.077 370.358 107.95 370.421C107.696 370.569 107.421 370.506 107.357 370.294C107.294 370.062 107.442 369.765 107.696 369.617C108.183 369.321 119.618 362.887 128.384 364.157C125.166 354.76 120.719 349.194 120.677 349.152C120.528 348.962 120.613 348.644 120.846 348.454C121.079 348.263 121.396 348.242 121.545 348.433C121.587 348.496 126.394 354.506 129.655 364.559C129.761 364.961 129.824 365.152 129.951 365.533Z" fill="#F2A200"/>
<path d="M287.938 420.431C287.938 420.431 267.737 421.341 255.286 412.558C242.856 403.775 255.964 402.59 251.962 394.315C247.96 386.019 230.469 382.062 234.45 375.628C238.431 369.194 241.798 363.692 230.744 359.48C219.691 355.29 206.965 346.401 215.435 341.83C223.905 337.259 222.528 332.666 204.466 326.529C186.404 320.392 165.292 316.752 174.228 308.815C183.164 300.879 193.773 299.546 176.536 288.879C159.3 278.234 154.832 271.377 163.958 265.748C173.106 260.118 165.885 257.79 163.98 247.949C162.074 238.108 178.209 253.177 178.59 243.124C178.971 233.072 167.325 227.717 171.031 214.3C174.736 200.861 203.767 212.458 210.226 226.934C216.684 241.41 214.673 212.162 226.128 217.114C237.563 222.088 236.44 234.426 239.447 248.754C242.454 263.081 242.856 244.119 255.434 248.5C268.012 252.88 257.933 270.298 262.465 282.89C266.996 295.482 270.892 273.536 279.299 280.054C287.684 286.573 276.186 305.45 279.045 312.413C281.882 319.376 292.11 307.397 293.084 318.212C294.058 329.026 283.153 350.952 284.254 356.391C285.355 361.83 290.521 350.782 296.217 354.846C301.914 358.909 292.618 377.85 293.317 381.575C294.015 385.3 298.653 378.845 301.787 385.892C304.899 392.94 287.938 420.431 287.938 420.431Z" fill="#C4D4CF"/>
<path d="M298.482 457.213C294.459 436.367 288.636 416.114 281.902 396.115L279.319 388.644C278.451 386.147 277.604 383.649 276.651 381.216L270.997 366.444L264.92 351.862C263.946 349.407 262.824 347.037 261.723 344.645L258.44 337.471L255.137 330.297L251.58 323.249L248.022 316.202C246.815 313.874 245.714 311.461 244.401 309.175C239.256 299.991 234.364 290.658 228.711 281.769C217.996 263.632 205.588 246.574 192.883 229.834C205.355 246.765 217.509 263.971 227.927 282.235C233.433 291.187 238.197 300.562 243.194 309.81C244.486 312.096 245.524 314.509 246.709 316.858L250.14 323.948L253.57 331.037L256.746 338.233L259.923 345.45C260.981 347.862 262.061 350.232 263.014 352.687L268.859 367.311L274.258 382.104C275.19 384.559 275.995 387.057 276.82 389.554L279.298 397.025L280.526 400.771L281.669 404.538L283.935 412.072C285.439 417.088 286.751 422.167 288.149 427.225C290.711 437.362 293.146 447.626 294.904 457.848L298.482 457.213Z" fill="#30423C"/>
<path d="M242.452 377.47C245.734 378.041 248.995 378.718 252.235 379.522C255.475 380.306 258.672 381.216 261.806 382.316C264.94 383.374 268.032 384.602 270.933 386.189C273.812 387.776 276.608 389.596 278.725 392.072L279.339 392.792L279.466 391.84C279.826 389.406 280.228 386.993 280.779 384.602C281.308 382.21 281.965 379.84 282.706 377.491C283.468 375.163 284.358 372.856 285.374 370.613C286.39 368.369 287.513 366.168 288.91 364.137C287.386 366.084 286.157 368.264 285.035 370.465C283.913 372.666 282.981 374.972 282.134 377.3C281.329 379.649 280.567 382.02 280.017 384.432C279.424 386.845 279 389.279 278.619 391.734L279.381 391.522C277.179 388.877 274.299 386.993 271.335 385.406C268.37 383.819 265.215 382.612 262.039 381.575C258.842 380.559 255.602 379.713 252.341 379.036C249.059 378.401 245.777 377.829 242.452 377.47Z" fill="#30423C"/>
<path d="M223.414 345.746C227.078 345.852 230.741 346.212 234.383 346.699C238.025 347.164 241.625 347.82 245.203 348.646C248.761 349.492 252.276 350.529 255.685 351.799C259.094 353.111 262.355 354.762 265.447 356.688L266.082 357.069L266.146 356.328C266.4 353.217 266.781 350.106 267.734 347.122C268.623 344.138 269.767 341.196 271.206 338.424C272.625 335.63 274.298 332.964 276.14 330.424C277.982 327.884 279.994 325.451 282.26 323.229C279.909 325.345 277.771 327.694 275.823 330.17C273.874 332.667 272.138 335.334 270.635 338.128C269.089 340.9 267.882 343.863 266.971 346.91C265.976 349.937 265.553 353.132 265.277 356.307L265.955 355.968C262.821 353.958 259.475 352.37 256.024 351.037C252.551 349.789 248.994 348.73 245.394 347.947C238.131 346.424 230.783 345.662 223.414 345.746Z" fill="#30423C"/>
<path d="M186.274 311.503C192.14 311.736 197.984 312.286 203.807 312.921C209.63 313.577 215.432 314.424 221.171 315.545C226.909 316.646 232.605 318.043 238.089 320.032C243.51 322.064 248.995 324.519 252.976 328.688L253.484 329.217L253.674 328.519C254.627 325.09 255.813 321.704 257.232 318.424C258.65 315.143 260.196 311.905 261.911 308.773C265.363 302.509 269.174 296.414 273.494 290.657C271.25 293.451 269.132 296.35 267.099 299.334C265.066 302.297 263.182 305.366 261.403 308.498C259.624 311.63 258.015 314.847 256.533 318.127C255.093 321.429 253.886 324.836 252.891 328.307L253.59 328.138C251.536 325.937 249.079 324.222 246.475 322.783C243.87 321.344 241.16 320.201 238.386 319.207C232.838 317.217 227.078 315.863 221.319 314.783C215.538 313.704 209.694 312.985 203.871 312.434C198.005 311.863 192.14 311.567 186.274 311.503Z" fill="#30423C"/>
<path d="M170.203 271.758C175.963 271.864 181.701 272.478 187.397 273.303C193.093 274.129 198.705 275.377 204.231 276.922C206.984 277.726 209.716 278.615 212.405 279.631C215.073 280.668 217.699 281.832 220.261 283.123C222.802 284.435 225.279 285.874 227.651 287.462C230.001 289.091 232.246 290.89 234.321 292.837L234.829 293.303L234.999 292.647C236.502 286.784 238.238 280.986 240.271 275.272C241.288 272.414 242.368 269.579 243.469 266.764C244.591 263.949 245.777 261.156 247.068 258.404C245.692 261.113 244.4 263.864 243.193 266.637C241.965 269.409 240.822 272.224 239.763 275.081C238.704 277.917 237.688 280.795 236.756 283.695C235.803 286.573 234.999 289.514 234.215 292.456L234.893 292.266C232.775 290.276 230.531 288.435 228.138 286.763C225.745 285.134 223.246 283.652 220.663 282.319C218.059 281.028 215.412 279.885 212.701 278.848C209.991 277.832 207.238 276.943 204.443 276.16C198.874 274.615 193.178 273.536 187.461 272.795C181.743 272.055 175.963 271.695 170.203 271.758Z" fill="#30423C"/>
<path d="M178.567 252.564C184.898 253.685 191.209 254.87 197.455 256.352C200.589 257.071 203.681 257.854 206.751 258.786C209.8 259.717 212.849 260.775 215.623 262.256L216.259 262.595L216.28 261.875C216.365 259.272 216.47 256.648 216.788 254.045C217.085 251.442 217.466 248.86 217.953 246.278C218.927 241.135 220.24 236.035 221.934 231.062C220.917 233.474 220.07 235.993 219.287 238.49C218.524 241.008 217.889 243.569 217.317 246.151C216.746 248.733 216.301 251.336 215.983 253.939C215.645 256.563 215.496 259.188 215.39 261.833L216.047 261.452C213.167 259.844 210.076 258.849 206.984 257.939C203.892 257.029 200.759 256.246 197.603 255.59C191.314 254.32 184.962 253.283 178.567 252.564Z" fill="#30423C"/>
<path d="M253.34 384.855C253.34 384.855 271.487 389.109 275.913 395.416C280.338 401.723 284.234 414.95 281.63 415.817C279.025 416.664 264.224 412.22 259.354 408.622C254.462 405.024 266.32 406.738 264.161 401.596C262.001 396.453 252.006 391.628 250.503 388.072C248.978 384.517 253.34 384.855 253.34 384.855Z" fill="#C4D4CF"/>
<path d="M270.596 381.47C270.596 381.47 267.187 365.11 258.992 359.121C250.797 353.132 231.549 347.968 228.648 350.529C225.747 353.089 240.21 356.603 243.068 362.274C245.927 367.946 239.214 369.047 243.068 372.602C246.922 376.158 252.195 374.126 258.928 376.687C265.662 379.247 270.596 381.47 270.596 381.47Z" fill="#C4D4CF"/>
<path d="M256.98 347.586C257.064 347.65 256.493 334.994 245.63 328.835C234.788 322.677 216.472 317.64 206.964 318.169C197.457 318.698 221.512 328.052 227.102 331.756C232.671 335.46 222.909 338.782 229.029 341.491C235.148 344.221 249.674 342.253 256.98 347.586Z" fill="#C4D4CF"/>
<path d="M242.158 317.64C242.158 317.64 241.269 301.027 229.072 294.445C216.875 287.863 192.439 278.488 184.223 281.26C176.007 284.011 192.46 288.9 196.632 294.064C200.803 299.228 188.924 302.17 199.808 304.942C210.671 307.714 232.1 309.175 242.158 317.64Z" fill="#C4D4CF"/>
<path d="M222.402 279.419C222.402 279.419 216.41 266.912 201.354 261.811C186.299 256.711 177.85 257.494 179.481 261.6C181.09 265.705 184.436 266.467 194.705 268.901C204.975 271.335 222.402 279.419 222.402 279.419Z" fill="#C4D4CF"/>
<path d="M209.443 256.013C209.443 256.013 201.482 243.59 191.529 235.294C181.577 226.998 176.876 238.934 183.44 244.246C190.005 249.515 205.293 251.801 209.443 256.013Z" fill="#C4D4CF"/>
<path d="M212.363 253.557C212.257 255.039 200.908 233.219 192.374 225.812C183.841 218.405 189.388 213.072 198.261 219.759C207.112 226.426 212.999 244.33 212.363 253.557Z" fill="#C4D4CF"/>
<path d="M227.672 228.141C227.672 228.141 220.282 246.129 222.844 260.33C225.428 274.51 232.585 283.356 233.22 282.911C230.467 270.256 230.213 264.118 233.707 255.78C237.201 247.463 237.265 234.913 233.707 229.156C230.15 223.421 227.672 228.141 227.672 228.141Z" fill="#C4D4CF"/>
<path d="M250.437 262.129C250.437 262.129 241.12 279.483 241.141 290.932C241.162 302.382 250.373 317.873 251.834 317.281C253.295 316.688 256.302 303.461 260.389 298.318C264.497 293.176 263.862 291.483 257.446 288.689C251.03 285.874 253.486 282.213 255.032 273.494C256.577 264.753 254.862 252.563 250.437 262.129Z" fill="#C4D4CF"/>
<path d="M264.689 345.068C264.689 345.068 257.722 333.174 260.75 321.428C263.799 309.683 270.935 294.826 274.471 296.815C278.008 298.805 271.316 309.365 273.667 315.206C276.017 321.047 277.754 321.301 274.196 327.037C270.681 332.793 264.689 345.068 264.689 345.068Z" fill="#C4D4CF"/>
<path d="M277.456 378.443C277.647 378.76 266.551 363.269 270.701 350.719C274.852 338.169 278.091 328.836 283.131 328.645C288.171 328.476 286.223 340.772 282.877 347.862C279.531 354.93 275.021 374.464 277.456 378.443Z" fill="#C4D4CF"/>
<path d="M289.058 412.495C289.143 412.199 282.536 397.236 288.974 391.057C295.432 384.877 297.296 390.57 295.348 395.649C293.378 400.749 289.058 412.495 289.058 412.495Z" fill="#C4D4CF"/>
<path d="M593.92 457.255C633.199 419.097 652.913 366.168 662.527 328.476C672.945 287.673 674.109 255.441 674.109 255.102L671.23 255.018C671.187 256.287 666.169 383.056 591.908 455.202L593.92 457.255Z" fill="#FFDD99"/>
<path d="M668.624 293.006L669.576 292.329C682.536 283.271 698.057 267.525 698.205 267.377L696.151 265.367C696.003 265.515 681.456 280.287 668.92 289.281C660.577 280.414 655.389 259.822 655.347 259.61L652.552 260.309C652.785 261.24 658.333 283.292 667.777 292.202L668.624 293.006Z" fill="#FFDD99"/>
<path d="M662.95 318.973L664.03 318.529C686.115 309.408 702.674 287.398 703.373 286.466L701.065 284.752C700.896 284.964 684.824 306.318 664.009 315.418C649.779 294.445 648.149 280.795 648.127 280.646L645.269 280.943C645.332 281.535 646.984 295.821 662.315 318L662.95 318.973Z" fill="#FFDD99"/>
<path d="M655.008 349.724L656.003 349.343C677.58 340.835 690.561 322.486 691.111 321.703L688.761 320.053C688.634 320.243 676.119 337.893 655.94 346.274C642.388 329.047 639.847 316.307 639.825 316.18L637.009 316.709C637.115 317.28 639.804 330.719 654.373 348.919L655.008 349.724Z" fill="#FFDD99"/>
<path d="M650.54 372.771C661.318 369.956 674.722 359.586 675.336 359.099L673.557 356.835C673.388 356.962 657.803 369.025 647.512 370.464C637.644 359.628 634.807 343.205 634.786 343.036L631.948 343.502C632.075 344.221 635.04 361.512 645.903 372.961L646.39 373.469L647.088 373.406C648.19 373.3 649.354 373.088 650.54 372.771Z" fill="#FFDD99"/>
<path d="M669.576 359.226C670.275 361.914 673.028 363.522 675.717 362.824C678.407 362.126 680.016 359.374 679.317 356.687C678.618 353.999 675.865 352.391 673.176 353.089C670.487 353.787 668.877 356.539 669.576 359.226Z" fill="#FFDD99"/>
<path d="M628.371 344.581C629.07 347.269 631.823 348.877 634.512 348.179C637.202 347.48 638.811 344.729 638.112 342.041C637.413 339.353 634.66 337.745 631.971 338.443C629.26 339.142 627.651 341.893 628.371 344.581Z" fill="#FFDD99"/>
<path d="M633.24 316.73C633.939 319.418 636.692 321.026 639.381 320.328C642.071 319.63 643.68 316.878 642.981 314.191C642.282 311.503 639.53 309.894 636.84 310.593C634.151 311.291 632.541 314.042 633.24 316.73Z" fill="#FFDD99"/>
<path d="M685.246 320.032C685.945 322.72 688.698 324.328 691.387 323.63C694.077 322.931 695.686 320.18 694.987 317.492C694.288 314.805 691.535 313.196 688.846 313.895C686.157 314.593 684.547 317.344 685.246 320.032Z" fill="#FFDD99"/>
<path d="M696.933 288.033C697.632 290.721 700.385 292.329 703.075 291.631C705.764 290.932 707.373 288.181 706.675 285.493C705.976 282.806 703.223 281.197 700.533 281.896C697.844 282.594 696.235 285.345 696.933 288.033Z" fill="#FFDD99"/>
<path d="M641.773 282.784C642.472 285.472 645.225 287.08 647.914 286.382C650.604 285.683 652.213 282.932 651.515 280.244C650.816 277.557 648.063 275.948 645.373 276.647C642.684 277.345 641.074 280.096 641.773 282.784Z" fill="#FFDD99"/>
<path d="M648.781 260.161C649.48 262.849 652.233 264.457 654.922 263.759C657.612 263.06 659.221 260.309 658.522 257.621C657.824 254.933 655.071 253.325 652.381 254.023C649.671 254.722 648.061 257.473 648.781 260.161Z" fill="#FFDD99"/>
<path d="M667.82 256.33C668.519 259.018 671.272 260.626 673.961 259.928C676.651 259.229 678.26 256.478 677.561 253.79C676.863 251.102 674.11 249.494 671.42 250.192C668.71 250.891 667.1 253.642 667.82 256.33Z" fill="#FFDD99"/>
<path d="M691.598 267.652C692.296 270.34 695.049 271.948 697.739 271.25C700.428 270.551 702.038 267.8 701.339 265.112C700.64 262.425 697.887 260.816 695.198 261.515C692.508 262.213 690.899 264.964 691.598 267.652Z" fill="#FFDD99"/>
<path d="M629.62 520.999C639.742 521.528 668.032 505.042 672.669 490.482C676.587 478.144 662.653 460.959 677.306 451.668C691.261 442.843 692.934 426.187 692.891 412.664C692.849 399.86 717.264 399.056 719.974 387.247C722.367 376.813 712.944 366.168 726.771 358.761C743.415 349.83 735.093 324.751 757.242 315.439C720.08 316.582 687.492 334.084 668.709 357.893C655.242 374.972 628.646 386.231 620.557 405.744C614.692 419.944 615.708 440.917 605.947 454.123C591.781 473.361 613.803 520.153 629.62 520.999Z" fill="#FFDD99"/>
<path d="M629.621 520.999C638.916 521.084 661.171 503.032 666.021 488.873C670.192 476.726 663.035 460.197 677.307 451.668C692.362 442.674 683.109 423.732 682.961 411.86C682.77 398.633 716.184 398.654 719.974 387.247C723.045 377.956 704.305 362.274 719.911 354.93C737.867 346.465 736.533 324.116 757.264 315.439C716.777 316.984 686.56 341.661 668.837 368.242C657.593 385.109 629.811 387.289 620.579 405.744C612.575 421.785 622.929 444.621 612.808 458.483C600.187 475.794 615.031 520.872 629.621 520.999Z" fill="#FFDD99"/>
<path d="M741.38 320.476C741.041 320.18 740.512 320.117 740.215 320.349C721.814 334.783 705.044 349.936 689.226 366.464C681.645 374.697 674.615 383.268 667.797 391.987C666.124 394.188 664.451 396.389 662.778 398.59C660.767 401.236 659.793 402.569 657.887 405.278C654.541 409.701 651.471 414.294 648.21 418.78C644.335 424.24 642.493 427.034 639.02 432.769C637.347 435.69 636.542 437.15 634.975 440.134C633.493 443.139 632.794 444.663 631.418 447.753C627.014 458.059 623.986 469.043 622.779 480.45C621.572 491.857 622.249 503.73 625.658 515.454C626.929 519.708 628.559 523.941 630.677 528.047C631.82 527.433 633.133 527.031 634.467 526.798C632.498 523.01 630.952 519.095 629.703 515.137C626.273 503.878 625.468 492.323 626.505 481.17C627.564 469.996 630.381 459.181 634.573 448.98C635.886 445.933 636.564 444.43 637.982 441.446C639.486 438.504 640.269 437.044 641.857 434.145C645.224 428.431 647.024 425.637 650.793 420.198C654.012 415.69 657.019 411.077 660.322 406.654C662.207 403.945 663.159 402.59 665.129 399.945C666.802 397.744 668.432 395.543 670.062 393.342C676.775 384.601 683.678 376.009 691.153 367.755C706.738 351.163 723.296 335.947 741.465 321.429C741.74 321.196 741.719 320.773 741.38 320.476Z" fill="#F2A200"/>
<path d="M624.769 500.873C624.917 500.323 624.98 500.048 625.129 499.497C630.465 487.371 645.817 482.821 660.703 482.249C661.02 482.228 661.232 482.038 661.147 481.784C661.063 481.53 660.745 481.318 660.406 481.339C645.457 481.868 630.486 486.249 624.366 497.847C611.915 475.033 605.499 469.128 605.182 468.895C604.906 468.705 604.525 468.705 604.335 468.916C604.144 469.128 604.208 469.467 604.483 469.657C604.568 469.721 611.195 475.921 624.006 499.455C624.303 500.005 624.451 500.302 624.769 500.873Z" fill="#F2A200"/>
<path d="M628.793 460.515C629.069 460.176 629.196 460.007 629.471 459.668C638.555 448.515 664.198 450.42 664.452 450.441C664.791 450.462 665.024 450.293 664.981 450.039C664.939 449.785 664.643 449.552 664.304 449.531C663.266 449.446 639.063 447.541 629.132 458.229C624.579 445.425 621.869 432.388 620.831 419.627C620.81 419.352 620.514 419.098 620.175 419.077C619.836 419.055 619.582 419.267 619.603 419.563C620.704 432.769 623.521 446.208 628.37 459.435C628.539 459.859 628.624 460.091 628.793 460.515Z" fill="#F2A200"/>
<path d="M642.45 430.801C642.746 430.504 642.873 430.335 643.17 430.039C652.402 420.367 677.346 423.351 677.6 423.394C677.939 423.436 678.172 423.267 678.151 423.013C678.13 422.759 677.833 422.505 677.495 422.462C676.499 422.314 652.953 419.436 642.895 428.621C637.495 412.854 635.187 393.723 635.166 393.532C635.145 393.257 634.827 393.003 634.488 392.982C634.149 392.961 633.895 393.193 633.938 393.469C633.959 393.659 636.436 413.722 642.09 429.743C642.217 430.166 642.302 430.378 642.45 430.801Z" fill="#F2A200"/>
<path d="M659.284 405.892C659.687 405.638 659.898 405.511 660.322 405.257C672.497 397.702 695.366 399.056 695.599 399.056C695.917 399.078 696.129 398.887 696.086 398.633C696.023 398.379 695.705 398.146 695.388 398.104C695.176 398.083 673.196 396.729 660.512 403.797C660.491 386.782 660.216 375.988 660.216 375.883C660.195 375.607 659.898 375.354 659.56 375.311C659.221 375.29 658.967 375.48 658.967 375.756C658.967 375.861 659.242 387.078 659.284 404.707C659.284 405.194 659.284 405.427 659.284 405.892Z" fill="#F2A200"/>
<path d="M681.921 377.025C682.281 376.792 682.45 376.665 682.81 376.432C693.609 369.343 713.175 374.739 713.366 374.782C713.704 374.887 713.98 374.76 714.022 374.506C714.043 374.252 713.81 373.977 713.493 373.872C713.302 373.808 694.266 368.496 682.852 375.036C681.391 364.242 680.184 349.512 680.184 349.364C680.163 349.089 679.867 348.835 679.528 348.814C679.189 348.793 678.914 348.983 678.935 349.259C678.956 349.407 680.29 365.089 681.773 375.967C681.836 376.39 681.857 376.602 681.921 377.025Z" fill="#F2A200"/>
<path d="M704.683 352.497C705.086 352.243 705.276 352.116 705.679 351.862C713.958 346.55 729.818 349.068 729.988 349.11C730.326 349.174 730.58 349.005 730.559 348.729C730.538 348.454 730.263 348.2 729.945 348.137C729.31 348.031 714.636 345.64 705.827 350.444C705.552 339.206 708.114 331.545 708.135 331.46C708.22 331.206 708.008 330.91 707.69 330.783C707.351 330.677 707.013 330.783 706.928 331.037C706.907 331.122 704.154 339.396 704.641 351.354C704.662 351.819 704.662 352.052 704.683 352.497Z" fill="#F2A200"/>
<path d="M627.885 579.346C631.95 585.187 653.337 593.801 663.438 590.076C671.992 586.923 675.528 571.77 687.005 575.896C697.932 579.833 707.926 573.569 715.422 567.706C722.516 562.161 733.506 575.367 741.235 571.77C748.074 568.595 749.916 558.775 760.017 563.241C772.171 568.616 782.505 553.167 797.264 561.463C780.578 541.316 756.798 530.776 735.433 530.628C720.123 530.522 702.378 520.618 688.043 524.554C677.625 527.432 666.402 537.041 654.84 537.337C638.028 537.76 621.532 570.204 627.885 579.346Z" fill="#FFDD99"/>
<path d="M627.884 579.346C631.844 584.531 651.495 589.103 661.447 585.695C670.001 582.754 676.1 571.664 687.005 575.897C698.503 580.362 705.046 567.072 711.568 561.844C718.852 556.024 733.251 574.606 741.234 571.77C747.714 569.463 748.349 552.278 759.17 557.781C771.62 564.109 783.478 553.696 797.242 561.463C778.905 539.644 752.139 533.528 729.715 535.157C715.485 536.194 702.272 521.697 688.021 524.554C675.634 527.03 667.439 542.649 655.348 543.009C640.314 543.496 621.659 571.198 627.884 579.346Z" fill="#FFDD99"/>
<path d="M787.606 554.817C787.627 554.5 787.436 554.182 787.182 554.119C771.216 550.14 755.547 547.368 739.539 545.717C731.683 545.061 723.89 544.87 716.098 544.828C714.15 544.849 712.202 544.87 710.253 544.892C707.924 544.913 706.76 544.955 704.43 545.061C700.534 545.103 696.659 545.4 692.742 545.505C688.041 545.717 685.69 545.907 680.99 546.437C678.66 546.775 677.475 546.944 675.166 547.368C672.858 547.854 671.694 548.108 669.407 548.68C661.763 550.69 654.373 553.759 647.491 557.992C640.63 562.246 634.32 567.748 629.28 574.711C627.459 577.25 625.808 579.98 624.452 582.943C625.278 583.324 626.083 583.875 626.782 584.509C628.031 581.779 629.534 579.219 631.207 576.827C635.993 570.076 642.07 564.616 648.719 560.383C655.389 556.151 662.61 553.04 670.084 550.966C672.35 550.373 673.472 550.098 675.738 549.59C678.025 549.145 679.169 548.955 681.477 548.595C686.114 548.003 688.443 547.791 693.081 547.537C696.977 547.389 700.852 547.05 704.727 546.987C707.035 546.86 708.2 546.817 710.529 546.775C712.477 546.754 714.404 546.712 716.331 546.669C724.081 546.627 731.852 546.754 739.666 547.325C755.61 548.807 771.216 551.431 787.14 555.262C787.373 555.346 787.585 555.135 787.606 554.817Z" fill="#F2A200"/>
<path d="M636.988 567.96C637.369 567.79 637.539 567.727 637.92 567.558C646.962 565.293 656.131 571.854 662.864 579.854C663.012 580.023 663.203 580.044 663.309 579.896C663.415 579.748 663.394 579.473 663.245 579.303C656.49 571.219 647.597 564.806 638.513 566.415C645.818 549.653 646.326 543.537 646.326 543.262C646.326 543.029 646.157 542.818 645.945 542.797C645.734 542.775 645.585 542.966 645.585 543.199C645.585 543.262 645.014 549.632 637.454 566.902C637.264 567.325 637.158 567.536 636.988 567.96Z" fill="#F2A200"/>
<path d="M661.15 552.786C661.467 552.786 661.616 552.786 661.912 552.807C672.034 553.04 682.049 568.087 682.134 568.235C682.261 568.425 682.473 568.489 682.6 568.362C682.727 568.235 682.727 567.96 682.6 567.769C682.198 567.156 672.796 552.891 662.59 552.003C667.735 543.939 673.812 536.807 680.461 530.733C680.61 530.606 680.631 530.331 680.483 530.141C680.355 529.95 680.123 529.887 679.974 530.035C673.114 536.342 666.846 543.728 661.594 552.108C661.404 552.362 661.319 552.489 661.15 552.786Z" fill="#F2A200"/>
<path d="M683.573 547.516C683.869 547.537 684.017 547.559 684.314 547.58C693.673 548.532 702.8 563.664 702.884 563.833C703.011 564.045 703.202 564.108 703.329 563.981C703.456 563.854 703.477 563.579 703.35 563.389C702.99 562.775 694.436 548.447 684.97 546.839C691.407 537.04 701.042 527.496 701.148 527.39C701.296 527.242 701.296 526.967 701.169 526.776C701.021 526.586 700.809 526.543 700.661 526.67C700.555 526.776 690.497 536.807 684.017 546.86C683.827 547.135 683.742 547.262 683.573 547.516Z" fill="#F2A200"/>
<path d="M704.684 546.119C705.002 546.246 705.171 546.289 705.489 546.416C714.933 549.908 724.081 563.198 724.165 563.325C724.292 563.516 724.483 563.558 724.61 563.41C724.737 563.262 724.716 562.987 724.589 562.796C724.504 562.669 715.78 549.865 706.357 545.887C715.801 538.522 721.688 533.718 721.751 533.675C721.9 533.548 721.921 533.273 721.794 533.083C721.667 532.892 721.434 532.829 721.285 532.956C721.222 532.998 715.102 537.993 705.32 545.633C705.065 545.823 704.938 545.929 704.684 546.119Z" fill="#F2A200"/>
<path d="M730.518 546.225C730.814 546.331 730.941 546.374 731.238 546.458C739.856 549.4 745.298 562.585 745.34 562.712C745.425 562.944 745.616 563.05 745.785 562.944C745.933 562.86 745.997 562.606 745.891 562.373C745.848 562.246 740.576 549.379 732.021 545.866C737.4 540.384 745.065 533.358 745.15 533.295C745.298 533.168 745.319 532.892 745.171 532.681C745.044 532.469 744.811 532.427 744.663 532.554C744.578 532.639 736.447 540.13 731.047 545.654C730.814 545.908 730.708 546.014 730.518 546.225Z" fill="#F2A200"/>
<path d="M753.959 548.278C754.276 548.384 754.425 548.447 754.742 548.553C761.264 550.86 766.727 560.764 766.77 560.849C766.876 561.061 767.087 561.124 767.236 560.997C767.384 560.87 767.405 560.616 767.299 560.404C767.087 560.002 762.069 550.839 755.61 548.003C761.73 543.008 767.108 541.125 767.151 541.103C767.32 541.04 767.405 540.786 767.32 540.574C767.236 540.342 767.024 540.193 766.854 540.257C766.791 540.278 761.01 542.331 754.573 547.749C754.34 547.96 754.213 548.066 753.959 548.278Z" fill="#F2A200"/>
<path d="M630.763 556.702C630.763 556.702 646.644 563.58 659.286 560.321C671.906 557.062 661.785 552.152 667.502 546.734C673.219 541.316 688.423 543.454 687.195 537.105C685.966 530.734 684.929 525.317 695.051 525.317C705.172 525.317 718.047 522.079 712.668 515.835C707.269 509.592 709.767 506.354 726.093 506.926C742.419 507.497 760.397 510.989 755.675 501.931C750.953 492.873 742.864 488.577 759.888 485.275C776.934 481.995 782.588 477.868 776.977 470.588C771.386 463.308 777.845 463.625 782.376 456.345C786.908 449.044 769.417 456.197 772.149 448.049C774.902 439.88 785.828 439.139 786.95 427.267C788.072 415.394 761.307 415.86 751.736 425.489C742.165 435.118 752.668 412.304 741.996 412.812C731.323 413.299 728.465 423.542 721.71 434.081C714.955 444.642 720.397 429.341 708.984 429.023C697.57 428.706 700.344 445.7 692.912 454.398C685.458 463.096 689.016 444.345 680.313 447.012C671.61 449.679 675.083 468.281 670.699 472.98C666.316 477.678 661.763 465.001 657.698 473.36C653.632 481.72 655.707 502.566 653.166 506.587C650.625 510.608 649.863 500.196 644.061 501.719C638.28 503.243 639.953 521.232 638.259 523.983C636.565 526.756 634.829 520.174 630.17 524.872C625.554 529.57 630.763 556.702 630.763 556.702Z" fill="#C4D4CF"/>
<path d="M611.155 582.945C620.704 567.474 631.525 553.041 643.002 539.094L647.343 533.909C648.783 532.174 650.222 530.438 651.747 528.767L660.746 518.672L670.042 508.852C671.567 507.201 673.197 505.635 674.807 504.048L679.613 499.307L684.441 494.567L689.417 489.995L694.394 485.424C696.066 483.921 697.676 482.334 699.433 480.916C706.336 475.117 713.091 469.149 720.312 463.753C734.393 452.494 749.512 442.61 764.779 433.087C749.639 442.843 734.711 452.917 720.799 464.366C713.663 469.848 707.014 475.922 700.195 481.784C698.48 483.223 696.892 484.831 695.241 486.355L690.328 490.99L685.415 495.625L680.672 500.429L675.95 505.233C674.383 506.841 672.774 508.407 671.27 510.1L662.144 520.026L653.314 530.206C651.832 531.878 650.413 533.634 649.015 535.391L644.759 540.618L642.642 543.242L640.588 545.909L636.48 551.242C633.748 554.797 631.165 558.48 628.497 562.099C623.351 569.443 618.291 576.913 613.78 584.553L611.155 582.945Z" fill="#30423C"/>
<path d="M680.229 536.152C677.433 535.602 674.617 535.179 671.78 534.819C668.963 534.459 666.105 534.227 663.267 534.142C660.43 534.036 657.592 534.078 654.776 534.459C652.002 534.84 649.186 535.475 646.751 536.808L646.031 537.211L646.2 536.406C646.666 534.354 647.068 532.301 647.344 530.206C647.64 528.132 647.831 526.036 647.958 523.941C648.042 521.846 648.042 519.73 647.915 517.634C647.788 515.539 647.555 513.423 647.068 511.37C647.704 513.402 648.021 515.497 648.254 517.592C648.487 519.708 648.53 521.825 648.508 523.941C648.445 526.057 648.318 528.195 648.021 530.29C647.767 532.406 647.365 534.481 646.92 536.555L646.37 536.152C648.932 534.692 651.812 534.057 654.67 533.719C657.529 533.359 660.409 533.338 663.267 533.465C666.126 533.613 668.985 533.93 671.801 534.375C674.659 534.883 677.476 535.433 680.229 536.152Z" fill="#30423C"/>
<path d="M705.107 516.534C702.143 515.497 699.094 514.693 696.045 513.973C692.995 513.253 689.904 512.661 686.812 512.238C683.699 511.835 680.587 511.603 677.453 511.581C674.319 511.603 671.227 511.941 668.157 512.534L667.543 512.661L667.712 512.047C668.453 509.486 669.089 506.883 669.237 504.195C669.428 501.529 669.406 498.841 669.089 496.175C668.792 493.508 668.284 490.863 667.564 488.259C666.865 485.656 665.997 483.096 664.854 480.641C666.103 483.032 667.077 485.572 667.903 488.154C668.708 490.736 669.279 493.402 669.639 496.09C670.042 498.778 670.084 501.508 669.915 504.238C669.787 506.968 669.152 509.634 668.411 512.259L667.966 511.772C671.079 511.116 674.255 510.862 677.41 510.841C680.566 510.883 683.721 511.137 686.855 511.603C693.122 512.618 699.242 514.248 705.107 516.534Z" fill="#30423C"/>
<path d="M745.234 500.408C740.47 498.82 735.642 497.466 730.772 496.217C725.923 494.969 721.01 493.889 716.076 493.043C711.143 492.196 706.166 491.583 701.169 491.498C696.214 491.477 691.09 491.773 686.622 493.911L686.05 494.186L686.114 493.551C686.389 490.503 686.474 487.456 686.347 484.387C686.22 481.339 685.966 478.271 685.542 475.244C684.674 469.171 683.488 463.139 681.773 457.234C682.726 460.155 683.53 463.118 684.25 466.123C684.97 469.107 685.542 472.133 686.029 475.181C686.495 478.228 686.813 481.297 687.003 484.366C687.151 487.456 687.088 490.546 686.834 493.614L686.325 493.254C688.634 492.133 691.132 491.498 693.631 491.138C696.151 490.778 698.671 490.673 701.19 490.736C706.23 490.842 711.248 491.477 716.203 492.366C721.158 493.254 726.05 494.461 730.899 495.773C735.748 497.149 740.512 498.693 745.234 500.408Z" fill="#30423C"/>
<path d="M770.18 473.487C765.542 471.815 760.757 470.567 755.95 469.509C751.143 468.429 746.273 467.731 741.382 467.287C738.925 467.096 736.469 466.99 734.013 466.99C731.556 467.011 729.1 467.138 726.665 467.392C724.23 467.667 721.816 468.07 719.423 468.62C717.052 469.212 714.722 469.953 712.457 470.884L711.906 471.096L711.97 470.525C712.541 465.382 712.922 460.197 713.028 455.012C713.092 452.43 713.092 449.827 713.049 447.224C713.007 444.621 712.901 442.039 712.711 439.436C713.007 442.017 713.177 444.599 713.304 447.202C713.431 449.806 713.494 452.388 713.494 454.991C713.494 457.594 713.431 460.197 713.282 462.8C713.177 465.403 712.922 467.985 712.647 470.588L712.16 470.228C714.447 469.276 716.819 468.493 719.233 467.879C721.647 467.308 724.103 466.863 726.559 466.588C729.037 466.355 731.514 466.228 733.992 466.228C736.469 466.25 738.947 466.376 741.403 466.588C746.337 467.033 751.207 467.9 756.014 469.043C760.863 470.228 765.585 471.689 770.18 473.487Z" fill="#30423C"/>
<path d="M769.311 455.604C763.911 454.567 758.49 453.615 753.048 452.896C750.338 452.515 747.606 452.218 744.875 452.028C742.143 451.859 739.39 451.774 736.722 452.113L736.108 452.197L736.299 451.626C737.04 449.509 737.739 447.393 738.268 445.213C738.819 443.055 739.306 440.854 739.687 438.653C740.47 434.229 740.978 429.764 741.127 425.277C741.211 427.521 741.127 429.785 740.978 432.028C740.83 434.272 740.555 436.515 740.237 438.758C739.92 441.002 739.475 443.203 738.924 445.404C738.416 447.605 737.717 449.763 736.997 451.901L736.595 451.414C739.39 451.012 742.164 451.16 744.917 451.351C747.67 451.562 750.422 451.88 753.133 452.303C758.575 453.128 763.974 454.229 769.311 455.604Z" fill="#30423C"/>
<path d="M669.281 538.755C669.281 538.755 653.463 536.66 648 540.364C642.537 544.067 635.401 553.464 637.222 554.945C639.043 556.427 652.235 557.358 657.232 555.961C662.229 554.564 652.235 552.342 655.517 548.872C658.799 545.401 668.285 544.597 670.572 542.205C672.859 539.814 669.281 538.755 669.281 538.755Z" fill="#C4D4CF"/>
<path d="M677.686 507.836C677.602 507.857 681.9 497.91 692.467 496.281C703.012 494.651 719.211 496.175 726.643 499.476C734.097 502.799 711.99 502.968 706.4 504.238C700.81 505.508 707.628 511.137 701.89 511.455C696.172 511.772 685.14 505.762 677.686 507.836Z" fill="#C4D4CF"/>
<path d="M698.65 488.366C698.65 488.366 704.41 475.35 716.183 473.784C727.935 472.218 750.36 472.133 756.077 476.853C761.815 481.551 747.162 480.472 742.25 483.329C737.337 486.186 745.955 492.154 736.405 491.074C726.855 489.974 709.28 484.641 698.65 488.366Z" fill="#C4D4CF"/>
<path d="M726.072 463.773C726.072 463.773 734.669 455.583 748.264 456.07C761.858 456.556 768.38 459.752 765.839 462.546C763.298 465.339 760.397 464.937 751.44 463.752C742.483 462.567 726.072 463.773 726.072 463.773Z" fill="#C4D4CF"/>
<path d="M743.563 448.98C743.563 448.98 753.727 441.446 764.209 437.827C774.69 434.208 774.818 445.192 767.957 447.435C761.096 449.678 748.179 446.864 743.563 448.98Z" fill="#C4D4CF"/>
<path d="M741.974 446.123C741.614 447.351 757.326 433.32 766.41 429.976C775.494 426.632 772.678 420.706 763.551 423.352C754.425 425.997 744.261 438.547 741.974 446.123Z" fill="#C4D4CF"/>
<path d="M737.443 421.151C737.443 421.151 737.887 437.785 731.514 448.367C725.14 458.927 716.712 463.837 716.352 463.287C722.408 453.996 724.462 449.15 724.208 441.425C723.954 433.701 727.702 423.648 732.297 420.114C736.892 416.601 737.443 421.151 737.443 421.151Z" fill="#C4D4CF"/>
<path d="M708.921 441.425C708.921 441.425 711.102 458.144 707.608 467.287C704.115 476.451 692.045 486.038 691.05 485.128C690.054 484.218 691.685 472.705 689.97 467.35C688.254 461.996 689.271 460.832 695.242 460.536C701.235 460.24 700.367 456.557 701.785 449.108C703.183 441.658 708.265 432.431 708.921 441.425Z" fill="#C4D4CF"/>
<path d="M672.287 503.455C672.287 503.455 681.477 496.048 682.621 485.741C683.743 475.413 682.558 461.361 679.127 461.869C675.675 462.377 677.835 472.874 674.172 476.831C670.508 480.789 669.047 480.471 670.148 486.143C671.228 491.815 672.287 503.455 672.287 503.455Z" fill="#C4D4CF"/>
<path d="M651.917 526.291C651.663 526.481 665.257 517.465 665.744 506.164C666.231 494.863 666.485 486.398 662.504 484.726C658.524 483.054 656.343 493.487 656.872 500.175C657.401 506.863 655.072 523.857 651.917 526.291Z" fill="#C4D4CF"/>
<path d="M273.526 542.051C192.137 460.712 192.137 328.837 273.526 247.498C354.916 166.16 486.874 166.16 568.263 247.498C649.652 328.837 649.652 460.712 568.263 542.051C486.874 623.389 354.916 623.389 273.526 542.051Z" fill="#E7E7FE"/>
<mask id="mask1_147_9" style="mask-type:luminance" maskUnits="userSpaceOnUse" x="212" y="186" width="418" height="418">
<path d="M273.526 542.051C192.137 460.712 192.137 328.837 273.526 247.498C354.916 166.16 486.874 166.16 568.263 247.498C649.652 328.837 649.652 460.712 568.263 542.051C486.874 623.389 354.916 623.389 273.526 542.051Z" fill="white"/>
</mask>
<g mask="url(#mask1_147_9)">
<path d="M295.816 224.882C295.816 224.882 329.505 253.198 348.648 244.775C367.79 236.352 377.742 243.315 386.551 246.341C395.36 249.368 409.907 244.775 419.859 248.987C429.811 253.198 446.667 275.018 436.312 278.065C425.979 281.134 423.671 266.193 403.004 268.5C382.337 270.785 368.933 268.182 371.982 278.489C375.053 288.795 391.125 286.107 402.22 289.557C413.316 293.007 412.173 306.784 408.721 312.9C405.27 319.017 406.032 325.154 410.627 330.127C415.222 335.101 422.506 333.577 431.675 341.217C440.865 348.878 439.721 378.718 430.913 377.957C422.104 377.195 413.295 359.587 402.199 361.894C391.103 364.179 390.722 384.856 376.937 381.025C363.152 377.195 366.604 380.644 355.106 387.522C343.629 394.4 339.796 382.168 327.917 394.4C316.038 406.654 325.228 421.574 326.012 435.352C326.795 449.129 307.25 445.679 298.823 424.262C290.395 402.823 281.586 398.633 262.444 399.776C243.302 400.919 223.778 380.644 214.589 358.444C205.441 336.222 224.604 231.76 295.816 224.882Z" fill="#C4D4CF"/>
<path d="M388.266 185.264C388.266 185.264 388.563 199.041 398.6 205.348C408.658 211.655 416.726 207.633 423.311 215.972C429.897 224.289 438.515 224.585 441.098 233.77C443.681 242.955 458.906 246.405 466.085 231.76C473.263 217.115 467.525 192.438 450.013 185.264C432.501 178.089 388.266 185.264 388.266 185.264Z" fill="#C4D4CF"/>
<path d="M492.215 197.327C492.215 197.327 508.287 220.289 503.692 236.352C499.097 252.415 492.702 273.092 504.518 281.134C516.333 289.176 511.738 300.075 518.62 313.281C525.502 326.487 539.287 317.874 547.905 319.588C556.523 321.302 555.952 335.08 566.857 341.111C577.762 347.143 582.929 350.592 577.19 362.063C571.452 373.533 566.285 382.718 573.739 382.718C581.214 382.718 627.714 368.941 623.119 328.18C618.566 287.441 581.806 206.512 492.215 197.327Z" fill="#C4D4CF"/>
<path d="M629.047 357.745C629.047 357.745 615.834 383.564 593.431 389.321C571.028 395.056 575.051 407.119 576.195 416.304C577.338 425.489 572.743 427.203 567.005 432.96C561.266 438.695 556.099 448.43 558.386 454.187C560.673 459.943 574.458 464.536 575.051 476.578C575.623 488.641 587.121 509.868 605.48 502.397C623.881 494.947 644.463 393.596 629.047 357.745Z" fill="#C4D4CF"/>
<path d="M511.166 429.785C508.329 425.489 507.143 408.537 487.048 410.273C466.953 411.987 454.311 387.31 435.932 397.067C417.552 406.823 408.362 405.109 388.267 412.283C368.171 419.458 355.53 443.605 377.933 478.017C400.336 512.428 395.741 522.777 413.55 540.554C431.358 558.353 462.951 554.903 453.168 522.185C443.406 489.466 467.525 470.271 476.715 472.98C485.905 475.689 499.118 474.546 504.285 467.075C509.451 459.605 519.213 459.033 519.213 449.848C519.213 440.663 517.117 438.78 511.166 429.785Z" fill="#C4D4CF"/>
<path d="M350.934 502.313C347.08 488.303 337.911 475.52 345.958 475.139C354.004 474.758 360.124 477.044 366.053 497.339C371.982 517.614 375.815 527.18 383.861 534.079C391.908 540.957 399.171 555.518 383.861 554.354C368.552 553.19 356.313 521.825 350.934 502.313Z" fill="#C4D4CF"/>
<path d="M220.392 452.558C220.392 452.558 231.107 465.573 240.678 461.362C250.249 457.15 267.485 461.743 269.01 470.166C270.534 478.589 282.795 473.996 290.46 485.467C298.125 496.937 293.53 501.953 290.46 514.757C287.39 527.561 280.127 544.407 260.984 537.888C241.821 531.391 203.918 481.255 220.392 452.558Z" fill="#C4D4CF"/>
</g>
</g>
<mask id="mask2_147_9" style="mask-type:luminance" maskUnits="userSpaceOnUse" x="38" y="-1" width="787" height="553">
<path d="M38 -1H825V552H38V-1Z" fill="white"/>
</mask>
<g mask="url(#mask2_147_9)">
<path d="M148.531 399.268C148.531 399.268 144.448 407.246 144.386 412.685C144.324 418.124 143.252 428.812 140.735 434.187C138.859 438.208 137.518 441.319 135.415 439.753C133.311 438.187 133.27 431.584 133.703 431.055C134.136 430.526 125.763 447.838 124.072 449.065C123.247 449.658 120.772 452.642 119.576 448.198C119.576 448.198 115.224 452.409 113.842 450.102C112.46 447.795 114.337 444.981 114.337 444.981C114.337 444.981 110.955 447.668 109.944 444.473C108.934 441.277 111.079 436.812 111.079 436.812C111.079 436.812 108.129 438.97 107.078 436.007C106.026 433.045 113.182 411.056 116.998 404.326C120.813 397.617 124.628 393.787 124.628 393.787L129.661 386.02L148.531 399.268Z" fill="#9E6741"/>
<path d="M126.603 431.627C126.438 431.627 126.294 431.712 126.232 431.86L119.199 447.986C119.116 448.198 119.199 448.452 119.405 448.537C119.611 448.621 119.859 448.537 119.941 448.325L126.974 432.198C127.057 431.987 126.974 431.733 126.768 431.648C126.706 431.648 126.665 431.627 126.603 431.627Z" fill="#30423C"/>
<path d="M122.029 430.061C121.885 430.061 121.74 430.124 121.658 430.272L113.944 444.769C113.841 444.96 113.903 445.213 114.109 445.319C114.295 445.446 114.542 445.362 114.645 445.15L122.359 430.653C122.462 430.463 122.4 430.209 122.194 430.103C122.153 430.082 122.091 430.082 122.029 430.061Z" fill="#30423C"/>
<path d="M116.979 426.547C116.834 426.547 116.69 426.61 116.628 426.737L110.729 436.557C110.605 436.748 110.667 437.002 110.853 437.129C111.059 437.234 111.286 437.192 111.41 436.98L117.309 427.161C117.432 426.97 117.371 426.716 117.185 426.589C117.102 426.568 117.041 426.547 116.979 426.547Z" fill="#30423C"/>
<path d="M132.61 433.764L132.878 433.235C132.878 433.193 133.559 432.389 134.755 428.114C134.817 427.838 134.673 427.542 134.405 427.457C134.137 427.373 133.848 427.542 133.765 427.817C132.631 431.902 132.61 433.764 132.61 433.764Z" fill="#30423C"/>
<path d="M129.64 386.02C129.64 386.02 167.587 330.381 173.733 322.593C178.043 317.133 181.591 315.778 181.591 315.778L189.201 325.196L197.244 353.936C197.244 353.936 158.451 384.983 148.531 399.268L129.64 386.02Z" fill="#9E6741"/>
<path d="M233.314 410.907C233.314 410.907 203.925 548.871 172.783 747.468L254.721 745.902L295.247 501.889L317.85 745.119H395.045C395.045 745.119 387.311 501.889 351.054 410.928H233.314V410.907Z" fill="#C4D4CF"/>
<path d="M172.351 747.85H172.784L255.031 746.263L255.073 745.967L295.145 504.768L317.501 745.501H395.396L395.376 745.12C395.293 742.686 387.229 500.789 351.365 410.802L351.262 410.569H232.964L232.902 410.866C232.613 412.241 203.163 551.115 172.371 747.427L172.351 747.85ZM254.413 745.522L173.217 747.088C203.307 555.39 232.077 418.59 233.603 411.289H350.808C385.848 499.625 394.262 733.628 394.654 744.718H318.181L295.351 499.011L294.897 501.805L254.413 745.522Z" fill="#30423C"/>
<path d="M233.315 410.907H351.056C354.438 419.373 357.552 429.171 360.439 439.943C316.119 420.664 233.542 410.95 233.315 410.907Z" fill="#9DB5AD"/>
<path d="M295.269 502.249C295.475 502.249 295.64 502.08 295.619 501.868L291.35 410.908C291.35 410.718 291.185 410.569 290.999 410.569H290.979C290.772 410.569 290.628 410.739 290.649 410.95L294.918 501.91C294.918 502.101 295.083 502.249 295.269 502.249Z" fill="#30423C"/>
<path d="M292.896 464.303C292.958 464.303 293.041 464.282 293.102 464.239C293.267 464.112 293.288 463.901 293.185 463.731L286.379 454.25L284.461 410.886C284.461 410.696 284.296 410.548 284.11 410.548C284.11 410.548 284.11 410.548 284.089 410.548C283.883 410.548 283.739 410.717 283.759 410.929L285.677 454.398C285.677 454.462 285.698 454.547 285.739 454.589L292.608 464.155C292.69 464.26 292.793 464.303 292.896 464.303Z" fill="#30423C"/>
<path d="M241.316 745.078L241.625 745.268L253.546 745.078L295.227 501.868C295.227 501.868 279.037 563.708 268.251 615.346C261.816 646.393 241.316 745.078 241.316 745.078Z" fill="#9DB5AD"/>
<path d="M180.414 315.44L244.451 284.88L231.169 351.333L191.654 358.952L180.414 315.44Z" fill="#FABE9E"/>
<path d="M334.474 289.261C343.342 311.377 361.017 361.767 360.604 410.908H223.766L230.262 326.487C229.726 322.001 240.058 284.965 244.451 284.88L317.501 277.431C324.946 277.558 331.649 282.192 334.474 289.261Z" fill="#FABE9E"/>
<path d="M304.715 278.7L255.837 283.568C258.456 293.366 265.138 309.091 281.369 308.117C304.715 306.721 302.652 290.975 304.715 278.7Z" fill="#F69A68"/>
<path d="M360.605 410.907C361.347 413.299 353.819 418.082 353.819 418.082L351.076 410.907H360.605Z" fill="#A95121"/>
<path d="M223.764 410.907C223.022 413.299 231.746 418.378 231.746 418.378L233.293 410.907H223.764Z" fill="#A95121"/>
<path d="M432.928 226.998C432.928 226.998 436.95 218.977 436.971 213.559C436.991 208.12 437.981 197.411 440.456 192.015C442.312 187.994 443.612 184.862 445.736 186.407C447.839 187.951 447.942 194.576 447.509 195.105C447.076 195.634 455.305 178.259 456.996 177.01C457.801 176.417 460.275 173.391 461.492 177.835C461.492 177.835 465.803 173.582 467.205 175.867C468.607 178.153 466.751 180.989 466.751 180.989C466.751 180.989 470.113 178.28 471.144 181.475C472.175 184.671 470.072 189.158 470.072 189.158C470.072 189.158 473 186.978 474.073 189.941C475.145 192.904 468.174 214.956 464.421 221.707C460.667 228.458 456.873 232.31 456.873 232.31L451.902 240.119L432.928 226.998Z" fill="#9E6741"/>
<path d="M454.584 194.449C454.749 194.449 454.894 194.364 454.955 194.195L461.865 178.005C461.947 177.793 461.865 177.539 461.659 177.454C461.452 177.37 461.205 177.454 461.122 177.666L454.213 193.856C454.13 194.068 454.213 194.322 454.419 194.406C454.481 194.427 454.522 194.427 454.584 194.449Z" fill="#30423C"/>
<path d="M459.162 195.951C459.306 195.951 459.45 195.888 459.533 195.74L467.123 181.179C467.226 180.989 467.164 180.735 466.958 180.629C466.772 180.502 466.525 180.587 466.422 180.798L458.832 195.359C458.728 195.549 458.79 195.803 458.997 195.909C459.038 195.951 459.1 195.951 459.162 195.951Z" fill="#30423C"/>
<path d="M464.256 199.443C464.4 199.443 464.545 199.379 464.607 199.231L470.423 189.348C470.547 189.157 470.485 188.903 470.278 188.776C470.072 188.671 469.845 188.713 469.722 188.925L463.905 198.808C463.782 198.998 463.843 199.252 464.05 199.379C464.111 199.422 464.194 199.443 464.256 199.443Z" fill="#30423C"/>
<path d="M448.562 192.354L448.294 192.904C448.294 192.946 447.614 193.771 446.459 198.046C446.397 198.322 446.541 198.618 446.83 198.681C447.098 198.766 447.387 198.597 447.469 198.322C448.562 194.237 448.562 192.354 448.562 192.354Z" fill="#30423C"/>
<path d="M384.589 272.753L323.79 278.7L349.714 335.037C349.714 335.037 404.697 315.122 403.274 314.106L392.859 301.45L384.589 272.753Z" fill="#FABE9E"/>
<path d="M349.714 335.016L346.909 328.074L403.273 314.085L395.436 317.81C380.546 323.841 349.714 335.016 349.714 335.016Z" fill="#F69A68"/>
<path d="M292.649 259.398C293.495 267.737 294.299 277.832 295.31 280.096C295.31 280.096 298.032 295.926 283.575 295.926C264.766 295.926 267.592 279.08 267.592 279.08C268.643 275.334 270.891 269.091 273.016 258.107L292.649 259.398Z" fill="#9E6741"/>
<path d="M292.567 259.377C292.608 259.589 292.628 259.758 292.752 260.203C293.288 265.239 294.34 273.472 295.33 280.075C277.635 272.816 273.51 262.89 272.768 259.377C272.85 258.933 272.953 258.573 273.036 258.107L274.108 258.15L292.567 259.377Z" fill="#7C5032"/>
<path d="M286.524 226.066C304.034 229.622 296.506 246.806 296.506 246.806C296.506 246.806 295.228 259.102 289.989 264.287C289.577 264.711 289.144 265.092 288.731 265.43C284.483 268.964 278.44 268.118 275.243 263.589C274.913 263.123 274.604 262.637 274.295 262.108C270.541 255.653 272.418 243.463 272.418 243.463C272.418 243.463 269.448 225.008 286.524 226.066Z" fill="#9E6741"/>
<path d="M296.525 246.531C296.525 246.531 298.03 246.044 298.36 246.679C298.711 247.314 298.855 249.811 297.597 251.377C296.339 252.943 295.081 253.959 295.081 253.959L296.525 246.531Z" fill="#9E6741"/>
<path d="M272.52 243.4C272.52 243.4 271.158 242.595 270.684 243.146C270.21 243.696 269.57 246.109 270.478 247.907C271.385 249.727 272.272 250.532 272.272 250.532L272.52 243.4Z" fill="#9E6741"/>
<path d="M280.462 246.574C280.4 247.484 280.008 248.182 279.596 248.14C279.204 248.098 278.936 247.357 278.997 246.447C279.059 245.537 279.451 244.838 279.864 244.881C280.256 244.902 280.524 245.664 280.462 246.574Z" fill="#30423C"/>
<path d="M290.237 247.907C290.175 248.753 289.803 249.409 289.432 249.367C289.061 249.346 288.813 248.626 288.875 247.78C288.937 246.933 289.308 246.277 289.68 246.319C290.051 246.362 290.298 247.06 290.237 247.907Z" fill="#30423C"/>
<path d="M282.77 244.225C282.812 244.225 282.832 244.225 282.873 244.204C282.997 244.161 283.059 243.992 282.997 243.865C282.523 242.764 281.904 242.151 281.12 242.003C280.997 241.981 280.893 241.981 280.79 241.981C279.635 241.981 278.645 242.997 278.604 243.04C278.501 243.145 278.501 243.315 278.604 243.399C278.707 243.505 278.872 243.505 278.955 243.399C278.975 243.399 279.842 242.489 280.77 242.489C280.852 242.489 280.935 242.489 281.017 242.511C281.615 242.616 282.131 243.145 282.523 244.055C282.585 244.161 282.667 244.225 282.77 244.225Z" fill="#30423C"/>
<path d="M281.698 256.372C282.585 256.372 283.369 255.928 283.431 255.907C283.555 255.843 283.596 255.674 283.534 255.547C283.472 255.399 283.307 255.378 283.183 255.441C283.163 255.441 281.884 256.14 280.956 255.674C280.42 255.378 280.069 254.743 279.945 253.727C279.925 253.579 279.78 253.515 279.657 253.494C279.512 253.515 279.409 253.642 279.43 253.79C279.574 254.976 280.007 255.759 280.708 256.14C281.038 256.33 281.368 256.372 281.698 256.372Z" fill="#30423C"/>
<path d="M291.825 245.452C291.866 245.452 291.887 245.452 291.928 245.431C292.052 245.368 292.114 245.22 292.052 245.093C291.578 244.013 290.959 243.378 290.175 243.251C290.051 243.23 289.948 243.209 289.824 243.209C288.669 243.209 287.679 244.225 287.638 244.267C287.535 244.373 287.535 244.542 287.638 244.627C287.741 244.733 287.906 244.733 287.989 244.627C288.009 244.627 288.876 243.738 289.804 243.738C289.886 243.738 289.969 243.738 290.072 243.759C290.67 243.886 291.186 244.394 291.578 245.304C291.639 245.41 291.722 245.452 291.825 245.452Z" fill="#30423C"/>
<path d="M290.195 254.637C291.103 254.404 291.68 253.727 291.495 253.134C291.288 252.542 290.401 252.267 289.494 252.499C288.586 252.732 288.009 253.409 288.195 254.002C288.38 254.595 289.267 254.87 290.195 254.637Z" fill="#B57B54"/>
<path d="M278.006 252.922C277.594 253.388 276.666 253.282 275.923 252.689C275.181 252.097 274.913 251.25 275.305 250.785C275.717 250.319 276.645 250.425 277.388 251.017C278.13 251.61 278.419 252.457 278.006 252.922Z" fill="#B57B54"/>
<path d="M286.525 226.066C301.621 229.135 298.095 242.32 296.837 245.896L296.321 246.743C296.321 246.743 292.403 240.986 294.486 235.95C294.981 234.743 292.299 237.981 287.288 236.563C282.276 235.145 279.018 232.585 279.018 232.585C279.018 232.585 277.45 242.172 272.398 243.441C272.398 243.463 269.448 225.008 286.525 226.066Z" fill="#30423C"/>
<path d="M229.17 340.666L228.262 352.412L191.655 358.951L229.17 340.666Z" fill="#F69A68"/>
<path d="M451.926 240.077C451.926 240.077 414.432 296.033 408.348 303.885C404.079 309.366 400.552 310.763 400.552 310.763L392.859 301.408L384.589 272.753C384.589 272.753 423.114 241.368 432.931 226.998L451.926 240.077Z" fill="#9E6741"/>
<path d="M572.06 398.845C572.06 398.845 592.89 437.955 614.195 533.931C623.785 577.104 632.302 647.874 641.088 703.83L594.664 717.163L563.728 583.686L524.956 481.467L507.199 562.205L481.006 702.412H439.429C439.429 702.412 436.005 646.181 439.429 568.279C439.429 568.279 446.585 437.002 465.085 398.845H572.06Z" fill="#FEA898"/>
<path d="M615.307 539.179L562.283 579.812L555.271 561.316L615.307 539.179Z" fill="#FF836C"/>
<path d="M440.46 552.49L441.842 534.459C441.842 534.396 441.863 534.332 441.863 534.269L496.763 535.983L509.57 551.453L507.199 562.204L502.868 585.399L440.44 552.596C440.46 552.575 440.46 552.533 440.46 552.49Z" fill="#9D4F5B"/>
<path d="M580.929 384.433C581.609 386.591 580.186 395.501 572.06 398.824C566.182 401.236 569.585 389.554 569.585 389.554L580.929 384.433Z" fill="#9DB5AD"/>
<path d="M465.106 398.845H572.061C572.061 398.845 604.399 438.293 625.704 534.269C626.075 535.962 615.309 539.179 615.309 539.179L546.694 564.49L524.957 481.488L516.748 566.607L428.809 550.501C431.531 513.317 450.794 428.304 465.106 398.845Z" fill="#F2A200"/>
<g opacity="0.49">
<path d="M455.227 425.172C458.61 414.484 461.971 405.278 465.106 398.845H562.285C545.209 401.236 482.348 410.823 455.227 425.172Z" fill="#AC7300"/>
</g>
<path d="M629.518 317.302L561.934 284.351L574.019 344.709L609.884 356.899L629.518 317.302Z" fill="#FEA898"/>
<path d="M576.309 340.116L605.615 355.438L567.709 342.762L576.309 340.116Z" fill="#FF836C"/>
<path d="M468.55 383.967L465.085 398.845H572.061C572.061 398.845 568.596 393.004 570.081 384.475L468.55 383.967Z" fill="#FEA898"/>
<path d="M468.55 383.967L570.08 384.454C569.008 390.654 570.534 395.395 571.441 397.533C569.75 398.21 567.75 398.718 565.131 398.823H556.221C529.802 398.062 483.089 391.564 467.292 389.3L468.55 383.967Z" fill="#FF836C"/>
<path d="M390.241 230.892L434.664 279.25L489.895 278.742L466.342 329.915C466.342 329.915 414.288 314 413.112 312.921C392.798 294.382 373.515 243.674 373.515 243.674L390.241 230.892Z" fill="#FEA898"/>
<path d="M467.623 322.889L419.405 315.207L466.324 329.894L467.623 322.889Z" fill="#FF836C"/>
<path d="M481.977 277.79C473.934 297.895 455.207 340.137 455.579 384.771C455.579 384.771 514.872 387.48 534.485 389.998C572.68 394.887 580.93 384.453 580.93 384.453L576.867 345.682C572.082 294.382 565.957 284.435 561.956 284.35L495.589 277.578C488.824 277.705 481.977 277.79 481.977 277.79Z" fill="#C4D4CF"/>
<path d="M527.74 306.656C502.455 306.656 504.291 278.467 504.291 278.467L552.262 283.356C551.89 293.281 540.486 306.656 527.74 306.656Z" fill="#FEA898"/>
<path d="M455.62 384.771C454.939 386.929 466.283 393.765 466.283 393.765L468.242 385.384L455.62 384.771Z" fill="#9DB5AD"/>
<path d="M390.738 231.76C390.738 231.76 387.088 224.479 387.067 219.548C387.047 214.617 386.16 204.882 383.912 199.993C382.241 196.332 381.045 193.496 379.127 194.914C377.209 196.332 377.106 202.321 377.518 202.808C377.91 203.295 370.444 187.507 368.898 186.364C368.155 185.814 365.928 183.084 364.814 187.105C364.814 187.105 360.896 183.253 359.617 185.327C358.338 187.401 360.03 189.983 360.03 189.983C360.03 189.983 356.977 187.507 356.029 190.427C355.1 193.327 357.018 197.411 357.018 197.411C357.018 197.411 354.358 195.443 353.389 198.11C352.419 200.798 358.751 220.818 362.154 226.955C365.577 233.093 369.001 236.585 369.001 236.585L373.517 243.675L390.738 231.76Z" fill="#FEA898"/>
<path d="M371.063 202.195C370.919 202.195 370.774 202.11 370.712 201.962L364.442 187.253C364.36 187.063 364.442 186.83 364.628 186.745C364.813 186.682 365.04 186.745 365.102 186.936L371.372 201.645C371.455 201.835 371.372 202.068 371.187 202.152C371.166 202.174 371.104 202.195 371.063 202.195Z" fill="#30423C"/>
<path d="M366.895 203.57C366.771 203.57 366.627 203.507 366.565 203.38L359.676 190.153C359.573 189.962 359.656 189.751 359.821 189.645C359.986 189.539 360.213 189.602 360.316 189.793L367.205 203.02C367.308 203.21 367.225 203.422 367.06 203.528C367.019 203.549 366.957 203.57 366.895 203.57Z" fill="#30423C"/>
<path d="M362.274 206.745C362.15 206.745 362.027 206.681 361.944 206.554L356.664 197.581C356.561 197.412 356.623 197.179 356.788 197.073C356.973 196.967 357.2 197.01 357.283 197.2L362.563 206.174C362.666 206.343 362.604 206.576 362.439 206.681C362.398 206.724 362.336 206.724 362.274 206.745Z" fill="#30423C"/>
<path d="M376.526 200.29L376.753 200.777C376.753 200.819 377.372 201.56 378.424 205.454C378.465 205.708 378.341 205.983 378.094 206.046C377.846 206.11 377.599 205.962 377.516 205.708C376.526 202.004 376.526 200.29 376.526 200.29Z" fill="#30423C"/>
<path d="M592.644 397.723C592.644 397.723 588.354 404.622 584.188 407.119C580.043 409.616 572.288 415.288 569.298 419.754C567.05 423.076 565.256 425.574 567.421 426.568C569.566 427.563 574.681 424.621 574.887 424.029C575.093 423.436 565.544 437.997 565.379 439.944C565.297 440.875 564.121 444.219 568.06 443.203C568.06 443.203 566.782 448.621 569.174 448.705C571.566 448.79 572.886 446.017 572.886 446.017C572.886 446.017 572.35 449.975 575.258 449.34C578.166 448.705 580.641 444.959 580.641 444.959C580.641 444.959 580.311 448.324 583.054 447.838C585.797 447.351 599.491 431.669 602.956 425.552C606.4 419.436 607.637 414.632 607.637 414.632L611.35 407.077L592.644 397.723Z" fill="#FEA898"/>
<path d="M577.61 430.039C577.693 430.166 577.693 430.335 577.59 430.462L568.35 443.414C568.226 443.584 567.999 443.626 567.834 443.499C567.669 443.372 567.628 443.139 567.752 442.97L576.992 430.018C577.115 429.849 577.342 429.806 577.507 429.933C577.569 429.976 577.59 429.997 577.61 430.039Z" fill="#30423C"/>
<path d="M580.867 433.044C580.929 433.15 580.95 433.319 580.867 433.446L573.195 446.208C573.092 446.377 572.865 446.441 572.7 446.335C572.514 446.229 572.473 445.996 572.576 445.827L580.249 433.065C580.352 432.896 580.579 432.833 580.744 432.938C580.806 432.96 580.847 433.002 580.867 433.044Z" fill="#30423C"/>
<path d="M585.862 435.563C585.923 435.669 585.944 435.817 585.862 435.944L580.953 445.15C580.87 445.34 580.643 445.404 580.458 445.298C580.293 445.192 580.21 444.98 580.313 444.79L585.222 435.584C585.305 435.393 585.532 435.33 585.717 435.436C585.8 435.457 585.841 435.499 585.862 435.563Z" fill="#30423C"/>
<path d="M573.28 426.145L573.569 425.679C573.589 425.658 573.919 424.748 576.683 421.849C576.869 421.68 577.158 421.658 577.343 421.849C577.529 422.039 577.529 422.336 577.343 422.526C574.703 425.299 573.28 426.145 573.28 426.145Z" fill="#30423C"/>
<path d="M523.076 225.94C523.076 225.94 533.656 224.162 544.978 238.828C557.208 254.637 576.842 264.584 576.842 264.584C576.842 264.584 564.529 274.425 556.919 276.203L552.114 273.346L552.135 277.197C552.135 277.197 541.204 285.028 518.91 279.97C503.112 276.372 510.042 258.256 510.042 258.256C510.042 258.256 496.017 229.601 523.076 225.94Z" fill="#30423C"/>
<path d="M518.15 261.198C517.387 268.774 516.645 277.959 515.737 279.991C515.737 279.991 513.262 294.361 526.4 294.361C543.476 294.361 540.919 279.059 540.919 279.059C539.95 275.652 537.928 269.98 535.99 259.991L518.15 261.198Z" fill="#FEA898"/>
<path d="M518.231 261.177C518.19 261.367 518.169 261.516 518.066 261.939C517.592 266.51 516.622 274.002 515.715 279.991C531.801 273.388 535.534 264.373 536.215 261.177C536.132 260.754 536.05 260.457 535.967 260.034L534.998 260.076L518.231 261.177Z" fill="#FF836C"/>
<path d="M523.74 230.913C507.839 234.151 514.686 249.748 514.686 249.748C514.686 249.748 515.841 260.901 520.605 265.621C520.997 266.002 521.368 266.34 521.76 266.658C525.616 269.854 531.102 269.092 534.01 264.986C534.299 264.563 534.588 264.118 534.876 263.632C538.279 257.769 536.568 246.68 536.568 246.68C536.568 246.68 539.228 229.939 523.74 230.913Z" fill="#FEA898"/>
<path d="M536.442 246.659C536.442 246.659 537.68 245.939 538.113 246.426C538.546 246.913 539.124 249.114 538.299 250.764C537.474 252.415 536.669 253.156 536.669 253.156L536.442 246.659Z" fill="#FEA898"/>
<path d="M528.273 248.754C528.335 249.58 528.686 250.215 529.057 250.194C529.428 250.172 529.655 249.474 529.593 248.649C529.532 247.823 529.181 247.188 528.81 247.209C528.459 247.231 528.211 247.929 528.273 248.754Z" fill="#30423C"/>
<path d="M520.353 249.41C520.415 250.172 520.745 250.765 521.075 250.744C521.426 250.722 521.653 250.066 521.591 249.305C521.529 248.543 521.199 247.95 520.869 247.971C520.518 247.992 520.291 248.648 520.353 249.41Z" fill="#30423C"/>
<path d="M527.12 247.4C527.202 247.4 527.305 247.336 527.326 247.251C527.677 246.426 528.151 245.939 528.687 245.855C529.657 245.664 530.564 246.659 530.585 246.659C530.667 246.743 530.812 246.743 530.915 246.659C530.997 246.574 530.997 246.426 530.915 246.32C530.873 246.278 529.987 245.347 528.935 245.347C528.832 245.347 528.728 245.347 528.625 245.368C527.924 245.495 527.347 246.066 526.913 247.061C526.872 247.188 526.913 247.315 527.037 247.378C527.058 247.4 527.099 247.4 527.12 247.4Z" fill="#30423C"/>
<path d="M518.912 248.542C518.994 248.542 519.077 248.5 519.118 248.394C519.489 247.569 519.943 247.103 520.479 246.998C521.428 246.849 522.356 247.781 522.356 247.802C522.439 247.886 522.583 247.886 522.686 247.802C522.769 247.717 522.769 247.569 522.686 247.463C522.645 247.421 521.758 246.511 520.706 246.511C520.603 246.511 520.5 246.532 520.397 246.553C519.696 246.68 519.118 247.251 518.685 248.225C518.623 248.331 518.685 248.479 518.809 248.542C518.85 248.521 518.87 248.542 518.912 248.542Z" fill="#30423C"/>
<path d="M519.117 257.113C518.292 256.902 517.756 256.288 517.941 255.738C518.127 255.209 518.931 254.934 519.756 255.166C520.581 255.378 521.118 255.992 520.932 256.542C520.767 257.071 519.942 257.346 519.117 257.113Z" fill="#FCD6BE"/>
<path d="M530.912 253.41C531.283 253.833 532.129 253.749 532.81 253.198C533.49 252.669 533.738 251.886 533.367 251.463C532.995 251.04 532.15 251.124 531.469 251.675C530.809 252.225 530.541 252.987 530.912 253.41Z" fill="#FCD6BE"/>
<path d="M524.376 256.479L527.697 256.161C527.697 256.161 528.006 257.516 526.748 258.129C525.511 258.764 524.376 256.479 524.376 256.479Z" fill="white"/>
<path d="M513.197 245.601C513.197 245.601 525.674 241.685 530.748 240.162L531.862 235.781C531.862 235.781 532.48 246.087 536.44 246.659C536.44 246.659 541.039 238.215 535.058 231.548C531.099 227.104 510.042 224.924 513.197 245.601Z" fill="#30423C"/>
<path d="M524.976 481.826C525.162 481.826 525.307 481.678 525.307 481.488V398.866C525.307 398.675 525.162 398.527 524.976 398.527C524.791 398.527 524.646 398.675 524.646 398.866V481.488C524.626 481.657 524.791 481.826 524.976 481.826Z" fill="#30423C"/>
<path d="M524.976 443.203C524.996 443.203 525.037 443.203 525.058 443.182L531.06 441.679C531.225 441.637 531.328 441.51 531.328 441.341L531.246 398.844C531.246 398.654 531.101 398.506 530.916 398.506C530.73 398.506 530.586 398.654 530.586 398.844L530.668 441.065L524.934 442.526C524.749 442.568 524.646 442.758 524.687 442.949C524.666 443.097 524.811 443.203 524.976 443.203Z" fill="#30423C"/>
<path d="M439.823 561.888L428.85 550.48L440.441 552.618L439.823 561.888Z" fill="#30423C"/>
<path d="M625.703 534.269C625.703 534.269 622.795 546.586 617.35 549.273L615.308 539.178L625.703 534.269Z" fill="#30423C"/>
<path d="M518.458 549.464C518.623 549.464 518.767 549.337 518.788 549.168C518.829 548.977 518.685 548.808 518.499 548.766L430.477 535.2C430.291 535.137 430.106 535.306 430.085 535.496C430.044 535.687 430.188 535.856 430.374 535.898L518.396 549.464C518.417 549.464 518.437 549.464 518.458 549.464Z" fill="#30423C"/>
<path d="M543.043 550.84C543.084 550.84 543.125 550.84 543.146 550.819L622.836 521.804C623.022 521.74 623.104 521.55 623.042 521.359C622.98 521.169 622.753 521.084 622.609 521.148L542.94 550.163C542.754 550.226 542.671 550.417 542.733 550.607C542.775 550.755 542.898 550.84 543.043 550.84Z" fill="#30423C"/>
<path d="M524.979 460.536L546.717 564.469L524.979 481.467V460.536Z" fill="#30423C"/>
<path d="M592.643 397.723L611.328 407.056C611.328 407.056 665.424 336.095 652.761 328.455C640.098 320.794 629.518 317.302 629.518 317.302L605.594 355.438L592.643 397.723Z" fill="#FEA898"/>
</g>
<path opacity="0.65" d="M793.85 312.139V306.383H799.61V312.139H805.369V317.896H799.61V323.652H793.85V317.896H788.09V312.139H793.85Z" fill="#C4D4CF"/>
<path opacity="0.65" d="M117.69 156.228V150.472H123.449V156.228H129.209V161.985H123.449V167.741H117.69V161.985H111.93V156.228H117.69Z" fill="#C4D4CF"/>
<path opacity="0.65" d="M51.2017 213.454C51.2017 214.978 52.43 216.226 53.9758 216.226C55.5006 216.226 56.75 214.999 56.75 213.454C56.75 211.93 55.5217 210.682 53.9758 210.682C52.4511 210.703 51.2017 211.93 51.2017 213.454Z" fill="#D5CBE4"/>
<path opacity="0.65" d="M758.786 157.964C758.786 159.488 760.014 160.736 761.56 160.736C763.085 160.736 764.334 159.509 764.334 157.964C764.334 156.44 763.106 155.191 761.56 155.191C760.035 155.191 758.786 156.44 758.786 157.964Z" fill="#D5CBE4"/>
<path opacity="0.65" d="M310.594 176.396C310.594 177.92 311.823 179.169 313.368 179.169C314.893 179.169 316.143 177.941 316.143 176.396C316.143 174.873 314.914 173.624 313.368 173.624C311.844 173.645 310.594 174.873 310.594 176.396Z" fill="#D5CBE4"/>
<path opacity="0.65" d="M48.4264 508.958C48.4264 510.482 49.6758 511.73 51.2005 511.73C52.7252 511.73 53.9746 510.503 53.9746 508.958C53.9746 507.434 52.7464 506.186 51.2005 506.186C49.6758 506.207 48.4264 507.434 48.4264 508.958Z" fill="#D5CBE4"/>
<path opacity="0.65" d="M624.683 212.417V207.041H630.061V212.417H635.461V217.813H630.061V223.21H624.683V217.813H619.283V212.417H624.683Z" fill="#C4D4CF"/>
<path opacity="0.65" d="M525.225 185.793C525.225 187.317 526.453 188.565 527.999 188.565C529.524 188.565 530.773 187.338 530.773 185.793C530.773 184.269 529.545 183.021 527.999 183.021C526.475 183.021 525.225 184.269 525.225 185.793Z" fill="#D5CBE4"/>
<path d="M205.333 153.328C210.796 145.688 221.447 143.91 229.091 149.349C235.804 154.132 237.985 162.936 234.745 170.174L244.676 177.264L243.194 171.021C242.77 169.222 243.892 167.402 245.692 166.978C247.492 166.555 249.313 167.677 249.737 169.476L253.4 185.01C253.612 185.941 253.421 186.935 252.871 187.718C252.299 188.501 251.431 189.009 250.478 189.115L234.575 190.702C234.47 190.724 234.342 190.724 234.237 190.724C232.543 190.724 231.082 189.433 230.891 187.697C230.7 185.856 232.056 184.205 233.898 184.036L241.542 183.274L230.827 175.634C227.609 178.639 223.416 180.227 219.16 180.227C215.73 180.227 212.278 179.211 209.292 177.073C201.669 171.613 199.891 160.968 205.333 153.328ZM213.21 171.613C217.847 174.915 224.306 173.835 227.609 169.2C230.912 164.566 229.832 158.111 225.195 154.809C220.558 151.508 214.099 152.587 210.796 157.222C207.493 161.857 208.572 168.312 213.21 171.613Z" fill="#F2A200"/>
<path d="M672.708 184.904C673.385 183.253 675.291 182.449 676.943 183.147L682.448 185.412L684.65 180.1C681.961 178.301 679.865 175.761 678.594 172.714C676.9 168.65 676.9 164.164 678.573 160.1C682.046 151.698 691.723 147.677 700.129 151.148C701.781 151.825 703.284 152.757 704.639 153.921L704.661 153.942C710.018 158.598 711.797 166.132 709.086 172.692C708.239 174.745 707.011 176.586 705.444 178.131C702.289 181.242 698.118 182.893 693.861 182.893C692.803 182.893 691.744 182.787 690.685 182.576L688.483 187.888L693.988 190.152C695.64 190.829 696.445 192.734 695.746 194.385C695.238 195.634 694.01 196.395 692.739 196.395C692.316 196.395 691.913 196.311 691.49 196.141L685.984 193.877L683.359 200.226C682.85 201.475 681.622 202.236 680.352 202.236C679.928 202.236 679.526 202.152 679.102 201.983C677.451 201.305 676.646 199.401 677.345 197.75L679.971 191.401L674.465 189.136C672.813 188.459 672.009 186.554 672.708 184.904ZM690.008 175.634C693.734 177.179 697.991 176.333 700.849 173.518C701.802 172.587 702.543 171.465 703.051 170.216C704.703 166.238 703.623 161.666 700.362 158.852C699.557 158.153 698.626 157.582 697.631 157.18C692.527 155.084 686.683 157.518 684.566 162.597C683.549 165.074 683.549 167.783 684.566 170.237C685.624 172.714 687.551 174.618 690.008 175.634Z" fill="#F2A200"/>
<path d="M278.216 134.323C283.849 128.165 289.185 136.757 289.185 136.757C289.185 136.757 296.321 129.583 300.429 136.842C304.537 144.101 287.449 152.206 287.449 152.206C287.449 152.206 272.584 140.503 278.216 134.323Z" fill="#E6570B"/>
<path d="M731.659 249.854C733.438 239.95 744.407 245.283 744.407 245.283C744.407 245.283 747.053 233.368 755.926 238.151C764.798 242.913 752.559 262.171 752.559 262.171C752.559 262.171 729.881 259.759 731.659 249.854Z" fill="#E6570B"/>
<path d="M759.8 380.581C758.996 374.909 765.878 375.84 765.878 375.84C765.878 375.84 765.179 368.92 770.833 369.914C776.486 370.909 773.31 383.501 773.31 383.501C773.31 383.501 760.605 386.252 759.8 380.581Z" fill="#E6570B"/>
<path d="M565.032 161.624C566.006 161.603 566.853 162.153 567.276 162.958L571.702 162.852C571.787 161.095 572.147 159.402 572.803 157.836L568.907 155.868C568.187 156.461 567.149 156.609 566.26 156.164C565.053 155.55 564.545 154.069 565.159 152.863C565.773 151.656 567.255 151.149 568.462 151.762C569.309 152.186 569.796 153.032 569.817 153.9L573.798 155.889C574.772 154.26 576.064 152.82 577.567 151.656L575.175 147.974C574.264 148.08 573.354 147.699 572.824 146.874C572.083 145.731 572.401 144.207 573.544 143.466C574.688 142.725 576.212 143.043 576.953 144.186C577.483 144.99 577.462 146.006 576.996 146.789L579.388 150.471C581.125 149.519 583.073 148.905 585.148 148.694L585.042 144.292C584.216 143.911 583.623 143.085 583.602 142.133C583.56 140.778 584.64 139.636 585.995 139.614C587.35 139.572 588.494 140.651 588.515 142.006C588.536 142.979 587.986 143.826 587.181 144.249L587.287 148.672C589.383 148.778 591.352 149.307 593.131 150.196L595.397 146.323C594.952 145.583 594.91 144.63 595.397 143.826C596.096 142.662 597.599 142.26 598.764 142.958C599.928 143.657 600.331 145.159 599.632 146.323C599.124 147.191 598.15 147.635 597.197 147.508L594.973 151.297C596.519 152.376 597.853 153.73 598.891 155.297L602.766 153.096C602.702 152.186 603.147 151.254 603.994 150.768C605.18 150.09 606.683 150.514 607.361 151.699C608.038 152.884 607.615 154.387 606.429 155.064C605.603 155.529 604.608 155.466 603.867 154.979L599.949 157.201C600.669 158.725 601.114 160.376 601.283 162.111L605.794 162.005C606.175 161.18 607.001 160.587 607.954 160.566C609.309 160.524 610.452 161.603 610.473 162.958C610.516 164.312 609.436 165.455 608.081 165.476C607.107 165.497 606.26 164.947 605.836 164.143L601.326 164.249C601.241 165.984 600.839 167.656 600.204 169.201L604.227 171.211C604.947 170.619 605.984 170.471 606.874 170.915C608.081 171.529 608.589 173.01 607.975 174.217C607.361 175.423 605.878 175.931 604.671 175.317C603.824 174.894 603.337 174.047 603.316 173.18L599.229 171.127C598.255 172.735 596.985 174.153 595.481 175.296L597.959 179.105C598.869 179 599.78 179.38 600.309 180.206C601.051 181.349 600.733 182.872 599.589 183.613C598.446 184.354 596.921 184.036 596.18 182.894C595.651 182.089 595.672 181.074 596.138 180.29L593.66 176.481C591.945 177.433 590.018 178.047 587.986 178.238L588.091 182.767C588.917 183.148 589.51 183.973 589.531 184.925C589.574 186.28 588.494 187.423 587.139 187.444C585.783 187.486 584.64 186.407 584.619 185.052C584.598 184.079 585.148 183.232 585.953 182.809L585.847 178.28C583.772 178.195 581.802 177.666 580.045 176.82L577.737 180.756C578.181 181.497 578.224 182.449 577.737 183.253C577.038 184.417 575.535 184.819 574.37 184.121C573.205 183.423 572.803 181.92 573.502 180.756C574.01 179.888 574.984 179.444 575.937 179.571L578.181 175.74C576.636 174.682 575.281 173.349 574.222 171.783L570.347 173.984C570.41 174.894 569.966 175.825 569.119 176.312C567.933 176.989 566.429 176.566 565.752 175.381C565.074 174.195 565.498 172.693 566.683 172.016C567.509 171.55 568.505 171.614 569.246 172.1L573.142 169.899C572.422 168.376 571.935 166.725 571.765 164.989L567.319 165.095C566.938 165.921 566.112 166.513 565.159 166.534C563.804 166.577 562.66 165.497 562.639 164.143C562.597 162.788 563.655 161.667 565.032 161.624Z" fill="#E6570B"/>
<path d="M583.476 163.635C583.434 161.963 584.747 160.545 586.441 160.503C588.114 160.461 589.533 161.773 589.575 163.466C589.618 165.138 588.305 166.556 586.61 166.598C584.916 166.64 583.54 165.307 583.476 163.635Z" fill="#FABE9E"/>
<path d="M584.195 154.598C584.153 153.455 585.064 152.503 586.207 152.482C587.351 152.44 588.304 153.35 588.325 154.492C588.367 155.635 587.457 156.588 586.313 156.609C585.191 156.63 584.238 155.741 584.195 154.598Z" fill="#FABE9E"/>
<path d="M584.725 172.566C584.682 171.423 585.593 170.471 586.736 170.45C587.88 170.407 588.833 171.317 588.854 172.46C588.896 173.603 587.986 174.555 586.842 174.577C585.699 174.598 584.746 173.688 584.725 172.566Z" fill="#FABE9E"/>
<path d="M595.461 161.202C596.605 161.159 597.557 162.069 597.579 163.212C597.621 164.355 596.71 165.307 595.567 165.328C594.423 165.371 593.47 164.461 593.449 163.318C593.407 162.175 594.317 161.223 595.461 161.202Z" fill="#FABE9E"/>
<path d="M577.484 161.709C578.628 161.667 579.581 162.577 579.602 163.72C579.644 164.863 578.734 165.815 577.59 165.836C576.447 165.879 575.494 164.969 575.473 163.826C575.451 162.704 576.341 161.752 577.484 161.709Z" fill="#FABE9E"/>
<path d="M594.615 167.952C595.462 168.714 595.546 170.026 594.784 170.873C594.022 171.719 592.709 171.804 591.862 171.042C591.015 170.28 590.93 168.968 591.692 168.122C592.455 167.254 593.768 167.191 594.615 167.952Z" fill="#FABE9E"/>
<path d="M581.189 155.995C582.036 156.757 582.121 158.069 581.358 158.916C580.596 159.762 579.283 159.847 578.436 159.085C577.589 158.323 577.504 157.011 578.267 156.165C579.029 155.318 580.342 155.254 581.189 155.995Z" fill="#FABE9E"/>
<path d="M581.696 171.36C580.892 172.164 579.579 172.185 578.774 171.381C577.969 170.577 577.948 169.265 578.753 168.461C579.557 167.656 580.87 167.635 581.675 168.439C582.48 169.244 582.48 170.556 581.696 171.36Z" fill="#FABE9E"/>
<path d="M594.317 158.577C593.512 159.381 592.199 159.402 591.395 158.598C590.59 157.794 590.569 156.482 591.374 155.677C592.178 154.873 593.491 154.852 594.296 155.656C595.101 156.46 595.122 157.772 594.317 158.577Z" fill="#FABE9E"/>
<path d="M59.4371 393.088C58.6324 387.417 65.5143 388.348 65.5143 388.348C65.5143 388.348 64.8155 381.427 70.4693 382.422C76.123 383.417 72.9467 396.009 72.9467 396.009C72.9467 396.009 60.2629 398.76 59.4371 393.088Z" fill="#E6570B"/>
</svg>
