<svg width="870" height="566" viewBox="0 0 870 566" fill="none" xmlns="http://www.w3.org/2000/svg">
<mask id="mask0_197_3287" style="mask-type:luminance" maskUnits="userSpaceOnUse" x="0" y="0" width="870" height="566">
<path d="M-0.000671387 0.838623H869.641V565.202H-0.000671387V0.838623Z" fill="white"/>
</mask>
<g mask="url(#mask0_197_3287)">
<path d="M201.602 429.778C196.558 390.753 174.099 356.553 156.163 334.733C136.748 311.115 118.246 296.491 118.073 296.343L116.746 297.951C117.485 298.523 189.97 356.235 199.514 430.032L201.602 429.778Z" fill="#8BA098"/>
<path d="M137.966 315.898L137.987 315.051C138.4 303.708 136.009 288.005 135.987 287.835L133.878 288.132C133.9 288.28 136.139 303.009 135.878 314.099C126.943 315.051 112.507 309.126 112.355 309.062L111.528 310.967C112.181 311.242 127.639 317.591 137.096 316.025L137.966 315.898Z" fill="#8BA098"/>
<path d="M150.749 330.374L150.966 329.569C155.402 312.956 149.792 293.951 149.553 293.147L147.51 293.719C147.575 293.909 153.01 312.364 149.118 328.236C130.443 327.326 121.66 322.353 121.573 322.31L120.486 324.088C120.855 324.3 130.008 329.527 149.901 330.353L150.749 330.374Z" fill="#8BA098"/>
<path d="M165.357 348.236L165.575 347.495C170.14 331.432 165.096 316.046 164.879 315.411L162.857 316.046C162.901 316.194 167.771 331.009 163.727 346.204C147.551 346.521 138.899 342.458 138.812 342.416L137.877 344.278C138.246 344.468 147.378 348.743 164.575 348.257L165.357 348.236Z" fill="#8BA098"/>
<path d="M176.948 360.785C180.078 353.399 179.905 341.209 179.905 340.638L177.774 340.68C177.774 340.828 177.97 354.987 174.252 361.526C163.468 362.5 152.533 357.018 152.424 356.955L151.446 358.796C151.924 359.05 163.447 364.806 175.013 363.537L175.535 363.473L175.795 363.05C176.23 362.352 176.6 361.59 176.948 360.785Z" fill="#8BA098"/>
<path d="M177.426 344.003C179.317 344.765 181.491 343.876 182.274 342.035C183.057 340.193 182.144 338.077 180.252 337.315C178.361 336.553 176.186 337.442 175.404 339.283C174.621 341.125 175.534 343.241 177.426 344.003Z" fill="#4F625C"/>
<path d="M150.488 361.293C152.38 362.055 154.554 361.166 155.337 359.325C156.119 357.484 155.206 355.368 153.315 354.606C151.423 353.844 149.249 354.733 148.466 356.574C147.683 358.415 148.575 360.531 150.488 361.293Z" fill="#4F625C"/>
<path d="M136.226 346.437C138.118 347.198 140.292 346.31 141.075 344.468C141.858 342.627 140.945 340.511 139.053 339.749C137.161 338.987 134.987 339.876 134.204 341.717C133.422 343.579 134.335 345.696 136.226 346.437Z" fill="#4F625C"/>
<path d="M161.273 318.056C163.165 318.818 165.339 317.929 166.122 316.088C166.905 314.247 165.991 312.131 164.1 311.369C162.208 310.607 160.034 311.496 159.251 313.337C158.468 315.178 159.382 317.295 161.273 318.056Z" fill="#4F625C"/>
<path d="M147.617 297.507C149.509 298.269 151.683 297.38 152.466 295.539C153.248 293.697 152.335 291.581 150.444 290.819C148.552 290.057 146.378 290.946 145.595 292.787C144.812 294.629 145.704 296.745 147.617 297.507Z" fill="#4F625C"/>
<path d="M120.008 326.882C121.899 327.643 124.074 326.755 124.856 324.913C125.639 323.072 124.726 320.956 122.834 320.194C120.943 319.432 118.768 320.321 117.986 322.162C117.203 324.003 118.116 326.12 120.008 326.882Z" fill="#4F625C"/>
<path d="M109.789 313.062C111.68 313.824 113.855 312.935 114.637 311.094C115.42 309.252 114.507 307.136 112.615 306.374C110.724 305.612 108.55 306.501 107.767 308.342C106.984 310.184 107.876 312.3 109.789 313.062Z" fill="#4F625C"/>
<path d="M115.984 300.491C117.876 301.253 120.05 300.364 120.833 298.523C121.616 296.681 120.702 294.565 118.811 293.803C116.919 293.041 114.745 293.93 113.962 295.771C113.179 297.634 114.093 299.729 115.984 300.491Z" fill="#4F625C"/>
<path d="M133.203 291.75C135.095 292.512 137.269 291.623 138.052 289.782C138.834 287.941 137.921 285.825 136.029 285.063C134.138 284.301 131.964 285.19 131.181 287.031C130.42 288.872 131.311 290.989 133.203 291.75Z" fill="#4F625C"/>
<path d="M274.652 551.086C274.652 551.086 258.607 563.933 242.976 564.356C227.344 564.779 237.388 555.975 228.996 551.743C220.604 547.51 203.777 554.811 203.103 547.277C202.407 539.743 201.798 533.309 190.123 536.568C178.448 539.827 162.534 540.357 166.686 531.595C170.839 522.854 166.882 520.019 148.25 525.923C129.618 531.828 110.051 541.563 112.508 529.86C114.964 518.156 122.856 510.728 102.115 512.527C81.3962 514.326 73.5043 511.532 77.5264 501.543C81.5702 491.554 74.2217 494.009 66.5906 487.279C58.9595 480.549 81.505 482.94 75.6131 474.665C69.7213 466.391 56.8724 469.078 51.6545 456.105C46.4149 443.132 77.4176 435.026 91.6363 442.751C105.855 450.476 86.201 428.254 98.6586 425.376C111.116 422.498 117.812 433.058 129.096 442.73C140.401 452.402 129.053 436.995 142.075 432.952C155.12 428.91 157.555 448.888 169.034 456.253C180.514 463.618 170.208 443.703 181.122 443.894C192.036 444.084 194.21 466.073 200.82 469.946C207.451 473.819 208.473 458.116 215.93 466.179C223.387 474.242 227.931 498.326 232.192 502.03C236.453 505.733 233.888 493.776 241.062 493.628C248.237 493.48 252.259 514.199 255.129 516.759C257.999 519.32 257.825 511.384 264.76 515.151C271.674 518.939 274.652 551.086 274.652 551.086Z" fill="#778B84"/>
<path d="M305.961 574.218C289.829 559.933 272.567 547.213 254.696 535.256L247.956 530.833C245.717 529.352 243.477 527.87 241.173 526.473L227.432 518.029L213.453 510.008C211.148 508.633 208.757 507.405 206.365 506.135L199.234 502.347L192.103 498.58L184.842 495.067L177.58 491.554C175.145 490.411 172.775 489.141 170.275 488.104C160.383 483.829 150.621 479.3 140.512 475.575C120.532 467.47 99.8559 461.269 79.0932 455.491C99.769 461.565 120.336 468.062 140.164 476.422C150.208 480.274 159.883 484.93 169.688 489.353C172.145 490.411 174.493 491.723 176.906 492.887L184.146 496.485L191.342 500.104L198.386 503.956L205.43 507.828C207.778 509.119 210.148 510.389 212.431 511.786L226.237 519.976L239.781 528.569C242.064 529.986 244.26 531.489 246.456 532.992L253.087 537.478L256.391 539.743L259.653 542.071L266.153 546.748C270.48 549.859 274.676 553.16 278.937 556.356C287.285 562.938 295.612 569.689 303.352 576.821L305.961 574.218Z" fill="#4F625C"/>
<path d="M210.822 543.975C213.865 542.452 216.974 541.055 220.127 539.764C223.257 538.452 226.453 537.267 229.715 536.272C232.954 535.235 236.237 534.367 239.607 533.902C242.955 533.436 246.368 533.224 249.629 533.944L250.586 534.156L250.108 533.309C248.912 531.15 247.738 528.971 246.716 526.727C245.694 524.484 244.759 522.198 243.933 519.892C243.129 517.564 242.455 515.193 241.89 512.802C241.346 510.41 240.911 507.955 240.802 505.5C240.759 507.977 241.085 510.432 241.52 512.886C241.955 515.32 242.607 517.733 243.346 520.103C244.129 522.452 244.955 524.801 245.999 527.066C246.999 529.352 248.151 531.553 249.347 533.754L249.847 533.119C246.412 532.314 242.868 532.526 239.476 533.055C236.063 533.563 232.737 534.473 229.475 535.552C226.236 536.653 223.04 537.923 219.931 539.341C216.822 540.737 213.778 542.261 210.822 543.975Z" fill="#4F625C"/>
<path d="M175.646 529.965C178.734 527.849 181.951 525.944 185.234 524.166C188.517 522.368 191.865 520.717 195.322 519.235C198.757 517.775 202.279 516.505 205.888 515.468C209.497 514.495 213.193 513.86 216.911 513.542L217.672 513.479L217.259 512.865C215.563 510.241 213.954 507.511 212.889 504.548C211.78 501.628 210.91 498.601 210.389 495.49C209.845 492.4 209.562 489.268 209.519 486.115C209.476 482.961 209.628 479.808 210.128 476.697C209.497 479.787 209.193 482.961 209.106 486.115C209.041 489.289 209.258 492.443 209.736 495.596C210.171 498.749 211.019 501.839 212.128 504.823C213.193 507.849 214.802 510.643 216.52 513.352L216.867 512.654C213.063 512.929 209.323 513.648 205.671 514.664C202.04 515.743 198.475 517.034 195.039 518.558C188.169 521.69 181.647 525.5 175.646 529.965Z" fill="#4F625C"/>
<path d="M124.03 524.823C128.986 521.5 134.117 518.431 139.292 515.447C144.466 512.484 149.771 509.691 155.184 507.151C160.576 504.59 166.12 502.305 171.86 500.612C177.556 498.982 183.578 497.67 189.448 498.622L190.188 498.749L189.905 498.072C188.579 494.749 187.47 491.342 186.6 487.871C185.752 484.401 185.035 480.887 184.491 477.332C183.47 470.242 182.861 463.068 182.861 455.893C182.73 459.491 182.774 463.068 182.948 466.666C183.1 470.263 183.448 473.84 183.904 477.417C184.361 480.993 185.013 484.528 185.818 488.041C186.665 491.554 187.774 495.003 189.079 498.368L189.557 497.797C186.513 497.268 183.426 497.374 180.426 497.776C177.404 498.178 174.447 498.897 171.555 499.765C165.772 501.501 160.207 503.85 154.793 506.453C149.38 509.035 144.14 511.976 138.987 515.024C133.9 518.093 128.9 521.352 124.03 524.823Z" fill="#4F625C"/>
<path d="M86.3551 502.643C91.1599 499.278 96.2473 496.337 101.422 493.585C106.618 490.834 111.988 488.464 117.488 486.39C120.249 485.374 123.032 484.464 125.88 483.681C128.707 482.898 131.576 482.263 134.49 481.755C137.381 481.29 140.316 480.951 143.251 480.803C146.186 480.697 149.121 480.782 152.035 481.099L152.73 481.163L152.47 480.528C150.1 474.941 147.947 469.248 146.099 463.47C145.165 460.571 144.317 457.671 143.491 454.751C142.686 451.83 141.925 448.888 141.295 445.904C141.816 448.888 142.469 451.872 143.186 454.814C143.882 457.777 144.686 460.719 145.556 463.618C146.426 466.539 147.36 469.438 148.382 472.316C149.382 475.194 150.535 478.03 151.687 480.845L152.122 480.295C149.165 479.956 146.165 479.85 143.186 479.935C140.208 480.083 137.251 480.379 134.316 480.866C131.381 481.395 128.489 482.051 125.641 482.856C122.793 483.681 119.988 484.612 117.206 485.649C111.662 487.744 106.335 490.305 101.161 493.141C96.0081 495.956 91.0511 499.13 86.3551 502.643Z" fill="#4F625C"/>
<path d="M81.421 482.263C87.3128 479.364 93.2481 476.549 99.2704 473.967C102.271 472.676 105.314 471.449 108.402 470.348C111.489 469.269 114.641 468.274 117.837 467.808L118.555 467.703L118.142 467.11C116.598 464.973 115.076 462.814 113.75 460.549C112.402 458.285 111.119 455.978 109.924 453.629C107.554 448.931 105.488 444.063 103.814 439.069C104.466 441.629 105.314 444.127 106.228 446.603C107.141 449.079 108.206 451.513 109.315 453.904C110.424 456.317 111.663 458.666 113.032 460.93C114.359 463.237 115.859 465.438 117.402 467.618L117.707 466.92C114.359 467.364 111.206 468.422 108.097 469.523C104.988 470.644 101.945 471.893 98.9443 473.247C92.9655 476.02 87.1171 479.004 81.421 482.263Z" fill="#4F625C"/>
<path d="M224.325 543.362C224.325 543.362 241.848 535.912 249.392 538.304C256.915 540.695 268.263 548.949 266.654 551.192C265.046 553.436 250.131 558.726 243.913 558.79C237.695 558.853 248.479 553.097 243.544 550.282C238.609 547.468 227.412 549.584 223.977 547.637C220.542 545.69 224.325 543.362 224.325 543.362Z" fill="#778B84"/>
<path d="M236.41 530.304C236.41 530.304 223.539 519.257 213.104 519.363C202.668 519.49 183.666 526.876 182.862 530.664C182.058 534.452 196.102 528.59 201.951 531.426C207.799 534.262 202.951 539.15 208.321 539.679C213.691 540.208 216.756 535.426 223.866 533.436C230.997 531.468 236.41 530.304 236.41 530.304Z" fill="#778B84"/>
<path d="M204.366 511.342C204.475 511.342 196.213 501.564 183.495 503.13C170.798 504.717 152.644 511.638 145.144 517.754C137.665 523.87 163.189 516.95 170.059 516.569C176.929 516.188 170.928 524.696 177.646 523.214C184.364 521.733 195.083 511.447 204.366 511.342Z" fill="#778B84"/>
<path d="M173.73 496.273C173.73 496.273 162.773 483.512 148.685 485.544C134.618 487.575 108.746 494.728 103.703 501.86C98.6586 508.993 115.182 503.046 121.791 504.675C128.4 506.305 120.443 515.786 131.096 511.49C141.749 507.172 160.273 495.49 173.73 496.273Z" fill="#778B84"/>
<path d="M133.969 477.501C133.969 477.501 121.359 471.089 105.836 476.02C90.3128 480.972 83.8557 486.644 87.7256 488.951C91.5737 491.258 94.7914 489.861 104.727 485.67C114.663 481.48 133.969 477.501 133.969 477.501Z" fill="#778B84"/>
<path d="M108.898 466.518C108.898 466.518 94.7016 461.354 81.4178 460.655C68.134 459.978 71.6343 472.359 80.2873 472.655C88.9402 472.972 102.898 465.65 108.898 466.518Z" fill="#778B84"/>
<path d="M109.791 462.814C110.617 464.063 87.8539 453.396 76.2659 452.571C64.6997 451.746 65.9607 444.169 77.3747 444.211C88.767 444.233 104.638 455.047 109.791 462.814Z" fill="#778B84"/>
<path d="M106.726 433.312C106.726 433.312 111.726 452.148 122.575 461.967C133.424 471.787 144.773 474.56 145.012 473.84C134.946 465.354 130.967 460.592 128.706 451.83C126.445 443.09 118.77 432.995 112.313 430.519C105.856 428.021 106.726 433.312 106.726 433.312Z" fill="#778B84"/>
<path d="M146.339 446.857C146.339 446.857 149.361 466.327 156.427 475.491C163.493 484.655 180.603 491.512 181.429 490.178C182.277 488.824 176.581 476.443 176.777 469.861C176.973 463.28 175.429 462.306 168.428 463.915C161.428 465.502 161.189 461.1 157.08 453.206C153.014 445.27 144.1 436.55 146.339 446.857Z" fill="#778B84"/>
<path d="M209.148 504.696C209.148 504.696 196.082 499.363 191.364 488.125C186.646 476.909 183.342 460.719 187.494 460.19C191.625 459.661 192.625 472.126 198.169 475.385C203.713 478.665 205.279 477.819 205.887 484.528C206.496 491.3 209.148 504.696 209.148 504.696Z" fill="#778B84"/>
<path d="M240.194 523.764C240.542 523.891 221.888 518.156 217.584 505.606C213.279 493.078 210.17 483.66 214.214 480.507C218.258 477.353 224.215 488.358 225.824 496.04C227.432 503.702 235.759 522.05 240.194 523.764Z" fill="#778B84"/>
<path d="M270.695 544.081C270.587 543.785 255.932 535.785 257.432 526.96C258.933 518.135 263.977 521.585 265.499 526.833C266.999 532.082 270.695 544.081 270.695 544.081Z" fill="#AA9ECA"/>
<path d="M250.107 495.046C241.671 498.58 212.43 493.564 203.929 482.898C196.711 473.861 203.19 455.386 187.797 452.169C173.165 449.121 166.513 435.831 162.317 424.614C158.338 414.011 137.336 420.784 131.314 411.81C126.009 403.895 130.683 392.213 116.595 390.287C99.6372 387.959 98.8545 364.637 77.0918 363.706C109.051 353.315 142.25 357.865 165.708 371.854C182.514 381.885 208.668 383.092 221.67 396.805C231.127 406.773 236.823 424.466 249.259 432.423C267.348 444.042 263.304 489.522 250.107 495.046Z" fill="#8BA098"/>
<path d="M250.107 495.046C242.236 497.945 217.626 489.797 209.081 479.554C201.733 470.771 202.624 454.899 187.797 452.19C172.165 449.333 174.1 430.815 170.513 420.932C166.512 409.906 138.119 420.149 131.314 411.831C125.791 405.08 136.814 386.372 121.226 385.039C103.29 383.515 97.4194 364.574 77.0698 363.727C111.986 352.659 145.445 363.875 168.839 380.489C183.688 391.028 208.016 384.34 221.648 396.827C233.497 407.683 231.844 429.736 244.802 438.138C260.977 448.613 262.499 490.496 250.107 495.046Z" fill="#8BA098"/>
<path d="M92.1602 363.029C92.3559 362.69 92.769 362.478 93.0951 362.563C113.271 368.912 132.294 376.34 150.926 385.208C159.949 389.716 168.623 394.668 177.168 399.811C179.277 401.123 181.385 402.435 183.516 403.747C186.06 405.334 187.299 406.139 189.777 407.789C194.017 410.414 198.061 413.292 202.257 416.022C207.257 419.366 209.714 421.122 214.454 424.805C216.78 426.709 217.932 427.683 220.193 429.672C222.389 431.725 223.476 432.762 225.607 434.9C232.586 442.095 238.608 450.264 243.217 459.343C247.826 468.422 250.978 478.475 251.739 489.226C251.979 493.141 251.935 497.141 251.413 501.204C250.239 501.056 249 501.12 247.804 501.331C248.283 497.607 248.391 493.882 248.196 490.221C247.565 479.851 244.652 470.031 240.26 461.1C235.868 452.169 230.085 444.063 223.302 436.91C221.237 434.794 220.193 433.757 218.041 431.704C215.845 429.715 214.714 428.741 212.453 426.836C207.801 423.133 205.388 421.355 200.474 418.011C196.322 415.26 192.321 412.361 188.125 409.694C185.668 408.022 184.429 407.197 181.929 405.609C179.82 404.297 177.733 402.964 175.646 401.631C167.189 396.446 158.623 391.43 149.687 386.859C131.229 377.864 112.379 370.309 92.3559 363.833C92.0733 363.748 91.9645 363.388 92.1602 363.029Z" fill="#4F625C"/>
<path d="M247.935 476.888C247.63 476.464 247.478 476.274 247.196 475.851C238.847 467.428 224.368 468.359 211.54 472.422C211.258 472.507 211.019 472.401 211.019 472.168C211.019 471.936 211.236 471.66 211.497 471.576C224.368 467.449 238.477 466.518 247.326 474.242C250.761 451.534 254.37 444.698 254.566 444.402C254.74 444.148 255.066 444.042 255.305 444.169C255.544 444.275 255.588 444.571 255.414 444.825C255.37 444.889 251.653 452.063 248.152 475.47C248.065 476.041 248.022 476.316 247.935 476.888Z" fill="#4F625C"/>
<path d="M231.848 444.698C231.5 444.508 231.348 444.402 231 444.211C219.781 437.735 198.562 447.132 198.366 447.238C198.084 447.365 197.845 447.28 197.779 447.068C197.736 446.836 197.91 446.561 198.193 446.434C199.04 446.031 219.042 437.079 230.826 442.899C230.674 430.9 228.913 419.26 225.782 408.403C225.717 408.17 225.869 407.874 226.173 407.747C226.456 407.62 226.739 407.726 226.804 407.98C230.021 419.26 231.826 431.259 231.848 443.682C231.848 444.084 231.848 444.275 231.848 444.698Z" fill="#4F625C"/>
<path d="M210.91 424.233C210.562 424.064 210.41 423.979 210.062 423.831C199.17 418.646 178.886 428.72 178.69 428.826C178.429 428.974 178.168 428.91 178.103 428.677C178.038 428.466 178.212 428.17 178.472 428.021C179.277 427.598 198.387 418.011 209.845 422.561C209.475 407.853 205.453 391.303 205.41 391.134C205.344 390.88 205.518 390.605 205.801 390.478C206.084 390.372 206.366 390.478 206.431 390.71C206.475 390.88 210.649 408.255 210.888 423.238C210.91 423.662 210.91 423.852 210.91 424.233Z" fill="#4F625C"/>
<path d="M188.777 408.742C188.343 408.657 188.125 408.615 187.69 408.53C174.972 405.99 155.927 414.075 155.753 414.159C155.492 414.286 155.253 414.181 155.209 413.948C155.166 413.715 155.361 413.419 155.644 413.313C155.818 413.228 174.102 405.398 187.103 407.387C181.798 393.292 178.624 384.277 178.603 384.171C178.537 383.938 178.711 383.642 178.972 383.515C179.255 383.388 179.537 383.473 179.603 383.705C179.624 383.79 182.929 393.165 188.429 407.789C188.56 408.17 188.625 408.361 188.777 408.742Z" fill="#4F625C"/>
<path d="M160.469 391.726C160.099 391.641 159.903 391.599 159.512 391.515C148.098 388.933 133.162 399.366 133.01 399.472C132.771 399.641 132.466 399.641 132.379 399.43C132.271 399.239 132.379 398.922 132.64 398.752C132.792 398.647 147.315 388.425 159.056 390.372C156.903 380.975 153.316 368.404 153.272 368.277C153.207 368.044 153.381 367.748 153.642 367.621C153.925 367.494 154.207 367.579 154.273 367.812C154.316 367.939 158.077 381.335 160.23 390.795C160.338 391.176 160.382 391.366 160.469 391.726Z" fill="#4F625C"/>
<path d="M133.426 378.372C133.013 378.287 132.795 378.245 132.382 378.139C123.664 376.277 110.967 383.197 110.837 383.261C110.576 383.409 110.293 383.346 110.228 383.134C110.163 382.901 110.315 382.605 110.576 382.457C111.076 382.16 122.816 375.727 131.817 376.997C128.512 367.6 123.947 362.034 123.903 361.992C123.751 361.801 123.838 361.484 124.077 361.293C124.316 361.103 124.642 361.082 124.795 361.272C124.838 361.336 129.773 367.346 133.121 377.399C133.23 377.801 133.295 377.991 133.426 378.372Z" fill="#4F625C"/>
<path d="M295.632 433.27C295.632 433.27 274.891 434.18 262.107 425.397C249.345 416.614 262.803 415.429 258.694 407.154C254.585 398.858 236.627 394.901 240.714 388.467C244.801 382.033 248.258 376.531 236.909 372.319C225.561 368.129 212.494 359.24 221.191 354.669C229.887 350.098 228.474 345.505 209.929 339.368C191.384 333.231 169.708 329.591 178.883 321.654C188.057 313.718 198.95 312.385 181.252 301.718C163.555 291.073 158.968 284.216 168.338 278.587C177.73 272.957 170.317 270.629 168.36 260.788C166.403 250.947 182.97 266.016 183.361 255.963C183.753 245.911 171.795 240.556 175.6 227.139C179.404 213.7 209.211 225.297 215.842 239.773C222.473 254.249 220.408 225.001 232.17 229.953C243.91 234.927 242.758 247.265 245.845 261.593C248.932 275.92 249.345 256.958 262.259 261.339C275.174 265.719 264.825 283.137 269.477 295.729C274.13 308.321 278.13 286.375 286.762 292.893C295.371 299.412 283.566 318.289 286.501 325.252C289.414 332.215 299.915 320.236 300.915 331.051C301.915 341.865 290.718 363.791 291.849 369.23C292.98 374.669 298.284 363.621 304.133 367.685C309.981 371.748 300.437 390.689 301.154 394.414C301.872 398.139 306.633 391.684 309.851 398.731C313.046 405.779 295.632 433.27 295.632 433.27Z" fill="#778B84"/>
<path d="M306.461 470.052C302.33 449.206 296.351 428.953 289.438 408.953L286.785 401.483C285.894 398.985 285.024 396.488 284.046 394.054L278.241 379.282L272.001 364.701C271.001 362.246 269.849 359.875 268.718 357.484L265.349 350.31L261.957 343.135L258.305 336.088L254.652 329.04C253.413 326.712 252.282 324.3 250.934 322.014C245.651 312.829 240.629 303.496 234.824 294.608C223.823 276.471 211.083 259.413 198.038 242.673C210.844 259.603 223.323 276.809 234.02 295.073C239.672 304.025 244.564 313.401 249.695 322.649C251.021 324.935 252.087 327.347 253.304 329.696L256.826 336.786L260.348 343.876L263.609 351.071L266.87 358.288C267.958 360.701 269.066 363.071 270.045 365.526L276.045 380.15L281.589 394.943C282.546 397.398 283.372 399.895 284.22 402.393L286.764 409.863L288.025 413.609L289.199 417.376L291.525 424.91C293.068 429.926 294.416 435.005 295.851 440.063C298.482 450.201 300.982 460.465 302.787 470.687L306.461 470.052Z" fill="#4F625C"/>
<path d="M248.933 390.308C252.303 390.88 255.651 391.557 258.977 392.361C262.304 393.144 265.587 394.054 268.804 395.155C272.022 396.213 275.196 397.44 278.175 399.028C281.131 400.615 284.001 402.435 286.175 404.911L286.806 405.631L286.936 404.678C287.306 402.245 287.719 399.832 288.284 397.44C288.828 395.049 289.502 392.679 290.263 390.33C291.045 388.002 291.959 385.695 293.002 383.451C294.046 381.208 295.198 379.007 296.633 376.975C295.067 378.922 293.807 381.102 292.654 383.303C291.502 385.504 290.545 387.811 289.676 390.139C288.85 392.488 288.067 394.858 287.502 397.271C286.893 399.684 286.458 402.118 286.067 404.572L286.849 404.361C284.588 401.715 281.631 399.832 278.588 398.245C275.544 396.657 272.305 395.451 269.043 394.414C265.761 393.398 262.434 392.552 259.086 391.874C255.716 391.24 252.346 390.668 248.933 390.308Z" fill="#806DAA"/>
<path d="M229.386 358.584C233.148 358.69 236.909 359.05 240.648 359.537C244.388 360.002 248.084 360.658 251.758 361.484C255.41 362.33 259.019 363.367 262.52 364.637C266.02 365.949 269.368 367.6 272.542 369.526L273.195 369.907L273.26 369.166C273.521 366.055 273.912 362.944 274.89 359.96C275.803 356.976 276.977 354.034 278.456 351.262C279.913 348.468 281.63 345.802 283.522 343.262C285.413 340.723 287.478 338.289 289.805 336.067C287.391 338.183 285.196 340.532 283.195 343.008C281.195 345.506 279.412 348.172 277.869 350.966C276.282 353.738 275.043 356.701 274.108 359.748C273.086 362.775 272.651 365.971 272.368 369.145L273.064 368.806C269.846 366.796 266.411 365.209 262.868 363.875C259.302 362.627 255.65 361.569 251.954 360.785C244.496 359.262 236.952 358.5 229.386 358.584Z" fill="#806DAA"/>
<path d="M191.253 324.342C197.276 324.575 203.276 325.125 209.255 325.76C215.234 326.416 221.191 327.263 227.083 328.384C232.974 329.485 238.823 330.882 244.454 332.871C250.019 334.903 255.65 337.358 259.738 341.527L260.259 342.056L260.455 341.357C261.433 337.929 262.651 334.543 264.108 331.263C265.564 327.982 267.151 324.744 268.912 321.612C272.456 315.348 276.37 309.253 280.805 303.496C278.5 306.29 276.326 309.189 274.239 312.173C272.152 315.136 270.217 318.205 268.391 321.337C266.564 324.469 264.912 327.686 263.39 330.966C261.912 334.268 260.672 337.675 259.651 341.146L260.368 340.976C258.259 338.776 255.737 337.061 253.063 335.622C250.389 334.183 247.606 333.04 244.758 332.046C239.062 330.056 233.148 328.702 227.235 327.622C221.299 326.543 215.299 325.824 209.32 325.273C203.298 324.702 197.276 324.406 191.253 324.342Z" fill="#4F625C"/>
<path d="M174.752 284.597C180.665 284.703 186.557 285.317 192.406 286.142C198.254 286.968 204.015 288.216 209.69 289.761C212.516 290.565 215.321 291.454 218.082 292.47C220.821 293.507 223.517 294.671 226.148 295.962C228.757 297.274 231.3 298.713 233.735 300.3C236.149 301.93 238.453 303.729 240.584 305.676L241.106 306.142L241.279 305.486C242.823 299.623 244.606 293.825 246.693 288.11C247.737 285.253 248.845 282.417 249.976 279.603C251.128 276.788 252.346 273.994 253.672 271.243C252.259 273.952 250.932 276.703 249.693 279.476C248.432 282.248 247.258 285.063 246.171 287.92C245.084 290.756 244.041 293.634 243.084 296.533C242.106 299.412 241.279 302.353 240.475 305.295L241.171 305.105C238.997 303.115 236.692 301.274 234.235 299.602C231.779 297.973 229.213 296.491 226.561 295.158C223.887 293.867 221.169 292.724 218.386 291.687C215.603 290.671 212.777 289.782 209.907 288.999C204.189 287.454 198.341 286.375 192.471 285.634C186.601 284.894 180.665 284.534 174.752 284.597Z" fill="#4F625C"/>
<path d="M183.342 265.402C189.842 266.524 196.321 267.709 202.735 269.19C205.952 269.91 209.126 270.693 212.279 271.624C215.41 272.555 218.54 273.613 221.388 275.095L222.041 275.433L222.062 274.714C222.149 272.111 222.258 269.487 222.584 266.883C222.888 264.28 223.28 261.698 223.78 259.117C224.78 253.974 226.128 248.873 227.867 243.9C226.824 246.313 225.954 248.831 225.15 251.328C224.367 253.847 223.715 256.408 223.128 258.99C222.541 261.571 222.084 264.175 221.758 266.778C221.41 269.402 221.258 272.026 221.149 274.672L221.823 274.291C218.866 272.682 215.692 271.688 212.518 270.778C209.344 269.867 206.126 269.084 202.887 268.428C196.43 267.159 189.907 266.122 183.342 265.402Z" fill="#4F625C"/>
<path d="M260.108 397.694C260.108 397.694 278.74 401.948 283.284 408.255C287.828 414.562 291.829 427.789 289.154 428.656C286.48 429.503 271.283 425.059 266.283 421.461C261.261 417.863 273.436 419.577 271.218 414.435C269 409.292 258.739 404.467 257.195 400.911C255.63 397.356 260.108 397.694 260.108 397.694Z" fill="#AA9ECA"/>
<path d="M277.824 394.308C277.824 394.308 274.324 377.949 265.91 371.96C257.496 365.97 237.734 360.807 234.755 363.367C231.777 365.928 246.626 369.441 249.561 375.113C252.496 380.785 245.604 381.885 249.561 385.441C253.518 388.996 258.931 386.964 265.845 389.525C272.759 392.086 277.824 394.308 277.824 394.308Z" fill="#AA9ECA"/>
<path d="M263.845 360.426C263.932 360.489 263.345 347.833 252.192 341.675C241.06 335.516 222.254 330.479 212.492 331.008C202.731 331.538 227.429 340.892 233.168 344.595C238.886 348.299 228.863 351.622 235.147 354.331C241.43 357.061 256.344 355.092 263.845 360.426Z" fill="#778B84"/>
<path d="M248.629 330.479C248.629 330.479 247.716 313.866 235.193 307.284C222.67 300.703 197.581 291.327 189.145 294.1C180.71 296.851 197.603 301.74 201.886 306.903C206.169 312.067 193.972 315.009 205.147 317.781C216.3 320.554 238.302 322.014 248.629 330.479Z" fill="#778B84"/>
<path d="M228.344 292.258C228.344 292.258 222.191 279.751 206.733 274.65C191.275 269.55 182.601 270.333 184.275 274.439C185.927 278.544 189.362 279.306 199.906 281.74C210.451 284.174 228.344 292.258 228.344 292.258Z" fill="#778B84"/>
<path d="M215.039 268.852C215.039 268.852 206.864 256.429 196.646 248.133C186.428 239.837 181.601 251.773 188.341 257.085C195.081 262.355 210.778 264.64 215.039 268.852Z" fill="#778B84"/>
<path d="M218.038 266.397C217.929 267.878 206.276 246.059 197.514 238.652C188.753 231.244 194.449 225.911 203.558 232.599C212.646 239.265 218.69 257.17 218.038 266.397Z" fill="#778B84"/>
<path d="M233.757 240.979C233.757 240.979 226.169 258.968 228.8 273.169C231.452 287.348 238.801 296.195 239.453 295.75C236.627 283.095 236.366 276.957 239.953 268.619C243.54 260.302 243.605 247.752 239.953 241.995C236.301 236.26 233.757 240.979 233.757 240.979Z" fill="#778B84"/>
<path d="M257.127 274.968C257.127 274.968 247.561 292.322 247.583 303.771C247.604 315.221 257.062 330.712 258.562 330.12C260.062 329.527 263.149 316.3 267.345 311.157C271.563 306.015 270.911 304.321 264.323 301.528C257.736 298.713 260.258 295.052 261.845 286.333C263.432 277.592 261.671 265.402 257.127 274.968Z" fill="#778B84"/>
<path d="M271.761 357.907C271.761 357.907 264.608 346.013 267.717 334.268C270.848 322.522 278.175 307.665 281.805 309.655C285.436 311.644 278.566 322.204 280.979 328.046C283.392 333.887 285.175 334.141 281.523 339.876C277.914 345.632 271.761 357.907 271.761 357.907Z" fill="#AA9ECA"/>
<path d="M284.869 391.282C285.064 391.599 273.672 376.108 277.933 363.558C282.195 351.008 285.521 341.675 290.695 341.484C295.87 341.315 293.87 353.611 290.434 360.701C286.999 367.769 282.369 387.303 284.869 391.282Z" fill="#AA9ECA"/>
<path d="M296.785 425.334C296.872 425.037 290.088 410.075 296.698 403.895C303.329 397.715 305.243 403.408 303.242 408.488C301.22 413.588 296.785 425.334 296.785 425.334Z" fill="#AA9ECA"/>
<path d="M609.792 470.094C650.121 431.937 670.362 379.007 680.233 341.315C690.929 300.512 692.125 268.28 692.125 267.942L689.168 267.857C689.125 269.127 683.972 395.895 607.726 468.041L609.792 470.094Z" fill="#8BA098"/>
<path d="M686.495 305.845L687.473 305.168C700.779 296.11 716.715 280.364 716.867 280.216L714.758 278.206C714.606 278.354 699.67 293.126 686.799 302.12C678.233 293.253 672.907 272.661 672.863 272.449L669.994 273.148C670.233 274.079 675.929 296.131 685.625 305.041L686.495 305.845Z" fill="#8BA098"/>
<path d="M680.668 331.813L681.777 331.368C704.453 322.247 721.454 300.237 722.172 299.306L719.802 297.592C719.628 297.803 703.127 319.157 681.755 328.257C667.145 307.284 665.471 293.634 665.449 293.486L662.514 293.782C662.58 294.375 664.275 308.66 680.016 330.839L680.668 331.813Z" fill="#8BA098"/>
<path d="M672.517 362.563L673.539 362.182C695.693 353.675 709.021 335.326 709.586 334.543L707.173 332.892C707.042 333.083 694.193 350.733 673.474 359.114C659.56 341.887 656.951 329.146 656.929 329.019L654.038 329.548C654.146 330.12 656.907 343.558 671.865 361.759L672.517 362.563Z" fill="#8BA098"/>
<path d="M667.928 385.61C678.994 382.795 692.756 372.425 693.387 371.938L691.56 369.674C691.387 369.801 675.385 381.864 664.819 383.303C654.688 372.468 651.774 356.045 651.753 355.875L648.839 356.341C648.97 357.061 652.014 374.351 663.167 385.801L663.667 386.308L664.384 386.245C665.515 386.139 666.71 385.927 667.928 385.61Z" fill="#8BA098"/>
<path d="M687.471 372.065C688.189 374.753 691.015 376.362 693.777 375.663C696.538 374.965 698.191 372.214 697.473 369.526C696.756 366.838 693.929 365.23 691.168 365.928C688.406 366.626 686.754 369.378 687.471 372.065Z" fill="#6B5A96"/>
<path d="M645.163 357.42C645.88 360.108 648.707 361.717 651.468 361.018C654.23 360.32 655.882 357.569 655.164 354.881C654.447 352.193 651.62 350.585 648.859 351.283C646.076 351.981 644.424 354.733 645.163 357.42Z" fill="#4F625C"/>
<path d="M650.163 329.569C650.88 332.257 653.707 333.866 656.468 333.167C659.23 332.469 660.882 329.718 660.164 327.03C659.447 324.342 656.62 322.734 653.859 323.432C651.098 324.13 649.445 326.882 650.163 329.569Z" fill="#4F625C"/>
<path d="M703.561 332.871C704.279 335.559 707.105 337.167 709.867 336.469C712.628 335.77 714.28 333.019 713.563 330.331C712.845 327.644 710.019 326.035 707.258 326.733C704.496 327.432 702.844 330.183 703.561 332.871Z" fill="#4F625C"/>
<path d="M715.561 300.872C716.279 303.56 719.105 305.168 721.867 304.47C724.628 303.771 726.28 301.02 725.563 298.332C724.845 295.644 722.019 294.036 719.258 294.734C716.496 295.433 714.844 298.184 715.561 300.872Z" fill="#4F625C"/>
<path d="M658.925 295.623C659.642 298.311 662.469 299.919 665.23 299.221C667.991 298.523 669.644 295.771 668.926 293.084C668.209 290.396 665.382 288.788 662.621 289.486C659.859 290.184 658.207 292.936 658.925 295.623Z" fill="#4F625C"/>
<path d="M666.124 273C666.841 275.687 669.668 277.296 672.429 276.597C675.19 275.899 676.843 273.148 676.125 270.46C675.408 267.772 672.581 266.164 669.82 266.862C667.037 267.561 665.385 270.312 666.124 273Z" fill="#4F625C"/>
<path d="M685.667 269.169C686.384 271.857 689.211 273.465 691.972 272.767C694.733 272.068 696.386 269.317 695.668 266.629C694.951 263.942 692.124 262.333 689.363 263.032C686.58 263.73 684.927 266.481 685.667 269.169Z" fill="#4F625C"/>
<path d="M710.081 280.491C710.798 283.179 713.625 284.788 716.386 284.089C719.147 283.391 720.8 280.64 720.082 277.952C719.365 275.264 716.538 273.656 713.777 274.354C711.016 275.052 709.363 277.804 710.081 280.491Z" fill="#4F625C"/>
<path d="M646.447 533.838C656.84 534.367 685.886 517.881 690.647 503.321C694.669 490.982 680.363 473.798 695.408 464.507C709.735 455.682 711.453 439.026 711.409 425.503C711.366 412.699 736.433 411.895 739.216 400.086C741.673 389.652 731.998 379.007 746.195 371.6C763.284 362.669 754.739 337.59 777.48 328.278C739.325 329.421 705.866 346.923 686.581 370.732C672.754 387.811 645.447 399.07 637.142 418.583C631.12 432.783 632.163 453.756 622.141 466.962C607.596 486.2 630.207 532.992 646.447 533.838Z" fill="#8BA098"/>
<path d="M646.445 533.838C655.989 533.923 678.839 515.871 683.818 501.712C688.101 489.564 680.752 473.036 695.406 464.507C710.864 455.513 701.363 436.571 701.211 424.699C701.015 411.472 735.322 411.493 739.214 400.086C742.366 390.795 723.126 375.113 739.149 367.769C757.585 359.304 756.216 336.955 777.5 328.278C735.931 329.823 704.907 354.5 686.709 381.081C675.165 397.948 646.641 400.128 637.162 418.583C628.943 434.624 639.575 457.46 629.183 471.322C616.225 488.633 631.465 533.711 646.445 533.838Z" fill="#8BA098"/>
<path d="M761.195 333.315C760.847 333.019 760.304 332.956 759.999 333.188C741.106 347.622 723.887 362.775 707.647 379.303C699.863 387.536 692.645 396.107 685.645 404.826C683.927 407.027 682.21 409.228 680.492 411.429C678.427 414.075 677.427 415.408 675.47 418.117C672.035 422.54 668.882 427.133 665.534 431.619C661.556 437.079 659.664 439.873 656.099 445.608C654.381 448.529 653.555 449.989 651.946 452.973C650.424 455.978 649.707 457.502 648.294 460.592C643.772 470.898 640.663 481.882 639.423 493.289C638.184 504.696 638.88 516.569 642.38 528.294C643.685 532.547 645.359 536.78 647.533 540.886C648.707 540.272 650.055 539.87 651.424 539.637C649.402 535.849 647.815 531.934 646.533 527.976C643.011 516.717 642.184 505.162 643.25 494.009C644.337 482.835 647.228 472.02 651.533 461.819C652.881 458.772 653.577 457.269 655.033 454.285C656.577 451.344 657.381 449.883 659.012 446.984C662.469 441.27 664.317 438.476 668.187 433.037C671.491 428.529 674.579 423.916 677.97 419.493C679.905 416.784 680.884 415.429 682.905 412.784C684.623 410.583 686.297 408.382 687.971 406.181C694.863 397.44 701.951 388.848 709.625 380.594C725.627 364.002 742.628 348.786 761.282 334.268C761.564 334.035 761.543 333.612 761.195 333.315Z" fill="#4F625C"/>
<path d="M641.466 513.712C641.618 513.162 641.683 512.887 641.835 512.336C647.314 500.21 663.076 495.66 678.36 495.088C678.686 495.067 678.904 494.877 678.817 494.623C678.73 494.369 678.404 494.157 678.056 494.178C662.707 494.707 647.336 499.088 641.053 510.686C628.269 487.871 621.681 481.967 621.355 481.734C621.072 481.544 620.681 481.544 620.485 481.755C620.29 481.967 620.355 482.305 620.638 482.496C620.725 482.559 627.53 488.76 640.683 512.294C640.987 512.844 641.139 513.141 641.466 513.712Z" fill="#4F625C"/>
<path d="M645.597 473.353C645.88 473.015 646.01 472.845 646.293 472.507C655.62 461.354 681.948 463.259 682.209 463.28C682.557 463.301 682.796 463.131 682.753 462.878C682.709 462.624 682.405 462.391 682.057 462.37C680.992 462.285 656.142 460.38 645.945 471.068C641.271 458.264 638.488 445.227 637.423 432.466C637.401 432.191 637.097 431.937 636.749 431.916C636.401 431.894 636.14 432.106 636.162 432.402C637.292 445.608 640.184 459.047 645.162 472.274C645.336 472.697 645.423 472.93 645.597 473.353Z" fill="#4F625C"/>
<path d="M659.621 443.64C659.925 443.344 660.055 443.174 660.36 442.878C669.839 433.206 695.45 436.19 695.711 436.233C696.059 436.275 696.298 436.106 696.276 435.852C696.254 435.598 695.95 435.344 695.602 435.302C694.58 435.153 670.404 432.275 660.077 441.46C654.533 425.693 652.163 406.562 652.142 406.371C652.12 406.096 651.794 405.842 651.446 405.821C651.098 405.8 650.837 406.033 650.881 406.308C650.902 406.498 653.446 426.561 659.251 442.582C659.381 443.005 659.468 443.217 659.621 443.64Z" fill="#4F625C"/>
<path d="M676.904 418.731C677.317 418.477 677.534 418.35 677.969 418.096C690.47 410.541 713.951 411.895 714.19 411.895C714.516 411.916 714.733 411.726 714.69 411.472C714.625 411.218 714.298 410.985 713.972 410.943C713.755 410.921 691.188 409.567 678.165 416.636C678.143 399.62 677.86 388.827 677.86 388.721C677.839 388.446 677.534 388.192 677.186 388.15C676.839 388.129 676.578 388.319 676.578 388.594C676.578 388.7 676.86 399.917 676.904 417.546C676.904 418.032 676.904 418.265 676.904 418.731Z" fill="#4F625C"/>
<path d="M700.145 389.864C700.514 389.631 700.688 389.504 701.058 389.271C712.146 382.182 732.234 387.578 732.43 387.621C732.778 387.726 733.061 387.599 733.104 387.346C733.126 387.092 732.887 386.816 732.561 386.711C732.365 386.647 712.82 381.335 701.101 387.875C699.601 377.081 698.362 362.352 698.362 362.203C698.34 361.928 698.036 361.674 697.688 361.653C697.34 361.632 697.057 361.822 697.079 362.098C697.101 362.246 698.471 377.928 699.992 388.806C700.058 389.229 700.079 389.441 700.145 389.864Z" fill="#4F625C"/>
<path d="M723.517 365.335C723.93 365.081 724.126 364.954 724.539 364.701C733.04 359.389 749.324 361.907 749.498 361.949C749.846 362.013 750.106 361.843 750.085 361.568C750.063 361.293 749.78 361.039 749.454 360.976C748.802 360.87 733.735 358.478 724.691 363.283C724.409 352.045 727.039 344.384 727.061 344.299C727.148 344.045 726.93 343.749 726.604 343.622C726.256 343.516 725.909 343.622 725.822 343.876C725.8 343.96 722.974 352.235 723.474 364.193C723.495 364.658 723.495 364.891 723.517 365.335Z" fill="#806DAA"/>
<path d="M644.664 592.186C648.838 598.027 670.796 606.64 681.167 602.916C689.95 599.762 693.581 584.609 705.365 588.736C716.583 592.672 726.845 586.408 734.541 580.546C741.824 575.001 753.108 588.207 761.044 584.609C768.066 581.435 769.957 571.615 780.328 576.08C792.807 581.456 803.417 566.007 818.57 574.303C801.438 554.155 777.023 543.616 755.086 543.468C739.368 543.362 721.149 533.457 706.43 537.394C695.733 540.272 684.211 549.88 672.34 550.176C655.078 550.6 638.141 583.043 644.664 592.186Z" fill="#8BA098"/>
<path d="M644.662 592.186C648.728 597.371 668.903 601.942 679.122 598.535C687.905 595.593 694.166 584.503 705.363 588.736C717.168 593.201 723.886 579.911 730.583 574.683C738.062 568.864 752.845 587.445 761.042 584.609C767.695 582.302 768.347 565.118 779.456 570.62C792.24 576.948 804.415 566.536 818.547 574.303C799.719 552.483 772.238 546.367 749.215 547.996C734.605 549.033 721.038 534.537 706.407 537.394C693.688 539.87 685.274 555.488 672.86 555.848C657.424 556.335 638.27 584.038 644.662 592.186Z" fill="#8BA098"/>
<path d="M808.655 567.657C808.676 567.34 808.481 567.022 808.22 566.959C791.827 562.98 775.739 560.208 759.302 558.557C751.237 557.901 743.236 557.711 735.235 557.668C733.235 557.689 731.235 557.71 729.235 557.732C726.843 557.753 725.647 557.795 723.256 557.901C719.255 557.943 715.277 558.24 711.255 558.345C706.428 558.557 704.015 558.748 699.189 559.277C696.797 559.615 695.58 559.785 693.21 560.208C690.84 560.695 689.644 560.949 687.296 561.52C679.448 563.53 671.86 566.599 664.794 570.832C657.75 575.086 651.271 580.588 646.097 587.551C644.227 590.09 642.531 592.821 641.14 595.783C641.988 596.164 642.814 596.715 643.531 597.35C644.814 594.619 646.358 592.059 648.075 589.667C652.989 582.916 659.229 577.456 666.055 573.223C672.904 568.991 680.317 565.88 687.992 563.806C690.318 563.213 691.47 562.938 693.797 562.43C696.145 561.986 697.319 561.795 699.689 561.435C704.45 560.843 706.841 560.631 711.603 560.377C715.603 560.229 719.582 559.89 723.56 559.827C725.93 559.7 727.126 559.658 729.517 559.615C731.517 559.594 733.496 559.552 735.474 559.509C743.432 559.467 751.41 559.594 759.433 560.165C775.804 561.647 791.827 564.271 808.176 568.102C808.415 568.186 808.633 567.975 808.655 567.657Z" fill="#4F625C"/>
<path d="M654.01 580.8C654.401 580.63 654.575 580.567 654.966 580.398C664.25 578.133 673.663 584.694 680.577 592.694C680.729 592.863 680.925 592.884 681.034 592.736C681.142 592.588 681.121 592.313 680.968 592.143C674.033 584.059 664.902 577.646 655.575 579.255C663.076 562.494 663.597 556.377 663.597 556.102C663.597 555.869 663.423 555.658 663.206 555.637C662.989 555.615 662.836 555.806 662.836 556.039C662.836 556.102 662.249 562.472 654.488 579.742C654.292 580.165 654.183 580.377 654.01 580.8Z" fill="#806DAA"/>
<path d="M678.816 565.626C679.142 565.626 679.294 565.626 679.599 565.647C689.991 565.88 700.274 580.927 700.361 581.075C700.492 581.265 700.709 581.329 700.84 581.202C700.97 581.075 700.97 580.8 700.84 580.609C700.427 579.996 690.774 565.731 680.294 564.843C685.577 556.779 691.817 549.647 698.644 543.573C698.796 543.446 698.818 543.171 698.666 542.981C698.535 542.79 698.296 542.727 698.144 542.875C691.1 549.182 684.664 556.568 679.273 564.948C679.077 565.202 678.99 565.329 678.816 565.626Z" fill="#806DAA"/>
<path d="M701.841 560.356C702.145 560.377 702.297 560.398 702.602 560.419C712.211 561.372 721.581 576.504 721.668 576.673C721.799 576.885 721.995 576.948 722.125 576.821C722.255 576.694 722.277 576.419 722.147 576.228C721.777 575.615 712.994 561.287 703.276 559.679C709.885 549.88 719.777 540.335 719.886 540.23C720.038 540.081 720.038 539.806 719.907 539.616C719.755 539.425 719.538 539.383 719.386 539.51C719.277 539.616 708.95 549.647 702.297 559.7C702.102 559.975 702.015 560.102 701.841 560.356Z" fill="#4F625C"/>
<path d="M723.517 558.959C723.843 559.086 724.017 559.128 724.343 559.255C734.039 562.747 743.431 576.038 743.518 576.165C743.649 576.355 743.844 576.398 743.975 576.25C744.105 576.101 744.084 575.826 743.953 575.636C743.866 575.509 734.909 562.705 725.234 558.726C734.931 551.362 740.975 546.557 741.04 546.515C741.192 546.388 741.214 546.113 741.083 545.923C740.953 545.732 740.714 545.669 740.562 545.796C740.496 545.838 734.213 550.832 724.169 558.472C723.908 558.663 723.777 558.769 723.517 558.959Z" fill="#4F625C"/>
<path d="M750.037 559.065C750.341 559.171 750.472 559.213 750.776 559.298C759.625 562.24 765.212 575.424 765.256 575.551C765.343 575.784 765.538 575.89 765.712 575.784C765.865 575.699 765.93 575.445 765.821 575.213C765.778 575.086 760.364 562.218 751.581 558.705C757.103 553.224 764.973 546.198 765.06 546.134C765.212 546.007 765.234 545.732 765.082 545.52C764.951 545.309 764.712 545.267 764.56 545.394C764.473 545.478 756.125 552.97 750.581 558.494C750.341 558.748 750.233 558.853 750.037 559.065Z" fill="#4F625C"/>
<path d="M774.106 561.118C774.432 561.224 774.585 561.287 774.911 561.393C781.607 563.7 787.216 573.604 787.26 573.689C787.368 573.901 787.586 573.964 787.738 573.837C787.89 573.71 787.912 573.456 787.803 573.244C787.586 572.842 782.433 563.679 775.802 560.843C782.085 555.848 787.607 553.965 787.651 553.943C787.825 553.88 787.912 553.626 787.825 553.414C787.738 553.182 787.521 553.033 787.347 553.097C787.281 553.118 781.346 555.171 774.737 560.589C774.498 560.8 774.367 560.906 774.106 561.118Z" fill="#4F625C"/>
<path d="M647.619 569.541C647.619 569.541 663.924 576.419 676.904 573.16C689.861 569.901 679.469 564.991 685.339 559.573C691.209 554.155 706.819 556.293 705.558 549.944C704.297 543.573 703.232 538.156 713.624 538.156C724.017 538.156 737.235 534.918 731.713 528.674C726.169 522.431 728.734 519.193 745.497 519.765C762.259 520.336 780.717 523.828 775.869 514.77C771.021 505.712 762.716 501.416 780.195 498.115C797.697 494.834 803.502 490.707 797.74 483.427C792.001 476.147 798.632 476.464 803.284 469.184C807.937 461.883 789.979 469.036 792.783 460.888C795.61 452.719 806.828 451.978 807.98 440.106C809.133 428.233 781.652 428.699 771.825 438.328C761.998 447.957 772.782 425.143 761.824 425.651C750.867 426.138 747.932 436.381 740.996 446.92C734.061 457.481 739.648 442.18 727.93 441.862C716.212 441.545 719.06 458.539 711.429 467.237C703.776 475.935 707.428 457.185 698.493 459.851C689.557 462.518 693.123 481.12 688.622 485.819C684.122 490.517 679.447 477.84 675.273 486.2C671.099 494.559 673.23 515.405 670.621 519.426C668.012 523.447 667.229 513.035 661.272 514.558C655.337 516.082 657.054 534.071 655.315 536.822C653.576 539.595 651.793 533.013 647.01 537.711C642.27 542.409 647.619 569.541 647.619 569.541Z" fill="#778B84"/>
<path d="M627.488 595.784C637.293 580.313 648.402 565.88 660.186 551.933L664.643 546.748C666.121 545.013 667.6 543.277 669.165 541.605L678.405 531.511L687.949 521.691C689.515 520.04 691.189 518.474 692.841 516.887L697.776 512.146L702.733 507.405L707.842 502.834L712.952 498.263C714.669 496.76 716.321 495.173 718.126 493.755C725.213 487.956 732.149 481.988 739.563 476.592C754.02 465.333 769.543 455.449 785.219 445.926C769.674 455.682 754.346 465.756 740.063 477.205C732.736 482.687 725.909 488.76 718.909 494.623C717.148 496.062 715.517 497.67 713.821 499.194L708.777 503.829L703.733 508.464L698.863 513.268L694.015 518.072C692.406 519.68 690.754 521.246 689.21 522.939L679.84 532.865L670.774 543.045C669.252 544.716 667.795 546.473 666.361 548.23L661.991 553.457L659.816 556.081L657.708 558.748L653.49 564.081C650.685 567.636 648.033 571.319 645.293 574.938C640.01 582.281 634.814 589.752 630.183 597.392L627.488 595.784Z" fill="#4F625C"/>
<path d="M698.406 548.991C695.536 548.441 692.645 548.018 689.732 547.658C686.84 547.298 683.905 547.066 680.992 546.981C678.078 546.875 675.165 546.917 672.274 547.298C669.425 547.679 666.534 548.314 664.034 549.647L663.294 550.05L663.468 549.245C663.947 547.192 664.36 545.14 664.642 543.044C664.947 540.97 665.142 538.875 665.273 536.78C665.36 534.685 665.36 532.569 665.229 530.473C665.099 528.378 664.86 526.262 664.36 524.209C665.012 526.241 665.338 528.336 665.577 530.431C665.816 532.547 665.86 534.664 665.838 536.78C665.773 538.896 665.643 541.034 665.338 543.129C665.077 545.245 664.664 547.319 664.208 549.393L663.642 548.991C666.273 547.531 669.23 546.896 672.165 546.558C675.1 546.198 678.057 546.177 680.992 546.304C683.927 546.452 686.862 546.769 689.753 547.214C692.688 547.722 695.58 548.272 698.406 548.991Z" fill="#4F625C"/>
<path d="M723.953 529.373C720.909 528.336 717.779 527.532 714.648 526.812C711.517 526.093 708.343 525.5 705.169 525.077C701.973 524.675 698.777 524.442 695.559 524.421C692.342 524.442 689.167 524.78 686.015 525.373L685.385 525.5L685.558 524.886C686.319 522.326 686.972 519.722 687.124 517.035C687.319 514.368 687.298 511.68 686.972 509.014C686.667 506.347 686.145 503.702 685.406 501.099C684.689 498.496 683.797 495.935 682.623 493.48C683.906 495.871 684.906 498.411 685.754 500.993C686.58 503.575 687.167 506.241 687.537 508.929C687.95 511.617 687.993 514.347 687.82 517.077C687.689 519.807 687.037 522.474 686.276 525.098L685.819 524.611C689.015 523.955 692.276 523.701 695.516 523.68C698.755 523.722 701.995 523.976 705.212 524.442C711.648 525.458 717.931 527.087 723.953 529.373Z" fill="#4F625C"/>
<path d="M765.152 513.246C760.261 511.659 755.304 510.305 750.303 509.056C745.325 507.807 740.281 506.728 735.215 505.882C730.149 505.035 725.04 504.421 719.909 504.337C714.822 504.316 709.561 504.612 704.973 506.749L704.386 507.024L704.451 506.39C704.734 503.342 704.821 500.294 704.691 497.226C704.56 494.178 704.299 491.11 703.864 488.083C702.973 482.009 701.756 475.978 699.994 470.073C700.973 472.994 701.799 475.957 702.538 478.962C703.277 481.946 703.864 484.972 704.364 488.02C704.843 491.067 705.169 494.136 705.365 497.205C705.517 500.294 705.451 503.384 705.191 506.453L704.669 506.093C707.039 504.972 709.604 504.337 712.169 503.977C714.757 503.617 717.344 503.511 719.931 503.575C725.105 503.681 730.258 504.316 735.345 505.204C740.433 506.093 745.455 507.3 750.434 508.612C755.412 509.987 760.304 511.532 765.152 513.246Z" fill="#4F625C"/>
<path d="M790.762 486.327C786 484.655 781.087 483.406 776.152 482.348C771.217 481.269 766.216 480.57 761.194 480.126C758.672 479.935 756.15 479.829 753.628 479.829C751.106 479.851 748.584 479.978 746.084 480.232C743.584 480.507 741.105 480.909 738.648 481.459C736.213 482.052 733.822 482.792 731.496 483.723L730.93 483.935L730.996 483.364C731.583 478.221 731.974 473.036 732.083 467.851C732.148 465.269 732.148 462.666 732.104 460.063C732.061 457.46 731.952 454.878 731.757 452.275C732.061 454.857 732.235 457.439 732.365 460.042C732.496 462.645 732.561 465.227 732.561 467.83C732.561 470.433 732.496 473.036 732.344 475.639C732.235 478.242 731.974 480.824 731.691 483.427L731.191 483.067C733.539 482.115 735.974 481.332 738.453 480.718C740.931 480.147 743.453 479.702 745.975 479.427C748.519 479.194 751.063 479.068 753.606 479.068C756.15 479.089 758.694 479.216 761.216 479.427C766.281 479.872 771.282 480.739 776.217 481.882C781.196 483.067 786.044 484.528 790.762 486.327Z" fill="#4F625C"/>
<path d="M789.871 468.444C784.327 467.407 778.761 466.454 773.174 465.735C770.391 465.354 767.587 465.057 764.782 464.867C761.977 464.698 759.151 464.613 756.412 464.952L755.781 465.036L755.977 464.465C756.738 462.349 757.455 460.232 757.999 458.052C758.564 455.894 759.064 453.693 759.455 451.492C760.26 447.069 760.782 442.603 760.934 438.116C761.021 440.36 760.934 442.624 760.782 444.868C760.629 447.111 760.347 449.354 760.021 451.598C759.695 453.841 759.238 456.042 758.673 458.243C758.151 460.444 757.433 462.602 756.694 464.74L756.281 464.253C759.151 463.851 761.999 463.999 764.825 464.19C767.652 464.401 770.478 464.719 773.261 465.142C778.848 465.967 784.392 467.068 789.871 468.444Z" fill="#4F625C"/>
<path d="M687.167 551.594C687.167 551.594 670.927 549.499 665.317 553.203C659.708 556.906 652.381 566.303 654.251 567.784C656.121 569.266 669.666 570.197 674.796 568.8C679.927 567.403 669.666 565.181 673.035 561.711C676.405 558.24 686.145 557.436 688.493 555.044C690.841 552.653 687.167 551.594 687.167 551.594Z" fill="#778B84"/>
<path d="M674.035 543.637C674.035 543.637 681.927 531.574 690.536 529.288C699.146 526.981 716.582 528.696 718.147 531.616C719.735 534.558 706.755 532.971 702.624 536.632C698.494 540.314 703.69 543.214 699.407 544.886C695.124 546.558 691.428 543.32 685.101 543.341C678.774 543.362 674.035 543.637 674.035 543.637Z" fill="#778B84"/>
<path d="M695.796 520.675C695.709 520.696 700.123 510.749 710.971 509.12C721.798 507.49 738.43 509.014 746.061 512.315C753.714 515.638 731.017 515.807 725.277 517.077C719.537 518.347 726.538 523.976 720.646 524.294C714.776 524.611 703.449 518.601 695.796 520.675Z" fill="#778B84"/>
<path d="M717.32 501.204C717.32 501.204 723.234 488.189 735.322 486.623C747.388 485.057 770.412 484.972 776.282 489.691C782.174 494.39 767.129 493.31 762.085 496.167C757.041 499.025 765.89 504.993 756.085 503.913C746.279 502.813 728.234 497.48 717.32 501.204Z" fill="#778B84"/>
<path d="M745.475 476.613C745.475 476.613 754.302 468.422 768.26 468.909C782.218 469.396 788.914 472.592 786.305 475.385C783.696 478.179 780.718 477.777 771.521 476.591C762.325 475.406 745.475 476.613 745.475 476.613Z" fill="#778B84"/>
<path d="M763.434 461.819C763.434 461.819 773.869 454.285 784.631 450.666C795.393 447.047 795.523 458.031 788.479 460.274C781.435 462.518 768.173 459.703 763.434 461.819Z" fill="#778B84"/>
<path d="M761.801 458.962C761.431 460.19 777.563 446.158 786.89 442.815C796.217 439.471 793.325 433.545 783.955 436.191C774.585 438.836 764.149 451.386 761.801 458.962Z" fill="#778B84"/>
<path d="M757.149 433.989C757.149 433.989 757.606 450.624 751.062 461.206C744.518 471.766 735.865 476.676 735.495 476.126C741.713 466.835 743.822 461.989 743.561 454.264C743.3 446.539 747.149 436.487 751.866 432.952C756.584 429.439 757.149 433.989 757.149 433.989Z" fill="#778B84"/>
<path d="M727.864 454.264C727.864 454.264 730.104 470.983 726.516 480.126C722.929 489.289 710.537 498.876 709.515 497.966C708.493 497.056 710.167 485.544 708.406 480.189C706.645 474.835 707.689 473.671 713.82 473.375C719.972 473.078 719.081 469.396 720.538 461.946C721.972 454.497 727.19 445.27 727.864 454.264Z" fill="#778B84"/>
<path d="M690.254 516.294C690.254 516.294 699.69 508.887 700.864 498.58C702.016 488.252 700.799 474.2 697.276 474.708C693.732 475.216 695.95 485.713 692.189 489.67C688.427 493.628 686.927 493.31 688.058 498.982C689.166 504.654 690.254 516.294 690.254 516.294Z" fill="#778B84"/>
<path d="M669.337 539.129C669.076 539.32 683.034 530.304 683.534 519.003C684.034 507.702 684.295 499.236 680.208 497.564C676.12 495.893 673.881 506.326 674.424 513.014C674.968 519.701 672.576 536.695 669.337 539.129Z" fill="#778B84"/>
<path d="M649.183 562.875C649.205 562.621 659.315 552.653 655.945 545.753C652.575 538.833 649.248 542.833 649.27 547.51C649.292 552.145 649.183 562.875 649.183 562.875Z" fill="#778B84"/>
<path d="M280.836 554.89C197.271 473.551 197.271 341.675 280.836 260.337C364.401 178.999 499.886 178.999 583.45 260.337C667.015 341.675 667.015 473.551 583.45 554.89C499.886 636.228 364.4 636.228 280.836 554.89Z" fill="#E7E7FE"/>
<mask id="mask1_197_3287" style="mask-type:luminance" maskUnits="userSpaceOnUse" x="218" y="199" width="429" height="417">
<path d="M280.836 554.89C197.271 473.551 197.271 341.675 280.836 260.337C364.401 178.999 499.886 178.999 583.45 260.337C667.015 341.675 667.015 473.551 583.45 554.89C499.886 636.228 364.4 636.228 280.836 554.89Z" fill="white"/>
</mask>
<g mask="url(#mask1_197_3287)">
<path d="M303.72 237.72C303.72 237.72 338.31 266.037 357.964 257.614C377.618 249.191 387.836 256.154 396.88 259.18C405.924 262.206 420.86 257.614 431.079 261.825C441.297 266.037 458.603 287.856 447.971 290.904C437.362 293.973 434.992 279.031 413.773 281.338C392.554 283.624 378.792 281.021 381.922 291.327C385.075 301.634 401.576 298.946 412.968 302.396C424.361 305.845 423.187 319.623 419.643 325.739C416.099 331.855 416.882 337.992 421.6 342.966C426.317 347.939 433.796 346.415 443.21 354.055C452.646 361.717 451.472 391.557 442.428 390.795C433.383 390.033 424.339 372.425 412.947 374.732C401.554 377.018 401.163 397.694 387.01 393.864C372.856 390.033 376.4 393.483 364.595 400.361C352.811 407.239 348.876 395.007 336.679 407.239C324.482 419.493 333.918 434.413 334.722 448.19C335.527 461.968 315.46 458.518 306.807 437.101C298.154 415.662 289.11 411.472 269.456 412.615C249.802 413.757 229.757 393.483 220.321 371.282C210.929 349.061 230.605 244.598 303.72 237.72Z" fill="#C4D4CF"/>
<path d="M398.641 198.103C398.641 198.103 398.945 211.88 409.25 218.187C419.577 224.493 427.861 220.472 434.622 228.811C441.384 237.128 450.232 237.424 452.885 246.609C455.537 255.794 471.169 259.244 478.539 244.599C485.909 229.953 480.018 205.277 462.038 198.103C444.058 190.928 398.641 198.103 398.641 198.103Z" fill="#C4D4CF"/>
<path d="M505.367 210.166C505.367 210.166 521.869 233.128 517.151 249.191C512.433 265.254 505.867 285.931 517.999 293.973C530.13 302.015 525.413 312.914 532.478 326.12C539.544 339.326 553.698 330.712 562.546 332.426C571.395 334.141 570.808 347.918 582.005 353.95C593.201 359.981 598.506 363.431 592.614 374.901C586.722 386.372 581.418 395.557 589.07 395.557C596.745 395.557 644.488 381.779 639.77 341.019C635.096 300.279 597.354 219.351 505.367 210.166Z" fill="#C4D4CF"/>
<path d="M645.86 370.584C645.86 370.584 632.293 396.403 609.291 402.16C586.289 407.895 590.42 419.958 591.594 429.143C592.768 438.328 588.05 440.042 582.159 445.799C576.267 451.534 570.962 461.269 573.31 467.026C575.658 472.782 589.811 477.374 590.42 489.416C591.007 501.48 602.813 522.706 621.662 515.236C640.555 507.786 661.687 406.435 645.86 370.584Z" fill="#C4D4CF"/>
<path d="M524.828 442.624C521.915 438.328 520.697 421.376 500.065 423.112C479.433 424.826 466.454 400.149 447.582 409.906C428.711 419.662 419.276 417.948 398.643 425.122C378.011 432.297 365.032 456.444 388.034 490.856C411.036 525.267 406.318 535.616 424.602 553.393C442.886 571.192 475.324 567.742 465.28 535.024C455.257 502.305 480.02 483.11 489.456 485.819C498.891 488.528 512.458 487.385 517.762 479.914C523.067 472.443 533.09 471.872 533.09 462.687C533.09 453.502 530.937 451.619 524.828 442.624Z" fill="#C4D4CF"/>
<path d="M360.312 515.151C356.356 501.141 346.942 488.358 355.203 487.977C363.465 487.596 369.748 489.882 375.836 510.178C381.923 530.452 385.858 540.018 394.12 546.917C402.381 553.795 409.839 568.356 394.12 567.192C378.401 566.028 365.835 534.664 360.312 515.151Z" fill="#C4D4CF"/>
<path d="M226.278 465.396C226.278 465.396 237.279 478.411 247.106 474.2C256.933 469.988 274.63 474.581 276.195 483.004C277.761 491.427 290.349 486.834 298.219 498.305C306.089 509.776 301.371 514.791 298.219 527.595C295.067 540.399 287.609 557.245 267.956 550.727C248.28 544.23 209.363 494.094 226.278 465.396Z" fill="#C4D4CF"/>
</g>
</g>
<path opacity="0.65" d="M62.2204 318.353V313.337H67.3513V318.353H72.5039V323.347H67.3513V328.363H62.2204V323.347H57.0678V318.353H62.2204Z" fill="#F0A000"/>
<path opacity="0.65" d="M815.071 324.977V319.221H820.985V324.977H826.898V330.733H820.985V336.49H815.071V330.733H809.158V324.977H815.071Z" fill="#F0A000"/>
<path opacity="0.65" d="M120.833 169.066V163.31H126.747V169.066H132.66V174.823H126.747V180.579H120.833V174.823H114.92V169.066H120.833Z" fill="#F0A000"/>
<path opacity="0.65" d="M98.9988 240.772C98.9988 242.296 100.26 243.545 101.847 243.545C103.412 243.545 104.695 242.317 104.695 240.772C104.695 239.249 103.434 238 101.847 238C100.282 238.021 98.9988 239.249 98.9988 240.772Z" fill="#F0A000"/>
<path opacity="0.65" d="M779.065 170.802C779.065 172.325 780.326 173.574 781.913 173.574C783.479 173.574 784.762 172.347 784.762 170.802C784.762 169.278 783.501 168.029 781.913 168.029C780.348 168.029 779.065 169.278 779.065 170.802Z" fill="#F0A000"/>
<path opacity="0.65" d="M318.897 189.235C318.897 190.759 320.158 192.008 321.745 192.008C323.311 192.008 324.594 190.78 324.594 189.235C324.594 187.711 323.333 186.463 321.745 186.463C320.18 186.484 318.897 187.711 318.897 189.235Z" fill="#F0A000"/>
<path opacity="0.65" d="M215.885 435.915C215.885 437.439 217.168 438.688 218.734 438.688C220.299 438.688 221.582 437.439 221.582 435.915C221.582 434.392 220.321 433.143 218.734 433.143C217.147 433.164 215.885 434.392 215.885 435.915Z" fill="#D5CBE4"/>
<path opacity="0.65" d="M49.7214 521.796C49.7214 523.32 51.0042 524.569 52.5697 524.569C54.1352 524.569 55.418 523.341 55.418 521.796C55.418 520.273 54.1569 519.024 52.5697 519.024C51.0042 519.045 49.7214 520.273 49.7214 521.796Z" fill="#F0A000"/>
<path opacity="0.65" d="M703.061 316.046C703.061 317.57 704.322 318.818 705.91 318.818C707.475 318.818 708.758 317.57 708.758 316.046C708.758 314.522 707.497 313.274 705.91 313.274C704.322 313.274 703.061 314.522 703.061 316.046Z" fill="#D5CBE4"/>
<path opacity="0.65" d="M641.379 225.255V219.88H646.901V225.255H652.445V230.652H646.901V236.048H641.379V230.652H635.835V225.255H641.379Z" fill="#F0A000"/>
<path opacity="0.65" d="M823.483 510.559C823.483 512.082 824.744 513.331 826.331 513.331C827.897 513.331 829.18 512.104 829.18 510.559C829.18 509.035 827.919 507.786 826.331 507.786C824.744 507.807 823.483 509.035 823.483 510.559Z" fill="#F0A000"/>
<path opacity="0.65" d="M539.264 198.632C539.264 200.155 540.525 201.404 542.113 201.404C543.678 201.404 544.961 200.177 544.961 198.632C544.961 197.108 543.7 195.859 542.113 195.859C540.547 195.859 539.264 197.108 539.264 198.632Z" fill="#F0A000"/>
<path d="M210.823 166.167C216.432 158.527 227.368 156.749 235.216 162.188C242.108 166.971 244.348 175.775 241.021 183.013L251.218 190.103L249.696 183.859C249.261 182.061 250.413 180.241 252.261 179.817C254.109 179.394 255.979 180.516 256.414 182.315L260.175 197.848C260.392 198.78 260.197 199.774 259.632 200.557C259.045 201.34 258.153 201.848 257.175 201.954L240.847 203.541C240.739 203.563 240.608 203.563 240.499 203.563C238.76 203.563 237.26 202.272 237.064 200.536C236.869 198.695 238.26 197.044 240.152 196.875L248 196.113L236.999 188.473C233.695 191.478 229.39 193.066 225.02 193.066C221.498 193.066 217.954 192.05 214.889 189.912C207.062 184.452 205.235 173.807 210.823 166.167ZM218.911 184.452C223.672 187.754 230.303 186.674 233.694 182.039C237.086 177.405 235.977 170.95 231.216 167.648C226.455 164.347 219.824 165.426 216.432 170.061C213.041 174.696 214.149 181.151 218.911 184.452Z" fill="#F2A200"/>
<path d="M690.69 197.743C691.386 196.092 693.342 195.288 695.038 195.986L700.691 198.251L702.952 192.939C700.191 191.14 698.038 188.6 696.734 185.553C694.995 181.489 694.995 177.003 696.712 172.939C700.278 164.537 710.213 160.516 718.845 163.987C720.54 164.664 722.084 165.596 723.475 166.759L723.497 166.781C728.998 171.437 730.824 178.971 728.041 185.531C727.171 187.584 725.91 189.425 724.302 190.97C721.062 194.081 716.779 195.732 712.409 195.732C711.322 195.732 710.235 195.626 709.148 195.415L706.887 200.727L712.54 202.991C714.235 203.668 715.062 205.573 714.344 207.224C713.822 208.473 712.561 209.234 711.257 209.234C710.822 209.234 710.409 209.15 709.974 208.98L704.322 206.716L701.626 213.065C701.104 214.314 699.843 215.075 698.538 215.075C698.104 215.075 697.69 214.991 697.256 214.822C695.56 214.144 694.734 212.24 695.451 210.589L698.147 204.24L692.494 201.975C690.799 201.298 689.972 199.393 690.69 197.743ZM708.452 188.473C712.279 190.018 716.649 189.172 719.584 186.357C720.562 185.426 721.323 184.304 721.845 183.055C723.541 179.077 722.432 174.505 719.084 171.691C718.258 170.992 717.301 170.421 716.279 170.019C711.039 167.923 705.039 170.357 702.865 175.436C701.821 177.913 701.821 180.621 702.865 183.076C703.952 185.553 705.93 187.457 708.452 188.473Z" fill="#F2A200"/>
<path d="M285.656 147.162C291.439 141.004 296.918 149.596 296.918 149.596C296.918 149.596 304.245 142.422 308.463 149.681C312.68 156.94 295.135 165.045 295.135 165.045C295.135 165.045 279.873 153.342 285.656 147.162Z" fill="#B32A00"/>
<path d="M751.217 262.693C753.044 252.789 764.305 258.122 764.305 258.122C764.305 258.122 767.023 246.207 776.133 250.99C785.242 255.752 772.676 275.01 772.676 275.01C772.676 275.01 749.391 272.598 751.217 262.693Z" fill="#B32A00"/>
<path d="M780.111 393.419C779.285 387.748 786.35 388.679 786.35 388.679C786.35 388.679 785.633 381.758 791.438 382.753C797.243 383.748 793.982 396.34 793.982 396.34C793.982 396.34 780.937 399.091 780.111 393.419Z" fill="#B32A00"/>
<path d="M580.135 174.463C581.136 174.442 582.005 174.992 582.44 175.796L586.984 175.69C587.071 173.934 587.44 172.241 588.114 170.675L584.114 168.707C583.375 169.299 582.31 169.447 581.396 169.003C580.157 168.389 579.635 166.908 580.266 165.701C580.896 164.495 582.418 163.987 583.658 164.601C584.527 165.024 585.027 165.871 585.049 166.738L589.136 168.728C590.136 167.098 591.463 165.659 593.006 164.495L590.549 160.813C589.615 160.918 588.68 160.537 588.136 159.712C587.375 158.569 587.701 157.046 588.875 156.305C590.049 155.564 591.615 155.882 592.376 157.024C592.919 157.829 592.897 158.844 592.419 159.627L594.876 163.31C596.659 162.358 598.659 161.744 600.789 161.532L600.681 157.13C599.833 156.749 599.224 155.924 599.202 154.972C599.159 153.617 600.268 152.474 601.659 152.453C603.051 152.411 604.225 153.49 604.246 154.845C604.268 155.818 603.703 156.665 602.877 157.088L602.985 161.511C605.138 161.617 607.16 162.146 608.986 163.035L611.312 159.162C610.856 158.421 610.812 157.469 611.312 156.665C612.03 155.501 613.573 155.098 614.769 155.797C615.965 156.495 616.378 157.998 615.66 159.162C615.139 160.03 614.138 160.474 613.16 160.347L610.877 164.135C612.464 165.215 613.834 166.569 614.899 168.135L618.878 165.934C618.813 165.024 619.269 164.093 620.139 163.606C621.356 162.929 622.9 163.352 623.596 164.537C624.292 165.723 623.857 167.225 622.639 167.902C621.791 168.368 620.769 168.304 620.009 167.818L615.986 170.04C616.726 171.564 617.182 173.214 617.356 174.95L621.987 174.844C622.378 174.019 623.226 173.426 624.205 173.405C625.596 173.362 626.77 174.442 626.792 175.796C626.835 177.151 625.726 178.294 624.335 178.315C623.335 178.336 622.465 177.786 622.03 176.981L617.4 177.087C617.313 178.823 616.9 180.495 616.247 182.039L620.378 184.05C621.117 183.457 622.183 183.309 623.096 183.754C624.335 184.367 624.857 185.849 624.226 187.055C623.596 188.262 622.074 188.769 620.835 188.156C619.965 187.732 619.465 186.886 619.443 186.018L615.247 183.965C614.247 185.574 612.943 186.992 611.399 188.135L613.943 191.944C614.878 191.838 615.813 192.219 616.356 193.044C617.117 194.187 616.791 195.711 615.617 196.452C614.443 197.192 612.877 196.875 612.117 195.732C611.573 194.928 611.595 193.912 612.073 193.129L609.529 189.32C607.768 190.272 605.79 190.886 603.703 191.076L603.811 195.605C604.659 195.986 605.268 196.812 605.29 197.764C605.333 199.118 604.225 200.261 602.833 200.282C601.442 200.325 600.268 199.245 600.246 197.891C600.224 196.917 600.789 196.071 601.616 195.648L601.507 191.119C599.376 191.034 597.354 190.505 595.55 189.658L593.18 193.595C593.637 194.335 593.68 195.288 593.18 196.092C592.463 197.256 590.919 197.658 589.723 196.96C588.528 196.261 588.114 194.759 588.832 193.595C589.354 192.727 590.354 192.283 591.332 192.41L593.637 188.579C592.05 187.521 590.658 186.188 589.571 184.621L585.592 186.822C585.658 187.732 585.201 188.664 584.331 189.15C583.114 189.828 581.57 189.404 580.875 188.219C580.179 187.034 580.614 185.531 581.831 184.854C582.679 184.389 583.701 184.452 584.462 184.939L588.462 182.738C587.723 181.214 587.223 179.563 587.049 177.828L582.483 177.934C582.092 178.759 581.244 179.352 580.266 179.373C578.874 179.415 577.7 178.336 577.679 176.981C577.635 175.627 578.722 174.505 580.135 174.463Z" fill="#E6570B"/>
<path d="M599.073 176.473C599.03 174.802 600.378 173.384 602.117 173.341C603.835 173.299 605.291 174.611 605.335 176.304C605.378 177.976 604.03 179.394 602.291 179.436C600.552 179.479 599.138 178.145 599.073 176.473Z" fill="#FABE9E"/>
<path d="M599.813 167.437C599.77 166.294 600.705 165.341 601.879 165.32C603.053 165.278 604.031 166.188 604.053 167.331C604.097 168.474 603.162 169.426 601.988 169.447C600.835 169.468 599.857 168.579 599.813 167.437Z" fill="#FABE9E"/>
<path d="M600.356 185.404C600.313 184.262 601.248 183.309 602.422 183.288C603.596 183.246 604.574 184.156 604.596 185.299C604.64 186.441 603.705 187.394 602.531 187.415C601.357 187.436 600.378 186.526 600.356 185.404Z" fill="#FABE9E"/>
<path d="M611.379 174.04C612.553 173.997 613.531 174.907 613.553 176.05C613.597 177.193 612.662 178.145 611.488 178.166C610.314 178.209 609.335 177.299 609.313 176.156C609.27 175.013 610.205 174.061 611.379 174.04Z" fill="#FABE9E"/>
<path d="M592.922 174.548C594.096 174.505 595.074 175.415 595.096 176.558C595.14 177.701 594.205 178.653 593.031 178.674C591.857 178.717 590.878 177.807 590.856 176.664C590.835 175.542 591.748 174.59 592.922 174.548Z" fill="#FABE9E"/>
<path d="M610.508 180.791C611.378 181.553 611.465 182.865 610.682 183.711C609.899 184.558 608.551 184.642 607.682 183.881C606.812 183.119 606.725 181.807 607.508 180.96C608.291 180.092 609.639 180.029 610.508 180.791Z" fill="#FABE9E"/>
<path d="M596.727 168.833C597.597 169.595 597.684 170.907 596.901 171.754C596.118 172.6 594.77 172.685 593.9 171.923C593.031 171.161 592.944 169.849 593.727 169.003C594.509 168.156 595.857 168.093 596.727 168.833Z" fill="#FABE9E"/>
<path d="M597.247 184.198C596.421 185.002 595.073 185.023 594.247 184.219C593.42 183.415 593.399 182.103 594.225 181.299C595.051 180.494 596.399 180.473 597.225 181.277C598.051 182.082 598.051 183.394 597.247 184.198Z" fill="#FABE9E"/>
<path d="M610.204 171.415C609.377 172.22 608.029 172.241 607.203 171.437C606.377 170.632 606.355 169.32 607.181 168.516C608.008 167.712 609.356 167.691 610.182 168.495C611.008 169.299 611.03 170.611 610.204 171.415Z" fill="#FABE9E"/>
<path d="M61.0248 405.927C60.1987 400.255 67.2645 401.186 67.2645 401.186C67.2645 401.186 66.5471 394.266 72.3519 395.261C78.1568 396.255 74.8956 408.847 74.8956 408.847C74.8956 408.847 61.8727 411.599 61.0248 405.927Z" fill="#B32A00"/>
<mask id="mask2_197_3287" style="mask-type:luminance" maskUnits="userSpaceOnUse" x="0" y="0" width="870" height="566">
<path d="M-0.000671387 0.838623H869.641V565.202H-0.000671387V0.838623Z" fill="white"/>
</mask>
<g mask="url(#mask2_197_3287)">
<path d="M156.578 412.107C156.578 412.107 152.273 420.085 152.208 425.524C152.143 430.963 151.012 441.651 148.36 447.026C146.382 451.047 144.968 454.158 142.751 452.592C140.533 451.026 140.49 444.423 140.946 443.894C141.403 443.365 132.576 460.676 130.793 461.904C129.924 462.497 127.315 465.481 126.054 461.036C126.054 461.036 121.466 465.248 120.01 462.941C118.553 460.634 120.531 457.819 120.531 457.819C120.531 457.819 116.966 460.507 115.901 457.311C114.835 454.116 117.096 449.65 117.096 449.65C117.096 449.65 113.987 451.809 112.879 448.846C111.77 445.883 119.314 423.894 123.336 417.165C127.358 410.456 131.38 406.625 131.38 406.625L136.685 398.858L156.578 412.107Z" fill="#9E6741"/>
<path d="M133.466 444.465C133.292 444.465 133.14 444.55 133.075 444.698L125.66 460.825C125.573 461.036 125.66 461.29 125.878 461.375C126.095 461.46 126.356 461.375 126.443 461.163L133.857 445.037C133.944 444.825 133.857 444.571 133.64 444.487C133.575 444.487 133.531 444.465 133.466 444.465Z" fill="#30423C"/>
<path d="M128.64 442.899C128.487 442.899 128.335 442.963 128.248 443.111L120.116 457.608C120.008 457.798 120.073 458.052 120.29 458.158C120.486 458.285 120.747 458.2 120.856 457.989L128.987 443.492C129.096 443.301 129.031 443.047 128.813 442.941C128.77 442.92 128.705 442.92 128.64 442.899Z" fill="#30423C"/>
<path d="M123.315 439.386C123.163 439.386 123.01 439.45 122.945 439.577L116.727 449.396C116.596 449.587 116.661 449.841 116.857 449.968C117.075 450.074 117.314 450.031 117.444 449.82L123.663 440C123.793 439.809 123.728 439.555 123.532 439.428C123.445 439.407 123.38 439.386 123.315 439.386Z" fill="#30423C"/>
<path d="M139.794 446.603L140.077 446.074C140.077 446.031 140.794 445.227 142.055 440.952C142.121 440.677 141.968 440.381 141.686 440.296C141.403 440.211 141.099 440.381 141.012 440.656C139.816 444.74 139.794 446.603 139.794 446.603Z" fill="#30423C"/>
<path d="M136.663 398.858C136.663 398.858 176.666 343.22 183.145 335.432C187.689 329.971 191.428 328.617 191.428 328.617L199.451 338.035L207.93 366.774C207.93 366.774 167.035 397.821 156.577 412.106L136.663 398.858Z" fill="#9E6741"/>
<path d="M245.952 423.746C245.952 423.746 214.971 561.711 182.142 760.308L268.519 758.742L311.24 514.728L335.069 757.958H416.445C416.445 757.958 408.292 514.728 370.072 423.768H245.952V423.746Z" fill="#E7580C"/>
<path d="M181.687 760.688H182.144L268.847 759.101L268.89 758.805L311.133 517.606L334.701 758.339H416.816L416.795 757.958C416.708 755.525 408.207 513.627 370.399 423.641L370.291 423.408H245.584L245.519 423.704C245.214 425.08 214.168 563.954 181.709 760.265L181.687 760.688ZM268.195 758.36L182.6 759.927C214.32 568.229 244.649 431.429 246.258 424.127H369.812C406.75 512.463 415.621 746.467 416.034 757.556H335.418L311.351 511.85L310.872 514.643L268.195 758.36Z" fill="#30423C"/>
<path d="M245.953 423.746H370.073C373.638 432.212 376.921 442.01 379.965 452.783C333.243 433.503 246.192 423.789 245.953 423.746Z" fill="#CD4200"/>
<path d="M311.265 515.087C311.483 515.087 311.657 514.918 311.635 514.707L307.134 423.746C307.134 423.556 306.96 423.408 306.765 423.408H306.743C306.525 423.408 306.373 423.577 306.395 423.789L310.896 514.749C310.896 514.939 311.07 515.087 311.265 515.087Z" fill="#30423C"/>
<path d="M308.762 477.142C308.827 477.142 308.914 477.12 308.979 477.078C309.153 476.951 309.175 476.739 309.066 476.57L301.891 467.089L299.869 423.725C299.869 423.535 299.695 423.387 299.5 423.387C299.5 423.387 299.5 423.387 299.478 423.387C299.26 423.387 299.108 423.556 299.13 423.768L301.152 467.237C301.152 467.301 301.174 467.385 301.217 467.428L308.458 476.993C308.545 477.099 308.653 477.142 308.762 477.142Z" fill="#30423C"/>
<path d="M254.388 757.916L254.714 758.107L267.28 757.916L311.219 514.707C311.219 514.707 294.152 576.546 282.781 628.185C275.998 659.231 254.388 757.916 254.388 757.916Z" fill="#CD4200"/>
<path d="M190.189 328.278L257.695 297.719L243.694 364.172L202.038 371.79L190.189 328.278Z" fill="#FFE258"/>
<path d="M352.595 302.099C361.944 324.215 380.576 374.605 380.141 423.746H235.889L242.738 339.326C242.172 334.839 253.065 297.803 257.695 297.719L334.702 290.269C342.551 290.396 349.617 295.031 352.595 302.099Z" fill="#FFE258"/>
<path d="M321.223 291.539L269.696 296.406C272.458 306.205 279.502 321.929 296.612 320.956C321.223 319.559 319.049 303.814 321.223 291.539Z" fill="#FFB626"/>
<path d="M380.141 423.746C380.924 426.138 372.988 430.921 372.988 430.921L370.096 423.746H380.141Z" fill="#FF6D26"/>
<path d="M235.885 423.746C235.102 426.138 244.299 431.217 244.299 431.217L245.93 423.746H235.885Z" fill="#FF6D26"/>
<path d="M456.385 239.837C456.385 239.837 460.624 231.816 460.646 226.398C460.668 220.959 461.711 210.25 464.32 204.854C466.277 200.833 467.647 197.7 469.886 199.245C472.104 200.79 472.212 207.414 471.756 207.943C471.299 208.472 479.974 191.097 481.757 189.849C482.604 189.256 485.213 186.23 486.496 190.674C486.496 190.674 491.04 186.42 492.518 188.706C493.997 190.992 492.04 193.827 492.04 193.827C492.04 193.827 495.584 191.119 496.671 194.314C497.758 197.51 495.54 201.997 495.54 201.997C495.54 201.997 498.628 199.817 499.758 202.78C500.889 205.742 493.54 227.795 489.583 234.546C485.627 241.297 481.626 245.149 481.626 245.149L476.387 252.958L456.385 239.837Z" fill="#9E6741"/>
<path d="M479.213 207.287C479.387 207.287 479.54 207.203 479.605 207.033L486.889 190.843C486.976 190.632 486.889 190.378 486.671 190.293C486.454 190.209 486.193 190.293 486.106 190.505L478.822 206.695C478.735 206.906 478.822 207.16 479.039 207.245C479.105 207.266 479.148 207.266 479.213 207.287Z" fill="#30423C"/>
<path d="M484.04 208.79C484.192 208.79 484.344 208.726 484.431 208.578L492.433 194.018C492.541 193.827 492.476 193.573 492.259 193.468C492.063 193.341 491.802 193.425 491.693 193.637L483.692 208.197C483.583 208.388 483.649 208.642 483.866 208.748C483.91 208.79 483.975 208.79 484.04 208.79Z" fill="#30423C"/>
<path d="M489.409 212.282C489.561 212.282 489.713 212.218 489.778 212.07L495.91 202.187C496.04 201.997 495.975 201.743 495.757 201.616C495.54 201.51 495.301 201.552 495.17 201.764L489.039 211.647C488.909 211.837 488.974 212.091 489.191 212.218C489.256 212.261 489.343 212.282 489.409 212.282Z" fill="#30423C"/>
<path d="M472.863 205.192L472.581 205.742C472.581 205.785 471.863 206.61 470.646 210.885C470.58 211.16 470.732 211.457 471.037 211.52C471.32 211.605 471.624 211.435 471.711 211.16C472.863 207.076 472.863 205.192 472.863 205.192Z" fill="#30423C"/>
<path d="M405.422 285.592L341.33 291.539L368.658 347.876C368.658 347.876 426.62 327.961 425.12 326.945L414.141 314.289L405.422 285.592Z" fill="#FFE258"/>
<path d="M368.66 347.854L365.703 340.913L425.121 326.924L416.859 330.649C401.162 336.68 368.66 347.854 368.66 347.854Z" fill="#FFCC40"/>
<path d="M308.5 272.238C309.392 280.576 310.239 290.671 311.305 292.936C311.305 292.936 314.175 308.766 298.934 308.766C279.106 308.766 282.085 291.92 282.085 291.92C283.194 288.174 285.563 281.931 287.803 270.947L308.5 272.238Z" fill="#9E6741"/>
<path d="M308.415 272.217C308.458 272.428 308.48 272.598 308.61 273.042C309.176 278.079 310.285 286.311 311.328 292.914C292.674 285.655 288.326 275.73 287.543 272.217C287.63 271.772 287.739 271.412 287.826 270.947L288.957 270.989L308.415 272.217Z" fill="#764B2E"/>
<path d="M302.043 238.905C320.501 242.461 312.566 259.646 312.566 259.646C312.566 259.646 311.218 271.941 305.695 277.127C305.261 277.55 304.804 277.931 304.369 278.269C299.891 281.804 293.52 280.957 290.151 276.428C289.803 275.963 289.477 275.476 289.151 274.947C285.194 268.492 287.172 256.302 287.172 256.302C287.172 256.302 284.041 237.847 302.043 238.905Z" fill="#9E6741"/>
<path d="M312.588 259.37C312.588 259.37 314.175 258.884 314.523 259.519C314.892 260.153 315.045 262.651 313.718 264.217C312.392 265.783 311.066 266.799 311.066 266.799L312.588 259.37Z" fill="#9E6741"/>
<path d="M287.281 256.238C287.281 256.238 285.846 255.434 285.346 255.984C284.846 256.535 284.172 258.947 285.129 260.746C286.085 262.566 287.02 263.37 287.02 263.37L287.281 256.238Z" fill="#9E6741"/>
<path d="M295.651 259.413C295.586 260.323 295.172 261.021 294.738 260.979C294.325 260.937 294.042 260.196 294.107 259.286C294.172 258.376 294.585 257.677 295.02 257.72C295.433 257.741 295.716 258.503 295.651 259.413Z" fill="#2B3D37"/>
<path d="M305.959 260.746C305.894 261.593 305.502 262.249 305.111 262.206C304.719 262.185 304.458 261.466 304.524 260.619C304.589 259.772 304.98 259.116 305.372 259.159C305.763 259.201 306.024 259.899 305.959 260.746Z" fill="#2B3D37"/>
<path d="M298.087 257.064C298.13 257.064 298.152 257.064 298.196 257.042C298.326 257 298.391 256.831 298.326 256.704C297.826 255.603 297.174 254.99 296.347 254.841C296.217 254.82 296.108 254.82 296 254.82C294.782 254.82 293.738 255.836 293.695 255.878C293.586 255.984 293.586 256.154 293.695 256.238C293.803 256.344 293.977 256.344 294.064 256.238C294.086 256.238 294.999 255.328 295.978 255.328C296.065 255.328 296.152 255.328 296.239 255.349C296.869 255.455 297.413 255.984 297.826 256.894C297.891 257 297.978 257.064 298.087 257.064Z" fill="#2B3D37"/>
<path d="M296.957 269.211C297.892 269.211 298.718 268.767 298.783 268.746C298.914 268.682 298.957 268.513 298.892 268.386C298.827 268.238 298.653 268.217 298.522 268.28C298.501 268.28 297.152 268.979 296.174 268.513C295.609 268.217 295.239 267.582 295.109 266.566C295.087 266.418 294.935 266.354 294.804 266.333C294.652 266.354 294.543 266.481 294.565 266.629C294.717 267.815 295.174 268.598 295.913 268.979C296.261 269.169 296.609 269.211 296.957 269.211Z" fill="#2B3D37"/>
<path d="M307.63 258.291C307.673 258.291 307.695 258.291 307.738 258.27C307.869 258.206 307.934 258.058 307.869 257.931C307.369 256.852 306.717 256.217 305.89 256.09C305.76 256.069 305.651 256.048 305.521 256.048C304.303 256.048 303.259 257.064 303.216 257.106C303.107 257.212 303.107 257.381 303.216 257.466C303.325 257.571 303.499 257.571 303.586 257.466C303.607 257.466 304.521 256.577 305.499 256.577C305.586 256.577 305.673 256.577 305.782 256.598C306.412 256.725 306.956 257.233 307.369 258.143C307.434 258.249 307.521 258.291 307.63 258.291Z" fill="#2B3D37"/>
<path d="M305.914 267.476C306.871 267.243 307.479 266.566 307.284 265.973C307.066 265.381 306.131 265.106 305.175 265.339C304.218 265.571 303.609 266.249 303.805 266.841C304.001 267.434 304.936 267.709 305.914 267.476Z" fill="#B57B54"/>
<path d="M293.063 265.762C292.628 266.227 291.649 266.122 290.867 265.529C290.084 264.936 289.801 264.09 290.214 263.624C290.649 263.159 291.628 263.265 292.41 263.857C293.193 264.45 293.498 265.296 293.063 265.762Z" fill="#B57B54"/>
<path d="M302.044 238.905C317.958 241.974 314.241 255.159 312.914 258.736L312.371 259.582C312.371 259.582 308.24 253.826 310.436 248.789C310.958 247.582 308.131 250.82 302.848 249.402C297.565 247.985 294.13 245.424 294.13 245.424C294.13 245.424 292.478 255.011 287.151 256.281C287.151 256.302 284.042 237.847 302.044 238.905Z" fill="#2B3D37"/>
<path d="M241.582 353.505L240.625 365.251L202.035 371.79L241.582 353.505Z" fill="#FFCC40"/>
<path d="M476.41 252.916C476.41 252.916 436.885 308.871 430.471 316.723C425.971 322.204 422.253 323.601 422.253 323.601L414.144 314.247L405.426 285.592C405.426 285.592 446.038 254.206 456.387 239.837L476.41 252.916Z" fill="#9E6741"/>
<path d="M603.049 411.683C603.049 411.683 625.008 450.793 647.466 546.769C657.576 589.942 666.555 660.713 675.816 716.669L626.877 730.002L594.266 596.524L553.393 494.305L534.674 575.043L507.062 715.251H463.233C463.233 715.251 459.624 659.02 463.233 581.117C463.233 581.117 470.777 449.841 490.278 411.683H603.049Z" fill="#E9BD9A"/>
<path d="M648.641 552.018L592.744 592.651L585.352 574.155L648.641 552.018Z" fill="#CE926A"/>
<path d="M464.322 565.329L465.778 547.298C465.778 547.235 465.8 547.171 465.8 547.108L523.675 548.822L537.176 564.292L534.676 575.043L530.11 598.239L464.3 565.435C464.322 565.414 464.322 565.372 464.322 565.329Z" fill="#9D4F5B"/>
<path d="M612.401 397.271C613.118 399.43 611.618 408.34 603.052 411.662C596.855 414.075 600.442 402.393 600.442 402.393L612.401 397.271Z" fill="#9B0C00"/>
<path d="M490.302 411.683H603.051C603.051 411.683 637.141 451.132 659.599 547.108C659.991 548.801 648.642 552.018 648.642 552.018L576.31 577.329L553.395 494.326L544.742 579.445L452.038 563.34C454.908 526.156 475.214 441.143 490.302 411.683Z" fill="#F0A000"/>
<g opacity="0.49">
<path d="M479.888 438.01C483.454 427.323 486.998 418.117 490.302 411.683H592.746C574.745 414.075 508.478 423.662 479.888 438.01Z" fill="#8E4F00"/>
</g>
<path d="M663.621 330.141L592.376 297.189L605.116 357.547L642.924 369.737L663.621 330.141Z" fill="#E9BD9A"/>
<path d="M607.528 352.955L638.422 368.277L598.462 355.6L607.528 352.955Z" fill="#CE926A"/>
<path d="M493.933 396.805L490.28 411.683H603.051C603.051 411.683 599.398 405.842 600.964 397.313L493.933 396.805Z" fill="#E9BD9A"/>
<path d="M493.932 396.805L600.964 397.292C599.833 403.493 601.442 408.234 602.398 410.371C600.616 411.048 598.507 411.556 595.746 411.662H586.354C558.503 410.9 509.26 404.403 492.606 402.139L493.932 396.805Z" fill="#CE926A"/>
<path d="M411.385 243.731L458.215 292.089L516.438 291.581L491.609 342.754C491.609 342.754 436.735 326.839 435.496 325.76C414.081 307.221 393.753 256.513 393.753 256.513L411.385 243.731Z" fill="#E9BD9A"/>
<path d="M492.957 335.728L442.126 328.046L491.587 342.733L492.957 335.728Z" fill="#CE926A"/>
<path d="M508.089 290.629C499.61 310.734 479.869 352.976 480.26 397.61C480.26 397.61 542.766 400.319 563.442 402.837C603.706 407.726 612.402 397.292 612.402 397.292L608.119 358.521C603.075 307.221 596.618 297.274 592.401 297.189L522.438 290.417C515.307 290.544 508.089 290.629 508.089 290.629Z" fill="#FF833B"/>
<path d="M556.33 319.496C529.675 319.496 531.61 291.306 531.61 291.306L582.18 296.195C581.788 306.12 569.766 319.496 556.33 319.496Z" fill="#E9BD9A"/>
<path d="M480.303 397.61C479.585 399.768 491.544 406.604 491.544 406.604L493.609 398.223L480.303 397.61Z" fill="#9B0C00"/>
<path d="M411.906 244.598C411.906 244.598 408.058 237.318 408.036 232.387C408.015 227.456 407.08 217.721 404.71 212.832C402.949 209.171 401.688 206.335 399.666 207.753C397.644 209.171 397.535 215.16 397.97 215.647C398.383 216.134 390.513 200.346 388.882 199.203C388.1 198.653 385.752 195.923 384.578 199.944C384.578 199.944 380.447 196.092 379.099 198.166C377.751 200.24 379.534 202.822 379.534 202.822C379.534 202.822 376.316 200.346 375.316 203.266C374.338 206.166 376.36 210.25 376.36 210.25C376.36 210.25 373.555 208.282 372.533 210.949C371.511 213.636 378.186 233.657 381.773 239.794C385.382 245.932 388.991 249.424 388.991 249.424L393.752 256.513L411.906 244.598Z" fill="#E9BD9A"/>
<path d="M391.164 215.033C391.011 215.033 390.859 214.948 390.794 214.8L384.184 200.092C384.097 199.901 384.184 199.669 384.38 199.584C384.576 199.52 384.815 199.584 384.88 199.774L391.49 214.483C391.577 214.673 391.49 214.906 391.294 214.991C391.272 215.012 391.207 215.033 391.164 215.033Z" fill="#30423C"/>
<path d="M386.774 216.409C386.644 216.409 386.492 216.345 386.426 216.218L379.164 202.991C379.056 202.801 379.143 202.589 379.317 202.483C379.491 202.378 379.73 202.441 379.838 202.631L387.1 215.859C387.209 216.049 387.122 216.261 386.948 216.367C386.905 216.388 386.84 216.409 386.774 216.409Z" fill="#30423C"/>
<path d="M381.904 219.583C381.774 219.583 381.643 219.52 381.556 219.393L375.99 210.42C375.881 210.25 375.947 210.018 376.121 209.912C376.316 209.806 376.555 209.848 376.642 210.039L382.209 219.012C382.317 219.181 382.252 219.414 382.078 219.52C382.035 219.562 381.969 219.562 381.904 219.583Z" fill="#30423C"/>
<path d="M396.925 213.128L397.164 213.615C397.164 213.658 397.816 214.398 398.925 218.292C398.969 218.546 398.838 218.821 398.578 218.885C398.317 218.948 398.056 218.8 397.969 218.546C396.925 214.843 396.925 213.128 396.925 213.128Z" fill="#30423C"/>
<path d="M624.75 410.562C624.75 410.562 620.227 417.461 615.836 419.958C611.466 422.455 603.291 428.127 600.139 432.593C597.769 435.915 595.878 438.413 598.16 439.407C600.421 440.402 605.813 437.46 606.031 436.868C606.248 436.275 596.182 450.835 596.008 452.783C595.921 453.714 594.682 457.057 598.834 456.042C598.834 456.042 597.486 461.459 600.008 461.544C602.53 461.629 603.922 458.856 603.922 458.856C603.922 458.856 603.356 462.814 606.422 462.179C609.487 461.544 612.096 457.798 612.096 457.798C612.096 457.798 611.748 461.163 614.64 460.676C617.532 460.19 631.968 444.508 635.62 438.391C639.251 432.275 640.555 427.471 640.555 427.471L644.469 419.916L624.75 410.562Z" fill="#E9BD9A"/>
<path d="M608.898 442.878C608.985 443.005 608.985 443.174 608.876 443.301L599.136 456.253C599.005 456.423 598.766 456.465 598.592 456.338C598.418 456.211 598.375 455.978 598.505 455.809L608.246 442.857C608.376 442.688 608.616 442.645 608.789 442.772C608.855 442.815 608.876 442.836 608.898 442.878Z" fill="#30423C"/>
<path d="M612.333 445.883C612.398 445.989 612.42 446.158 612.333 446.285L604.245 459.047C604.136 459.216 603.897 459.28 603.723 459.174C603.528 459.068 603.484 458.835 603.593 458.666L611.681 445.904C611.79 445.735 612.029 445.672 612.203 445.777C612.268 445.799 612.312 445.841 612.333 445.883Z" fill="#30423C"/>
<path d="M617.595 448.402C617.66 448.508 617.682 448.656 617.595 448.783L612.42 457.989C612.333 458.179 612.094 458.243 611.898 458.137C611.724 458.031 611.638 457.819 611.746 457.629L616.921 448.423C617.008 448.232 617.247 448.169 617.443 448.275C617.53 448.296 617.573 448.338 617.595 448.402Z" fill="#30423C"/>
<path d="M604.332 438.984L604.636 438.518C604.658 438.497 605.006 437.587 607.919 434.688C608.115 434.519 608.419 434.497 608.615 434.688C608.811 434.878 608.811 435.175 608.615 435.365C605.832 438.138 604.332 438.984 604.332 438.984Z" fill="#30423C"/>
<path d="M551.415 238.779C551.415 238.779 562.568 237.001 574.504 251.667C587.396 267.476 608.094 277.423 608.094 277.423C608.094 277.423 595.114 287.264 587.092 289.042L582.026 286.185L582.048 290.036C582.048 290.036 570.525 297.867 547.023 292.809C530.37 289.211 537.675 271.095 537.675 271.095C537.675 271.095 522.891 242.44 551.415 238.779Z" fill="#2B3D37"/>
<path d="M546.218 274.037C545.414 281.613 544.631 290.798 543.674 292.83C543.674 292.83 541.065 307.2 554.914 307.2C572.916 307.2 570.22 291.899 570.22 291.899C569.198 288.491 567.068 282.82 565.024 272.83L546.218 274.037Z" fill="#E9BD9A"/>
<path d="M546.307 274.016C546.264 274.206 546.242 274.354 546.134 274.778C545.633 279.349 544.612 286.841 543.655 292.83C560.613 286.227 564.548 277.211 565.266 274.016C565.179 273.592 565.092 273.296 565.005 272.873L563.983 272.915L546.307 274.016Z" fill="#CE926A"/>
<path d="M552.109 243.752C535.347 246.99 542.565 262.587 542.565 262.587C542.565 262.587 543.782 273.74 548.805 278.46C549.218 278.841 549.609 279.179 550.022 279.497C554.088 282.693 559.871 281.931 562.936 277.825C563.241 277.402 563.545 276.957 563.849 276.471C567.437 270.608 565.632 259.519 565.632 259.519C565.632 259.519 568.437 242.778 552.109 243.752Z" fill="#E9BD9A"/>
<path d="M565.505 259.498C565.505 259.498 566.809 258.778 567.266 259.265C567.722 259.752 568.331 261.953 567.462 263.603C566.592 265.254 565.744 265.995 565.744 265.995L565.505 259.498Z" fill="#E9BD9A"/>
<path d="M556.895 261.593C556.96 262.418 557.33 263.053 557.721 263.032C558.112 263.011 558.351 262.312 558.286 261.487C558.221 260.662 557.851 260.027 557.46 260.048C557.09 260.069 556.829 260.767 556.895 261.593Z" fill="#2B3D37"/>
<path d="M548.543 262.249C548.608 263.011 548.957 263.603 549.305 263.582C549.675 263.561 549.914 262.905 549.849 262.143C549.783 261.381 549.435 260.789 549.087 260.81C548.717 260.831 548.478 261.487 548.543 262.249Z" fill="#2B3D37"/>
<path d="M555.676 260.238C555.763 260.238 555.872 260.175 555.894 260.09C556.263 259.265 556.763 258.778 557.329 258.693C558.351 258.503 559.307 259.498 559.329 259.498C559.416 259.582 559.568 259.582 559.677 259.498C559.764 259.413 559.764 259.265 559.677 259.159C559.633 259.117 558.699 258.185 557.59 258.185C557.481 258.185 557.372 258.185 557.264 258.207C556.524 258.334 555.915 258.905 555.459 259.9C555.415 260.027 555.459 260.154 555.589 260.217C555.611 260.238 555.655 260.238 555.676 260.238Z" fill="#2B3D37"/>
<path d="M547.022 261.381C547.109 261.381 547.196 261.339 547.24 261.233C547.631 260.408 548.109 259.942 548.675 259.836C549.675 259.688 550.653 260.619 550.653 260.64C550.74 260.725 550.892 260.725 551.001 260.64C551.088 260.556 551.088 260.408 551.001 260.302C550.958 260.259 550.023 259.349 548.914 259.349C548.805 259.349 548.696 259.371 548.588 259.392C547.849 259.519 547.24 260.09 546.783 261.064C546.718 261.169 546.783 261.318 546.914 261.381C546.957 261.36 546.979 261.381 547.022 261.381Z" fill="#2B3D37"/>
<path d="M547.239 269.952C546.37 269.741 545.804 269.127 546 268.577C546.196 268.048 547.044 267.772 547.913 268.005C548.783 268.217 549.348 268.831 549.153 269.381C548.979 269.91 548.109 270.185 547.239 269.952Z" fill="#FCD6BE"/>
<path d="M559.676 266.249C560.068 266.672 560.959 266.587 561.676 266.037C562.394 265.508 562.655 264.725 562.264 264.302C561.872 263.878 560.981 263.963 560.263 264.513C559.567 265.064 559.285 265.825 559.676 266.249Z" fill="#FCD6BE"/>
<path d="M552.784 269.317L556.285 269C556.285 269 556.611 270.354 555.285 270.968C553.98 271.603 552.784 269.317 552.784 269.317Z" fill="white"/>
<path d="M541.003 258.439C541.003 258.439 554.156 254.524 559.504 253L560.678 248.62C560.678 248.62 561.331 258.926 565.505 259.497C565.505 259.497 570.353 251.053 564.048 244.387C559.874 239.943 537.676 237.763 541.003 258.439Z" fill="#2B3D37"/>
<path d="M553.414 494.665C553.609 494.665 553.762 494.517 553.762 494.326V411.705C553.762 411.514 553.609 411.366 553.414 411.366C553.218 411.366 553.065 411.514 553.065 411.705V494.326C553.044 494.496 553.218 494.665 553.414 494.665Z" fill="#30423C"/>
<path d="M553.413 456.042C553.434 456.042 553.478 456.042 553.5 456.021L559.827 454.518C560.001 454.476 560.109 454.349 560.109 454.18L560.022 411.683C560.022 411.493 559.87 411.345 559.675 411.345C559.479 411.345 559.327 411.493 559.327 411.683L559.414 453.904L553.369 455.365C553.173 455.407 553.065 455.597 553.108 455.788C553.086 455.936 553.239 456.042 553.413 456.042Z" fill="#30423C"/>
<path d="M463.645 574.726L452.078 563.319L464.297 565.457L463.645 574.726Z" fill="#783D00"/>
<path d="M659.598 547.108C659.598 547.108 656.532 559.425 650.792 562.113L648.639 552.018L659.598 547.108Z" fill="#783D00"/>
<path d="M546.543 562.303C546.717 562.303 546.869 562.176 546.891 562.007C546.934 561.816 546.782 561.647 546.587 561.605L453.796 548.039C453.6 547.976 453.405 548.145 453.383 548.335C453.339 548.526 453.491 548.695 453.687 548.737L546.478 562.303C546.5 562.303 546.521 562.303 546.543 562.303Z" fill="#30423C"/>
<path d="M572.458 563.679C572.501 563.679 572.545 563.679 572.566 563.658L656.574 534.643C656.769 534.579 656.856 534.389 656.791 534.198C656.726 534.008 656.487 533.923 656.335 533.987L572.349 563.002C572.153 563.065 572.066 563.255 572.132 563.446C572.175 563.594 572.305 563.679 572.458 563.679Z" fill="#30423C"/>
<path d="M553.413 473.375L576.328 577.308L553.413 494.305V473.375Z" fill="#C07800"/>
<path d="M624.749 410.562L644.446 419.895C644.446 419.895 701.473 348.934 688.124 341.294C674.775 333.633 663.622 330.141 663.622 330.141L638.402 368.277L624.749 410.562Z" fill="#E9BD9A"/>
</g>
</svg>
