<svg width="34" height="34" viewBox="0 0 34 34" fill="none" xmlns="http://www.w3.org/2000/svg">
<path d="M11.2939 3.84692C7.12205 3.84692 3.72852 7.2436 3.72852 11.4165V22.2272C3.72852 26.3991 7.12519 29.7926 11.2981 29.7926H22.1088C26.2807 29.7926 29.6742 26.3959 29.6742 22.223V11.4123C29.6742 7.24045 26.2775 3.84692 22.1046 3.84692H11.2939ZM24.2688 8.1712C24.8656 8.1712 25.3499 8.65552 25.3499 9.25227C25.3499 9.84902 24.8656 10.3333 24.2688 10.3333C23.6721 10.3333 23.1878 9.84902 23.1878 9.25227C23.1878 8.65552 23.6721 8.1712 24.2688 8.1712ZM16.7014 10.3333C20.2786 10.3333 23.1878 13.2425 23.1878 16.8198C23.1878 20.397 20.2786 23.3062 16.7014 23.3062C13.1241 23.3062 10.2149 20.397 10.2149 16.8198C10.2149 13.2425 13.1241 10.3333 16.7014 10.3333ZM16.7014 12.4955C15.5545 12.4955 14.4546 12.9511 13.6436 13.762C12.8327 14.573 12.3771 15.6729 12.3771 16.8198C12.3771 17.9666 12.8327 19.0665 13.6436 19.8775C14.4546 20.6885 15.5545 21.144 16.7014 21.144C17.8482 21.144 18.9481 20.6885 19.7591 19.8775C20.57 19.0665 21.0256 17.9666 21.0256 16.8198C21.0256 15.6729 20.57 14.573 19.7591 13.762C18.9481 12.9511 17.8482 12.4955 16.7014 12.4955Z" fill="#FFDD99"/>
</svg>
