<svg width="32" height="32" viewBox="0 0 32 32" fill="none" xmlns="http://www.w3.org/2000/svg">
<path d="M10.5254 3.3335C6.55925 3.3335 3.33301 6.56273 3.33301 10.5299V20.8077C3.33301 24.7739 6.56224 28.0002 10.5295 28.0002H20.8072C24.7734 28.0002 27.9997 24.7709 27.9997 20.8037V10.5259C27.9997 6.55974 24.7704 3.3335 20.8032 3.3335H10.5254ZM22.8608 7.44461C23.4281 7.44461 23.8886 7.90505 23.8886 8.47238C23.8886 9.03972 23.4281 9.50016 22.8608 9.50016C22.2935 9.50016 21.833 9.03972 21.833 8.47238C21.833 7.90505 22.2935 7.44461 22.8608 7.44461ZM15.6663 9.50016C19.0673 9.50016 21.833 12.2659 21.833 15.6668C21.833 19.0677 19.0673 21.8335 15.6663 21.8335C12.2654 21.8335 9.49967 19.0677 9.49967 15.6668C9.49967 12.2659 12.2654 9.50016 15.6663 9.50016ZM15.6663 11.5557C14.576 11.5557 13.5303 11.9889 12.7593 12.7598C11.9884 13.5308 11.5552 14.5765 11.5552 15.6668C11.5552 16.7572 11.9884 17.8028 12.7593 18.5738C13.5303 19.3448 14.576 19.7779 15.6663 19.7779C16.7567 19.7779 17.8024 19.3448 18.5733 18.5738C19.3443 17.8028 19.7775 16.7572 19.7775 15.6668C19.7775 14.5765 19.3443 13.5308 18.5733 12.7598C17.8024 11.9889 16.7567 11.5557 15.6663 11.5557Z" fill="white"/>
</svg>
