<svg width="161" height="60" viewBox="0 0 161 60" fill="none" xmlns="http://www.w3.org/2000/svg">
<g clip-path="url(#clip0_131_3288)">
<path d="M15 15C15 11.0218 16.5804 7.20644 19.3934 4.3934C22.2064 1.58035 26.0218 0 30 0C33.9782 0 37.7936 1.58035 40.6066 4.3934C43.4196 7.20644 45 11.0218 45 15H15ZM15 45C15 41.0218 16.5804 37.2064 19.3934 34.3934C22.2064 31.5804 26.0218 30 30 30C26.0218 30 22.2064 28.4196 19.3934 25.6066C16.5804 22.7936 15 18.9782 15 15C11.0218 15 7.20644 16.5804 4.3934 19.3934C1.58035 22.2064 0 26.0218 0 30C0 33.9782 1.58035 37.7936 4.3934 40.6066C7.20644 43.4196 11.0218 45 15 45ZM15 45C15 48.9782 16.5804 52.7936 19.3934 55.6066C22.2064 58.4196 26.0218 60 30 60C33.9782 60 37.7936 58.4196 40.6066 55.6066C43.4196 52.7936 45 48.9782 45 45H15ZM30 30C33.9782 30 37.7936 31.5804 40.6066 34.3934C43.4196 37.2064 45 41.0218 45 45C46.9698 45 48.9204 44.612 50.7403 43.8582C52.5601 43.1044 54.2137 41.9995 55.6066 40.6066C56.9995 39.2137 58.1044 37.5601 58.8582 35.7403C59.612 33.9204 60 31.9698 60 30C60 28.0302 59.612 26.0796 58.8582 24.2597C58.1044 22.4399 56.9995 20.7863 55.6066 19.3934C54.2137 18.0005 52.5601 16.8956 50.7403 16.1418C48.9204 15.388 46.9698 15 45 15C45 18.9782 43.4196 22.7936 40.6066 25.6066C37.7936 28.4196 33.9782 30 30 30Z" fill="#C4D4CF"/>
<path d="M97.8097 15.0002H107.103V44.9965H100.214V24.8225L91.4029 44.9965L82.1281 24.7971V44.9965H75.7031V15.0002H84.8873L91.5117 30.5259L97.8097 15.0002ZM131.617 23.8616C131.617 17.9334 127.059 14.5034 121.613 14.5034C116.167 14.5034 110.326 17.6651 110.326 23.8073C110.326 29.1336 116.189 31.8711 119.536 32.734C121.374 33.2199 126.011 33.7384 126.011 37.0524C126.011 40.2032 122.77 41.0625 120.344 41.0625C117.219 41.0625 115.384 38.887 115.652 35.5622H109.499C109.285 43.0241 114.358 45.8051 120.283 45.9429C127.132 46.0988 132.36 43.1727 132.36 36.5774C132.36 29.982 126.428 28.9015 121.791 27.3968C120.014 26.7986 116.678 26.2801 116.678 23.2054C116.678 20.6419 118.89 19.4164 121.153 19.4164C124.053 19.4164 125.573 20.8667 125.79 23.8471H131.617M144.579 14.953H135.018V44.9204H144.576C152.52 44.9204 160.583 40.3301 160.583 29.9639C160.583 19.5977 152.52 14.9675 144.576 14.9675L144.579 14.953ZM144.148 39.4672H141.501V20.4751H144.148C151.432 20.4751 154.061 25.225 154.061 29.9784C154.061 34.7318 151.428 39.4817 144.144 39.4817L144.148 39.4672Z" fill="#C4D4CF"/>
</g>
<defs>
<clipPath id="clip0_131_3288">
<rect width="160.584" height="60" fill="white"/>
</clipPath>
</defs>
</svg>
