<svg width="56" height="56" viewBox="0 0 56 56" fill="none" xmlns="http://www.w3.org/2000/svg">
<circle cx="28" cy="28" r="21" fill="#D9D9D9" fill-opacity="0.5"/>
<mask id="mask0_131_2379" style="mask-type:alpha" maskUnits="userSpaceOnUse" x="0" y="0" width="56" height="56">
<rect width="56" height="56" fill="#D9D9D9"/>
</mask>
<g mask="url(#mask0_131_2379)">
<path d="M22.341 21.2915V34.7082C22.341 35.4082 22.6424 35.9332 23.2452 36.2832C23.848 36.6332 24.441 36.6137 25.0244 36.2248L35.5827 29.4582C36.1271 29.1082 36.3994 28.6221 36.3994 27.9998C36.3994 27.3776 36.1271 26.8915 35.5827 26.5415L25.0244 19.7748C24.441 19.386 23.848 19.3665 23.2452 19.7165C22.6424 20.0665 22.341 20.5915 22.341 21.2915ZM27.9994 51.3332C24.8105 51.3332 21.7966 50.7207 18.9577 49.4957C16.1188 48.2707 13.6396 46.5984 11.5202 44.479C9.40074 42.3596 7.72852 39.8804 6.50352 37.0415C5.27852 34.2026 4.66602 31.1887 4.66602 27.9998C4.66602 24.8109 5.27852 21.7971 6.50352 18.9582C7.72852 16.1193 9.40074 13.6401 11.5202 11.5207C13.6396 9.40123 16.1188 7.729 18.9577 6.504C21.7966 5.279 24.8105 4.6665 27.9994 4.6665C31.1882 4.6665 34.2021 5.279 37.041 6.504C39.8799 7.729 42.3591 9.40123 44.4785 11.5207C46.598 13.6401 48.2702 16.1193 49.4952 18.9582C50.7202 21.7971 51.3327 24.8109 51.3327 27.9998C51.3327 31.1887 50.7202 34.2026 49.4952 37.0415C48.2702 39.8804 46.598 42.3596 44.4785 44.479C42.3591 46.5984 39.8799 48.2707 37.041 49.4957C34.2021 50.7207 31.1882 51.3332 27.9994 51.3332ZM27.9994 47.8332C33.4438 47.8332 38.1105 45.8887 41.9994 41.9998C45.8882 38.111 47.8327 33.4443 47.8327 27.9998C47.8327 22.5554 45.8882 17.8887 41.9994 13.9998C38.1105 10.1109 33.4438 8.1665 27.9994 8.1665C22.5549 8.1665 17.8882 10.1109 13.9993 13.9998C10.1105 17.8887 8.16602 22.5554 8.16602 27.9998C8.16602 33.4443 10.1105 38.111 13.9993 41.9998C17.8882 45.8887 22.5549 47.8332 27.9994 47.8332Z" fill="white"/>
</g>
</svg>
