<svg width="44" height="44" viewBox="0 0 44 44" fill="none" xmlns="http://www.w3.org/2000/svg">
<path d="M25.0476 31.6897L17.2381 39.5179C15.4286 41.3317 12.9524 42 10.5714 42C8.38095 42 6.28571 41.1408 4.66667 39.5179C2.95238 37.7995 2 35.6993 2 33.4081C2 31.0215 2.7619 28.6348 4.66667 26.821L15.8095 15.6516L28.4762 28.3484L39.619 17.179C41.4286 15.3652 42 12.9785 42 10.5919C42 8.39618 41.2381 6.20048 39.619 4.4821C37.9048 2.76373 35.7143 2 33.4286 2C31.1429 2 28.6667 2.76373 26.9524 4.4821L19.1429 12.5012" stroke="#E6570B" stroke-width="2" stroke-miterlimit="10" stroke-linecap="round" stroke-linejoin="round"/>
<path d="M34 35L38 37" stroke="#E6570B" stroke-width="2" stroke-miterlimit="10" stroke-linecap="round" stroke-linejoin="round"/>
<path d="M36 42C39.3137 42 42 39.3137 42 36C42 32.6863 39.3137 30 36 30C32.6863 30 30 32.6863 30 36C30 39.3137 32.6863 42 36 42Z" stroke="#E6570B" stroke-width="2" stroke-miterlimit="10" stroke-linecap="round" stroke-linejoin="round"/>
</svg>
