<svg width="44" height="44" viewBox="0 0 44 44" fill="none" xmlns="http://www.w3.org/2000/svg">
<path d="M2 28.087V2" stroke="#E6570B" stroke-width="2" stroke-miterlimit="10" stroke-linecap="round" stroke-linejoin="round"/>
<path d="M26.3477 2V28.087" stroke="#E6570B" stroke-width="2" stroke-miterlimit="10" stroke-linecap="round" stroke-linejoin="round"/>
<path d="M2 2L4.43478 3.73913L6.86956 2L9.30435 3.73913L11.7391 2L14.1739 3.73913L16.6087 2L19.0435 3.73913L21.4783 2L23.913 3.73913L26.3478 2" stroke="#E6570B" stroke-width="2" stroke-miterlimit="10" stroke-linecap="round" stroke-linejoin="round"/>
<path d="M2 28.0868L4.43478 26.3477L6.86956 28.0868L9.30435 26.3477L11.7391 28.0868L14.1739 26.3477L16.6087 28.0868L19.0435 26.3477L21.4783 28.0868L23.913 26.3477L26.3478 28.0868" stroke="#E6570B" stroke-width="2" stroke-miterlimit="10" stroke-linecap="round" stroke-linejoin="round"/>
<path d="M14.1743 22C18.0163 22 21.1308 18.8854 21.1308 15.0434C21.1308 11.2015 18.0163 8.08691 14.1743 8.08691C10.3323 8.08691 7.21777 11.2015 7.21777 15.0434C7.21777 18.8854 10.3323 22 14.1743 22Z" stroke="#E6570B" stroke-width="2" stroke-miterlimit="10" stroke-linecap="round" stroke-linejoin="round"/>
<path d="M10.6953 15.0437C10.6953 13.1306 12.2605 11.5654 14.1736 11.5654" stroke="#E6570B" stroke-width="2" stroke-miterlimit="10" stroke-linecap="round" stroke-linejoin="round"/>
<path d="M11.7393 35.7393L12.7831 31.7393" stroke="#E6570B" stroke-width="2" stroke-miterlimit="10" stroke-linecap="round" stroke-linejoin="round"/>
<path d="M42.0003 16.7822L35.3047 41.9996" stroke="#E6570B" stroke-width="2" stroke-miterlimit="10" stroke-linecap="round" stroke-linejoin="round"/>
<path d="M30.2607 15.1303L32.6086 14.2607L34.5216 16.6086L37.3042 15.5651L39.2173 17.826L41.9999 16.7825" stroke="#E6570B" stroke-width="2" stroke-miterlimit="10" stroke-linecap="round" stroke-linejoin="round"/>
<path d="M11.7393 35.7388L14.5219 34.6084L16.4349 36.9562L19.2175 35.9127L21.1306 38.2606L23.9132 37.1301L25.8262 39.4779L28.6088 38.4345L30.5219 40.7823L33.3914 39.6519L35.3045 41.9997" stroke="#E6570B" stroke-width="2" stroke-miterlimit="10" stroke-linecap="round" stroke-linejoin="round"/>
<path d="M29.8259 19.9131C32.8694 21.3044 34.5216 24.6957 33.652 28.0001C32.6955 31.7392 28.8694 33.9131 25.1303 32.9566C24.0868 32.6957 23.1303 32.174 22.3477 31.4783" stroke="#E6570B" stroke-width="2" stroke-miterlimit="10" stroke-linecap="round" stroke-linejoin="round"/>
</svg>
