<svg width="44" height="44" viewBox="0 0 44 44" fill="none" xmlns="http://www.w3.org/2000/svg">
<path d="M39.9561 8.1543V37.8979C39.9561 40.1543 38.1165 42.0005 35.8682 42.0005C33.6198 42.0005 31.7803 40.1543 31.7803 37.8979V8.1543" stroke="#E6570B" stroke-width="2" stroke-miterlimit="10" stroke-linecap="round" stroke-linejoin="round"/>
<path d="M39.957 8.15384C41.0812 8.15384 42.001 7.23077 42.001 6.10256V4.05128C42.001 2.92307 41.0812 2 39.957 2H31.7813C30.6571 2 29.7373 2.92307 29.7373 4.05128V6.10256C29.7373 7.23077 30.6571 8.15384 31.7813 8.15384H34.8472" stroke="#E6570B" stroke-width="2" stroke-miterlimit="10" stroke-linecap="round" stroke-linejoin="round"/>
<path d="M22.583 8.1543V37.8979C22.583 40.1543 20.7435 42.0005 18.4951 42.0005C16.2468 42.0005 14.4072 40.1543 14.4072 37.8979V35.1519M14.4072 8.1543V14.4795" stroke="#E6570B" stroke-width="2" stroke-miterlimit="10" stroke-linecap="round" stroke-linejoin="round"/>
<path d="M22.583 8.15384C23.7072 8.15384 24.627 7.23077 24.627 6.10256V4.05128C24.627 2.92307 23.7072 2 22.583 2H14.4072C13.2831 2 12.3633 2.92307 12.3633 4.05128V6.10256C12.3633 7.23077 13.2831 8.15384 14.4072 8.15384H17.4731" stroke="#E6570B" stroke-width="2" stroke-miterlimit="10" stroke-linecap="round" stroke-linejoin="round"/>
<path d="M31.7803 23.5381H39.9561" stroke="#E6570B" stroke-width="2" stroke-miterlimit="10" stroke-linecap="round" stroke-linejoin="round"/>
<path d="M7.86968 29.009C5.74458 26.7897 5.45201 23.3436 7.29062 20.7768C9.36494 17.8809 13.4509 17.2226 16.3704 19.3139C19.29 21.4051 19.9816 25.4856 17.9073 28.3815C16.3044 30.6192 13.5106 31.506 10.9778 30.837" stroke="#E6570B" stroke-width="2" stroke-miterlimit="10" stroke-linecap="round" stroke-linejoin="round"/>
<path d="M7.9765 29.1172L2 35.1174" stroke="#E6570B" stroke-width="2" stroke-miterlimit="10" stroke-linecap="round" stroke-linejoin="round"/>
</svg>
