<svg width="44" height="44" viewBox="0 0 44 44" fill="none" xmlns="http://www.w3.org/2000/svg">
<path d="M21.2778 27.8889C23.3519 27.8889 25.1296 27.2311 26.6111 25.9156C28.0926 24.6015 28.8333 22.9815 28.8333 21.0556C28.8333 19.4259 28.3244 18.037 27.3067 16.8889C26.2874 15.7407 25.0185 15.1667 23.5 15.1667C22.2037 15.1667 21.0926 15.583 20.1667 16.4156C19.2407 17.2496 18.7778 18.2593 18.7778 19.4444C18.7778 20 18.8704 20.537 19.0556 21.0556C19.2407 21.5741 19.5556 22.037 20 22.4444C20.3333 22.7407 20.6481 22.8704 20.9444 22.8333C21.2407 22.7963 21.5 22.6667 21.7222 22.4444C21.9074 22.2593 22.0185 22.0274 22.0556 21.7489C22.0926 21.4719 21.9815 21.2037 21.7222 20.9444C21.5741 20.7963 21.417 20.583 21.2511 20.3044C21.0837 20.0274 21 19.7407 21 19.4444C21 18.963 21.2133 18.5089 21.64 18.0822C22.0652 17.657 22.6852 17.4444 23.5 17.4444C24.3519 17.4444 25.0837 17.7778 25.6956 18.4444C26.3059 19.1111 26.6111 20 26.6111 21.1111C26.6111 22.3333 26.1207 23.4074 25.14 24.3333C24.1578 25.2593 22.8889 25.7222 21.3333 25.7222C19.5926 25.7222 18.0837 25.0185 16.8067 23.6111C15.5281 22.2037 14.8889 20.4259 14.8889 18.2778C14.8889 17.4259 15.0281 16.5741 15.3067 15.7222C15.5837 14.8704 16 14.0926 16.5556 13.3889C16.7407 13.1296 16.8519 12.8422 16.8889 12.5267C16.9259 12.2126 16.8148 11.9444 16.5556 11.7222C16.2963 11.463 16.0096 11.3422 15.6956 11.36C15.38 11.3793 15.1296 11.5185 14.9444 11.7778C14.2037 12.6667 13.6296 13.6667 13.2222 14.7778C12.8148 15.8889 12.6111 17.037 12.6111 18.2222C12.6111 20.8889 13.4444 23.1667 15.1111 25.0556C16.7778 26.9444 18.8333 27.8889 21.2778 27.8889ZM9.66667 33.6667C7.55556 31.7407 5.9163 29.5741 4.74889 27.1667C3.58296 24.7593 3 22.2778 3 19.7222C3 14.7963 4.73185 10.6111 8.19556 7.16667C11.6578 3.72222 15.8519 2 20.7778 2C24.7778 2 28.3978 3.22222 31.6378 5.66667C34.8793 8.11111 36.9815 11.2593 37.9444 15.1111L40.2222 24.2222C40.3704 24.7778 40.2689 25.2874 39.9178 25.7511C39.5652 26.2133 39.0741 26.4444 38.4444 26.4444H34.1111V33.9444C34.1111 34.9444 33.7593 35.7963 33.0556 36.5C32.3519 37.2037 31.5 37.5556 30.5 37.5556H25.2222V40.8889C25.2222 41.2222 25.1111 41.4911 24.8889 41.6956C24.6667 41.8985 24.4074 42 24.1111 42C23.7778 42 23.5089 41.8985 23.3044 41.6956C23.1015 41.4911 23 41.2222 23 40.8889V37.1667C23 36.6111 23.1763 36.1667 23.5289 35.8333C23.88 35.5 24.2963 35.3333 24.7778 35.3333H30.5C30.9074 35.3333 31.2407 35.2037 31.5 34.9444C31.7593 34.6852 31.8889 34.3519 31.8889 33.9444V26C31.8889 25.5185 32.0652 25.1022 32.4178 24.7511C32.7689 24.3985 33.1852 24.2222 33.6667 24.2222H37.8889L35.7778 15.6111C34.9259 12.2037 33.0926 9.45333 30.2778 7.36C27.463 5.26815 24.2963 4.22222 20.7778 4.22222C16.4815 4.22222 12.8148 5.72222 9.77778 8.72222C6.74074 11.7222 5.22222 15.3889 5.22222 19.7222C5.22222 21.9444 5.6763 24.0459 6.58444 26.0267C7.49111 28.0089 8.77778 29.7778 10.4444 31.3333L11.8889 32.6667V40.8889C11.8889 41.2222 11.7778 41.4911 11.5556 41.6956C11.3333 41.8985 11.0741 42 10.7778 42C10.4444 42 10.1763 41.8985 9.97333 41.6956C9.76889 41.4911 9.66667 41.2222 9.66667 40.8889V33.6667Z" fill="#E6570B"/>
</svg>
