<svg width="167" height="48" viewBox="0 0 167 48" fill="none" xmlns="http://www.w3.org/2000/svg">
<rect width="167" height="48" rx="8" fill="#30423C"/>
<path d="M44.22 30L41.884 25.76H41.228V30H38.492V18.768H43.084C43.9693 18.768 44.7213 18.9227 45.34 19.232C45.9693 19.5413 46.4387 19.968 46.748 20.512C47.0573 21.0453 47.212 21.6427 47.212 22.304C47.212 23.0507 46.9987 23.7173 46.572 24.304C46.156 24.8907 45.5373 25.3067 44.716 25.552L47.308 30H44.22ZM41.228 23.824H42.924C43.4253 23.824 43.7987 23.7013 44.044 23.456C44.3 23.2107 44.428 22.864 44.428 22.416C44.428 21.9893 44.3 21.6533 44.044 21.408C43.7987 21.1627 43.4253 21.04 42.924 21.04H41.228V23.824ZM51.6655 20.96V23.232H55.3295V25.344H51.6655V27.808H55.8095V30H48.9295V18.768H55.8095V20.96H51.6655ZM65.0417 22.32C64.8391 21.9467 64.5458 21.664 64.1618 21.472C63.7884 21.2693 63.3458 21.168 62.8338 21.168C61.9484 21.168 61.2391 21.4613 60.7057 22.048C60.1724 22.624 59.9058 23.3973 59.9058 24.368C59.9058 25.4027 60.1831 26.2133 60.7378 26.8C61.3031 27.376 62.0764 27.664 63.0578 27.664C63.7298 27.664 64.2951 27.4933 64.7538 27.152C65.2231 26.8107 65.5644 26.32 65.7778 25.68H62.3058V23.664H68.2578V26.208C68.0551 26.8907 67.7084 27.5253 67.2178 28.112C66.7378 28.6987 66.1244 29.1733 65.3778 29.536C64.6311 29.8987 63.7884 30.08 62.8498 30.08C61.7404 30.08 60.7484 29.84 59.8738 29.36C59.0098 28.8693 58.3324 28.192 57.8418 27.328C57.3618 26.464 57.1217 25.4773 57.1217 24.368C57.1217 23.2587 57.3618 22.272 57.8418 21.408C58.3324 20.5333 59.0098 19.856 59.8738 19.376C60.7378 18.8853 61.7244 18.64 62.8338 18.64C64.1778 18.64 65.3084 18.9653 66.2258 19.616C67.1538 20.2667 67.7671 21.168 68.0658 22.32H65.0417ZM72.5093 18.768V30H69.7733V18.768H72.5093ZM73.0052 16.512L69.1493 18.128V16.24L73.0052 14.384V16.512ZM78.556 30.112C77.7347 30.112 76.9987 29.9787 76.348 29.712C75.6973 29.4453 75.1747 29.0507 74.78 28.528C74.396 28.0053 74.1933 27.376 74.172 26.64H77.084C77.1267 27.056 77.2707 27.376 77.516 27.6C77.7613 27.8133 78.0813 27.92 78.476 27.92C78.8813 27.92 79.2013 27.8293 79.436 27.648C79.6707 27.456 79.788 27.1947 79.788 26.864C79.788 26.5867 79.692 26.3573 79.5 26.176C79.3187 25.9947 79.0893 25.8453 78.812 25.728C78.5453 25.6107 78.1613 25.4773 77.66 25.328C76.9347 25.104 76.3427 24.88 75.884 24.656C75.4253 24.432 75.0307 24.1013 74.7 23.664C74.3693 23.2267 74.204 22.656 74.204 21.952C74.204 20.9067 74.5827 20.0907 75.34 19.504C76.0973 18.9067 77.084 18.608 78.3 18.608C79.5373 18.608 80.5347 18.9067 81.292 19.504C82.0493 20.0907 82.4547 20.912 82.508 21.968H79.548C79.5267 21.6053 79.3933 21.3227 79.148 21.12C78.9027 20.9067 78.588 20.8 78.204 20.8C77.8733 20.8 77.6067 20.8907 77.404 21.072C77.2013 21.2427 77.1 21.4933 77.1 21.824C77.1 22.1867 77.2707 22.4693 77.612 22.672C77.9533 22.8747 78.4867 23.0933 79.212 23.328C79.9373 23.5733 80.524 23.808 80.972 24.032C81.4307 24.256 81.8253 24.5813 82.156 25.008C82.4867 25.4347 82.652 25.984 82.652 26.656C82.652 27.296 82.4867 27.8773 82.156 28.4C81.836 28.9227 81.3667 29.3387 80.748 29.648C80.1293 29.9573 79.3987 30.112 78.556 30.112ZM92.4158 18.768V20.96H89.4398V30H86.7038V20.96H83.7278V18.768H92.4158ZM99.5169 30L97.1809 25.76H96.5249V30H93.7889V18.768H98.3809C99.2662 18.768 100.018 18.9227 100.637 19.232C101.266 19.5413 101.736 19.968 102.045 20.512C102.354 21.0453 102.509 21.6427 102.509 22.304C102.509 23.0507 102.296 23.7173 101.869 24.304C101.453 24.8907 100.834 25.3067 100.013 25.552L102.605 30H99.5169ZM96.5249 23.824H98.2209C98.7222 23.824 99.0955 23.7013 99.3409 23.456C99.5969 23.2107 99.7249 22.864 99.7249 22.416C99.7249 21.9893 99.5969 21.6533 99.3409 21.408C99.0955 21.1627 98.7222 21.04 98.2209 21.04H96.5249V23.824ZM111.218 28.016H107.026L106.354 30H103.49L107.554 18.768H110.722L114.786 30H111.89L111.218 28.016ZM110.514 25.904L109.122 21.792L107.746 25.904H110.514ZM124.103 18.768V20.96H121.127V30H118.391V20.96H115.415V18.768H124.103ZM128.212 20.96V23.232H131.876V25.344H128.212V27.808H132.356V30H125.476V18.768H132.356V20.96H128.212Z" fill="white"/>
</svg>
