<svg width="44" height="44" viewBox="0 0 44 44" fill="none" xmlns="http://www.w3.org/2000/svg">
<mask id="mask0_131_3781" style="mask-type:alpha" maskUnits="userSpaceOnUse" x="-1" y="-1" width="46" height="46">
<rect width="44" height="44" fill="#D9D9D9" stroke="#E6570B" stroke-width="0.2"/>
</mask>
<g mask="url(#mask0_131_3781)">
<path d="M38.4854 16.1697L37.2027 14.887L38.5416 13.4919C38.8022 13.2312 38.9326 12.9153 38.9326 12.5439C38.9326 12.1717 38.8022 11.8553 38.5416 11.5946L32.4054 5.45841C32.1447 5.19777 31.8283 5.06745 31.4561 5.06745C31.0847 5.06745 30.7688 5.19777 30.5081 5.45841L29.113 6.79732L27.7741 5.45841L29.0018 4.17573C29.6713 3.50628 30.48 3.18092 31.4279 3.19967C32.3768 3.21752 33.1859 3.56117 33.8554 4.23063L39.7694 10.1446C40.4388 10.8141 40.7736 11.6138 40.7736 12.5439C40.7736 13.4731 40.4388 14.2725 39.7694 14.9419L38.4854 16.1697ZM14.9433 39.768C14.2738 40.4375 13.474 40.7722 12.5439 40.7722C11.6147 40.7722 10.8154 40.4375 10.1459 39.768L4.17573 33.7429C3.54377 33.111 3.22778 32.3393 3.22778 31.4279C3.22778 30.5166 3.54377 29.7449 4.17573 29.113L5.45975 27.829L6.79866 29.1679L5.51464 30.5068C5.21741 30.7674 5.06879 31.0838 5.06879 31.4561C5.06879 31.8274 5.21741 32.1434 5.51464 32.404L11.596 38.4854C11.8566 38.7826 12.1726 38.9312 12.5439 38.9312C12.9162 38.9312 13.2326 38.7826 13.4932 38.4854L14.8321 37.2013L16.171 38.5403L14.9433 39.768ZM36.6444 25.0962L39.6569 22.0837C39.955 21.7856 40.1041 21.4508 40.1041 21.0795C40.1041 20.7073 39.955 20.3726 39.6569 20.0753L23.9247 4.3431C23.6274 4.04497 23.2927 3.8959 22.9205 3.8959C22.5492 3.8959 22.2144 4.04497 21.9163 4.3431L18.9038 7.35565C18.644 7.65289 18.5141 7.97824 18.5141 8.33172C18.5141 8.68519 18.644 9.01054 18.9038 9.30778L34.6922 25.0962C34.9895 25.356 35.3148 25.4859 35.6683 25.4859C36.0218 25.4859 36.3471 25.356 36.6444 25.0962ZM22.0288 39.7118L25.0413 36.6992C25.3386 36.402 25.4872 36.0767 25.4872 35.7232C25.4872 35.3697 25.3386 35.0444 25.0413 34.7471L9.25289 18.9587C8.95565 18.6614 8.63029 18.5128 8.27682 18.5128C7.92335 18.5128 7.59799 18.6614 7.30075 18.9587L4.2882 21.9712C3.99007 22.2693 3.841 22.6041 3.841 22.9754C3.841 23.3476 3.99007 23.6823 4.2882 23.9796L20.0204 39.7118C20.3177 40.0099 20.6524 40.159 21.0246 40.159C21.3959 40.159 21.7307 40.0099 22.0288 39.7118ZM20.6899 27.7178L27.6629 20.7448L23.2552 16.3371L16.2822 23.3101L20.6899 27.7178ZM23.3115 41.0507C22.6795 41.6836 21.9172 42 21.0246 42C20.132 42 19.3693 41.6836 18.7364 41.0507L2.94929 25.2636C2.31643 24.6307 2 23.868 2 22.9754C2 22.0828 2.31643 21.3205 2.94929 20.6885L5.96184 17.6197C6.59381 16.9878 7.36547 16.6718 8.27682 16.6718C9.18817 16.6718 9.95983 16.9878 10.5918 17.6197L14.9433 21.9712L21.9163 14.9982L17.5649 10.5905C16.9329 9.99598 16.6169 9.24307 16.6169 8.33172C16.6169 7.42036 16.9329 6.6487 17.5649 6.01674L20.6336 2.94795C21.2656 2.31598 22.0373 2 22.9486 2C23.86 2 24.6316 2.31598 25.2636 2.94795L41.0521 18.7364C41.684 19.3684 42 20.14 42 21.0514C42 21.9627 41.684 22.7344 41.0521 23.3664L37.9833 26.4351C37.3513 27.0671 36.5796 27.3831 35.6683 27.3831C34.7569 27.3831 34.004 27.0671 33.4095 26.4351L29.0018 22.0837L22.0288 29.0567L26.3803 33.4082C27.0122 34.0402 27.3282 34.8118 27.3282 35.7232C27.3282 36.6345 27.0122 37.4062 26.3803 38.0382L23.3115 41.0507Z" fill="#E6570B" stroke="#E6570B" stroke-width="0.2"/>
</g>
</svg>
