<svg width="57" height="42" viewBox="0 0 57 42" fill="none" xmlns="http://www.w3.org/2000/svg">
<path d="M32.0697 14.2939C33.2466 16.2939 33.9527 18.5292 33.9527 20.9998C33.9527 28.1762 28.186 33.9409 21.0071 33.9409C13.8282 33.9409 8.06152 28.1762 8.06152 20.9998C8.06152 13.8233 13.8282 8.05859 21.0071 8.05859C21.9486 8.05859 22.8901 8.17623 23.7139 8.41152" stroke="#E6570B" stroke-width="2" stroke-miterlimit="10" stroke-linecap="round" stroke-linejoin="round"/>
<path d="M23.9489 27.588C22.772 25.7056 22.1836 23.4704 22.1836 20.9998C22.1836 13.8233 27.9503 8.05859 35.1292 8.05859C42.3081 8.05859 48.0748 13.8233 48.0748 20.9998C48.0748 28.1762 42.3081 33.9409 35.1292 33.9409C33.8346 33.9409 32.6578 33.8233 31.5986 33.4703" stroke="#E6570B" stroke-width="2" stroke-miterlimit="10" stroke-linecap="round" stroke-linejoin="round"/>
<path d="M11.8272 30.1763L1 40.9998" stroke="#E6570B" stroke-width="2" stroke-miterlimit="10" stroke-linecap="round" stroke-linejoin="round"/>
<path d="M55.1358 1L44.3086 11.8235" stroke="#E6570B" stroke-width="2" stroke-miterlimit="10" stroke-linecap="round" stroke-linejoin="round"/>
<path d="M1 31.5884L10.415 41.0001" stroke="#E6570B" stroke-width="2" stroke-miterlimit="10" stroke-linecap="round" stroke-linejoin="round"/>
<path d="M48.0742 1H55.1355" stroke="#E6570B" stroke-width="2" stroke-miterlimit="10" stroke-linecap="round" stroke-linejoin="round"/>
<path d="M55.1357 8.05882V1" stroke="#E6570B" stroke-width="2" stroke-miterlimit="10" stroke-linecap="round" stroke-linejoin="round"/>
</svg>
