<svg width="264" height="159" viewBox="0 0 264 159" fill="none" xmlns="http://www.w3.org/2000/svg">
<rect width="264" height="159" rx="15" fill="#30423C"/>
<g clip-path="url(#clip0_197_16695)">
<path d="M66.1114 48.6722C66.2282 47.7955 66.3077 46.9071 66.3077 46C66.3077 34.7851 57.2149 25.6923 46 25.6923C45.0929 25.6923 44.2045 25.7718 43.3278 25.8886C41.3952 24.6989 39.1275 24 36.6923 24C29.6828 24 24 29.6828 24 36.6923C24 39.1275 24.6989 41.3952 25.8886 43.3278C25.7718 44.2045 25.6923 45.0929 25.6923 46C25.6923 57.2149 34.7851 66.3077 46 66.3077C46.9071 66.3077 47.7955 66.2282 48.6722 66.1114C50.6048 67.3011 52.8725 68 55.3077 68C62.3172 68 68 62.3172 68 55.3077C68 52.8725 67.3011 50.6048 66.1114 48.6722ZM46.2522 57.8462C39.6589 57.8462 35.8732 54.3905 35.8732 50.9991C35.8732 49.2695 37.684 48.7162 38.4083 48.7162C40.082 48.7162 40.6388 50.0818 40.9434 50.708C42.6442 54.2043 44.2789 53.744 45.89 53.8963C47.3132 54.03 50.6538 53.4022 50.6538 50.9618C50.6538 50.7283 51.0211 49.1409 48.1374 48.354C46.2945 47.8497 43.0452 47.232 40.3714 46.2031C37.8566 45.2351 36.3809 43.2415 36.3809 40.6726C36.3809 39.3882 37.0392 34.1538 45.9442 34.1538C51.8875 34.1538 55.0555 37.1983 55.0555 39.8772C55.0555 40.4932 54.8203 41.0365 54.3482 41.5255C53.876 42.0146 52.5458 42.7305 51.0888 41.798C50.7215 41.5628 50.4186 41.0737 50.0565 40.4391C49.6198 39.642 48.9057 38.102 45.6175 38.102C42.4275 38.102 41.5425 39.6234 41.5425 40.258C41.5425 42.3903 45.6125 42.8388 46.7057 43.1214C50.6962 44.1503 56.1251 45.0963 56.1251 50.4762C56.1251 56.6531 49.6977 57.8462 46.2522 57.8462Z" fill="white"/>
</g>
<path d="M29.58 99.126C28.704 99.126 27.912 98.976 27.204 98.676C26.508 98.376 25.956 97.944 25.548 97.38C25.14 96.816 24.93 96.15 24.918 95.382H27.618C27.654 95.898 27.834 96.306 28.158 96.606C28.494 96.906 28.95 97.056 29.526 97.056C30.114 97.056 30.576 96.918 30.912 96.642C31.248 96.354 31.416 95.982 31.416 95.526C31.416 95.154 31.302 94.848 31.074 94.608C30.846 94.368 30.558 94.182 30.21 94.05C29.874 93.906 29.406 93.75 28.806 93.582C27.99 93.342 27.324 93.108 26.808 92.88C26.304 92.64 25.866 92.286 25.494 91.818C25.134 91.338 24.954 90.702 24.954 89.91C24.954 89.166 25.14 88.518 25.512 87.966C25.884 87.414 26.406 86.994 27.078 86.706C27.75 86.406 28.518 86.256 29.382 86.256C30.678 86.256 31.728 86.574 32.532 87.21C33.348 87.834 33.798 88.71 33.882 89.838H31.11C31.086 89.406 30.9 89.052 30.552 88.776C30.216 88.488 29.766 88.344 29.202 88.344C28.71 88.344 28.314 88.47 28.014 88.722C27.726 88.974 27.582 89.34 27.582 89.82C27.582 90.156 27.69 90.438 27.906 90.666C28.134 90.882 28.41 91.062 28.734 91.206C29.07 91.338 29.538 91.494 30.138 91.674C30.954 91.914 31.62 92.154 32.136 92.394C32.652 92.634 33.096 92.994 33.468 93.474C33.84 93.954 34.026 94.584 34.026 95.364C34.026 96.036 33.852 96.66 33.504 97.236C33.156 97.812 32.646 98.274 31.974 98.622C31.302 98.958 30.504 99.126 29.58 99.126ZM42.1148 99L38.7308 94.752V99H36.2108V85.68H38.7308V93.258L42.0788 89.028H45.3548L40.9628 94.032L45.3908 99H42.1148ZM56.2625 89.028L50.0885 103.716H47.4065L49.5665 98.748L45.5705 89.028H48.3965L50.9705 95.994L53.5805 89.028H56.2625ZM60.1409 90.468C60.4649 90.012 60.9089 89.634 61.4729 89.334C62.0489 89.022 62.7029 88.866 63.4349 88.866C64.2869 88.866 65.0549 89.076 65.7389 89.496C66.4349 89.916 66.9809 90.516 67.3769 91.296C67.7849 92.064 67.9889 92.958 67.9889 93.978C67.9889 94.998 67.7849 95.904 67.3769 96.696C66.9809 97.476 66.4349 98.082 65.7389 98.514C65.0549 98.946 64.2869 99.162 63.4349 99.162C62.7029 99.162 62.0549 99.012 61.4909 98.712C60.9389 98.412 60.4889 98.034 60.1409 97.578V103.752H57.6209V89.028H60.1409V90.468ZM65.4149 93.978C65.4149 93.378 65.2889 92.862 65.0369 92.43C64.7969 91.986 64.4729 91.65 64.0649 91.422C63.6689 91.194 63.2369 91.08 62.7689 91.08C62.3129 91.08 61.8809 91.2 61.4729 91.44C61.0769 91.668 60.7529 92.004 60.5009 92.448C60.2609 92.892 60.1409 93.414 60.1409 94.014C60.1409 94.614 60.2609 95.136 60.5009 95.58C60.7529 96.024 61.0769 96.366 61.4729 96.606C61.8809 96.834 62.3129 96.948 62.7689 96.948C63.2369 96.948 63.6689 96.828 64.0649 96.588C64.4729 96.348 64.7969 96.006 65.0369 95.562C65.2889 95.118 65.4149 94.59 65.4149 93.978ZM79.0901 93.798C79.0901 94.158 79.0661 94.482 79.0181 94.77H71.7281C71.7881 95.49 72.0401 96.054 72.4841 96.462C72.9281 96.87 73.4741 97.074 74.1221 97.074C75.0581 97.074 75.7241 96.672 76.1201 95.868H78.8381C78.5501 96.828 77.9981 97.62 77.1821 98.244C76.3661 98.856 75.3641 99.162 74.1761 99.162C73.2161 99.162 72.3521 98.952 71.5841 98.532C70.8281 98.1 70.2341 97.494 69.8021 96.714C69.3821 95.934 69.1721 95.034 69.1721 94.014C69.1721 92.982 69.3821 92.076 69.8021 91.296C70.2221 90.516 70.8101 89.916 71.5661 89.496C72.3221 89.076 73.1921 88.866 74.1761 88.866C75.1241 88.866 75.9701 89.07 76.7141 89.478C77.4701 89.886 78.0521 90.468 78.4601 91.224C78.8801 91.968 79.0901 92.826 79.0901 93.798ZM76.4801 93.078C76.4681 92.43 76.2341 91.914 75.7781 91.53C75.3221 91.134 74.7641 90.936 74.1041 90.936C73.4801 90.936 72.9521 91.128 72.5201 91.512C72.1001 91.884 71.8421 92.406 71.7461 93.078H76.4801Z" fill="white"/>
<defs>
<clipPath id="clip0_197_16695">
<rect width="44" height="44" fill="white" transform="translate(24 24)"/>
</clipPath>
</defs>
</svg>
