<svg width="264" height="159" viewBox="0 0 264 159" fill="none" xmlns="http://www.w3.org/2000/svg">
<rect width="264" height="159" rx="15" fill="#FFDD99"/>
<g clip-path="url(#clip0_159_10162)">
<path d="M66.1114 48.6722C66.2282 47.7955 66.3077 46.9071 66.3077 46C66.3077 34.7851 57.2149 25.6923 46 25.6923C45.0929 25.6923 44.2045 25.7718 43.3278 25.8886C41.3952 24.6989 39.1275 24 36.6923 24C29.6828 24 24 29.6828 24 36.6923C24 39.1275 24.6989 41.3952 25.8886 43.3278C25.7718 44.2045 25.6923 45.0929 25.6923 46C25.6923 57.2149 34.7851 66.3077 46 66.3077C46.9071 66.3077 47.7955 66.2282 48.6722 66.1114C50.6048 67.3011 52.8725 68 55.3077 68C62.3172 68 68 62.3172 68 55.3077C68 52.8725 67.3011 50.6048 66.1114 48.6722ZM46.2522 57.8462C39.6589 57.8462 35.8732 54.3905 35.8732 50.9991C35.8732 49.2695 37.684 48.7162 38.4083 48.7162C40.082 48.7162 40.6388 50.0818 40.9434 50.708C42.6442 54.2043 44.2789 53.744 45.89 53.8963C47.3132 54.03 50.6538 53.4022 50.6538 50.9618C50.6538 50.7283 51.0211 49.1409 48.1374 48.354C46.2945 47.8497 43.0452 47.232 40.3714 46.2031C37.8566 45.2351 36.3809 43.2415 36.3809 40.6726C36.3809 39.3882 37.0392 34.1538 45.9442 34.1538C51.8875 34.1538 55.0555 37.1983 55.0555 39.8772C55.0555 40.4932 54.8203 41.0365 54.3482 41.5255C53.876 42.0146 52.5458 42.7305 51.0888 41.798C50.7215 41.5628 50.4186 41.0737 50.0565 40.4391C49.6198 39.642 48.9057 38.102 45.6175 38.102C42.4275 38.102 41.5425 39.6234 41.5425 40.258C41.5425 42.3903 45.6125 42.8388 46.7057 43.1214C50.6962 44.1503 56.1251 45.0963 56.1251 50.4762C56.1251 56.6531 49.6977 57.8462 46.2522 57.8462Z" fill="#E6570B"/>
</g>
<path d="M29.472 99.126C28.632 99.126 27.876 98.982 27.204 98.694C26.532 98.394 26.004 97.974 25.62 97.434C25.236 96.894 25.044 96.264 25.044 95.544H27.24C27.288 96.084 27.498 96.528 27.87 96.876C28.254 97.224 28.788 97.398 29.472 97.398C30.18 97.398 30.732 97.23 31.128 96.894C31.524 96.546 31.722 96.102 31.722 95.562C31.722 95.142 31.596 94.8 31.344 94.536C31.104 94.272 30.798 94.068 30.426 93.924C30.066 93.78 29.562 93.624 28.914 93.456C28.098 93.24 27.432 93.024 26.916 92.808C26.412 92.58 25.98 92.232 25.62 91.764C25.26 91.296 25.08 90.672 25.08 89.892C25.08 89.172 25.26 88.542 25.62 88.002C25.98 87.462 26.484 87.048 27.132 86.76C27.78 86.472 28.53 86.328 29.382 86.328C30.594 86.328 31.584 86.634 32.352 87.246C33.132 87.846 33.564 88.674 33.648 89.73H31.38C31.344 89.274 31.128 88.884 30.732 88.56C30.336 88.236 29.814 88.074 29.166 88.074C28.578 88.074 28.098 88.224 27.726 88.524C27.354 88.824 27.168 89.256 27.168 89.82C27.168 90.204 27.282 90.522 27.51 90.774C27.75 91.014 28.05 91.206 28.41 91.35C28.77 91.494 29.262 91.65 29.886 91.818C30.714 92.046 31.386 92.274 31.902 92.502C32.43 92.73 32.874 93.084 33.234 93.564C33.606 94.032 33.792 94.662 33.792 95.454C33.792 96.09 33.618 96.69 33.27 97.254C32.934 97.818 32.436 98.274 31.776 98.622C31.128 98.958 30.36 99.126 29.472 99.126ZM40.1373 94.05L44.7093 99H41.9373L38.2653 94.734V99H36.2133V85.68H38.2653V93.42L41.8653 89.082H44.7093L40.1373 94.05ZM55.1081 89.082L49.0241 103.662H46.9001L48.9161 98.838L45.0101 89.082H47.2961L50.0861 96.642L52.9841 89.082H55.1081ZM58.7086 90.54C59.0566 90.084 59.5306 89.7 60.1306 89.388C60.7306 89.076 61.4086 88.92 62.1646 88.92C63.0286 88.92 63.8146 89.136 64.5226 89.568C65.2426 89.988 65.8066 90.582 66.2146 91.35C66.6226 92.118 66.8266 93 66.8266 93.996C66.8266 94.992 66.6226 95.886 66.2146 96.678C65.8066 97.458 65.2426 98.07 64.5226 98.514C63.8146 98.946 63.0286 99.162 62.1646 99.162C61.4086 99.162 60.7366 99.012 60.1486 98.712C59.5606 98.4 59.0806 98.016 58.7086 97.56V103.716H56.6566V89.082H58.7086V90.54ZM64.7386 93.996C64.7386 93.312 64.5946 92.724 64.3066 92.232C64.0306 91.728 63.6586 91.35 63.1906 91.098C62.7346 90.834 62.2426 90.702 61.7146 90.702C61.1986 90.702 60.7066 90.834 60.2386 91.098C59.7826 91.362 59.4106 91.746 59.1226 92.25C58.8466 92.754 58.7086 93.348 58.7086 94.032C58.7086 94.716 58.8466 95.316 59.1226 95.832C59.4106 96.336 59.7826 96.72 60.2386 96.984C60.7066 97.248 61.1986 97.38 61.7146 97.38C62.2426 97.38 62.7346 97.248 63.1906 96.984C63.6586 96.708 64.0306 96.312 64.3066 95.796C64.5946 95.28 64.7386 94.68 64.7386 93.996ZM77.9459 93.798C77.9459 94.17 77.9219 94.506 77.8739 94.806H70.2959C70.3559 95.598 70.6499 96.234 71.1779 96.714C71.7059 97.194 72.3539 97.434 73.1219 97.434C74.2259 97.434 75.0059 96.972 75.4619 96.048H77.6759C77.3759 96.96 76.8299 97.71 76.0379 98.298C75.2579 98.874 74.2859 99.162 73.1219 99.162C72.1739 99.162 71.3219 98.952 70.5659 98.532C69.8219 98.1 69.2339 97.5 68.8019 96.732C68.3819 95.952 68.1719 95.052 68.1719 94.032C68.1719 93.012 68.3759 92.118 68.7839 91.35C69.2039 90.57 69.7859 89.97 70.5299 89.55C71.2859 89.13 72.1499 88.92 73.1219 88.92C74.0579 88.92 74.8919 89.124 75.6239 89.532C76.3559 89.94 76.9259 90.516 77.3339 91.26C77.7419 91.992 77.9459 92.838 77.9459 93.798ZM75.8039 93.15C75.7919 92.394 75.5219 91.788 74.9939 91.332C74.4659 90.876 73.8119 90.648 73.0319 90.648C72.3239 90.648 71.7179 90.876 71.2139 91.332C70.7099 91.776 70.4099 92.382 70.3139 93.15H75.8039Z" fill="#30423C"/>
<defs>
<clipPath id="clip0_159_10162">
<rect width="44" height="44" fill="white" transform="translate(24 24)"/>
</clipPath>
</defs>
</svg>
