<svg width="44" height="44" viewBox="0 0 44 44" fill="none" xmlns="http://www.w3.org/2000/svg">
<path d="M34.1737 36.6064L20.3477 27.5271V11.3462L34.1737 2.26695C35.3042 1.54779 36.8694 2.35684 36.8694 3.79514V34.9883C36.7824 36.4266 35.3042 37.3255 34.1737 36.6064Z" stroke="#E6570B" stroke-width="2" stroke-miterlimit="10" stroke-linecap="round" stroke-linejoin="round"/>
<path d="M15.9129 11.3467H8.08679C7.13027 11.3467 6.34766 12.1557 6.34766 13.1446V25.7297C6.34766 26.7185 7.13027 27.5276 8.08679 27.5276H20.2607" stroke="#E6570B" stroke-width="2" stroke-miterlimit="10" stroke-linecap="round" stroke-linejoin="round"/>
<path d="M6.34783 13.1445H4.6087C3.21739 13.1445 2 14.5828 2 16.2908V21.6844C2 23.3924 3.13044 24.8307 4.6087 24.8307H6.34783" stroke="#E6570B" stroke-width="2" stroke-miterlimit="10" stroke-linecap="round" stroke-linejoin="round"/>
<path d="M16.1735 31.0332C16.1735 31.2129 16.1735 31.4826 16.1735 31.6624C16.2604 34.6289 16.6082 37.5954 16.9561 39.5731C16.9561 39.7529 17.043 39.8427 17.043 39.9326C17.043 40.0225 17.043 40.1124 17.043 40.2023C17.043 40.3821 17.13 40.472 17.13 40.6518C17.13 40.8316 17.2169 40.9215 17.2169 41.0114C17.3039 41.5507 16.9561 42.0002 16.4343 42.0002H13.043C12.4343 42.0002 11.9995 41.5507 11.8256 41.0114L8.95605 27.6172" stroke="#E6570B" stroke-width="2" stroke-miterlimit="10" stroke-linecap="round" stroke-linejoin="round"/>
<path d="M36.7822 14.043C39.6518 14.043 41.9996 16.4701 41.9996 19.4366C41.9996 22.4031 39.6518 24.8302 36.7822 24.8302" stroke="#E6570B" stroke-width="2" stroke-miterlimit="10" stroke-linecap="round" stroke-linejoin="round"/>
</svg>
