<svg width="264" height="159" viewBox="0 0 264 159" fill="none" xmlns="http://www.w3.org/2000/svg">
<rect width="264" height="159" rx="15" fill="#FFDD99"/>
<path d="M46 24C33.8468 24 24 33.8468 24 46C24 58.1532 33.8468 68 46 68C58.1532 68 68 58.1532 68 46C68 33.8468 58.1532 24 46 24ZM56.8048 39.0718L53.1944 56.0863C52.9282 57.2927 52.2097 57.5855 51.2073 57.0177L45.7073 52.9637L43.0548 55.5185C42.7621 55.8113 42.5137 56.0597 41.946 56.0597L42.3363 50.4621L52.529 41.254C52.9726 40.8637 52.4314 40.6419 51.846 41.0323L39.2492 48.9629L33.8202 47.2685C32.6403 46.896 32.6137 46.0887 34.0685 45.521L55.279 37.3419C56.2637 36.9871 57.1242 37.5815 56.8048 39.0718Z" fill="#E6570B"/>
<path d="M33.432 86.49V88.164H30.102V99H28.05V88.164H24.702V86.49H33.432ZM44.6002 93.798C44.6002 94.17 44.5762 94.506 44.5282 94.806H36.9502C37.0102 95.598 37.3042 96.234 37.8322 96.714C38.3602 97.194 39.0082 97.434 39.7762 97.434C40.8802 97.434 41.6602 96.972 42.1162 96.048H44.3302C44.0302 96.96 43.4842 97.71 42.6922 98.298C41.9122 98.874 40.9402 99.162 39.7762 99.162C38.8282 99.162 37.9762 98.952 37.2202 98.532C36.4762 98.1 35.8882 97.5 35.4562 96.732C35.0362 95.952 34.8262 95.052 34.8262 94.032C34.8262 93.012 35.0302 92.118 35.4382 91.35C35.8582 90.57 36.4402 89.97 37.1842 89.55C37.9402 89.13 38.8042 88.92 39.7762 88.92C40.7122 88.92 41.5462 89.124 42.2782 89.532C43.0102 89.94 43.5802 90.516 43.9882 91.26C44.3962 91.992 44.6002 92.838 44.6002 93.798ZM42.4582 93.15C42.4462 92.394 42.1762 91.788 41.6482 91.332C41.1202 90.876 40.4662 90.648 39.6862 90.648C38.9782 90.648 38.3722 90.876 37.8682 91.332C37.3642 91.776 37.0642 92.382 36.9682 93.15H42.4582ZM48.6715 85.68V99H46.6195V85.68H48.6715ZM60.4556 93.798C60.4556 94.17 60.4316 94.506 60.3836 94.806H52.8056C52.8656 95.598 53.1596 96.234 53.6876 96.714C54.2156 97.194 54.8636 97.434 55.6316 97.434C56.7356 97.434 57.5156 96.972 57.9716 96.048H60.1856C59.8856 96.96 59.3396 97.71 58.5476 98.298C57.7676 98.874 56.7956 99.162 55.6316 99.162C54.6836 99.162 53.8316 98.952 53.0756 98.532C52.3316 98.1 51.7436 97.5 51.3116 96.732C50.8916 95.952 50.6816 95.052 50.6816 94.032C50.6816 93.012 50.8856 92.118 51.2936 91.35C51.7136 90.57 52.2956 89.97 53.0396 89.55C53.7956 89.13 54.6596 88.92 55.6316 88.92C56.5676 88.92 57.4016 89.124 58.1336 89.532C58.8656 89.94 59.4356 90.516 59.8436 91.26C60.2516 91.992 60.4556 92.838 60.4556 93.798ZM58.3136 93.15C58.3016 92.394 58.0316 91.788 57.5036 91.332C56.9756 90.876 56.3216 90.648 55.5416 90.648C54.8336 90.648 54.2276 90.876 53.7236 91.332C53.2196 91.776 52.9196 92.382 52.8236 93.15H58.3136ZM66.471 88.92C67.239 88.92 67.917 89.076 68.505 89.388C69.105 89.688 69.573 90.066 69.909 90.522V89.082H71.979V99.162C71.979 100.074 71.787 100.884 71.403 101.592C71.019 102.312 70.461 102.876 69.729 103.284C69.009 103.692 68.145 103.896 67.137 103.896C65.793 103.896 64.677 103.578 63.789 102.942C62.901 102.318 62.397 101.466 62.277 100.386H64.311C64.467 100.902 64.797 101.316 65.301 101.628C65.817 101.952 66.429 102.114 67.137 102.114C67.965 102.114 68.631 101.862 69.135 101.358C69.651 100.854 69.909 100.122 69.909 99.162V97.506C69.561 97.974 69.087 98.37 68.487 98.694C67.899 99.006 67.227 99.162 66.471 99.162C65.607 99.162 64.815 98.946 64.095 98.514C63.387 98.07 62.823 97.458 62.403 96.678C61.995 95.886 61.791 94.992 61.791 93.996C61.791 93 61.995 92.118 62.403 91.35C62.823 90.582 63.387 89.988 64.095 89.568C64.815 89.136 65.607 88.92 66.471 88.92ZM69.909 94.032C69.909 93.348 69.765 92.754 69.477 92.25C69.201 91.746 68.835 91.362 68.379 91.098C67.923 90.834 67.431 90.702 66.903 90.702C66.375 90.702 65.883 90.834 65.427 91.098C64.971 91.35 64.599 91.728 64.311 92.232C64.035 92.724 63.897 93.312 63.897 93.996C63.897 94.68 64.035 95.28 64.311 95.796C64.599 96.312 64.971 96.708 65.427 96.984C65.895 97.248 66.387 97.38 66.903 97.38C67.431 97.38 67.923 97.248 68.379 96.984C68.835 96.72 69.201 96.336 69.477 95.832C69.765 95.316 69.909 94.716 69.909 94.032ZM76.7262 90.522C77.0262 90.018 77.4222 89.628 77.9142 89.352C78.4182 89.064 79.0122 88.92 79.6962 88.92V91.044H79.1742C78.3702 91.044 77.7582 91.248 77.3382 91.656C76.9302 92.064 76.7262 92.772 76.7262 93.78V99H74.6742V89.082H76.7262V90.522ZM80.8984 93.996C80.8984 93 81.1024 92.118 81.5104 91.35C81.9304 90.582 82.4944 89.988 83.2024 89.568C83.9224 89.136 84.7144 88.92 85.5784 88.92C86.3584 88.92 87.0364 89.076 87.6124 89.388C88.2004 89.688 88.6684 90.066 89.0164 90.522V89.082H91.0864V99H89.0164V97.524C88.6684 97.992 88.1944 98.382 87.5944 98.694C86.9944 99.006 86.3104 99.162 85.5424 99.162C84.6904 99.162 83.9104 98.946 83.2024 98.514C82.4944 98.07 81.9304 97.458 81.5104 96.678C81.1024 95.886 80.8984 94.992 80.8984 93.996ZM89.0164 94.032C89.0164 93.348 88.8724 92.754 88.5844 92.25C88.3084 91.746 87.9424 91.362 87.4864 91.098C87.0304 90.834 86.5384 90.702 86.0104 90.702C85.4824 90.702 84.9904 90.834 84.5344 91.098C84.0784 91.35 83.7064 91.728 83.4184 92.232C83.1424 92.724 83.0044 93.312 83.0044 93.996C83.0044 94.68 83.1424 95.28 83.4184 95.796C83.7064 96.312 84.0784 96.708 84.5344 96.984C85.0024 97.248 85.4944 97.38 86.0104 97.38C86.5384 97.38 87.0304 97.248 87.4864 96.984C87.9424 96.72 88.3084 96.336 88.5844 95.832C88.8724 95.316 89.0164 94.716 89.0164 94.032ZM105.788 88.92C106.568 88.92 107.264 89.082 107.876 89.406C108.5 89.73 108.986 90.21 109.334 90.846C109.694 91.482 109.874 92.25 109.874 93.15V99H107.84V93.456C107.84 92.568 107.618 91.89 107.174 91.422C106.73 90.942 106.124 90.702 105.356 90.702C104.588 90.702 103.976 90.942 103.52 91.422C103.076 91.89 102.854 92.568 102.854 93.456V99H100.82V93.456C100.82 92.568 100.598 91.89 100.154 91.422C99.7096 90.942 99.1036 90.702 98.3356 90.702C97.5676 90.702 96.9556 90.942 96.4996 91.422C96.0556 91.89 95.8336 92.568 95.8336 93.456V99H93.7816V89.082H95.8336V90.216C96.1696 89.808 96.5956 89.49 97.1116 89.262C97.6276 89.034 98.1796 88.92 98.7676 88.92C99.5596 88.92 100.268 89.088 100.892 89.424C101.516 89.76 101.996 90.246 102.332 90.882C102.632 90.282 103.1 89.808 103.736 89.46C104.372 89.1 105.056 88.92 105.788 88.92Z" fill="#30423C"/>
</svg>
