<svg width="264" height="159" viewBox="0 0 264 159" fill="none" xmlns="http://www.w3.org/2000/svg">
<rect width="264" height="159" rx="15" fill="#30423C"/>
<path d="M46 24C33.8468 24 24 33.8468 24 46C24 58.1532 33.8468 68 46 68C58.1532 68 68 58.1532 68 46C68 33.8468 58.1532 24 46 24ZM56.8048 39.0718L53.1944 56.0863C52.9282 57.2927 52.2097 57.5855 51.2073 57.0177L45.7073 52.9637L43.0548 55.5185C42.7621 55.8113 42.5137 56.0597 41.946 56.0597L42.3363 50.4621L52.529 41.254C52.9726 40.8637 52.4315 40.6419 51.846 41.0323L39.2492 48.9629L33.8202 47.2685C32.6403 46.896 32.6137 46.0887 34.0685 45.521L55.279 37.3419C56.2637 36.9871 57.1242 37.5815 56.8048 39.0718Z" fill="white"/>
<path d="M33.792 86.436V88.47H30.444V99H27.924V88.47H24.576V86.436H33.792ZM44.9007 93.798C44.9007 94.158 44.8767 94.482 44.8287 94.77H37.5387C37.5987 95.49 37.8507 96.054 38.2947 96.462C38.7387 96.87 39.2847 97.074 39.9327 97.074C40.8687 97.074 41.5347 96.672 41.9307 95.868H44.6487C44.3607 96.828 43.8087 97.62 42.9927 98.244C42.1767 98.856 41.1747 99.162 39.9867 99.162C39.0267 99.162 38.1627 98.952 37.3947 98.532C36.6387 98.1 36.0447 97.494 35.6127 96.714C35.1927 95.934 34.9827 95.034 34.9827 94.014C34.9827 92.982 35.1927 92.076 35.6127 91.296C36.0327 90.516 36.6207 89.916 37.3767 89.496C38.1327 89.076 39.0027 88.866 39.9867 88.866C40.9347 88.866 41.7807 89.07 42.5247 89.478C43.2807 89.886 43.8627 90.468 44.2707 91.224C44.6907 91.968 44.9007 92.826 44.9007 93.798ZM42.2907 93.078C42.2787 92.43 42.0447 91.914 41.5887 91.53C41.1327 91.134 40.5747 90.936 39.9147 90.936C39.2907 90.936 38.7627 91.128 38.3307 91.512C37.9107 91.884 37.6527 92.406 37.5567 93.078H42.2907ZM49.26 85.68V99H46.74V85.68H49.26ZM61.0198 93.798C61.0198 94.158 60.9958 94.482 60.9478 94.77H53.6578C53.7178 95.49 53.9698 96.054 54.4138 96.462C54.8578 96.87 55.4038 97.074 56.0518 97.074C56.9878 97.074 57.6538 96.672 58.0498 95.868H60.7678C60.4798 96.828 59.9278 97.62 59.1118 98.244C58.2958 98.856 57.2938 99.162 56.1058 99.162C55.1458 99.162 54.2818 98.952 53.5138 98.532C52.7578 98.1 52.1638 97.494 51.7318 96.714C51.3118 95.934 51.1018 95.034 51.1018 94.014C51.1018 92.982 51.3118 92.076 51.7318 91.296C52.1518 90.516 52.7398 89.916 53.4958 89.496C54.2518 89.076 55.1218 88.866 56.1058 88.866C57.0538 88.866 57.8998 89.07 58.6438 89.478C59.3998 89.886 59.9818 90.468 60.3898 91.224C60.8098 91.968 61.0198 92.826 61.0198 93.798ZM58.4098 93.078C58.3978 92.43 58.1638 91.914 57.7078 91.53C57.2518 91.134 56.6938 90.936 56.0338 90.936C55.4098 90.936 54.8818 91.128 54.4498 91.512C54.0298 91.884 53.7718 92.406 53.6758 93.078H58.4098ZM66.7652 88.866C67.5092 88.866 68.1632 89.016 68.7272 89.316C69.2912 89.604 69.7352 89.982 70.0592 90.45V89.028H72.5972V99.072C72.5972 99.996 72.4112 100.818 72.0392 101.538C71.6672 102.27 71.1092 102.846 70.3652 103.266C69.6212 103.698 68.7212 103.914 67.6652 103.914C66.2492 103.914 65.0852 103.584 64.1732 102.924C63.2732 102.264 62.7632 101.364 62.6432 100.224H65.1452C65.2772 100.68 65.5592 101.04 65.9912 101.304C66.4352 101.58 66.9692 101.718 67.5932 101.718C68.3252 101.718 68.9192 101.496 69.3752 101.052C69.8312 100.62 70.0592 99.96 70.0592 99.072V97.524C69.7352 97.992 69.2852 98.382 68.7092 98.694C68.1452 99.006 67.4972 99.162 66.7652 99.162C65.9252 99.162 65.1572 98.946 64.4612 98.514C63.7652 98.082 63.2132 97.476 62.8052 96.696C62.4092 95.904 62.2112 94.998 62.2112 93.978C62.2112 92.97 62.4092 92.076 62.8052 91.296C63.2132 90.516 63.7592 89.916 64.4432 89.496C65.1392 89.076 65.9132 88.866 66.7652 88.866ZM70.0592 94.014C70.0592 93.402 69.9392 92.88 69.6992 92.448C69.4592 92.004 69.1352 91.668 68.7272 91.44C68.3192 91.2 67.8812 91.08 67.4132 91.08C66.9452 91.08 66.5132 91.194 66.1172 91.422C65.7212 91.65 65.3972 91.986 65.1452 92.43C64.9052 92.862 64.7852 93.378 64.7852 93.978C64.7852 94.578 64.9052 95.106 65.1452 95.562C65.3972 96.006 65.7212 96.348 66.1172 96.588C66.5252 96.828 66.9572 96.948 67.4132 96.948C67.8812 96.948 68.3192 96.834 68.7272 96.606C69.1352 96.366 69.4592 96.03 69.6992 95.598C69.9392 95.154 70.0592 94.626 70.0592 94.014ZM77.5784 90.576C77.9024 90.048 78.3224 89.634 78.8384 89.334C79.3664 89.034 79.9664 88.884 80.6384 88.884V91.53H79.9724C79.1804 91.53 78.5804 91.716 78.1724 92.088C77.7764 92.46 77.5784 93.108 77.5784 94.032V99H75.0584V89.028H77.5784V90.576ZM81.6877 93.978C81.6877 92.97 81.8857 92.076 82.2817 91.296C82.6898 90.516 83.2358 89.916 83.9198 89.496C84.6158 89.076 85.3898 88.866 86.2418 88.866C86.9858 88.866 87.6338 89.016 88.1858 89.316C88.7498 89.616 89.1998 89.994 89.5358 90.45V89.028H92.0738V99H89.5358V97.542C89.2118 98.01 88.7618 98.4 88.1858 98.712C87.6218 99.012 86.9678 99.162 86.2238 99.162C85.3838 99.162 84.6158 98.946 83.9198 98.514C83.2358 98.082 82.6898 97.476 82.2817 96.696C81.8857 95.904 81.6877 94.998 81.6877 93.978ZM89.5358 94.014C89.5358 93.402 89.4158 92.88 89.1758 92.448C88.9358 92.004 88.6118 91.668 88.2038 91.44C87.7958 91.2 87.3578 91.08 86.8898 91.08C86.4218 91.08 85.9898 91.194 85.5938 91.422C85.1978 91.65 84.8738 91.986 84.6218 92.43C84.3818 92.862 84.2618 93.378 84.2618 93.978C84.2618 94.578 84.3818 95.106 84.6218 95.562C84.8738 96.006 85.1978 96.348 85.5938 96.588C86.0018 96.828 86.4338 96.948 86.8898 96.948C87.3578 96.948 87.7958 96.834 88.2038 96.606C88.6118 96.366 88.9358 96.03 89.1758 95.598C89.4158 95.154 89.5358 94.626 89.5358 94.014ZM106.919 88.884C108.143 88.884 109.127 89.262 109.871 90.018C110.627 90.762 111.005 91.806 111.005 93.15V99H108.485V93.492C108.485 92.712 108.287 92.118 107.891 91.71C107.495 91.29 106.955 91.08 106.271 91.08C105.587 91.08 105.041 91.29 104.633 91.71C104.237 92.118 104.039 92.712 104.039 93.492V99H101.519V93.492C101.519 92.712 101.321 92.118 100.925 91.71C100.529 91.29 99.989 91.08 99.305 91.08C98.609 91.08 98.057 91.29 97.649 91.71C97.253 92.118 97.055 92.712 97.055 93.492V99H94.535V89.028H97.055V90.234C97.379 89.814 97.793 89.484 98.297 89.244C98.813 89.004 99.377 88.884 99.989 88.884C100.769 88.884 101.465 89.052 102.077 89.388C102.689 89.712 103.163 90.18 103.499 90.792C103.823 90.216 104.291 89.754 104.903 89.406C105.527 89.058 106.199 88.884 106.919 88.884Z" fill="white"/>
</svg>
