<svg width="44" height="44" viewBox="0 0 44 44" fill="none" xmlns="http://www.w3.org/2000/svg">
<path d="M23.4534 7.13818V10.0742C23.4534 12.056 19.0479 12.8634 19.0479 13.9644V25.274M35.2014 7.13818V10.0742C35.2014 12.056 39.6069 12.8634 39.6069 13.9644V32.8282C39.6069 33.6356 38.9461 34.2962 38.1384 34.2962H25.9037" stroke="#E6570B" stroke-width="2" stroke-miterlimit="10" stroke-linecap="round" stroke-linejoin="round"/>
<path d="M22.5723 11.5415H36.1559" stroke="#E6570B" stroke-width="2" stroke-miterlimit="10" stroke-linecap="round" stroke-linejoin="round"/>
<path d="M30.7961 7.13801H21.9851C21.1774 7.13801 20.5166 6.4774 20.5166 5.67V3.468C20.5166 2.6606 21.1774 2 21.9851 2H36.6701C37.4778 2 38.1386 2.6606 38.1386 3.468V5.67C38.1386 6.4774 37.4778 7.13801 36.6701 7.13801H35.2016" stroke="#E6570B" stroke-width="2" stroke-miterlimit="10" stroke-linecap="round" stroke-linejoin="round"/>
<path d="M13.5453 36.1277C8.25866 36.1277 4 34.2927 4 32.0907C4 29.8887 8.25866 28.0537 13.5453 28.0537C18.8319 28.0537 23.0905 29.8887 23.0905 32.0907C23.0905 33.7055 20.8144 35.1001 17.5837 35.7607" stroke="#E6570B" stroke-width="2" stroke-miterlimit="10" stroke-linecap="round" stroke-linejoin="round"/>
<path d="M4 32.458V37.8162C4 40.0182 8.25866 42 13.5453 42C18.8319 42 23.0905 40.0182 23.0905 37.8162V32.458" stroke="#E6570B" stroke-width="2" stroke-miterlimit="10" stroke-linecap="round" stroke-linejoin="round"/>
<path d="M10.168 28.3472L17.5839 35.7606" stroke="#E6570B" stroke-width="2" stroke-miterlimit="10" stroke-linecap="round" stroke-linejoin="round"/>
</svg>
