<svg width="35" height="34" viewBox="0 0 35 34" fill="none" xmlns="http://www.w3.org/2000/svg">
<path d="M28.7652 11.717C28.7833 11.97 28.7833 12.2232 28.7833 12.4762C28.7833 20.1948 22.9085 29.0885 12.171 29.0885C8.863 29.0885 5.79002 28.1304 3.20508 26.4674C3.67508 26.5216 4.12695 26.5397 4.61504 26.5397C7.34454 26.5397 9.8572 25.6178 11.8637 24.0452C9.29684 23.9909 7.14573 22.3098 6.40458 19.996C6.76614 20.0502 7.12765 20.0864 7.50729 20.0864C8.03149 20.0864 8.55575 20.014 9.04378 19.8876C6.36847 19.3452 4.36192 16.9953 4.36192 14.1573V14.085C5.13918 14.5189 6.04308 14.79 7.00106 14.8261C5.42841 13.7777 4.39809 11.9881 4.39809 9.96355C4.39809 8.87899 4.68726 7.88478 5.19343 7.01711C8.0676 10.5601 12.3879 12.8738 17.2323 13.1269C17.142 12.6931 17.0877 12.2412 17.0877 11.7893C17.0877 8.57168 19.6908 5.95062 22.9264 5.95062C24.6075 5.95062 26.1259 6.6556 27.1925 7.79442C28.512 7.54136 29.7774 7.05327 30.8981 6.38446C30.4643 7.74022 29.5424 8.87904 28.3313 9.60205C29.5063 9.47558 30.6451 9.15013 31.6935 8.69826C30.8983 9.85511 29.904 10.8854 28.7652 11.717Z" fill="#FFDD99"/>
</svg>
