<svg width="32" height="32" viewBox="0 0 32 32" fill="none" xmlns="http://www.w3.org/2000/svg">
<path d="M26.9671 10.8156C26.9843 11.0562 26.9843 11.2968 26.9843 11.5374C26.9843 18.8755 21.3991 27.3307 11.1909 27.3307C8.046 27.3307 5.12451 26.4199 2.66699 24.8389C3.11383 24.8904 3.54342 24.9076 4.00745 24.9076C6.60239 24.9076 8.9912 24.0312 10.8988 22.5361C8.45845 22.4845 6.41339 20.8863 5.70878 18.6865C6.05251 18.738 6.39619 18.7724 6.75712 18.7724C7.25548 18.7724 7.75389 18.7037 8.21787 18.5834C5.67444 18.0678 3.76681 15.8337 3.76681 13.1356V13.0669C4.50575 13.4794 5.36509 13.7371 6.27585 13.7715C4.78072 12.7747 3.80119 11.0734 3.80119 9.14861C3.80119 8.1175 4.07611 7.17231 4.55733 6.34741C7.28981 9.71573 11.3971 11.9154 16.0028 12.1561C15.9169 11.7436 15.8653 11.314 15.8653 10.8844C15.8653 7.82534 18.34 5.3335 21.4162 5.3335C23.0144 5.3335 24.4579 6.00372 25.4719 7.0864C26.7264 6.84582 27.9294 6.38179 28.9949 5.74595C28.5824 7.03488 27.706 8.11756 26.5546 8.80492C27.6716 8.68468 28.7543 8.37528 29.751 7.94569C28.995 9.04551 28.0498 10.025 26.9671 10.8156Z" fill="white"/>
</svg>
