<svg width="102" height="32" viewBox="0 0 102 32" fill="none" xmlns="http://www.w3.org/2000/svg">
<path d="M5.05469 20.9219L8.04688 11.625H10.2109L6.13281 23H4.67188L5.05469 20.9219ZM2.28906 11.625L5.25781 20.9219L5.66406 23H4.19531L0.132812 11.625H2.28906ZM15.1797 23.1562C14.5547 23.1562 13.9896 23.0547 13.4844 22.8516C12.9844 22.6432 12.5573 22.3542 12.2031 21.9844C11.8542 21.6146 11.5859 21.1797 11.3984 20.6797C11.2109 20.1797 11.1172 19.6406 11.1172 19.0625V18.75C11.1172 18.0885 11.2135 17.4896 11.4062 16.9531C11.599 16.4167 11.8672 15.9583 12.2109 15.5781C12.5547 15.1927 12.9609 14.8984 13.4297 14.6953C13.8984 14.4922 14.4062 14.3906 14.9531 14.3906C15.5573 14.3906 16.0859 14.4922 16.5391 14.6953C16.9922 14.8984 17.3672 15.1849 17.6641 15.5547C17.9661 15.9193 18.1901 16.3542 18.3359 16.8594C18.487 17.3646 18.5625 17.9219 18.5625 18.5312V19.3359H12.0312V17.9844H16.7031V17.8359C16.6927 17.4974 16.625 17.1797 16.5 16.8828C16.3802 16.5859 16.1953 16.3464 15.9453 16.1641C15.6953 15.9818 15.362 15.8906 14.9453 15.8906C14.6328 15.8906 14.3542 15.9583 14.1094 16.0938C13.8698 16.224 13.6693 16.4141 13.5078 16.6641C13.3464 16.9141 13.2214 17.2161 13.1328 17.5703C13.0495 17.9193 13.0078 18.3125 13.0078 18.75V19.0625C13.0078 19.4323 13.0573 19.776 13.1562 20.0938C13.2604 20.4062 13.4115 20.6797 13.6094 20.9141C13.8073 21.1484 14.0469 21.3333 14.3281 21.4688C14.6094 21.599 14.9297 21.6641 15.2891 21.6641C15.7422 21.6641 16.1458 21.5729 16.5 21.3906C16.8542 21.2083 17.1615 20.9505 17.4219 20.6172L18.4141 21.5781C18.2318 21.8438 17.9948 22.099 17.7031 22.3438C17.4115 22.5833 17.0547 22.7786 16.6328 22.9297C16.2161 23.0807 15.7318 23.1562 15.1797 23.1562ZM22.4219 16.1562V23H20.5391V14.5469H22.3359L22.4219 16.1562ZM25.0078 14.4922L24.9922 16.2422C24.8776 16.2214 24.7526 16.2057 24.6172 16.1953C24.487 16.1849 24.3568 16.1797 24.2266 16.1797C23.9036 16.1797 23.6198 16.2266 23.375 16.3203C23.1302 16.4089 22.9245 16.5391 22.7578 16.7109C22.5964 16.8776 22.4714 17.0807 22.3828 17.3203C22.2943 17.5599 22.2422 17.8281 22.2266 18.125L21.7969 18.1562C21.7969 17.625 21.849 17.1328 21.9531 16.6797C22.0573 16.2266 22.2135 15.8281 22.4219 15.4844C22.6354 15.1406 22.901 14.8724 23.2188 14.6797C23.5417 14.487 23.9141 14.3906 24.3359 14.3906C24.4505 14.3906 24.5729 14.401 24.7031 14.4219C24.8385 14.4427 24.9401 14.4661 25.0078 14.4922ZM33.0547 16.2656V23H31.1719V14.5469H32.9453L33.0547 16.2656ZM32.75 18.4609L32.1094 18.4531C32.1094 17.8698 32.1823 17.3307 32.3281 16.8359C32.474 16.3411 32.6875 15.9115 32.9688 15.5469C33.25 15.1771 33.599 14.8932 34.0156 14.6953C34.4375 14.4922 34.9245 14.3906 35.4766 14.3906C35.862 14.3906 36.2135 14.4479 36.5312 14.5625C36.8542 14.6719 37.1328 14.8464 37.3672 15.0859C37.6068 15.3255 37.7891 15.6328 37.9141 16.0078C38.0443 16.3828 38.1094 16.8359 38.1094 17.3672V23H36.2266V17.5312C36.2266 17.1198 36.1641 16.7969 36.0391 16.5625C35.9193 16.3281 35.7448 16.1615 35.5156 16.0625C35.2917 15.9583 35.0234 15.9062 34.7109 15.9062C34.3568 15.9062 34.0547 15.974 33.8047 16.1094C33.5599 16.2448 33.3594 16.4297 33.2031 16.6641C33.0469 16.8984 32.9323 17.1693 32.8594 17.4766C32.7865 17.7839 32.75 18.112 32.75 18.4609ZM37.9922 17.9609L37.1094 18.1562C37.1094 17.6458 37.1797 17.1641 37.3203 16.7109C37.4661 16.2526 37.6771 15.8516 37.9531 15.5078C38.2344 15.1589 38.5807 14.8854 38.9922 14.6875C39.4036 14.4896 39.875 14.3906 40.4062 14.3906C40.8385 14.3906 41.224 14.4505 41.5625 14.5703C41.9062 14.6849 42.1979 14.8672 42.4375 15.1172C42.6771 15.3672 42.8594 15.6927 42.9844 16.0938C43.1094 16.4896 43.1719 16.9688 43.1719 17.5312V23H41.2812V17.5234C41.2812 17.0964 41.2188 16.7656 41.0938 16.5312C40.974 16.2969 40.8021 16.1354 40.5781 16.0469C40.3542 15.9531 40.0859 15.9062 39.7734 15.9062C39.4818 15.9062 39.224 15.9609 39 16.0703C38.7812 16.1745 38.5964 16.3229 38.4453 16.5156C38.2943 16.7031 38.1797 16.9193 38.1016 17.1641C38.0286 17.4089 37.9922 17.6745 37.9922 17.9609ZM50.375 21.3047V17.2734C50.375 16.9714 50.3203 16.7109 50.2109 16.4922C50.1016 16.2734 49.9349 16.1042 49.7109 15.9844C49.4922 15.8646 49.2161 15.8047 48.8828 15.8047C48.5755 15.8047 48.3099 15.8568 48.0859 15.9609C47.862 16.0651 47.6875 16.2057 47.5625 16.3828C47.4375 16.5599 47.375 16.7604 47.375 16.9844H45.5C45.5 16.651 45.5807 16.3281 45.7422 16.0156C45.9036 15.7031 46.138 15.4245 46.4453 15.1797C46.7526 14.9349 47.1198 14.7422 47.5469 14.6016C47.974 14.4609 48.4531 14.3906 48.9844 14.3906C49.6198 14.3906 50.1823 14.4974 50.6719 14.7109C51.1667 14.9245 51.5547 15.2474 51.8359 15.6797C52.1224 16.1068 52.2656 16.6432 52.2656 17.2891V21.0469C52.2656 21.4323 52.2917 21.7786 52.3438 22.0859C52.401 22.388 52.4818 22.651 52.5859 22.875V23H50.6562C50.5677 22.7969 50.4974 22.5391 50.4453 22.2266C50.3984 21.9089 50.375 21.6016 50.375 21.3047ZM50.6484 17.8594L50.6641 19.0234H49.3125C48.9635 19.0234 48.6562 19.0573 48.3906 19.125C48.125 19.1875 47.9036 19.2812 47.7266 19.4062C47.5495 19.5312 47.4167 19.6823 47.3281 19.8594C47.2396 20.0365 47.1953 20.237 47.1953 20.4609C47.1953 20.6849 47.2474 20.8906 47.3516 21.0781C47.4557 21.2604 47.6068 21.4036 47.8047 21.5078C48.0078 21.612 48.2526 21.6641 48.5391 21.6641C48.9245 21.6641 49.2604 21.5859 49.5469 21.4297C49.8385 21.2682 50.0677 21.0729 50.2344 20.8438C50.401 20.6094 50.4896 20.388 50.5 20.1797L51.1094 21.0156C51.0469 21.2292 50.9401 21.4583 50.7891 21.7031C50.638 21.9479 50.4401 22.1823 50.1953 22.4062C49.9557 22.625 49.6667 22.8047 49.3281 22.9453C48.9948 23.0859 48.6094 23.1562 48.1719 23.1562C47.6198 23.1562 47.1276 23.0469 46.6953 22.8281C46.263 22.6042 45.9245 22.3047 45.6797 21.9297C45.4349 21.5495 45.3125 21.1198 45.3125 20.6406C45.3125 20.1927 45.3958 19.7969 45.5625 19.4531C45.7344 19.1042 45.9844 18.8125 46.3125 18.5781C46.6458 18.3438 47.0521 18.1667 47.5312 18.0469C48.0104 17.9219 48.5573 17.8594 49.1719 17.8594H50.6484ZM48.1094 13.3516L49.6328 11H51.7578L49.6328 13.3516H48.1094ZM59.4766 20.7109C59.4766 20.5234 59.4297 20.3542 59.3359 20.2031C59.2422 20.0469 59.0625 19.9062 58.7969 19.7812C58.5365 19.6562 58.151 19.5417 57.6406 19.4375C57.1927 19.3385 56.7812 19.2214 56.4062 19.0859C56.0365 18.9453 55.7188 18.776 55.4531 18.5781C55.1875 18.3802 54.9818 18.1458 54.8359 17.875C54.6901 17.6042 54.6172 17.2917 54.6172 16.9375C54.6172 16.5938 54.6927 16.2682 54.8438 15.9609C54.9948 15.6536 55.2109 15.3828 55.4922 15.1484C55.7734 14.9141 56.1146 14.7292 56.5156 14.5938C56.9219 14.4583 57.375 14.3906 57.875 14.3906C58.5833 14.3906 59.1901 14.5104 59.6953 14.75C60.2057 14.9844 60.5964 15.3047 60.8672 15.7109C61.138 16.112 61.2734 16.5651 61.2734 17.0703H59.3906C59.3906 16.8464 59.3333 16.638 59.2188 16.4453C59.1094 16.2474 58.9427 16.0885 58.7188 15.9688C58.4948 15.8438 58.2135 15.7812 57.875 15.7812C57.5521 15.7812 57.2839 15.8333 57.0703 15.9375C56.862 16.0365 56.7057 16.1667 56.6016 16.3281C56.5026 16.4896 56.4531 16.6667 56.4531 16.8594C56.4531 17 56.4792 17.1276 56.5312 17.2422C56.5885 17.3516 56.6823 17.4531 56.8125 17.5469C56.9427 17.6354 57.1198 17.7188 57.3438 17.7969C57.5729 17.875 57.8594 17.9505 58.2031 18.0234C58.849 18.1589 59.4036 18.3333 59.8672 18.5469C60.3359 18.7552 60.6953 19.026 60.9453 19.3594C61.1953 19.6875 61.3203 20.1042 61.3203 20.6094C61.3203 20.9844 61.2396 21.3281 61.0781 21.6406C60.9219 21.9479 60.6927 22.2161 60.3906 22.4453C60.0885 22.6693 59.7266 22.8438 59.3047 22.9688C58.888 23.0938 58.4193 23.1562 57.8984 23.1562C57.1328 23.1562 56.4844 23.0208 55.9531 22.75C55.4219 22.474 55.0182 22.1224 54.7422 21.6953C54.4714 21.263 54.3359 20.8151 54.3359 20.3516H56.1562C56.1771 20.7005 56.2734 20.9792 56.4453 21.1875C56.6224 21.3906 56.8411 21.5391 57.1016 21.6328C57.3672 21.7214 57.6406 21.7656 57.9219 21.7656C58.2604 21.7656 58.5443 21.7214 58.7734 21.6328C59.0026 21.5391 59.1771 21.4141 59.2969 21.2578C59.4167 21.0964 59.4766 20.9141 59.4766 20.7109Z" fill="#E6570B"/>
<rect x="70" width="32" height="32" rx="16" fill="#E6570B"/>
<mask id="mask0_131_2350" style="mask-type:alpha" maskUnits="userSpaceOnUse" x="74" y="4" width="24" height="24">
<rect x="74" y="4" width="24" height="24" fill="#D9D9D9"/>
</mask>
<g mask="url(#mask0_131_2350)">
<path d="M81.1504 25.1C80.9004 24.85 80.7754 24.554 80.7754 24.212C80.7754 23.8707 80.9004 23.575 81.1504 23.325L88.4754 16L81.1254 8.65C80.8921 8.41667 80.7754 8.125 80.7754 7.775C80.7754 7.425 80.9004 7.125 81.1504 6.875C81.4004 6.625 81.6964 6.5 82.0384 6.5C82.3797 6.5 82.6754 6.625 82.9254 6.875L91.3254 15.3C91.4254 15.4 91.4964 15.5083 91.5384 15.625C91.5797 15.7417 91.6004 15.8667 91.6004 16C91.6004 16.1333 91.5797 16.2583 91.5384 16.375C91.4964 16.4917 91.4254 16.6 91.3254 16.7L82.9004 25.125C82.6671 25.3583 82.3797 25.475 82.0384 25.475C81.6964 25.475 81.4004 25.35 81.1504 25.1Z" fill="white"/>
</g>
</svg>
