<svg width="34" height="26" viewBox="0 0 34 26" fill="none" xmlns="http://www.w3.org/2000/svg">
<path d="M21.5005 14.023L21.5005 14.0229L21.4942 14.0269L15.4925 17.8753C15.4921 17.8756 15.4917 17.8758 15.4913 17.8761C15.0802 18.1325 14.6716 18.1463 14.2295 17.9122C14.0026 17.7921 13.8445 17.6454 13.7418 17.4763C13.6393 17.3075 13.5833 17.1018 13.5833 16.8498V9.14984C13.5833 8.89787 13.6393 8.6922 13.7418 8.52333C13.8445 8.35429 14.0026 8.20756 14.2295 8.08745C14.6716 7.85339 15.0802 7.86714 15.4913 8.12358C15.4917 8.12384 15.4921 8.12409 15.4925 8.12434L21.4942 11.9728L21.4942 11.9729L21.5005 11.9767C21.8809 12.2049 22.0667 12.5345 22.0667 12.9998C22.0667 13.4651 21.8809 13.7947 21.5005 14.023ZM1.52542 1.1923L1.5258 1.19192C2.04004 0.676568 2.68485 0.416504 3.47917 0.416504H30.5208C31.3152 0.416504 31.9607 0.676577 32.4762 1.19211C32.9904 1.70632 33.25 2.35118 33.25 3.14567V22.854C33.25 23.6484 32.9905 24.2939 32.4762 24.8094C31.9608 25.3237 31.3152 25.5832 30.5208 25.5832H3.47917C2.68468 25.5832 2.03981 25.3236 1.52561 24.8094C1.01007 24.2939 0.75 23.6483 0.75 22.854V3.14567C0.75 2.35135 1.01006 1.70655 1.52542 1.1923ZM3.47917 24.2498H30.5208C30.9152 24.2498 31.2564 24.122 31.5226 23.8558C31.7888 23.5896 31.9167 23.2483 31.9167 22.854V3.14567C31.9167 2.75133 31.7888 2.41008 31.5226 2.14389C31.2564 1.8777 30.9152 1.74984 30.5208 1.74984H3.47917C3.08483 1.74984 2.74358 1.8777 2.47739 2.14389C2.2112 2.41008 2.08333 2.75133 2.08333 3.14567V22.854C2.08333 23.2483 2.2112 23.5896 2.47739 23.8558C2.74358 24.122 3.08483 24.2498 3.47917 24.2498Z" fill="#E6570B" stroke="#E6570B" stroke-width="0.5"/>
</svg>
