<svg width="96" height="96" viewBox="0 0 96 96" fill="none" xmlns="http://www.w3.org/2000/svg">
<path d="M48.8389 74.5615C63.5133 74.5615 75.4092 62.6696 75.4092 48.0002C75.4092 33.3308 63.5133 21.439 48.8389 21.439C34.1645 21.439 22.2686 33.3308 22.2686 48.0002C22.2686 62.6696 34.1645 74.5615 48.8389 74.5615Z" stroke="#E6570B" stroke-width="6" stroke-miterlimit="10" stroke-linecap="round" stroke-linejoin="round"/>
<path d="M48.8389 21.4388V11.9526" stroke="#E6570B" stroke-width="6" stroke-miterlimit="10" stroke-linecap="round" stroke-linejoin="round"/>
<path d="M35.5533 25.0436L30.8086 16.6958" stroke="#E6570B" stroke-width="6" stroke-miterlimit="10" stroke-linecap="round" stroke-linejoin="round"/>
<path d="M22.2687 48H12.7793" stroke="#E6570B" stroke-width="6" stroke-miterlimit="10" stroke-linecap="round" stroke-linejoin="round"/>
<path d="M35.5533 70.9565L30.8086 79.3044" stroke="#E6570B" stroke-width="6" stroke-miterlimit="10" stroke-linecap="round" stroke-linejoin="round"/>
<path d="M62.124 70.9565L66.8687 79.3044" stroke="#E6570B" stroke-width="6" stroke-miterlimit="10" stroke-linecap="round" stroke-linejoin="round"/>
<path d="M75.4092 48H84.8986" stroke="#E6570B" stroke-width="6" stroke-miterlimit="10" stroke-linecap="round" stroke-linejoin="round"/>
<path d="M62.124 25.0436L66.8687 16.6958" stroke="#E6570B" stroke-width="6" stroke-miterlimit="10" stroke-linecap="round" stroke-linejoin="round"/>
<path d="M54.5325 61.2809C57.677 61.2809 60.2262 58.7326 60.2262 55.5892C60.2262 52.4457 57.677 49.8975 54.5325 49.8975C51.388 49.8975 48.8389 52.4457 48.8389 55.5892C48.8389 58.7326 51.388 61.2809 54.5325 61.2809Z" stroke="#E6570B" stroke-width="6" stroke-miterlimit="10" stroke-linecap="round" stroke-linejoin="round"/>
<path d="M48.8387 11.9527C50.9351 11.9527 52.6345 10.2539 52.6345 8.15824C52.6345 6.06261 50.9351 4.36377 48.8387 4.36377C46.7424 4.36377 45.043 6.06261 45.043 8.15824C45.043 10.2539 46.7424 11.9527 48.8387 11.9527Z" stroke="#E6570B" stroke-width="6" stroke-miterlimit="10" stroke-linecap="round" stroke-linejoin="round"/>
<path d="M25.8748 34.7196L17.7139 29.9766" stroke="#E6570B" stroke-width="6" stroke-miterlimit="10" stroke-linecap="round" stroke-linejoin="round"/>
<path d="M16.5749 24.8536C18.283 25.9919 19.0422 28.2686 17.9034 29.9761C16.9545 31.8734 14.4872 32.4425 12.7791 31.3042C11.071 30.1658 10.3119 27.8892 11.4506 26.1817C12.3996 24.2844 14.677 23.7153 16.5749 24.8536Z" stroke="#E6570B" stroke-width="6" stroke-miterlimit="10" stroke-linecap="round" stroke-linejoin="round"/>
<path d="M26.0642 61.2808L17.9033 66.0238" stroke="#E6570B" stroke-width="6" stroke-miterlimit="10" stroke-linecap="round" stroke-linejoin="round"/>
<path d="M12.7791 64.6956C14.4872 63.5572 16.9545 64.3161 17.9034 66.0237C18.8524 67.9209 18.283 70.1975 16.5749 71.1461C14.8668 72.2845 12.3996 71.5256 11.4506 69.8181C10.3119 67.9209 11.071 65.6442 12.7791 64.6956Z" stroke="#E6570B" stroke-width="6" stroke-miterlimit="10" stroke-linecap="round" stroke-linejoin="round"/>
<path d="M48.8389 74.5615V84.0477" stroke="#E6570B" stroke-width="6" stroke-miterlimit="10" stroke-linecap="round" stroke-linejoin="round"/>
<path d="M48.8387 91.6368C50.9351 91.6368 52.6345 89.9379 52.6345 87.8423C52.6345 85.7467 50.9351 84.0479 48.8387 84.0479C46.7424 84.0479 45.043 85.7467 45.043 87.8423C45.043 89.9379 46.7424 91.6368 48.8387 91.6368Z" stroke="#E6570B" stroke-width="6" stroke-miterlimit="10" stroke-linecap="round" stroke-linejoin="round"/>
<path d="M71.6133 61.2808L79.7742 66.0238" stroke="#E6570B" stroke-width="6" stroke-miterlimit="10" stroke-linecap="round" stroke-linejoin="round"/>
<path d="M81.1033 71.1465C79.3953 70.0081 78.6361 67.7315 79.7749 66.024C80.7238 64.1267 83.191 63.5575 84.8991 64.6959C86.6072 65.8342 87.3664 68.1109 86.2277 69.8184C85.2787 71.7157 83.0012 72.2848 81.1033 71.1465Z" stroke="#E6570B" stroke-width="6" stroke-miterlimit="10" stroke-linecap="round" stroke-linejoin="round"/>
<path d="M71.6133 34.7196L79.7742 29.9766" stroke="#E6570B" stroke-width="6" stroke-miterlimit="10" stroke-linecap="round" stroke-linejoin="round"/>
<path d="M84.8988 31.3043C83.1907 32.4427 80.7235 31.6838 79.7745 29.9763C78.8256 28.0791 79.3949 25.8024 81.103 24.8538C82.8111 23.7154 85.2784 24.4743 86.2273 26.1819C87.366 28.0791 86.7967 30.3557 84.8988 31.3043Z" stroke="#E6570B" stroke-width="6" stroke-miterlimit="10" stroke-linecap="round" stroke-linejoin="round"/>
<path d="M64.0219 44.2056C65.0701 44.2056 65.9198 43.3562 65.9198 42.3084C65.9198 41.2606 65.0701 40.4111 64.0219 40.4111C62.9737 40.4111 62.124 41.2606 62.124 42.3084C62.124 43.3562 62.9737 44.2056 64.0219 44.2056Z" fill="#E6570B"/>
<path d="M43.353 34.7193C44.4011 34.7193 45.2508 33.8699 45.2508 32.822C45.2508 31.7742 44.4011 30.9248 43.353 30.9248C42.3048 30.9248 41.4551 31.7742 41.4551 32.822C41.4551 33.8699 42.3048 34.7193 43.353 34.7193Z" fill="#E6570B"/>
<path d="M37.4516 59.3838C38.4998 59.3838 39.3495 58.5344 39.3495 57.4866C39.3495 56.4388 38.4998 55.5894 37.4516 55.5894C36.4034 55.5894 35.5537 56.4388 35.5537 57.4866C35.5537 58.5344 36.4034 59.3838 37.4516 59.3838Z" fill="#E6570B"/>
</svg>
