<svg width="101" height="88" viewBox="0 0 101 88" fill="none" xmlns="http://www.w3.org/2000/svg">
<path d="M97.5071 85.8594H2.73047V86.668H97.5071V85.8594Z" fill="#C4D4CF"/>
<path d="M22.988 66.8321L37.7385 26.1143H29.6927L19.2046 55.0829L8.95587 26.1143H0.910156L15.4691 66.8321H22.988Z" fill="#C4D4CF"/>
<path d="M47.2689 29.444C46.4069 28.5878 45.3533 28.1597 44.156 28.1597C42.9108 28.1597 41.9051 28.5878 41.0431 29.444C40.181 30.3002 39.75 31.3467 39.75 32.5359C39.75 33.8202 40.181 34.8667 41.0431 35.7229C41.9051 36.5791 42.9587 37.0548 44.2039 37.0548C45.4012 37.0548 46.4548 36.6267 47.2689 35.7705C48.0831 34.9143 48.562 33.8678 48.562 32.631C48.562 31.3467 48.131 30.2526 47.2689 29.444Z" fill="#C4D4CF"/>
<path d="M47.5555 39.4331H40.6113V66.9272H47.5555V39.4331Z" fill="#C4D4CF"/>
<path d="M59.0013 29.444C58.1393 28.5878 57.0857 28.1597 55.8884 28.1597C54.6432 28.1597 53.6375 28.5878 52.7755 29.444C51.9134 30.3002 51.4824 31.3467 51.4824 32.5359C51.4824 33.8202 51.9134 34.8667 52.7755 35.7229C53.6375 36.5791 54.6911 37.0548 55.9363 37.0548C57.1336 37.0548 58.1872 36.6267 59.0013 35.7705C59.8155 34.9143 60.2944 33.8678 60.2944 32.631C60.2465 31.3467 59.8155 30.2526 59.0013 29.444Z" fill="#C4D4CF"/>
<path d="M59.3368 39.4331H52.3926V66.9272H59.3368V39.4331Z" fill="#C4D4CF"/>
<path d="M70.8797 26.1143H62.834L77.345 66.8321H84.8639L99.6623 26.1143H91.6166L81.1763 55.0829L70.8797 26.1143Z" fill="#C4D4CF"/>
<path d="M60.7268 6.7068C69.443 10.5122 76.5787 19.2171 77.1534 31.2517H81.751C81.2242 15.8873 71.2149 7.46788 62.0198 4.04302C44.5396 -2.52131 22.1265 8.03869 21.5039 31.2517H22.1265C23.0364 8.1814 45.6889 0.142477 60.7268 6.7068Z" fill="#C4D4CF"/>
<path d="M4.98135 77.4396H8.90843V82.5293H11.1593V70.9229H8.90843V75.2991H4.98135V70.9229H2.73047V82.5293H4.98135V77.4396Z" fill="#C4D4CF"/>
<path d="M22.7478 78.486C22.7478 77.059 22.3167 75.9174 21.4547 75.0612C20.5927 74.205 19.4912 73.7769 18.1502 73.7769C16.8571 73.7769 15.8035 74.205 14.9415 75.0612C14.0795 75.9174 13.6484 77.0114 13.6484 78.3433C13.6484 79.6277 14.0795 80.6741 14.9415 81.5304C15.8035 82.3866 16.905 82.8147 18.246 82.8147C19.108 82.8147 19.8743 82.672 20.4969 82.339C21.1195 82.006 21.6942 81.5304 22.1731 80.912L20.3532 80.0558C19.7785 80.6266 19.0601 80.912 18.246 80.912C17.5276 80.912 17.0008 80.7217 16.5219 80.3887C16.0909 80.0082 15.8035 79.5325 15.7078 78.9617H22.652L22.7478 78.486ZM15.8514 77.1541C16.043 76.6309 16.3303 76.2979 16.6656 76.0601C17.1445 75.7271 17.6713 75.5844 18.2939 75.5844C18.8686 75.5844 19.2996 75.7271 19.7785 76.0601C20.2095 76.3931 20.4969 76.7736 20.6405 77.1541H15.8514Z" fill="#C4D4CF"/>
<path d="M33.9556 82.5295V73.9673H31.8005V74.9187C31.4174 74.5381 30.9864 74.2052 30.5075 74.0625C30.0286 73.8722 29.5497 73.7295 29.0707 73.7295C27.9693 73.7295 26.9635 74.1576 26.1973 75.0138C25.431 75.87 25 76.9641 25 78.2484C25 79.5327 25.431 80.5792 26.2452 81.4354C27.0593 82.2917 28.0171 82.7198 29.1186 82.7198C29.5976 82.7198 30.0765 82.6722 30.5075 82.4344C30.9385 82.2441 31.3695 81.9587 31.8005 81.5781V82.4819L33.9556 82.5295ZM31.2258 80.1035C30.7469 80.5792 30.2201 80.8646 29.5018 80.8646C28.8792 80.8646 28.2566 80.6744 27.8256 80.1035C27.3467 79.6279 27.1072 79.0095 27.1072 78.296C27.1072 77.5825 27.2988 76.9641 27.7298 76.4884C28.2087 76.0127 28.7355 75.7273 29.406 75.7273C30.1244 75.7273 30.699 75.9176 31.1301 76.4408C31.609 76.9165 31.8484 77.4873 31.8484 78.2484C31.8484 79.0095 31.6569 79.5803 31.2258 80.1035Z" fill="#C4D4CF"/>
<path d="M39.1278 70.6851H36.9727V82.577H39.1278V70.6851Z" fill="#C4D4CF"/>
<path d="M45.4011 82.5295V75.8224H46.6942V73.9673H45.4011V70.7803H43.1981V73.9673H42.1445V75.8224H43.1981V82.5295H45.4011Z" fill="#C4D4CF"/>
<path d="M57.2778 82.5296V76.8215C57.2778 75.8226 56.9905 75.0615 56.5116 74.5858C55.9369 74.015 55.2185 73.7296 54.3565 73.7296C53.9254 73.7296 53.4944 73.7772 53.0634 74.015C52.6324 74.2528 52.2014 74.4907 51.7703 74.8236V70.6377H49.6152V82.5296H51.7703V79.1047C51.7703 78.2009 51.8182 77.5826 51.8182 77.3447C51.914 76.869 52.1535 76.4885 52.4408 76.1555C52.7761 75.8226 53.1592 75.7274 53.5423 75.7274C53.8775 75.7274 54.117 75.775 54.4043 76.0128C54.5959 76.2031 54.7875 76.4409 54.8833 76.8215C54.9312 77.1545 55.0269 77.8204 55.0269 78.8193V82.5772L57.2778 82.5296Z" fill="#C4D4CF"/>
<path d="M64.4612 75.775C64.9401 75.775 65.3232 75.8225 65.5626 75.9652C65.8979 76.108 66.1852 76.3458 66.5684 76.7263L68.3882 75.7274C67.9572 75.1566 67.3825 74.6334 66.6641 74.3004C65.9458 73.9674 65.2274 73.8247 64.3654 73.8247C63.4554 73.8247 62.5934 74.015 61.8271 74.3955C61.0609 74.7761 60.4862 75.3469 60.0552 76.0604C59.6241 76.7739 59.4805 77.4874 59.4805 78.3436C59.4805 79.5328 59.9115 80.5793 60.7735 81.4831C61.6356 82.3393 62.785 82.815 64.3654 82.815C66.0894 82.815 67.3825 82.2442 68.2924 81.0074L66.5684 79.8182C66.0416 80.4366 65.2753 80.8171 64.3175 80.8171C63.5512 80.8171 62.8807 80.6269 62.4497 80.1036C61.9708 79.6279 61.6835 79.0571 61.6835 78.2961C61.6835 77.535 61.875 76.9166 62.4497 76.4885C62.9765 76.0128 63.647 75.775 64.4612 75.775Z" fill="#C4D4CF"/>
<path d="M79.1646 82.5295V73.9673H77.0095V74.9187C76.6264 74.5381 76.1954 74.2052 75.7165 74.0625C75.2376 73.8722 74.7586 73.7295 74.2797 73.7295C73.1782 73.7295 72.1725 74.1576 71.4063 75.0138C70.5921 75.87 70.209 76.9641 70.209 78.2484C70.209 79.5327 70.64 80.5792 71.4542 81.4354C72.2683 82.2917 73.2261 82.7198 74.3276 82.7198C74.8065 82.7198 75.2854 82.6722 75.7165 82.4344C76.1475 82.2441 76.5785 81.9587 77.0095 81.5781V82.4819L79.1646 82.5295ZM76.4348 80.1035C75.9559 80.5792 75.4291 80.8646 74.7108 80.8646C74.0882 80.8646 73.4656 80.6744 73.0346 80.1035C72.5556 79.6279 72.3162 79.0095 72.3162 78.296C72.3162 77.5825 72.5078 76.9641 72.9388 76.4884C73.4177 76.0127 73.9445 75.7273 74.615 75.7273C75.3333 75.7273 75.908 75.9176 76.339 76.4408C76.818 76.9165 77.0574 77.4873 77.0574 78.2484C77.0574 79.0095 76.8659 79.5803 76.4348 80.1035Z" fill="#C4D4CF"/>
<path d="M85.6287 75.632C85.7724 75.632 86.0118 75.6796 86.2034 75.8223L86.9218 73.9671C86.5865 73.8244 86.3471 73.7769 86.0597 73.7769C85.6766 73.7769 85.2935 73.872 85.0061 74.1098C84.6709 74.3001 84.4314 74.6331 84.192 75.0612V74.0147H82.3242V82.5769H84.4793V79.152V78.7239C84.4793 77.5347 84.5751 76.726 84.8146 76.3455C85.054 75.8223 85.2935 75.632 85.6287 75.632Z" fill="#C4D4CF"/>
<path d="M92.9569 73.7769C91.6638 73.7769 90.6102 74.205 89.7481 75.0612C88.8861 75.9174 88.4551 77.0114 88.4551 78.3433C88.4551 79.6277 88.8861 80.6741 89.7481 81.5304C90.6102 82.3866 91.7117 82.8147 93.0526 82.8147C93.9147 82.8147 94.6809 82.672 95.3035 82.339C95.9261 82.006 96.5008 81.5304 96.9797 80.912L95.1598 80.0558C94.5851 80.6266 93.8668 80.912 93.0526 80.912C92.3343 80.912 91.8075 80.7217 91.3285 80.3887C90.8975 80.0082 90.6102 79.5325 90.5144 78.9617H97.6023V78.486C97.6023 77.059 97.1713 75.9174 96.3092 75.0612C95.3514 74.205 94.2978 73.7769 92.9569 73.7769ZM90.6581 77.1541C90.8496 76.6309 91.137 76.2979 91.4722 76.0601C91.9511 75.7271 92.4779 75.5844 93.1005 75.5844C93.7231 75.5844 94.1062 75.7271 94.5851 76.0601C95.0162 76.3931 95.3035 76.7736 95.4472 77.1541H90.6581Z" fill="#C4D4CF"/>
</svg>
