<svg width="264" height="159" viewBox="0 0 264 159" fill="none" xmlns="http://www.w3.org/2000/svg">
<rect width="264" height="159" rx="15" fill="#FFDD99"/>
<path d="M46 24C33.8505 24 24 33.8505 24 46C24 50.1272 25.1593 53.9751 27.1367 57.2757L24.1969 68L35.1504 65.1247C38.3538 66.9459 42.0519 68 46 68C58.1495 68 68 58.1495 68 46C68 33.8505 58.1495 24 46 24ZM38.4697 35.7376C38.8272 35.7376 39.1946 35.7355 39.5117 35.752C39.9041 35.7611 40.3311 35.7899 40.7399 36.6937C41.2257 37.768 42.2836 40.4632 42.4193 40.7363C42.5549 41.0095 42.6511 41.3313 42.4622 41.6888C42.2826 42.0555 42.1891 42.2774 41.9251 42.6019C41.652 42.9172 41.3526 43.3089 41.1051 43.5472C40.832 43.8204 40.5499 44.1199 40.8652 44.6644C41.1806 45.2089 42.2757 46.9939 43.8945 48.4349C45.9754 50.2939 47.731 50.8652 48.2773 51.1383C48.8237 51.4115 49.1401 51.3689 49.4554 51.0023C49.7799 50.6448 50.8182 49.4181 51.1849 48.8717C51.5424 48.3254 51.9073 48.4199 52.4023 48.5996C52.9047 48.7793 55.5835 50.0989 56.1299 50.3721C56.6762 50.6452 57.0344 50.7804 57.1719 51.0023C57.313 51.2314 57.3132 52.3224 56.8604 53.5947C56.4075 54.8652 54.1839 56.0938 53.1865 56.18C52.18 56.2735 51.2407 56.6324 46.6445 54.8229C41.1005 52.6394 37.6042 46.9611 37.3311 46.5944C37.0579 46.2369 35.111 43.6422 35.111 40.9655C35.111 38.2797 36.5192 36.9643 37.0124 36.418C37.5147 35.8716 38.1031 35.7376 38.4697 35.7376Z" fill="#E6570B"/>
<path d="M41.64 86.49L37.932 99H35.61L32.982 89.532L30.192 99L27.888 99.018L24.342 86.49H26.52L29.112 96.678L31.92 86.49H34.224L36.834 96.624L39.444 86.49H41.64ZM48.4624 88.92C49.2184 88.92 49.8904 89.082 50.4784 89.406C51.0784 89.73 51.5464 90.21 51.8824 90.846C52.2304 91.482 52.4044 92.25 52.4044 93.15V99H50.3704V93.456C50.3704 92.568 50.1484 91.89 49.7044 91.422C49.2604 90.942 48.6544 90.702 47.8864 90.702C47.1184 90.702 46.5064 90.942 46.0504 91.422C45.6064 91.89 45.3844 92.568 45.3844 93.456V99H43.3324V85.68H45.3844V90.234C45.7324 89.814 46.1704 89.49 46.6984 89.262C47.2384 89.034 47.8264 88.92 48.4624 88.92ZM54.3379 93.996C54.3379 93 54.5419 92.118 54.9499 91.35C55.3699 90.582 55.9339 89.988 56.6419 89.568C57.3619 89.136 58.1539 88.92 59.0179 88.92C59.7979 88.92 60.4759 89.076 61.0519 89.388C61.6399 89.688 62.1079 90.066 62.4559 90.522V89.082H64.5259V99H62.4559V97.524C62.1079 97.992 61.6339 98.382 61.0339 98.694C60.4339 99.006 59.7499 99.162 58.9819 99.162C58.1299 99.162 57.3499 98.946 56.6419 98.514C55.9339 98.07 55.3699 97.458 54.9499 96.678C54.5419 95.886 54.3379 94.992 54.3379 93.996ZM62.4559 94.032C62.4559 93.348 62.3119 92.754 62.0239 92.25C61.7479 91.746 61.3819 91.362 60.9259 91.098C60.4699 90.834 59.9779 90.702 59.4499 90.702C58.9219 90.702 58.4299 90.834 57.9739 91.098C57.5179 91.35 57.1459 91.728 56.8579 92.232C56.5819 92.724 56.4439 93.312 56.4439 93.996C56.4439 94.68 56.5819 95.28 56.8579 95.796C57.1459 96.312 57.5179 96.708 57.9739 96.984C58.4419 97.248 58.9339 97.38 59.4499 97.38C59.9779 97.38 60.4699 97.248 60.9259 96.984C61.3819 96.72 61.7479 96.336 62.0239 95.832C62.3119 95.316 62.4559 94.716 62.4559 94.032ZM69.6151 90.756V96.246C69.6151 96.618 69.6991 96.888 69.8671 97.056C70.0471 97.212 70.3471 97.29 70.7671 97.29H72.0271V99H70.4071C69.4831 99 68.7751 98.784 68.2831 98.352C67.7911 97.92 67.5451 97.218 67.5451 96.246V90.756H66.3751V89.082H67.5451V86.616H69.6151V89.082H72.0271V90.756H69.6151ZM77.5184 99.162C76.7384 99.162 76.0364 99.024 75.4124 98.748C74.8004 98.46 74.3144 98.076 73.9544 97.596C73.5944 97.104 73.4024 96.558 73.3784 95.958H75.5024C75.5384 96.378 75.7364 96.732 76.0964 97.02C76.4684 97.296 76.9304 97.434 77.4824 97.434C78.0584 97.434 78.5024 97.326 78.8144 97.11C79.1384 96.882 79.3004 96.594 79.3004 96.246C79.3004 95.874 79.1204 95.598 78.7604 95.418C78.4124 95.238 77.8544 95.04 77.0864 94.824C76.3424 94.62 75.7364 94.422 75.2684 94.23C74.8004 94.038 74.3924 93.744 74.0444 93.348C73.7084 92.952 73.5404 92.43 73.5404 91.782C73.5404 91.254 73.6964 90.774 74.0084 90.342C74.3204 89.898 74.7644 89.55 75.3404 89.298C75.9284 89.046 76.6004 88.92 77.3564 88.92C78.4844 88.92 79.3904 89.208 80.0744 89.784C80.7704 90.348 81.1424 91.122 81.1904 92.106H79.1384C79.1024 91.662 78.9224 91.308 78.5984 91.044C78.2744 90.78 77.8364 90.648 77.2844 90.648C76.7444 90.648 76.3304 90.75 76.0424 90.954C75.7544 91.158 75.6104 91.428 75.6104 91.764C75.6104 92.028 75.7064 92.25 75.8984 92.43C76.0904 92.61 76.3244 92.754 76.6004 92.862C76.8764 92.958 77.2844 93.084 77.8244 93.24C78.5444 93.432 79.1324 93.63 79.5884 93.834C80.0564 94.026 80.4584 94.314 80.7944 94.698C81.1304 95.082 81.3044 95.592 81.3164 96.228C81.3164 96.792 81.1604 97.296 80.8484 97.74C80.5364 98.184 80.0924 98.532 79.5164 98.784C78.9524 99.036 78.2864 99.162 77.5184 99.162ZM82.8496 93.996C82.8496 93 83.0536 92.118 83.4616 91.35C83.8816 90.582 84.4456 89.988 85.1536 89.568C85.8736 89.136 86.6656 88.92 87.5296 88.92C88.3096 88.92 88.9876 89.076 89.5636 89.388C90.1516 89.688 90.6196 90.066 90.9676 90.522V89.082H93.0376V99H90.9676V97.524C90.6196 97.992 90.1456 98.382 89.5456 98.694C88.9456 99.006 88.2616 99.162 87.4936 99.162C86.6416 99.162 85.8616 98.946 85.1536 98.514C84.4456 98.07 83.8816 97.458 83.4616 96.678C83.0536 95.886 82.8496 94.992 82.8496 93.996ZM90.9676 94.032C90.9676 93.348 90.8236 92.754 90.5356 92.25C90.2596 91.746 89.8936 91.362 89.4376 91.098C88.9816 90.834 88.4896 90.702 87.9616 90.702C87.4336 90.702 86.9416 90.834 86.4856 91.098C86.0296 91.35 85.6576 91.728 85.3696 92.232C85.0936 92.724 84.9556 93.312 84.9556 93.996C84.9556 94.68 85.0936 95.28 85.3696 95.796C85.6576 96.312 86.0296 96.708 86.4856 96.984C86.9536 97.248 87.4456 97.38 87.9616 97.38C88.4896 97.38 88.9816 97.248 89.4376 96.984C89.8936 96.72 90.2596 96.336 90.5356 95.832C90.8236 95.316 90.9676 94.716 90.9676 94.032ZM97.7848 90.54C98.1328 90.084 98.6068 89.7 99.2068 89.388C99.8068 89.076 100.485 88.92 101.241 88.92C102.105 88.92 102.891 89.136 103.599 89.568C104.319 89.988 104.883 90.582 105.291 91.35C105.699 92.118 105.903 93 105.903 93.996C105.903 94.992 105.699 95.886 105.291 96.678C104.883 97.458 104.319 98.07 103.599 98.514C102.891 98.946 102.105 99.162 101.241 99.162C100.485 99.162 99.8128 99.012 99.2248 98.712C98.6368 98.4 98.1568 98.016 97.7848 97.56V103.716H95.7328V89.082H97.7848V90.54ZM103.815 93.996C103.815 93.312 103.671 92.724 103.383 92.232C103.107 91.728 102.735 91.35 102.267 91.098C101.811 90.834 101.319 90.702 100.791 90.702C100.275 90.702 99.7828 90.834 99.3148 91.098C98.8588 91.362 98.4868 91.746 98.1988 92.25C97.9228 92.754 97.7848 93.348 97.7848 94.032C97.7848 94.716 97.9228 95.316 98.1988 95.832C98.4868 96.336 98.8588 96.72 99.3148 96.984C99.7828 97.248 100.275 97.38 100.791 97.38C101.319 97.38 101.811 97.248 102.267 96.984C102.735 96.708 103.107 96.312 103.383 95.796C103.671 95.28 103.815 94.68 103.815 93.996ZM109.984 90.54C110.332 90.084 110.806 89.7 111.406 89.388C112.006 89.076 112.684 88.92 113.44 88.92C114.304 88.92 115.09 89.136 115.798 89.568C116.518 89.988 117.082 90.582 117.49 91.35C117.898 92.118 118.102 93 118.102 93.996C118.102 94.992 117.898 95.886 117.49 96.678C117.082 97.458 116.518 98.07 115.798 98.514C115.09 98.946 114.304 99.162 113.44 99.162C112.684 99.162 112.012 99.012 111.424 98.712C110.836 98.4 110.356 98.016 109.984 97.56V103.716H107.932V89.082H109.984V90.54ZM116.014 93.996C116.014 93.312 115.87 92.724 115.582 92.232C115.306 91.728 114.934 91.35 114.466 91.098C114.01 90.834 113.518 90.702 112.99 90.702C112.474 90.702 111.982 90.834 111.514 91.098C111.058 91.362 110.686 91.746 110.398 92.25C110.122 92.754 109.984 93.348 109.984 94.032C109.984 94.716 110.122 95.316 110.398 95.832C110.686 96.336 111.058 96.72 111.514 96.984C111.982 97.248 112.474 97.38 112.99 97.38C113.518 97.38 114.01 97.248 114.466 96.984C114.934 96.708 115.306 96.312 115.582 95.796C115.87 95.28 116.014 94.68 116.014 93.996Z" fill="#30423C"/>
</svg>
