<svg width="264" height="159" viewBox="0 0 264 159" fill="none" xmlns="http://www.w3.org/2000/svg">
<rect width="264" height="159" rx="15" fill="#30423C"/>
<path d="M46 24C33.8505 24 24 33.8505 24 46C24 50.1272 25.1593 53.9751 27.1367 57.2757L24.1969 68L35.1504 65.1247C38.3538 66.9459 42.0519 68 46 68C58.1495 68 68 58.1495 68 46C68 33.8505 58.1495 24 46 24ZM38.4697 35.7376C38.8272 35.7376 39.1946 35.7355 39.5117 35.752C39.9041 35.7611 40.3311 35.7899 40.7399 36.6937C41.2257 37.768 42.2836 40.4632 42.4193 40.7363C42.5549 41.0095 42.6511 41.3313 42.4622 41.6888C42.2826 42.0555 42.1891 42.2774 41.9251 42.6019C41.652 42.9172 41.3526 43.3089 41.1051 43.5472C40.832 43.8204 40.5499 44.1199 40.8652 44.6644C41.1806 45.2089 42.2757 46.9939 43.8945 48.4349C45.9754 50.2939 47.731 50.8652 48.2773 51.1383C48.8237 51.4115 49.1401 51.3689 49.4554 51.0023C49.7799 50.6448 50.8182 49.4181 51.1849 48.8717C51.5424 48.3254 51.9073 48.4199 52.4023 48.5996C52.9047 48.7793 55.5835 50.0989 56.1299 50.3721C56.6762 50.6452 57.0344 50.7804 57.1719 51.0023C57.313 51.2314 57.3132 52.3224 56.8604 53.5947C56.4075 54.8652 54.1839 56.0938 53.1865 56.18C52.18 56.2735 51.2407 56.6324 46.6445 54.8229C41.1005 52.6394 37.6042 46.9611 37.3311 46.5944C37.0579 46.2369 35.111 43.6422 35.111 40.9655C35.111 38.2797 36.5192 36.9643 37.0124 36.418C37.5147 35.8716 38.1031 35.7376 38.4697 35.7376Z" fill="white"/>
<path d="M42.036 86.436L38.526 99H35.556L33.198 90.054L30.732 99L27.78 99.018L24.396 86.436H27.096L29.31 96.192L31.866 86.436H34.674L37.086 96.138L39.318 86.436H42.036ZM49.2975 88.884C50.0535 88.884 50.7255 89.052 51.3135 89.388C51.9015 89.712 52.3575 90.198 52.6815 90.846C53.0175 91.482 53.1855 92.25 53.1855 93.15V99H50.6655V93.492C50.6655 92.7 50.4675 92.094 50.0715 91.674C49.6755 91.242 49.1355 91.026 48.4515 91.026C47.7555 91.026 47.2035 91.242 46.7955 91.674C46.3995 92.094 46.2015 92.7 46.2015 93.492V99H43.6815V85.68H46.2015V90.27C46.5255 89.838 46.9575 89.502 47.4975 89.262C48.0375 89.01 48.6375 88.884 49.2975 88.884ZM54.9338 93.978C54.9338 92.97 55.1318 92.076 55.5278 91.296C55.9358 90.516 56.4818 89.916 57.1658 89.496C57.8618 89.076 58.6358 88.866 59.4878 88.866C60.2318 88.866 60.8798 89.016 61.4318 89.316C61.9958 89.616 62.4458 89.994 62.7818 90.45V89.028H65.3198V99H62.7818V97.542C62.4578 98.01 62.0078 98.4 61.4318 98.712C60.8678 99.012 60.2138 99.162 59.4698 99.162C58.6298 99.162 57.8618 98.946 57.1658 98.514C56.4818 98.082 55.9358 97.476 55.5278 96.696C55.1318 95.904 54.9338 94.998 54.9338 93.978ZM62.7818 94.014C62.7818 93.402 62.6618 92.88 62.4218 92.448C62.1818 92.004 61.8578 91.668 61.4498 91.44C61.0418 91.2 60.6038 91.08 60.1358 91.08C59.6678 91.08 59.2358 91.194 58.8398 91.422C58.4438 91.65 58.1198 91.986 57.8678 92.43C57.6278 92.862 57.5078 93.378 57.5078 93.978C57.5078 94.578 57.6278 95.106 57.8678 95.562C58.1198 96.006 58.4438 96.348 58.8398 96.588C59.2478 96.828 59.6798 96.948 60.1358 96.948C60.6038 96.948 61.0418 96.834 61.4498 96.606C61.8578 96.366 62.1818 96.03 62.4218 95.598C62.6618 95.154 62.7818 94.626 62.7818 94.014ZM70.7151 91.098V95.922C70.7151 96.258 70.7931 96.504 70.9491 96.66C71.1171 96.804 71.3931 96.876 71.7771 96.876H72.9471V99H71.3631C69.2391 99 68.1771 97.968 68.1771 95.904V91.098H66.9891V89.028H68.1771V86.562H70.7151V89.028H72.9471V91.098H70.7151ZM78.5756 99.162C77.7596 99.162 77.0276 99.018 76.3796 98.73C75.7316 98.43 75.2156 98.028 74.8316 97.524C74.4596 97.02 74.2556 96.462 74.2196 95.85H76.7576C76.8056 96.234 76.9916 96.552 77.3156 96.804C77.6516 97.056 78.0656 97.182 78.5576 97.182C79.0376 97.182 79.4096 97.086 79.6736 96.894C79.9496 96.702 80.0876 96.456 80.0876 96.156C80.0876 95.832 79.9196 95.592 79.5836 95.436C79.2596 95.268 78.7376 95.088 78.0176 94.896C77.2736 94.716 76.6616 94.53 76.1816 94.338C75.7136 94.146 75.3056 93.852 74.9576 93.456C74.6216 93.06 74.4536 92.526 74.4536 91.854C74.4536 91.302 74.6096 90.798 74.9216 90.342C75.2456 89.886 75.7016 89.526 76.2896 89.262C76.8896 88.998 77.5916 88.866 78.3956 88.866C79.5836 88.866 80.5316 89.166 81.2396 89.766C81.9476 90.354 82.3376 91.152 82.4096 92.16H79.9976C79.9616 91.764 79.7936 91.452 79.4936 91.224C79.2056 90.984 78.8156 90.864 78.3236 90.864C77.8676 90.864 77.5136 90.948 77.2616 91.116C77.0216 91.284 76.9016 91.518 76.9016 91.818C76.9016 92.154 77.0696 92.412 77.4056 92.592C77.7416 92.76 78.2636 92.934 78.9716 93.114C79.6916 93.294 80.2856 93.48 80.7536 93.672C81.2216 93.864 81.6236 94.164 81.9596 94.572C82.3076 94.968 82.4876 95.496 82.4996 96.156C82.4996 96.732 82.3376 97.248 82.0136 97.704C81.7016 98.16 81.2456 98.52 80.6456 98.784C80.0576 99.036 79.3676 99.162 78.5756 99.162ZM83.9202 93.978C83.9202 92.97 84.1182 92.076 84.5142 91.296C84.9222 90.516 85.4682 89.916 86.1522 89.496C86.8482 89.076 87.6222 88.866 88.4742 88.866C89.2182 88.866 89.8662 89.016 90.4182 89.316C90.9822 89.616 91.4322 89.994 91.7682 90.45V89.028H94.3062V99H91.7682V97.542C91.4442 98.01 90.9942 98.4 90.4182 98.712C89.8542 99.012 89.2002 99.162 88.4562 99.162C87.6162 99.162 86.8482 98.946 86.1522 98.514C85.4682 98.082 84.9222 97.476 84.5142 96.696C84.1182 95.904 83.9202 94.998 83.9202 93.978ZM91.7682 94.014C91.7682 93.402 91.6482 92.88 91.4082 92.448C91.1682 92.004 90.8442 91.668 90.4362 91.44C90.0282 91.2 89.5902 91.08 89.1222 91.08C88.6542 91.08 88.2222 91.194 87.8262 91.422C87.4302 91.65 87.1062 91.986 86.8542 92.43C86.6142 92.862 86.4942 93.378 86.4942 93.978C86.4942 94.578 86.6142 95.106 86.8542 95.562C87.1062 96.006 87.4302 96.348 87.8262 96.588C88.2342 96.828 88.6662 96.948 89.1222 96.948C89.5902 96.948 90.0282 96.834 90.4362 96.606C90.8442 96.366 91.1682 96.03 91.4082 95.598C91.6482 95.154 91.7682 94.626 91.7682 94.014ZM99.2874 90.468C99.6114 90.012 100.055 89.634 100.619 89.334C101.195 89.022 101.849 88.866 102.581 88.866C103.433 88.866 104.201 89.076 104.885 89.496C105.581 89.916 106.127 90.516 106.523 91.296C106.931 92.064 107.135 92.958 107.135 93.978C107.135 94.998 106.931 95.904 106.523 96.696C106.127 97.476 105.581 98.082 104.885 98.514C104.201 98.946 103.433 99.162 102.581 99.162C101.849 99.162 101.201 99.012 100.637 98.712C100.085 98.412 99.6354 98.034 99.2874 97.578V103.752H96.7674V89.028H99.2874V90.468ZM104.561 93.978C104.561 93.378 104.435 92.862 104.183 92.43C103.943 91.986 103.619 91.65 103.211 91.422C102.815 91.194 102.383 91.08 101.915 91.08C101.459 91.08 101.027 91.2 100.619 91.44C100.223 91.668 99.8994 92.004 99.6474 92.448C99.4074 92.892 99.2874 93.414 99.2874 94.014C99.2874 94.614 99.4074 95.136 99.6474 95.58C99.8994 96.024 100.223 96.366 100.619 96.606C101.027 96.834 101.459 96.948 101.915 96.948C102.383 96.948 102.815 96.828 103.211 96.588C103.619 96.348 103.943 96.006 104.183 95.562C104.435 95.118 104.561 94.59 104.561 93.978ZM111.487 90.468C111.811 90.012 112.255 89.634 112.819 89.334C113.395 89.022 114.049 88.866 114.781 88.866C115.633 88.866 116.401 89.076 117.085 89.496C117.781 89.916 118.327 90.516 118.723 91.296C119.131 92.064 119.335 92.958 119.335 93.978C119.335 94.998 119.131 95.904 118.723 96.696C118.327 97.476 117.781 98.082 117.085 98.514C116.401 98.946 115.633 99.162 114.781 99.162C114.049 99.162 113.401 99.012 112.837 98.712C112.285 98.412 111.835 98.034 111.487 97.578V103.752H108.967V89.028H111.487V90.468ZM116.761 93.978C116.761 93.378 116.635 92.862 116.383 92.43C116.143 91.986 115.819 91.65 115.411 91.422C115.015 91.194 114.583 91.08 114.115 91.08C113.659 91.08 113.227 91.2 112.819 91.44C112.423 91.668 112.099 92.004 111.847 92.448C111.607 92.892 111.487 93.414 111.487 94.014C111.487 94.614 111.607 95.136 111.847 95.58C112.099 96.024 112.423 96.366 112.819 96.606C113.227 96.834 113.659 96.948 114.115 96.948C114.583 96.948 115.015 96.828 115.411 96.588C115.819 96.348 116.143 96.006 116.383 95.562C116.635 95.118 116.761 94.59 116.761 93.978Z" fill="white"/>
</svg>
